%TF.GenerationSoftware,KiCad,Pcbnew,6.0.7-f9a2dced07~116~ubuntu20.04.1*%
%TF.CreationDate,2022-10-02T03:02:38-04:00*%
%TF.ProjectId,SSTC_PFC_Power_Supply,53535443-5f50-4464-935f-506f7765725f,rev?*%
%TF.SameCoordinates,Original*%
%TF.FileFunction,Profile,NP*%
%FSLAX46Y46*%
G04 Gerber Fmt 4.6, Leading zero omitted, Abs format (unit mm)*
G04 Created by KiCad (PCBNEW 6.0.7-f9a2dced07~116~ubuntu20.04.1) date 2022-10-02 03:02:38*
%MOMM*%
%LPD*%
G01*
G04 APERTURE LIST*
%TA.AperFunction,Profile*%
%ADD10C,0.100000*%
%TD*%
%TA.AperFunction,Profile*%
%ADD11C,0.050000*%
%TD*%
G04 APERTURE END LIST*
D10*
X50000000Y-130500000D02*
G75*
G03*
X54500000Y-135000000I4500000J0D01*
G01*
D11*
X86550000Y-127425000D02*
X86550000Y-133275000D01*
D10*
X54500000Y-25000000D02*
X210500000Y-25000000D01*
D11*
X80300000Y-133300000D02*
G75*
G03*
X81500000Y-133300000I600000J0D01*
G01*
X81500000Y-127450000D02*
X81500000Y-133300000D01*
D10*
X215000000Y-29500000D02*
X215000000Y-130500000D01*
D11*
X81500000Y-127450000D02*
G75*
G03*
X80300000Y-127450000I-600000J0D01*
G01*
D10*
X54500000Y-25000000D02*
G75*
G03*
X50000000Y-29500000I0J-4500000D01*
G01*
D11*
X85350000Y-127425000D02*
X85350000Y-133275000D01*
X86550000Y-127425000D02*
G75*
G03*
X85350000Y-127425000I-600000J0D01*
G01*
D10*
X210500000Y-135000000D02*
X54500000Y-135000000D01*
D11*
X90450000Y-127425000D02*
X90450000Y-133275000D01*
X90450000Y-133275000D02*
G75*
G03*
X91650000Y-133275000I600000J0D01*
G01*
D10*
X50000000Y-29500000D02*
X50000000Y-130500000D01*
D11*
X91650000Y-127425000D02*
X91650000Y-133275000D01*
D10*
X210500000Y-135000000D02*
G75*
G03*
X215000000Y-130500000I0J4500000D01*
G01*
D11*
X85350000Y-133275000D02*
G75*
G03*
X86550000Y-133275000I600000J0D01*
G01*
X91650000Y-127425000D02*
G75*
G03*
X90450000Y-127425000I-600000J0D01*
G01*
D10*
X215000000Y-29500000D02*
G75*
G03*
X210500000Y-25000000I-4500000J0D01*
G01*
D11*
X80300000Y-127450000D02*
X80300000Y-133300000D01*
M02*
