%TF.GenerationSoftware,KiCad,Pcbnew,6.0.7-f9a2dced07~116~ubuntu20.04.1*%
%TF.CreationDate,2022-10-02T03:02:38-04:00*%
%TF.ProjectId,SSTC_PFC_Power_Supply,53535443-5f50-4464-935f-506f7765725f,rev?*%
%TF.SameCoordinates,Original*%
%TF.FileFunction,Soldermask,Bot*%
%TF.FilePolarity,Negative*%
%FSLAX46Y46*%
G04 Gerber Fmt 4.6, Leading zero omitted, Abs format (unit mm)*
G04 Created by KiCad (PCBNEW 6.0.7-f9a2dced07~116~ubuntu20.04.1) date 2022-10-02 03:02:38*
%MOMM*%
%LPD*%
G01*
G04 APERTURE LIST*
G04 Aperture macros list*
%AMRoundRect*
0 Rectangle with rounded corners*
0 $1 Rounding radius*
0 $2 $3 $4 $5 $6 $7 $8 $9 X,Y pos of 4 corners*
0 Add a 4 corners polygon primitive as box body*
4,1,4,$2,$3,$4,$5,$6,$7,$8,$9,$2,$3,0*
0 Add four circle primitives for the rounded corners*
1,1,$1+$1,$2,$3*
1,1,$1+$1,$4,$5*
1,1,$1+$1,$6,$7*
1,1,$1+$1,$8,$9*
0 Add four rect primitives between the rounded corners*
20,1,$1+$1,$2,$3,$4,$5,0*
20,1,$1+$1,$4,$5,$6,$7,0*
20,1,$1+$1,$6,$7,$8,$9,0*
20,1,$1+$1,$8,$9,$2,$3,0*%
G04 Aperture macros list end*
%ADD10C,2.750000*%
%ADD11C,2.400000*%
%ADD12C,7.400000*%
%ADD13C,2.000000*%
%ADD14RoundRect,0.250001X-1.549999X0.799999X-1.549999X-0.799999X1.549999X-0.799999X1.549999X0.799999X0*%
%ADD15O,3.600000X2.100000*%
%ADD16C,2.700000*%
%ADD17C,3.000000*%
%ADD18C,4.500000*%
%ADD19R,2.500000X4.500000*%
%ADD20O,2.500000X4.500000*%
%ADD21R,2.400000X2.400000*%
%ADD22R,2.300000X2.000000*%
%ADD23C,2.300000*%
%ADD24RoundRect,0.250001X1.549999X-0.799999X1.549999X0.799999X-1.549999X0.799999X-1.549999X-0.799999X0*%
%ADD25R,3.200000X3.200000*%
%ADD26C,3.200000*%
G04 APERTURE END LIST*
D10*
%TO.C,FL1*%
X81500000Y-66000000D03*
X81500000Y-78000000D03*
X71500000Y-66000000D03*
X71500000Y-78000000D03*
%TD*%
D11*
%TO.C,C2*%
X84000000Y-86000000D03*
X69000000Y-86000000D03*
%TD*%
D12*
%TO.C,H5*%
X132500000Y-29500000D03*
%TD*%
D13*
%TO.C,RV4*%
X115500000Y-113550000D03*
X117700000Y-106050000D03*
%TD*%
D12*
%TO.C,H3*%
X210500000Y-130500000D03*
%TD*%
D14*
%TO.C,J1*%
X56500000Y-49880000D03*
D15*
X56500000Y-57500000D03*
X56500000Y-65120000D03*
%TD*%
D12*
%TO.C,H1*%
X54500000Y-29500000D03*
%TD*%
D16*
%TO.C,F1*%
X67750000Y-39500000D03*
D17*
X56500000Y-39500000D03*
X79000000Y-39500000D03*
%TD*%
D13*
%TO.C,C4*%
X94000000Y-86000000D03*
X94000000Y-76000000D03*
%TD*%
%TO.C,RV3*%
X188000000Y-48200000D03*
X180500000Y-46000000D03*
%TD*%
D18*
%TO.C,L3*%
X126000000Y-115500000D03*
X155200000Y-115500000D03*
%TD*%
D12*
%TO.C,H4*%
X105500000Y-130500000D03*
%TD*%
D19*
%TO.C,Q1*%
X151450000Y-79000000D03*
D20*
X146000000Y-79000000D03*
X140550000Y-79000000D03*
%TD*%
D21*
%TO.C,C11*%
X206500000Y-111000000D03*
D11*
X199000000Y-111000000D03*
%TD*%
D18*
%TO.C,HS1*%
X158700000Y-81820000D03*
X133300000Y-81820000D03*
%TD*%
D12*
%TO.C,H6*%
X54500000Y-130500000D03*
%TD*%
D13*
%TO.C,RV2*%
X198500000Y-54000000D03*
X191000000Y-51800000D03*
%TD*%
D11*
%TO.C,C1*%
X81500000Y-57500000D03*
X66500000Y-57500000D03*
%TD*%
D12*
%TO.C,H2*%
X210500000Y-29500000D03*
%TD*%
D13*
%TO.C,C3*%
X59000000Y-86000000D03*
X59000000Y-76000000D03*
%TD*%
D21*
%TO.C,C14*%
X187022220Y-91500000D03*
D11*
X179522220Y-91500000D03*
%TD*%
D21*
%TO.C,C13*%
X206522220Y-91500000D03*
D11*
X199022220Y-91500000D03*
%TD*%
%TO.C,C10*%
X107150000Y-115500000D03*
X107150000Y-100500000D03*
%TD*%
D22*
%TO.C,PS1*%
X93000000Y-30800000D03*
D23*
X93000000Y-46000000D03*
X121000000Y-30800000D03*
X121000000Y-38400000D03*
%TD*%
D21*
%TO.C,C15*%
X206522220Y-72000000D03*
D11*
X199022220Y-72000000D03*
%TD*%
%TO.C,C6*%
X88500000Y-119150000D03*
X73500000Y-119150000D03*
%TD*%
D24*
%TO.C,J2*%
X208500000Y-57120000D03*
D15*
X208500000Y-49500000D03*
X208500000Y-41880000D03*
%TD*%
D21*
%TO.C,C12*%
X187000000Y-111000000D03*
D11*
X179500000Y-111000000D03*
%TD*%
D13*
%TO.C,RV1*%
X79000000Y-51500000D03*
X71500000Y-49300000D03*
%TD*%
D25*
%TO.C,D1*%
X78340000Y-130500000D03*
D26*
X83420000Y-130500000D03*
X88500000Y-130500000D03*
X93580000Y-130500000D03*
%TD*%
D21*
%TO.C,C16*%
X187022220Y-72000000D03*
D11*
X179522220Y-72000000D03*
%TD*%
M02*
