%TF.GenerationSoftware,KiCad,Pcbnew,6.0.7-f9a2dced07~116~ubuntu20.04.1*%
%TF.CreationDate,2022-10-02T03:02:38-04:00*%
%TF.ProjectId,SSTC_PFC_Power_Supply,53535443-5f50-4464-935f-506f7765725f,rev?*%
%TF.SameCoordinates,Original*%
%TF.FileFunction,Paste,Top*%
%TF.FilePolarity,Positive*%
%FSLAX46Y46*%
G04 Gerber Fmt 4.6, Leading zero omitted, Abs format (unit mm)*
G04 Created by KiCad (PCBNEW 6.0.7-f9a2dced07~116~ubuntu20.04.1) date 2022-10-02 03:02:38*
%MOMM*%
%LPD*%
G01*
G04 APERTURE LIST*
G04 Aperture macros list*
%AMRoundRect*
0 Rectangle with rounded corners*
0 $1 Rounding radius*
0 $2 $3 $4 $5 $6 $7 $8 $9 X,Y pos of 4 corners*
0 Add a 4 corners polygon primitive as box body*
4,1,4,$2,$3,$4,$5,$6,$7,$8,$9,$2,$3,0*
0 Add four circle primitives for the rounded corners*
1,1,$1+$1,$2,$3*
1,1,$1+$1,$4,$5*
1,1,$1+$1,$6,$7*
1,1,$1+$1,$8,$9*
0 Add four rect primitives between the rounded corners*
20,1,$1+$1,$2,$3,$4,$5,0*
20,1,$1+$1,$4,$5,$6,$7,0*
20,1,$1+$1,$6,$7,$8,$9,0*
20,1,$1+$1,$8,$9,$2,$3,0*%
G04 Aperture macros list end*
%ADD10RoundRect,0.250000X-0.650000X0.325000X-0.650000X-0.325000X0.650000X-0.325000X0.650000X0.325000X0*%
%ADD11RoundRect,0.250000X0.450000X-0.262500X0.450000X0.262500X-0.450000X0.262500X-0.450000X-0.262500X0*%
%ADD12R,0.900000X1.200000*%
%ADD13RoundRect,0.250000X-0.362500X-1.425000X0.362500X-1.425000X0.362500X1.425000X-0.362500X1.425000X0*%
%ADD14RoundRect,0.250000X0.262500X0.450000X-0.262500X0.450000X-0.262500X-0.450000X0.262500X-0.450000X0*%
%ADD15RoundRect,0.408164X-1.341836X0.591836X-1.341836X-0.591836X1.341836X-0.591836X1.341836X0.591836X0*%
%ADD16RoundRect,0.250000X0.250000X0.475000X-0.250000X0.475000X-0.250000X-0.475000X0.250000X-0.475000X0*%
%ADD17RoundRect,0.150000X-0.150000X0.825000X-0.150000X-0.825000X0.150000X-0.825000X0.150000X0.825000X0*%
%ADD18RoundRect,0.250000X-0.250000X-0.475000X0.250000X-0.475000X0.250000X0.475000X-0.250000X0.475000X0*%
%ADD19R,3.300000X3.050000*%
%ADD20R,1.500000X2.400000*%
%ADD21RoundRect,0.250000X-0.625000X0.312500X-0.625000X-0.312500X0.625000X-0.312500X0.625000X0.312500X0*%
%ADD22RoundRect,0.250000X-0.475000X0.250000X-0.475000X-0.250000X0.475000X-0.250000X0.475000X0.250000X0*%
%ADD23R,3.300000X2.500000*%
%ADD24R,7.000000X7.000000*%
%ADD25RoundRect,0.250000X-0.450000X0.262500X-0.450000X-0.262500X0.450000X-0.262500X0.450000X0.262500X0*%
%ADD26RoundRect,0.225000X0.225000X0.250000X-0.225000X0.250000X-0.225000X-0.250000X0.225000X-0.250000X0*%
%ADD27RoundRect,0.225000X-0.225000X-0.250000X0.225000X-0.250000X0.225000X0.250000X-0.225000X0.250000X0*%
%ADD28RoundRect,0.250000X-0.262500X-0.450000X0.262500X-0.450000X0.262500X0.450000X-0.262500X0.450000X0*%
%ADD29RoundRect,0.150000X0.512500X0.150000X-0.512500X0.150000X-0.512500X-0.150000X0.512500X-0.150000X0*%
G04 APERTURE END LIST*
D10*
%TO.C,C7*%
X135795000Y-61000000D03*
X135795000Y-63950000D03*
%TD*%
D11*
%TO.C,R16*%
X143950000Y-72775000D03*
X143950000Y-70950000D03*
%TD*%
D12*
%TO.C,D2*%
X151450000Y-73150000D03*
X148150000Y-73150000D03*
%TD*%
D13*
%TO.C,R13*%
X195037500Y-59500000D03*
X200962500Y-59500000D03*
%TD*%
D14*
%TO.C,R17*%
X151375000Y-65700000D03*
X149550000Y-65700000D03*
%TD*%
D15*
%TO.C,R3*%
X109000000Y-89987500D03*
X109000000Y-95912500D03*
%TD*%
D16*
%TO.C,C5*%
X146400000Y-52750000D03*
X144500000Y-52750000D03*
%TD*%
D17*
%TO.C,U1*%
X145800000Y-55575000D03*
X144530000Y-55575000D03*
X143260000Y-55575000D03*
X141990000Y-55575000D03*
X141990000Y-60525000D03*
X143260000Y-60525000D03*
X144530000Y-60525000D03*
X145800000Y-60525000D03*
%TD*%
D18*
%TO.C,C8*%
X138145000Y-60550000D03*
X140045000Y-60550000D03*
%TD*%
D19*
%TO.C,D4*%
X165980000Y-128675000D03*
X169580000Y-128675000D03*
X165980000Y-125125000D03*
X169580000Y-125125000D03*
D20*
X170080000Y-119500000D03*
X165500000Y-119500000D03*
%TD*%
D21*
%TO.C,R9*%
X198500000Y-46237500D03*
X198500000Y-49162500D03*
%TD*%
D22*
%TO.C,C9*%
X147695000Y-56900000D03*
X147695000Y-58800000D03*
%TD*%
D15*
%TO.C,R2*%
X113000000Y-89987500D03*
X113000000Y-95912500D03*
%TD*%
D21*
%TO.C,R11*%
X198500000Y-36937500D03*
X198500000Y-39862500D03*
%TD*%
%TO.C,R10*%
X198500000Y-41537500D03*
X198500000Y-44462500D03*
%TD*%
D13*
%TO.C,R14*%
X181037500Y-59500000D03*
X186962500Y-59500000D03*
%TD*%
D15*
%TO.C,R5*%
X105000000Y-89987500D03*
X105000000Y-95912500D03*
%TD*%
D23*
%TO.C,D3*%
X117100000Y-128950000D03*
X117100000Y-122150000D03*
%TD*%
D24*
%TO.C,L2*%
X62500000Y-94250000D03*
X62500000Y-110750000D03*
%TD*%
D11*
%TO.C,R8*%
X151450000Y-70912500D03*
X151450000Y-69087500D03*
%TD*%
D25*
%TO.C,R15*%
X142000000Y-69125000D03*
X142000000Y-70950000D03*
%TD*%
D24*
%TO.C,L1*%
X88500000Y-94250000D03*
X88500000Y-110750000D03*
%TD*%
D26*
%TO.C,C18*%
X146637500Y-67500000D03*
X145087500Y-67500000D03*
%TD*%
D14*
%TO.C,R7*%
X139957500Y-52450000D03*
X138132500Y-52450000D03*
%TD*%
D27*
%TO.C,C19*%
X153575000Y-65700000D03*
X155125000Y-65700000D03*
%TD*%
D16*
%TO.C,C17*%
X146637500Y-65700000D03*
X144737500Y-65700000D03*
%TD*%
D14*
%TO.C,R12*%
X200325000Y-34850000D03*
X198500000Y-34850000D03*
%TD*%
D28*
%TO.C,R4*%
X138132500Y-55600000D03*
X139957500Y-55600000D03*
%TD*%
D29*
%TO.C,U2*%
X148900000Y-70950000D03*
X148900000Y-70000000D03*
X148900000Y-69050000D03*
X146625000Y-69050000D03*
X146625000Y-70000000D03*
X146625000Y-70950000D03*
%TD*%
D28*
%TO.C,R6*%
X138220000Y-63950000D03*
X140045000Y-63950000D03*
%TD*%
D15*
%TO.C,R1*%
X117000000Y-89987500D03*
X117000000Y-95912500D03*
%TD*%
M02*
