%TF.GenerationSoftware,KiCad,Pcbnew,6.0.7-f9a2dced07~116~ubuntu20.04.1*%
%TF.CreationDate,2022-10-02T03:02:38-04:00*%
%TF.ProjectId,SSTC_PFC_Power_Supply,53535443-5f50-4464-935f-506f7765725f,rev?*%
%TF.SameCoordinates,Original*%
%TF.FileFunction,Legend,Top*%
%TF.FilePolarity,Positive*%
%FSLAX46Y46*%
G04 Gerber Fmt 4.6, Leading zero omitted, Abs format (unit mm)*
G04 Created by KiCad (PCBNEW 6.0.7-f9a2dced07~116~ubuntu20.04.1) date 2022-10-02 03:02:38*
%MOMM*%
%LPD*%
G01*
G04 APERTURE LIST*
%ADD10C,0.200000*%
%ADD11C,0.150000*%
%ADD12C,0.120000*%
G04 APERTURE END LIST*
D10*
X60095238Y-50119047D02*
X60095238Y-49166666D01*
X62095238Y-49166666D01*
X203454761Y-60723809D02*
X205454761Y-60057142D01*
X203454761Y-59390476D01*
X203454761Y-58342857D02*
X203454761Y-57961904D01*
X203550000Y-57771428D01*
X203740476Y-57580952D01*
X204121428Y-57485714D01*
X204788095Y-57485714D01*
X205169047Y-57580952D01*
X205359523Y-57771428D01*
X205454761Y-57961904D01*
X205454761Y-58342857D01*
X205359523Y-58533333D01*
X205169047Y-58723809D01*
X204788095Y-58819047D01*
X204121428Y-58819047D01*
X203740476Y-58723809D01*
X203550000Y-58533333D01*
X203454761Y-58342857D01*
X203454761Y-56628571D02*
X205073809Y-56628571D01*
X205264285Y-56533333D01*
X205359523Y-56438095D01*
X205454761Y-56247619D01*
X205454761Y-55866666D01*
X205359523Y-55676190D01*
X205264285Y-55580952D01*
X205073809Y-55485714D01*
X203454761Y-55485714D01*
X203454761Y-54819047D02*
X203454761Y-53676190D01*
X205454761Y-54247619D02*
X203454761Y-54247619D01*
X59595238Y-63571428D02*
X61595238Y-63571428D01*
X61595238Y-64333333D01*
X61500000Y-64523809D01*
X61404761Y-64619047D01*
X61214285Y-64714285D01*
X60928571Y-64714285D01*
X60738095Y-64619047D01*
X60642857Y-64523809D01*
X60547619Y-64333333D01*
X60547619Y-63571428D01*
X60642857Y-65571428D02*
X60642857Y-66238095D01*
X59595238Y-66523809D02*
X59595238Y-65571428D01*
X61595238Y-65571428D01*
X61595238Y-66523809D01*
X203500000Y-43423809D02*
X203404761Y-43614285D01*
X203404761Y-43900000D01*
X203500000Y-44185714D01*
X203690476Y-44376190D01*
X203880952Y-44471428D01*
X204261904Y-44566666D01*
X204547619Y-44566666D01*
X204928571Y-44471428D01*
X205119047Y-44376190D01*
X205309523Y-44185714D01*
X205404761Y-43900000D01*
X205404761Y-43709523D01*
X205309523Y-43423809D01*
X205214285Y-43328571D01*
X204547619Y-43328571D01*
X204547619Y-43709523D01*
X205404761Y-42471428D02*
X203404761Y-42471428D01*
X205404761Y-41328571D01*
X203404761Y-41328571D01*
X205404761Y-40376190D02*
X203404761Y-40376190D01*
X203404761Y-39900000D01*
X203500000Y-39614285D01*
X203690476Y-39423809D01*
X203880952Y-39328571D01*
X204261904Y-39233333D01*
X204547619Y-39233333D01*
X204928571Y-39328571D01*
X205119047Y-39423809D01*
X205309523Y-39614285D01*
X205404761Y-39900000D01*
X205404761Y-40376190D01*
X60095238Y-56928571D02*
X62095238Y-56928571D01*
X60095238Y-58071428D01*
X62095238Y-58071428D01*
X141357142Y-30184761D02*
X140214285Y-30184761D01*
X140785714Y-30184761D02*
X140785714Y-28184761D01*
X140595238Y-28470476D01*
X140404761Y-28660952D01*
X140214285Y-28756190D01*
X142119047Y-28375238D02*
X142214285Y-28280000D01*
X142404761Y-28184761D01*
X142880952Y-28184761D01*
X143071428Y-28280000D01*
X143166666Y-28375238D01*
X143261904Y-28565714D01*
X143261904Y-28756190D01*
X143166666Y-29041904D01*
X142023809Y-30184761D01*
X143261904Y-30184761D01*
X144499999Y-28184761D02*
X144690476Y-28184761D01*
X144880952Y-28280000D01*
X144976190Y-28375238D01*
X145071428Y-28565714D01*
X145166666Y-28946666D01*
X145166666Y-29422857D01*
X145071428Y-29803809D01*
X144976190Y-29994285D01*
X144880952Y-30089523D01*
X144690476Y-30184761D01*
X144499999Y-30184761D01*
X144309523Y-30089523D01*
X144214285Y-29994285D01*
X144119047Y-29803809D01*
X144023809Y-29422857D01*
X144023809Y-28946666D01*
X144119047Y-28565714D01*
X144214285Y-28375238D01*
X144309523Y-28280000D01*
X144499999Y-28184761D01*
X145738095Y-28184761D02*
X146404761Y-30184761D01*
X147071428Y-28184761D01*
X147642857Y-29613333D02*
X148595238Y-29613333D01*
X147452380Y-30184761D02*
X148119047Y-28184761D01*
X148785714Y-30184761D01*
X150595238Y-29994285D02*
X150499999Y-30089523D01*
X150214285Y-30184761D01*
X150023809Y-30184761D01*
X149738095Y-30089523D01*
X149547619Y-29899047D01*
X149452380Y-29708571D01*
X149357142Y-29327619D01*
X149357142Y-29041904D01*
X149452380Y-28660952D01*
X149547619Y-28470476D01*
X149738095Y-28280000D01*
X150023809Y-28184761D01*
X150214285Y-28184761D01*
X150499999Y-28280000D01*
X150595238Y-28375238D01*
X152976190Y-29422857D02*
X154499999Y-29422857D01*
X155452380Y-28851428D02*
X156976190Y-29422857D01*
X155452380Y-29994285D01*
X160404761Y-28184761D02*
X159452380Y-28184761D01*
X159357142Y-29137142D01*
X159452380Y-29041904D01*
X159642857Y-28946666D01*
X160119047Y-28946666D01*
X160309523Y-29041904D01*
X160404761Y-29137142D01*
X160499999Y-29327619D01*
X160499999Y-29803809D01*
X160404761Y-29994285D01*
X160309523Y-30089523D01*
X160119047Y-30184761D01*
X159642857Y-30184761D01*
X159452380Y-30089523D01*
X159357142Y-29994285D01*
X161738095Y-28184761D02*
X161928571Y-28184761D01*
X162119047Y-28280000D01*
X162214285Y-28375238D01*
X162309523Y-28565714D01*
X162404761Y-28946666D01*
X162404761Y-29422857D01*
X162309523Y-29803809D01*
X162214285Y-29994285D01*
X162119047Y-30089523D01*
X161928571Y-30184761D01*
X161738095Y-30184761D01*
X161547619Y-30089523D01*
X161452380Y-29994285D01*
X161357142Y-29803809D01*
X161261904Y-29422857D01*
X161261904Y-28946666D01*
X161357142Y-28565714D01*
X161452380Y-28375238D01*
X161547619Y-28280000D01*
X161738095Y-28184761D01*
X163642857Y-28184761D02*
X163833333Y-28184761D01*
X164023809Y-28280000D01*
X164119047Y-28375238D01*
X164214285Y-28565714D01*
X164309523Y-28946666D01*
X164309523Y-29422857D01*
X164214285Y-29803809D01*
X164119047Y-29994285D01*
X164023809Y-30089523D01*
X163833333Y-30184761D01*
X163642857Y-30184761D01*
X163452380Y-30089523D01*
X163357142Y-29994285D01*
X163261904Y-29803809D01*
X163166666Y-29422857D01*
X163166666Y-28946666D01*
X163261904Y-28565714D01*
X163357142Y-28375238D01*
X163452380Y-28280000D01*
X163642857Y-28184761D01*
X164880952Y-28184761D02*
X165547619Y-30184761D01*
X166214285Y-28184761D01*
X166880952Y-30184761D02*
X166880952Y-28184761D01*
X167357142Y-28184761D01*
X167642857Y-28280000D01*
X167833333Y-28470476D01*
X167928571Y-28660952D01*
X168023809Y-29041904D01*
X168023809Y-29327619D01*
X167928571Y-29708571D01*
X167833333Y-29899047D01*
X167642857Y-30089523D01*
X167357142Y-30184761D01*
X166880952Y-30184761D01*
X170023809Y-29994285D02*
X169928571Y-30089523D01*
X169642857Y-30184761D01*
X169452380Y-30184761D01*
X169166666Y-30089523D01*
X168976190Y-29899047D01*
X168880952Y-29708571D01*
X168785714Y-29327619D01*
X168785714Y-29041904D01*
X168880952Y-28660952D01*
X168976190Y-28470476D01*
X169166666Y-28280000D01*
X169452380Y-28184761D01*
X169642857Y-28184761D01*
X169928571Y-28280000D01*
X170023809Y-28375238D01*
X172309523Y-29613333D02*
X173261904Y-29613333D01*
X172119047Y-30184761D02*
X172785714Y-28184761D01*
X173452380Y-30184761D01*
X174119047Y-30184761D02*
X174119047Y-28184761D01*
X174880952Y-28184761D01*
X175071428Y-28280000D01*
X175166666Y-28375238D01*
X175261904Y-28565714D01*
X175261904Y-28851428D01*
X175166666Y-29041904D01*
X175071428Y-29137142D01*
X174880952Y-29232380D01*
X174119047Y-29232380D01*
X176785714Y-29137142D02*
X176119047Y-29137142D01*
X176119047Y-30184761D02*
X176119047Y-28184761D01*
X177071428Y-28184761D01*
X178976190Y-29994285D02*
X178880952Y-30089523D01*
X178595238Y-30184761D01*
X178404761Y-30184761D01*
X178119047Y-30089523D01*
X177928571Y-29899047D01*
X177833333Y-29708571D01*
X177738095Y-29327619D01*
X177738095Y-29041904D01*
X177833333Y-28660952D01*
X177928571Y-28470476D01*
X178119047Y-28280000D01*
X178404761Y-28184761D01*
X178595238Y-28184761D01*
X178880952Y-28280000D01*
X178976190Y-28375238D01*
X181357142Y-30184761D02*
X181357142Y-28184761D01*
X182119047Y-28184761D01*
X182309523Y-28280000D01*
X182404761Y-28375238D01*
X182499999Y-28565714D01*
X182499999Y-28851428D01*
X182404761Y-29041904D01*
X182309523Y-29137142D01*
X182119047Y-29232380D01*
X181357142Y-29232380D01*
X183642857Y-30184761D02*
X183452380Y-30089523D01*
X183357142Y-29994285D01*
X183261904Y-29803809D01*
X183261904Y-29232380D01*
X183357142Y-29041904D01*
X183452380Y-28946666D01*
X183642857Y-28851428D01*
X183928571Y-28851428D01*
X184119047Y-28946666D01*
X184214285Y-29041904D01*
X184309523Y-29232380D01*
X184309523Y-29803809D01*
X184214285Y-29994285D01*
X184119047Y-30089523D01*
X183928571Y-30184761D01*
X183642857Y-30184761D01*
X184976190Y-28851428D02*
X185357142Y-30184761D01*
X185738095Y-29232380D01*
X186119047Y-30184761D01*
X186499999Y-28851428D01*
X188023809Y-30089523D02*
X187833333Y-30184761D01*
X187452380Y-30184761D01*
X187261904Y-30089523D01*
X187166666Y-29899047D01*
X187166666Y-29137142D01*
X187261904Y-28946666D01*
X187452380Y-28851428D01*
X187833333Y-28851428D01*
X188023809Y-28946666D01*
X188119047Y-29137142D01*
X188119047Y-29327619D01*
X187166666Y-29518095D01*
X188976190Y-30184761D02*
X188976190Y-28851428D01*
X188976190Y-29232380D02*
X189071428Y-29041904D01*
X189166666Y-28946666D01*
X189357142Y-28851428D01*
X189547619Y-28851428D01*
X191642857Y-30089523D02*
X191928571Y-30184761D01*
X192404761Y-30184761D01*
X192595238Y-30089523D01*
X192690476Y-29994285D01*
X192785714Y-29803809D01*
X192785714Y-29613333D01*
X192690476Y-29422857D01*
X192595238Y-29327619D01*
X192404761Y-29232380D01*
X192023809Y-29137142D01*
X191833333Y-29041904D01*
X191738095Y-28946666D01*
X191642857Y-28756190D01*
X191642857Y-28565714D01*
X191738095Y-28375238D01*
X191833333Y-28280000D01*
X192023809Y-28184761D01*
X192499999Y-28184761D01*
X192785714Y-28280000D01*
X194499999Y-28851428D02*
X194499999Y-30184761D01*
X193642857Y-28851428D02*
X193642857Y-29899047D01*
X193738095Y-30089523D01*
X193928571Y-30184761D01*
X194214285Y-30184761D01*
X194404761Y-30089523D01*
X194499999Y-29994285D01*
X195452380Y-28851428D02*
X195452380Y-30851428D01*
X195452380Y-28946666D02*
X195642857Y-28851428D01*
X196023809Y-28851428D01*
X196214285Y-28946666D01*
X196309523Y-29041904D01*
X196404761Y-29232380D01*
X196404761Y-29803809D01*
X196309523Y-29994285D01*
X196214285Y-30089523D01*
X196023809Y-30184761D01*
X195642857Y-30184761D01*
X195452380Y-30089523D01*
X197261904Y-28851428D02*
X197261904Y-30851428D01*
X197261904Y-28946666D02*
X197452380Y-28851428D01*
X197833333Y-28851428D01*
X198023809Y-28946666D01*
X198119047Y-29041904D01*
X198214285Y-29232380D01*
X198214285Y-29803809D01*
X198119047Y-29994285D01*
X198023809Y-30089523D01*
X197833333Y-30184761D01*
X197452380Y-30184761D01*
X197261904Y-30089523D01*
X199357142Y-30184761D02*
X199166666Y-30089523D01*
X199071428Y-29899047D01*
X199071428Y-28184761D01*
X199928571Y-28851428D02*
X200404761Y-30184761D01*
X200880952Y-28851428D02*
X200404761Y-30184761D01*
X200214285Y-30660952D01*
X200119047Y-30756190D01*
X199928571Y-30851428D01*
X151261904Y-34166666D02*
X151166666Y-34071428D01*
X150976190Y-33785714D01*
X150880952Y-33595238D01*
X150785714Y-33309523D01*
X150690476Y-32833333D01*
X150690476Y-32452380D01*
X150785714Y-31976190D01*
X150880952Y-31690476D01*
X150976190Y-31500000D01*
X151166666Y-31214285D01*
X151261904Y-31119047D01*
X153166666Y-33214285D02*
X153071428Y-33309523D01*
X152785714Y-33404761D01*
X152595238Y-33404761D01*
X152309523Y-33309523D01*
X152119047Y-33119047D01*
X152023809Y-32928571D01*
X151928571Y-32547619D01*
X151928571Y-32261904D01*
X152023809Y-31880952D01*
X152119047Y-31690476D01*
X152309523Y-31500000D01*
X152595238Y-31404761D01*
X152785714Y-31404761D01*
X153071428Y-31500000D01*
X153166666Y-31595238D01*
X153833333Y-34166666D02*
X153928571Y-34071428D01*
X154119047Y-33785714D01*
X154214285Y-33595238D01*
X154309523Y-33309523D01*
X154404761Y-32833333D01*
X154404761Y-32452380D01*
X154309523Y-31976190D01*
X154214285Y-31690476D01*
X154119047Y-31500000D01*
X153928571Y-31214285D01*
X153833333Y-31119047D01*
X156785714Y-31595238D02*
X156880952Y-31500000D01*
X157071428Y-31404761D01*
X157547619Y-31404761D01*
X157738095Y-31500000D01*
X157833333Y-31595238D01*
X157928571Y-31785714D01*
X157928571Y-31976190D01*
X157833333Y-32261904D01*
X156690476Y-33404761D01*
X157928571Y-33404761D01*
X159166666Y-31404761D02*
X159357142Y-31404761D01*
X159547619Y-31500000D01*
X159642857Y-31595238D01*
X159738095Y-31785714D01*
X159833333Y-32166666D01*
X159833333Y-32642857D01*
X159738095Y-33023809D01*
X159642857Y-33214285D01*
X159547619Y-33309523D01*
X159357142Y-33404761D01*
X159166666Y-33404761D01*
X158976190Y-33309523D01*
X158880952Y-33214285D01*
X158785714Y-33023809D01*
X158690476Y-32642857D01*
X158690476Y-32166666D01*
X158785714Y-31785714D01*
X158880952Y-31595238D01*
X158976190Y-31500000D01*
X159166666Y-31404761D01*
X160595238Y-31595238D02*
X160690476Y-31500000D01*
X160880952Y-31404761D01*
X161357142Y-31404761D01*
X161547619Y-31500000D01*
X161642857Y-31595238D01*
X161738095Y-31785714D01*
X161738095Y-31976190D01*
X161642857Y-32261904D01*
X160500000Y-33404761D01*
X161738095Y-33404761D01*
X162500000Y-31595238D02*
X162595238Y-31500000D01*
X162785714Y-31404761D01*
X163261904Y-31404761D01*
X163452380Y-31500000D01*
X163547619Y-31595238D01*
X163642857Y-31785714D01*
X163642857Y-31976190D01*
X163547619Y-32261904D01*
X162404761Y-33404761D01*
X163642857Y-33404761D01*
X165928571Y-32833333D02*
X166880952Y-32833333D01*
X165738095Y-33404761D02*
X166404761Y-31404761D01*
X167071428Y-33404761D01*
X168595238Y-33404761D02*
X168595238Y-31404761D01*
X168595238Y-33309523D02*
X168404761Y-33404761D01*
X168023809Y-33404761D01*
X167833333Y-33309523D01*
X167738095Y-33214285D01*
X167642857Y-33023809D01*
X167642857Y-32452380D01*
X167738095Y-32261904D01*
X167833333Y-32166666D01*
X168023809Y-32071428D01*
X168404761Y-32071428D01*
X168595238Y-32166666D01*
X170404761Y-33404761D02*
X170404761Y-32357142D01*
X170309523Y-32166666D01*
X170119047Y-32071428D01*
X169738095Y-32071428D01*
X169547619Y-32166666D01*
X170404761Y-33309523D02*
X170214285Y-33404761D01*
X169738095Y-33404761D01*
X169547619Y-33309523D01*
X169452380Y-33119047D01*
X169452380Y-32928571D01*
X169547619Y-32738095D01*
X169738095Y-32642857D01*
X170214285Y-32642857D01*
X170404761Y-32547619D01*
X171357142Y-33404761D02*
X171357142Y-32071428D01*
X171357142Y-32261904D02*
X171452380Y-32166666D01*
X171642857Y-32071428D01*
X171928571Y-32071428D01*
X172119047Y-32166666D01*
X172214285Y-32357142D01*
X172214285Y-33404761D01*
X172214285Y-32357142D02*
X172309523Y-32166666D01*
X172500000Y-32071428D01*
X172785714Y-32071428D01*
X172976190Y-32166666D01*
X173071428Y-32357142D01*
X173071428Y-33404761D01*
X176690476Y-33214285D02*
X176595238Y-33309523D01*
X176309523Y-33404761D01*
X176119047Y-33404761D01*
X175833333Y-33309523D01*
X175642857Y-33119047D01*
X175547619Y-32928571D01*
X175452380Y-32547619D01*
X175452380Y-32261904D01*
X175547619Y-31880952D01*
X175642857Y-31690476D01*
X175833333Y-31500000D01*
X176119047Y-31404761D01*
X176309523Y-31404761D01*
X176595238Y-31500000D01*
X176690476Y-31595238D01*
X177833333Y-33404761D02*
X177642857Y-33309523D01*
X177547619Y-33214285D01*
X177452380Y-33023809D01*
X177452380Y-32452380D01*
X177547619Y-32261904D01*
X177642857Y-32166666D01*
X177833333Y-32071428D01*
X178119047Y-32071428D01*
X178309523Y-32166666D01*
X178404761Y-32261904D01*
X178500000Y-32452380D01*
X178500000Y-33023809D01*
X178404761Y-33214285D01*
X178309523Y-33309523D01*
X178119047Y-33404761D01*
X177833333Y-33404761D01*
X179357142Y-33404761D02*
X179357142Y-32071428D01*
X179357142Y-32452380D02*
X179452380Y-32261904D01*
X179547619Y-32166666D01*
X179738095Y-32071428D01*
X179928571Y-32071428D01*
X181452380Y-33404761D02*
X181452380Y-31404761D01*
X181452380Y-33309523D02*
X181261904Y-33404761D01*
X180880952Y-33404761D01*
X180690476Y-33309523D01*
X180595238Y-33214285D01*
X180500000Y-33023809D01*
X180500000Y-32452380D01*
X180595238Y-32261904D01*
X180690476Y-32166666D01*
X180880952Y-32071428D01*
X181261904Y-32071428D01*
X181452380Y-32166666D01*
X182404761Y-33404761D02*
X182404761Y-32071428D01*
X182404761Y-31404761D02*
X182309523Y-31500000D01*
X182404761Y-31595238D01*
X182500000Y-31500000D01*
X182404761Y-31404761D01*
X182404761Y-31595238D01*
X183357142Y-32071428D02*
X183357142Y-33404761D01*
X183357142Y-32261904D02*
X183452380Y-32166666D01*
X183642857Y-32071428D01*
X183928571Y-32071428D01*
X184119047Y-32166666D01*
X184214285Y-32357142D01*
X184214285Y-33404761D01*
X186023809Y-32071428D02*
X186023809Y-33690476D01*
X185928571Y-33880952D01*
X185833333Y-33976190D01*
X185642857Y-34071428D01*
X185357142Y-34071428D01*
X185166666Y-33976190D01*
X186023809Y-33309523D02*
X185833333Y-33404761D01*
X185452380Y-33404761D01*
X185261904Y-33309523D01*
X185166666Y-33214285D01*
X185071428Y-33023809D01*
X185071428Y-32452380D01*
X185166666Y-32261904D01*
X185261904Y-32166666D01*
X185452380Y-32071428D01*
X185833333Y-32071428D01*
X186023809Y-32166666D01*
X187261904Y-33404761D02*
X187071428Y-33309523D01*
X186976190Y-33119047D01*
X186976190Y-31404761D01*
X188785714Y-33309523D02*
X188595238Y-33404761D01*
X188214285Y-33404761D01*
X188023809Y-33309523D01*
X187928571Y-33119047D01*
X187928571Y-32357142D01*
X188023809Y-32166666D01*
X188214285Y-32071428D01*
X188595238Y-32071428D01*
X188785714Y-32166666D01*
X188880952Y-32357142D01*
X188880952Y-32547619D01*
X187928571Y-32738095D01*
X189547619Y-32071428D02*
X190023809Y-33404761D01*
X190500000Y-32071428D02*
X190023809Y-33404761D01*
X189833333Y-33880952D01*
X189738095Y-33976190D01*
X189547619Y-34071428D01*
X156357142Y-35291428D02*
X156738095Y-36624761D01*
X157119047Y-35672380D01*
X157500000Y-36624761D01*
X157880952Y-35291428D01*
X158452380Y-35291428D02*
X158833333Y-36624761D01*
X159214285Y-35672380D01*
X159595238Y-36624761D01*
X159976190Y-35291428D01*
X160547619Y-35291428D02*
X160928571Y-36624761D01*
X161309523Y-35672380D01*
X161690476Y-36624761D01*
X162071428Y-35291428D01*
X162833333Y-36434285D02*
X162928571Y-36529523D01*
X162833333Y-36624761D01*
X162738095Y-36529523D01*
X162833333Y-36434285D01*
X162833333Y-36624761D01*
X164642857Y-36624761D02*
X164642857Y-35577142D01*
X164547619Y-35386666D01*
X164357142Y-35291428D01*
X163976190Y-35291428D01*
X163785714Y-35386666D01*
X164642857Y-36529523D02*
X164452380Y-36624761D01*
X163976190Y-36624761D01*
X163785714Y-36529523D01*
X163690476Y-36339047D01*
X163690476Y-36148571D01*
X163785714Y-35958095D01*
X163976190Y-35862857D01*
X164452380Y-35862857D01*
X164642857Y-35767619D01*
X166452380Y-36529523D02*
X166261904Y-36624761D01*
X165880952Y-36624761D01*
X165690476Y-36529523D01*
X165595238Y-36434285D01*
X165500000Y-36243809D01*
X165500000Y-35672380D01*
X165595238Y-35481904D01*
X165690476Y-35386666D01*
X165880952Y-35291428D01*
X166261904Y-35291428D01*
X166452380Y-35386666D01*
X167595238Y-36624761D02*
X167404761Y-36529523D01*
X167309523Y-36434285D01*
X167214285Y-36243809D01*
X167214285Y-35672380D01*
X167309523Y-35481904D01*
X167404761Y-35386666D01*
X167595238Y-35291428D01*
X167880952Y-35291428D01*
X168071428Y-35386666D01*
X168166666Y-35481904D01*
X168261904Y-35672380D01*
X168261904Y-36243809D01*
X168166666Y-36434285D01*
X168071428Y-36529523D01*
X167880952Y-36624761D01*
X167595238Y-36624761D01*
X169119047Y-36624761D02*
X169119047Y-35291428D01*
X169119047Y-35672380D02*
X169214285Y-35481904D01*
X169309523Y-35386666D01*
X169500000Y-35291428D01*
X169690476Y-35291428D01*
X171214285Y-36624761D02*
X171214285Y-34624761D01*
X171214285Y-36529523D02*
X171023809Y-36624761D01*
X170642857Y-36624761D01*
X170452380Y-36529523D01*
X170357142Y-36434285D01*
X170261904Y-36243809D01*
X170261904Y-35672380D01*
X170357142Y-35481904D01*
X170452380Y-35386666D01*
X170642857Y-35291428D01*
X171023809Y-35291428D01*
X171214285Y-35386666D01*
X172166666Y-36624761D02*
X172166666Y-35291428D01*
X172166666Y-34624761D02*
X172071428Y-34720000D01*
X172166666Y-34815238D01*
X172261904Y-34720000D01*
X172166666Y-34624761D01*
X172166666Y-34815238D01*
X173119047Y-35291428D02*
X173119047Y-36624761D01*
X173119047Y-35481904D02*
X173214285Y-35386666D01*
X173404761Y-35291428D01*
X173690476Y-35291428D01*
X173880952Y-35386666D01*
X173976190Y-35577142D01*
X173976190Y-36624761D01*
X175785714Y-35291428D02*
X175785714Y-36910476D01*
X175690476Y-37100952D01*
X175595238Y-37196190D01*
X175404761Y-37291428D01*
X175119047Y-37291428D01*
X174928571Y-37196190D01*
X175785714Y-36529523D02*
X175595238Y-36624761D01*
X175214285Y-36624761D01*
X175023809Y-36529523D01*
X174928571Y-36434285D01*
X174833333Y-36243809D01*
X174833333Y-35672380D01*
X174928571Y-35481904D01*
X175023809Y-35386666D01*
X175214285Y-35291428D01*
X175595238Y-35291428D01*
X175785714Y-35386666D01*
X177023809Y-36624761D02*
X176833333Y-36529523D01*
X176738095Y-36339047D01*
X176738095Y-34624761D01*
X178547619Y-36529523D02*
X178357142Y-36624761D01*
X177976190Y-36624761D01*
X177785714Y-36529523D01*
X177690476Y-36339047D01*
X177690476Y-35577142D01*
X177785714Y-35386666D01*
X177976190Y-35291428D01*
X178357142Y-35291428D01*
X178547619Y-35386666D01*
X178642857Y-35577142D01*
X178642857Y-35767619D01*
X177690476Y-35958095D01*
X179309523Y-35291428D02*
X179785714Y-36624761D01*
X180261904Y-35291428D02*
X179785714Y-36624761D01*
X179595238Y-37100952D01*
X179500000Y-37196190D01*
X179309523Y-37291428D01*
X181023809Y-36434285D02*
X181119047Y-36529523D01*
X181023809Y-36624761D01*
X180928571Y-36529523D01*
X181023809Y-36434285D01*
X181023809Y-36624761D01*
X182833333Y-35291428D02*
X182833333Y-36624761D01*
X181976190Y-35291428D02*
X181976190Y-36339047D01*
X182071428Y-36529523D01*
X182261904Y-36624761D01*
X182547619Y-36624761D01*
X182738095Y-36529523D01*
X182833333Y-36434285D01*
X183690476Y-36529523D02*
X183880952Y-36624761D01*
X184261904Y-36624761D01*
X184452380Y-36529523D01*
X184547619Y-36339047D01*
X184547619Y-36243809D01*
X184452380Y-36053333D01*
X184261904Y-35958095D01*
X183976190Y-35958095D01*
X183785714Y-35862857D01*
X183690476Y-35672380D01*
X183690476Y-35577142D01*
X183785714Y-35386666D01*
X183976190Y-35291428D01*
X184261904Y-35291428D01*
X184452380Y-35386666D01*
D11*
%TO.C,FL1*%
X87372619Y-61939285D02*
X87089285Y-61939285D01*
X87089285Y-62384523D02*
X87089285Y-61534523D01*
X87494047Y-61534523D01*
X88222619Y-62384523D02*
X87817857Y-62384523D01*
X87817857Y-61534523D01*
X88951190Y-62384523D02*
X88465476Y-62384523D01*
X88708333Y-62384523D02*
X88708333Y-61534523D01*
X88627380Y-61655952D01*
X88546428Y-61736904D01*
X88465476Y-61777380D01*
%TO.C,C7*%
X134548571Y-62616666D02*
X134589047Y-62657142D01*
X134629523Y-62778571D01*
X134629523Y-62859523D01*
X134589047Y-62980952D01*
X134508095Y-63061904D01*
X134427142Y-63102380D01*
X134265238Y-63142857D01*
X134143809Y-63142857D01*
X133981904Y-63102380D01*
X133900952Y-63061904D01*
X133820000Y-62980952D01*
X133779523Y-62859523D01*
X133779523Y-62778571D01*
X133820000Y-62657142D01*
X133860476Y-62616666D01*
X133779523Y-62333333D02*
X133779523Y-61766666D01*
X134629523Y-62130952D01*
%TO.C,R16*%
X144234523Y-69758928D02*
X143829761Y-70042261D01*
X144234523Y-70244642D02*
X143384523Y-70244642D01*
X143384523Y-69920833D01*
X143425000Y-69839880D01*
X143465476Y-69799404D01*
X143546428Y-69758928D01*
X143667857Y-69758928D01*
X143748809Y-69799404D01*
X143789285Y-69839880D01*
X143829761Y-69920833D01*
X143829761Y-70244642D01*
X144234523Y-68949404D02*
X144234523Y-69435119D01*
X144234523Y-69192261D02*
X143384523Y-69192261D01*
X143505952Y-69273214D01*
X143586904Y-69354166D01*
X143627380Y-69435119D01*
X143384523Y-68220833D02*
X143384523Y-68382738D01*
X143425000Y-68463690D01*
X143465476Y-68504166D01*
X143586904Y-68585119D01*
X143748809Y-68625595D01*
X144072619Y-68625595D01*
X144153571Y-68585119D01*
X144194047Y-68544642D01*
X144234523Y-68463690D01*
X144234523Y-68301785D01*
X144194047Y-68220833D01*
X144153571Y-68180357D01*
X144072619Y-68139880D01*
X143870238Y-68139880D01*
X143789285Y-68180357D01*
X143748809Y-68220833D01*
X143708333Y-68301785D01*
X143708333Y-68463690D01*
X143748809Y-68544642D01*
X143789285Y-68585119D01*
X143870238Y-68625595D01*
%TO.C,D2*%
X152422619Y-73584523D02*
X152422619Y-72734523D01*
X152625000Y-72734523D01*
X152746428Y-72775000D01*
X152827380Y-72855952D01*
X152867857Y-72936904D01*
X152908333Y-73098809D01*
X152908333Y-73220238D01*
X152867857Y-73382142D01*
X152827380Y-73463095D01*
X152746428Y-73544047D01*
X152625000Y-73584523D01*
X152422619Y-73584523D01*
X153232142Y-72815476D02*
X153272619Y-72775000D01*
X153353571Y-72734523D01*
X153555952Y-72734523D01*
X153636904Y-72775000D01*
X153677380Y-72815476D01*
X153717857Y-72896428D01*
X153717857Y-72977380D01*
X153677380Y-73098809D01*
X153191666Y-73584523D01*
X153717857Y-73584523D01*
%TO.C,R13*%
X197453571Y-57384523D02*
X197170238Y-56979761D01*
X196967857Y-57384523D02*
X196967857Y-56534523D01*
X197291666Y-56534523D01*
X197372619Y-56575000D01*
X197413095Y-56615476D01*
X197453571Y-56696428D01*
X197453571Y-56817857D01*
X197413095Y-56898809D01*
X197372619Y-56939285D01*
X197291666Y-56979761D01*
X196967857Y-56979761D01*
X198263095Y-57384523D02*
X197777380Y-57384523D01*
X198020238Y-57384523D02*
X198020238Y-56534523D01*
X197939285Y-56655952D01*
X197858333Y-56736904D01*
X197777380Y-56777380D01*
X198546428Y-56534523D02*
X199072619Y-56534523D01*
X198789285Y-56858333D01*
X198910714Y-56858333D01*
X198991666Y-56898809D01*
X199032142Y-56939285D01*
X199072619Y-57020238D01*
X199072619Y-57222619D01*
X199032142Y-57303571D01*
X198991666Y-57344047D01*
X198910714Y-57384523D01*
X198667857Y-57384523D01*
X198586904Y-57344047D01*
X198546428Y-57303571D01*
%TO.C,C2*%
X86858333Y-84803571D02*
X86817857Y-84844047D01*
X86696428Y-84884523D01*
X86615476Y-84884523D01*
X86494047Y-84844047D01*
X86413095Y-84763095D01*
X86372619Y-84682142D01*
X86332142Y-84520238D01*
X86332142Y-84398809D01*
X86372619Y-84236904D01*
X86413095Y-84155952D01*
X86494047Y-84075000D01*
X86615476Y-84034523D01*
X86696428Y-84034523D01*
X86817857Y-84075000D01*
X86858333Y-84115476D01*
X87182142Y-84115476D02*
X87222619Y-84075000D01*
X87303571Y-84034523D01*
X87505952Y-84034523D01*
X87586904Y-84075000D01*
X87627380Y-84115476D01*
X87667857Y-84196428D01*
X87667857Y-84277380D01*
X87627380Y-84398809D01*
X87141666Y-84884523D01*
X87667857Y-84884523D01*
%TO.C,H5*%
X131852380Y-25184523D02*
X131852380Y-24334523D01*
X131852380Y-24739285D02*
X132338095Y-24739285D01*
X132338095Y-25184523D02*
X132338095Y-24334523D01*
X133147619Y-24334523D02*
X132742857Y-24334523D01*
X132702380Y-24739285D01*
X132742857Y-24698809D01*
X132823809Y-24658333D01*
X133026190Y-24658333D01*
X133107142Y-24698809D01*
X133147619Y-24739285D01*
X133188095Y-24820238D01*
X133188095Y-25022619D01*
X133147619Y-25103571D01*
X133107142Y-25144047D01*
X133026190Y-25184523D01*
X132823809Y-25184523D01*
X132742857Y-25144047D01*
X132702380Y-25103571D01*
%TO.C,RV4*%
X120434523Y-110305952D02*
X120029761Y-110589285D01*
X120434523Y-110791666D02*
X119584523Y-110791666D01*
X119584523Y-110467857D01*
X119625000Y-110386904D01*
X119665476Y-110346428D01*
X119746428Y-110305952D01*
X119867857Y-110305952D01*
X119948809Y-110346428D01*
X119989285Y-110386904D01*
X120029761Y-110467857D01*
X120029761Y-110791666D01*
X119584523Y-110063095D02*
X120434523Y-109779761D01*
X119584523Y-109496428D01*
X119867857Y-108848809D02*
X120434523Y-108848809D01*
X119544047Y-109051190D02*
X120151190Y-109253571D01*
X120151190Y-108727380D01*
%TO.C,H3*%
X209852380Y-126184523D02*
X209852380Y-125334523D01*
X209852380Y-125739285D02*
X210338095Y-125739285D01*
X210338095Y-126184523D02*
X210338095Y-125334523D01*
X210661904Y-125334523D02*
X211188095Y-125334523D01*
X210904761Y-125658333D01*
X211026190Y-125658333D01*
X211107142Y-125698809D01*
X211147619Y-125739285D01*
X211188095Y-125820238D01*
X211188095Y-126022619D01*
X211147619Y-126103571D01*
X211107142Y-126144047D01*
X211026190Y-126184523D01*
X210783333Y-126184523D01*
X210702380Y-126144047D01*
X210661904Y-126103571D01*
%TO.C,J1*%
X52216666Y-44534523D02*
X52216666Y-45141666D01*
X52176190Y-45263095D01*
X52095238Y-45344047D01*
X51973809Y-45384523D01*
X51892857Y-45384523D01*
X53066666Y-45384523D02*
X52580952Y-45384523D01*
X52823809Y-45384523D02*
X52823809Y-44534523D01*
X52742857Y-44655952D01*
X52661904Y-44736904D01*
X52580952Y-44777380D01*
%TO.C,R17*%
X149916071Y-64734523D02*
X149632738Y-64329761D01*
X149430357Y-64734523D02*
X149430357Y-63884523D01*
X149754166Y-63884523D01*
X149835119Y-63925000D01*
X149875595Y-63965476D01*
X149916071Y-64046428D01*
X149916071Y-64167857D01*
X149875595Y-64248809D01*
X149835119Y-64289285D01*
X149754166Y-64329761D01*
X149430357Y-64329761D01*
X150725595Y-64734523D02*
X150239880Y-64734523D01*
X150482738Y-64734523D02*
X150482738Y-63884523D01*
X150401785Y-64005952D01*
X150320833Y-64086904D01*
X150239880Y-64127380D01*
X151008928Y-63884523D02*
X151575595Y-63884523D01*
X151211309Y-64734523D01*
%TO.C,R3*%
X109434523Y-97991666D02*
X109029761Y-98275000D01*
X109434523Y-98477380D02*
X108584523Y-98477380D01*
X108584523Y-98153571D01*
X108625000Y-98072619D01*
X108665476Y-98032142D01*
X108746428Y-97991666D01*
X108867857Y-97991666D01*
X108948809Y-98032142D01*
X108989285Y-98072619D01*
X109029761Y-98153571D01*
X109029761Y-98477380D01*
X108584523Y-97708333D02*
X108584523Y-97182142D01*
X108908333Y-97465476D01*
X108908333Y-97344047D01*
X108948809Y-97263095D01*
X108989285Y-97222619D01*
X109070238Y-97182142D01*
X109272619Y-97182142D01*
X109353571Y-97222619D01*
X109394047Y-97263095D01*
X109434523Y-97344047D01*
X109434523Y-97586904D01*
X109394047Y-97667857D01*
X109353571Y-97708333D01*
%TO.C,F1*%
X67466666Y-33439285D02*
X67183333Y-33439285D01*
X67183333Y-33884523D02*
X67183333Y-33034523D01*
X67588095Y-33034523D01*
X68357142Y-33884523D02*
X67871428Y-33884523D01*
X68114285Y-33884523D02*
X68114285Y-33034523D01*
X68033333Y-33155952D01*
X67952380Y-33236904D01*
X67871428Y-33277380D01*
%TO.C,C4*%
X91303571Y-83141666D02*
X91344047Y-83182142D01*
X91384523Y-83303571D01*
X91384523Y-83384523D01*
X91344047Y-83505952D01*
X91263095Y-83586904D01*
X91182142Y-83627380D01*
X91020238Y-83667857D01*
X90898809Y-83667857D01*
X90736904Y-83627380D01*
X90655952Y-83586904D01*
X90575000Y-83505952D01*
X90534523Y-83384523D01*
X90534523Y-83303571D01*
X90575000Y-83182142D01*
X90615476Y-83141666D01*
X90817857Y-82413095D02*
X91384523Y-82413095D01*
X90494047Y-82615476D02*
X91101190Y-82817857D01*
X91101190Y-82291666D01*
%TO.C,C5*%
X145308333Y-51653571D02*
X145267857Y-51694047D01*
X145146428Y-51734523D01*
X145065476Y-51734523D01*
X144944047Y-51694047D01*
X144863095Y-51613095D01*
X144822619Y-51532142D01*
X144782142Y-51370238D01*
X144782142Y-51248809D01*
X144822619Y-51086904D01*
X144863095Y-51005952D01*
X144944047Y-50925000D01*
X145065476Y-50884523D01*
X145146428Y-50884523D01*
X145267857Y-50925000D01*
X145308333Y-50965476D01*
X146077380Y-50884523D02*
X145672619Y-50884523D01*
X145632142Y-51289285D01*
X145672619Y-51248809D01*
X145753571Y-51208333D01*
X145955952Y-51208333D01*
X146036904Y-51248809D01*
X146077380Y-51289285D01*
X146117857Y-51370238D01*
X146117857Y-51572619D01*
X146077380Y-51653571D01*
X146036904Y-51694047D01*
X145955952Y-51734523D01*
X145753571Y-51734523D01*
X145672619Y-51694047D01*
X145632142Y-51653571D01*
%TO.C,RV3*%
X183744047Y-44034523D02*
X183460714Y-43629761D01*
X183258333Y-44034523D02*
X183258333Y-43184523D01*
X183582142Y-43184523D01*
X183663095Y-43225000D01*
X183703571Y-43265476D01*
X183744047Y-43346428D01*
X183744047Y-43467857D01*
X183703571Y-43548809D01*
X183663095Y-43589285D01*
X183582142Y-43629761D01*
X183258333Y-43629761D01*
X183986904Y-43184523D02*
X184270238Y-44034523D01*
X184553571Y-43184523D01*
X184755952Y-43184523D02*
X185282142Y-43184523D01*
X184998809Y-43508333D01*
X185120238Y-43508333D01*
X185201190Y-43548809D01*
X185241666Y-43589285D01*
X185282142Y-43670238D01*
X185282142Y-43872619D01*
X185241666Y-43953571D01*
X185201190Y-43994047D01*
X185120238Y-44034523D01*
X184877380Y-44034523D01*
X184796428Y-43994047D01*
X184755952Y-43953571D01*
%TO.C,L3*%
X125508333Y-101784523D02*
X125103571Y-101784523D01*
X125103571Y-100934523D01*
X125710714Y-100934523D02*
X126236904Y-100934523D01*
X125953571Y-101258333D01*
X126075000Y-101258333D01*
X126155952Y-101298809D01*
X126196428Y-101339285D01*
X126236904Y-101420238D01*
X126236904Y-101622619D01*
X126196428Y-101703571D01*
X126155952Y-101744047D01*
X126075000Y-101784523D01*
X125832142Y-101784523D01*
X125751190Y-101744047D01*
X125710714Y-101703571D01*
%TO.C,U1*%
X146902380Y-54434523D02*
X146902380Y-55122619D01*
X146942857Y-55203571D01*
X146983333Y-55244047D01*
X147064285Y-55284523D01*
X147226190Y-55284523D01*
X147307142Y-55244047D01*
X147347619Y-55203571D01*
X147388095Y-55122619D01*
X147388095Y-54434523D01*
X148238095Y-55284523D02*
X147752380Y-55284523D01*
X147995238Y-55284523D02*
X147995238Y-54434523D01*
X147914285Y-54555952D01*
X147833333Y-54636904D01*
X147752380Y-54677380D01*
%TO.C,C8*%
X138953333Y-59503571D02*
X138912857Y-59544047D01*
X138791428Y-59584523D01*
X138710476Y-59584523D01*
X138589047Y-59544047D01*
X138508095Y-59463095D01*
X138467619Y-59382142D01*
X138427142Y-59220238D01*
X138427142Y-59098809D01*
X138467619Y-58936904D01*
X138508095Y-58855952D01*
X138589047Y-58775000D01*
X138710476Y-58734523D01*
X138791428Y-58734523D01*
X138912857Y-58775000D01*
X138953333Y-58815476D01*
X139439047Y-59098809D02*
X139358095Y-59058333D01*
X139317619Y-59017857D01*
X139277142Y-58936904D01*
X139277142Y-58896428D01*
X139317619Y-58815476D01*
X139358095Y-58775000D01*
X139439047Y-58734523D01*
X139600952Y-58734523D01*
X139681904Y-58775000D01*
X139722380Y-58815476D01*
X139762857Y-58896428D01*
X139762857Y-58936904D01*
X139722380Y-59017857D01*
X139681904Y-59058333D01*
X139600952Y-59098809D01*
X139439047Y-59098809D01*
X139358095Y-59139285D01*
X139317619Y-59179761D01*
X139277142Y-59260714D01*
X139277142Y-59422619D01*
X139317619Y-59503571D01*
X139358095Y-59544047D01*
X139439047Y-59584523D01*
X139600952Y-59584523D01*
X139681904Y-59544047D01*
X139722380Y-59503571D01*
X139762857Y-59422619D01*
X139762857Y-59260714D01*
X139722380Y-59179761D01*
X139681904Y-59139285D01*
X139600952Y-59098809D01*
%TO.C,D4*%
X172714523Y-124127380D02*
X171864523Y-124127380D01*
X171864523Y-123925000D01*
X171905000Y-123803571D01*
X171985952Y-123722619D01*
X172066904Y-123682142D01*
X172228809Y-123641666D01*
X172350238Y-123641666D01*
X172512142Y-123682142D01*
X172593095Y-123722619D01*
X172674047Y-123803571D01*
X172714523Y-123925000D01*
X172714523Y-124127380D01*
X172147857Y-122913095D02*
X172714523Y-122913095D01*
X171824047Y-123115476D02*
X172431190Y-123317857D01*
X172431190Y-122791666D01*
%TO.C,H4*%
X104852380Y-126184523D02*
X104852380Y-125334523D01*
X104852380Y-125739285D02*
X105338095Y-125739285D01*
X105338095Y-126184523D02*
X105338095Y-125334523D01*
X106107142Y-125617857D02*
X106107142Y-126184523D01*
X105904761Y-125294047D02*
X105702380Y-125901190D01*
X106228571Y-125901190D01*
%TO.C,R9*%
X200704523Y-47841666D02*
X200299761Y-48125000D01*
X200704523Y-48327380D02*
X199854523Y-48327380D01*
X199854523Y-48003571D01*
X199895000Y-47922619D01*
X199935476Y-47882142D01*
X200016428Y-47841666D01*
X200137857Y-47841666D01*
X200218809Y-47882142D01*
X200259285Y-47922619D01*
X200299761Y-48003571D01*
X200299761Y-48327380D01*
X200704523Y-47436904D02*
X200704523Y-47275000D01*
X200664047Y-47194047D01*
X200623571Y-47153571D01*
X200502142Y-47072619D01*
X200340238Y-47032142D01*
X200016428Y-47032142D01*
X199935476Y-47072619D01*
X199895000Y-47113095D01*
X199854523Y-47194047D01*
X199854523Y-47355952D01*
X199895000Y-47436904D01*
X199935476Y-47477380D01*
X200016428Y-47517857D01*
X200218809Y-47517857D01*
X200299761Y-47477380D01*
X200340238Y-47436904D01*
X200380714Y-47355952D01*
X200380714Y-47194047D01*
X200340238Y-47113095D01*
X200299761Y-47072619D01*
X200218809Y-47032142D01*
%TO.C,C9*%
X147998571Y-60391666D02*
X148039047Y-60432142D01*
X148079523Y-60553571D01*
X148079523Y-60634523D01*
X148039047Y-60755952D01*
X147958095Y-60836904D01*
X147877142Y-60877380D01*
X147715238Y-60917857D01*
X147593809Y-60917857D01*
X147431904Y-60877380D01*
X147350952Y-60836904D01*
X147270000Y-60755952D01*
X147229523Y-60634523D01*
X147229523Y-60553571D01*
X147270000Y-60432142D01*
X147310476Y-60391666D01*
X148079523Y-59986904D02*
X148079523Y-59825000D01*
X148039047Y-59744047D01*
X147998571Y-59703571D01*
X147877142Y-59622619D01*
X147715238Y-59582142D01*
X147391428Y-59582142D01*
X147310476Y-59622619D01*
X147270000Y-59663095D01*
X147229523Y-59744047D01*
X147229523Y-59905952D01*
X147270000Y-59986904D01*
X147310476Y-60027380D01*
X147391428Y-60067857D01*
X147593809Y-60067857D01*
X147674761Y-60027380D01*
X147715238Y-59986904D01*
X147755714Y-59905952D01*
X147755714Y-59744047D01*
X147715238Y-59663095D01*
X147674761Y-59622619D01*
X147593809Y-59582142D01*
%TO.C,Q1*%
X155465476Y-78896452D02*
X155425000Y-78977404D01*
X155344047Y-79058357D01*
X155222619Y-79179785D01*
X155182142Y-79260738D01*
X155182142Y-79341690D01*
X155384523Y-79301214D02*
X155344047Y-79382166D01*
X155263095Y-79463119D01*
X155101190Y-79503595D01*
X154817857Y-79503595D01*
X154655952Y-79463119D01*
X154575000Y-79382166D01*
X154534523Y-79301214D01*
X154534523Y-79139309D01*
X154575000Y-79058357D01*
X154655952Y-78977404D01*
X154817857Y-78936928D01*
X155101190Y-78936928D01*
X155263095Y-78977404D01*
X155344047Y-79058357D01*
X155384523Y-79139309D01*
X155384523Y-79301214D01*
X155384523Y-78127404D02*
X155384523Y-78613119D01*
X155384523Y-78370261D02*
X154534523Y-78370261D01*
X154655952Y-78451214D01*
X154736904Y-78532166D01*
X154777380Y-78613119D01*
%TO.C,R2*%
X113334523Y-97891666D02*
X112929761Y-98175000D01*
X113334523Y-98377380D02*
X112484523Y-98377380D01*
X112484523Y-98053571D01*
X112525000Y-97972619D01*
X112565476Y-97932142D01*
X112646428Y-97891666D01*
X112767857Y-97891666D01*
X112848809Y-97932142D01*
X112889285Y-97972619D01*
X112929761Y-98053571D01*
X112929761Y-98377380D01*
X112565476Y-97567857D02*
X112525000Y-97527380D01*
X112484523Y-97446428D01*
X112484523Y-97244047D01*
X112525000Y-97163095D01*
X112565476Y-97122619D01*
X112646428Y-97082142D01*
X112727380Y-97082142D01*
X112848809Y-97122619D01*
X113334523Y-97608333D01*
X113334523Y-97082142D01*
%TO.C,R11*%
X200704523Y-38946428D02*
X200299761Y-39229761D01*
X200704523Y-39432142D02*
X199854523Y-39432142D01*
X199854523Y-39108333D01*
X199895000Y-39027380D01*
X199935476Y-38986904D01*
X200016428Y-38946428D01*
X200137857Y-38946428D01*
X200218809Y-38986904D01*
X200259285Y-39027380D01*
X200299761Y-39108333D01*
X200299761Y-39432142D01*
X200704523Y-38136904D02*
X200704523Y-38622619D01*
X200704523Y-38379761D02*
X199854523Y-38379761D01*
X199975952Y-38460714D01*
X200056904Y-38541666D01*
X200097380Y-38622619D01*
X200704523Y-37327380D02*
X200704523Y-37813095D01*
X200704523Y-37570238D02*
X199854523Y-37570238D01*
X199975952Y-37651190D01*
X200056904Y-37732142D01*
X200097380Y-37813095D01*
%TO.C,R10*%
X200704523Y-43546428D02*
X200299761Y-43829761D01*
X200704523Y-44032142D02*
X199854523Y-44032142D01*
X199854523Y-43708333D01*
X199895000Y-43627380D01*
X199935476Y-43586904D01*
X200016428Y-43546428D01*
X200137857Y-43546428D01*
X200218809Y-43586904D01*
X200259285Y-43627380D01*
X200299761Y-43708333D01*
X200299761Y-44032142D01*
X200704523Y-42736904D02*
X200704523Y-43222619D01*
X200704523Y-42979761D02*
X199854523Y-42979761D01*
X199975952Y-43060714D01*
X200056904Y-43141666D01*
X200097380Y-43222619D01*
X199854523Y-42210714D02*
X199854523Y-42129761D01*
X199895000Y-42048809D01*
X199935476Y-42008333D01*
X200016428Y-41967857D01*
X200178333Y-41927380D01*
X200380714Y-41927380D01*
X200542619Y-41967857D01*
X200623571Y-42008333D01*
X200664047Y-42048809D01*
X200704523Y-42129761D01*
X200704523Y-42210714D01*
X200664047Y-42291666D01*
X200623571Y-42332142D01*
X200542619Y-42372619D01*
X200380714Y-42413095D01*
X200178333Y-42413095D01*
X200016428Y-42372619D01*
X199935476Y-42332142D01*
X199895000Y-42291666D01*
X199854523Y-42210714D01*
%TO.C,R14*%
X183453571Y-57384523D02*
X183170238Y-56979761D01*
X182967857Y-57384523D02*
X182967857Y-56534523D01*
X183291666Y-56534523D01*
X183372619Y-56575000D01*
X183413095Y-56615476D01*
X183453571Y-56696428D01*
X183453571Y-56817857D01*
X183413095Y-56898809D01*
X183372619Y-56939285D01*
X183291666Y-56979761D01*
X182967857Y-56979761D01*
X184263095Y-57384523D02*
X183777380Y-57384523D01*
X184020238Y-57384523D02*
X184020238Y-56534523D01*
X183939285Y-56655952D01*
X183858333Y-56736904D01*
X183777380Y-56777380D01*
X184991666Y-56817857D02*
X184991666Y-57384523D01*
X184789285Y-56494047D02*
X184586904Y-57101190D01*
X185113095Y-57101190D01*
%TO.C,R5*%
X105384523Y-97941666D02*
X104979761Y-98225000D01*
X105384523Y-98427380D02*
X104534523Y-98427380D01*
X104534523Y-98103571D01*
X104575000Y-98022619D01*
X104615476Y-97982142D01*
X104696428Y-97941666D01*
X104817857Y-97941666D01*
X104898809Y-97982142D01*
X104939285Y-98022619D01*
X104979761Y-98103571D01*
X104979761Y-98427380D01*
X104534523Y-97172619D02*
X104534523Y-97577380D01*
X104939285Y-97617857D01*
X104898809Y-97577380D01*
X104858333Y-97496428D01*
X104858333Y-97294047D01*
X104898809Y-97213095D01*
X104939285Y-97172619D01*
X105020238Y-97132142D01*
X105222619Y-97132142D01*
X105303571Y-97172619D01*
X105344047Y-97213095D01*
X105384523Y-97294047D01*
X105384523Y-97496428D01*
X105344047Y-97577380D01*
X105303571Y-97617857D01*
%TO.C,C11*%
X210475791Y-118303571D02*
X210435315Y-118344047D01*
X210313886Y-118384523D01*
X210232934Y-118384523D01*
X210111505Y-118344047D01*
X210030553Y-118263095D01*
X209990077Y-118182142D01*
X209949600Y-118020238D01*
X209949600Y-117898809D01*
X209990077Y-117736904D01*
X210030553Y-117655952D01*
X210111505Y-117575000D01*
X210232934Y-117534523D01*
X210313886Y-117534523D01*
X210435315Y-117575000D01*
X210475791Y-117615476D01*
X211285315Y-118384523D02*
X210799600Y-118384523D01*
X211042458Y-118384523D02*
X211042458Y-117534523D01*
X210961505Y-117655952D01*
X210880553Y-117736904D01*
X210799600Y-117777380D01*
X212094839Y-118384523D02*
X211609124Y-118384523D01*
X211851981Y-118384523D02*
X211851981Y-117534523D01*
X211771029Y-117655952D01*
X211690077Y-117736904D01*
X211609124Y-117777380D01*
%TO.C,HS1*%
X146552380Y-84435476D02*
X146552380Y-85285476D01*
X146552380Y-84880714D02*
X146066666Y-84880714D01*
X146066666Y-84435476D02*
X146066666Y-85285476D01*
X145702380Y-84475952D02*
X145580952Y-84435476D01*
X145378571Y-84435476D01*
X145297619Y-84475952D01*
X145257142Y-84516428D01*
X145216666Y-84597380D01*
X145216666Y-84678333D01*
X145257142Y-84759285D01*
X145297619Y-84799761D01*
X145378571Y-84840238D01*
X145540476Y-84880714D01*
X145621428Y-84921190D01*
X145661904Y-84961666D01*
X145702380Y-85042619D01*
X145702380Y-85123571D01*
X145661904Y-85204523D01*
X145621428Y-85245000D01*
X145540476Y-85285476D01*
X145338095Y-85285476D01*
X145216666Y-85245000D01*
X144407142Y-84435476D02*
X144892857Y-84435476D01*
X144650000Y-84435476D02*
X144650000Y-85285476D01*
X144730952Y-85164047D01*
X144811904Y-85083095D01*
X144892857Y-85042619D01*
%TO.C,H6*%
X53852380Y-126184523D02*
X53852380Y-125334523D01*
X53852380Y-125739285D02*
X54338095Y-125739285D01*
X54338095Y-126184523D02*
X54338095Y-125334523D01*
X55107142Y-125334523D02*
X54945238Y-125334523D01*
X54864285Y-125375000D01*
X54823809Y-125415476D01*
X54742857Y-125536904D01*
X54702380Y-125698809D01*
X54702380Y-126022619D01*
X54742857Y-126103571D01*
X54783333Y-126144047D01*
X54864285Y-126184523D01*
X55026190Y-126184523D01*
X55107142Y-126144047D01*
X55147619Y-126103571D01*
X55188095Y-126022619D01*
X55188095Y-125820238D01*
X55147619Y-125739285D01*
X55107142Y-125698809D01*
X55026190Y-125658333D01*
X54864285Y-125658333D01*
X54783333Y-125698809D01*
X54742857Y-125739285D01*
X54702380Y-125820238D01*
%TO.C,RV2*%
X193494047Y-49934523D02*
X193210714Y-49529761D01*
X193008333Y-49934523D02*
X193008333Y-49084523D01*
X193332142Y-49084523D01*
X193413095Y-49125000D01*
X193453571Y-49165476D01*
X193494047Y-49246428D01*
X193494047Y-49367857D01*
X193453571Y-49448809D01*
X193413095Y-49489285D01*
X193332142Y-49529761D01*
X193008333Y-49529761D01*
X193736904Y-49084523D02*
X194020238Y-49934523D01*
X194303571Y-49084523D01*
X194546428Y-49165476D02*
X194586904Y-49125000D01*
X194667857Y-49084523D01*
X194870238Y-49084523D01*
X194951190Y-49125000D01*
X194991666Y-49165476D01*
X195032142Y-49246428D01*
X195032142Y-49327380D01*
X194991666Y-49448809D01*
X194505952Y-49934523D01*
X195032142Y-49934523D01*
%TO.C,D3*%
X113384523Y-126177380D02*
X112534523Y-126177380D01*
X112534523Y-125975000D01*
X112575000Y-125853571D01*
X112655952Y-125772619D01*
X112736904Y-125732142D01*
X112898809Y-125691666D01*
X113020238Y-125691666D01*
X113182142Y-125732142D01*
X113263095Y-125772619D01*
X113344047Y-125853571D01*
X113384523Y-125975000D01*
X113384523Y-126177380D01*
X112534523Y-125408333D02*
X112534523Y-124882142D01*
X112858333Y-125165476D01*
X112858333Y-125044047D01*
X112898809Y-124963095D01*
X112939285Y-124922619D01*
X113020238Y-124882142D01*
X113222619Y-124882142D01*
X113303571Y-124922619D01*
X113344047Y-124963095D01*
X113384523Y-125044047D01*
X113384523Y-125286904D01*
X113344047Y-125367857D01*
X113303571Y-125408333D01*
%TO.C,C1*%
X84358333Y-59303571D02*
X84317857Y-59344047D01*
X84196428Y-59384523D01*
X84115476Y-59384523D01*
X83994047Y-59344047D01*
X83913095Y-59263095D01*
X83872619Y-59182142D01*
X83832142Y-59020238D01*
X83832142Y-58898809D01*
X83872619Y-58736904D01*
X83913095Y-58655952D01*
X83994047Y-58575000D01*
X84115476Y-58534523D01*
X84196428Y-58534523D01*
X84317857Y-58575000D01*
X84358333Y-58615476D01*
X85167857Y-59384523D02*
X84682142Y-59384523D01*
X84925000Y-59384523D02*
X84925000Y-58534523D01*
X84844047Y-58655952D01*
X84763095Y-58736904D01*
X84682142Y-58777380D01*
%TO.C,H2*%
X209852380Y-25184523D02*
X209852380Y-24334523D01*
X209852380Y-24739285D02*
X210338095Y-24739285D01*
X210338095Y-25184523D02*
X210338095Y-24334523D01*
X210702380Y-24415476D02*
X210742857Y-24375000D01*
X210823809Y-24334523D01*
X211026190Y-24334523D01*
X211107142Y-24375000D01*
X211147619Y-24415476D01*
X211188095Y-24496428D01*
X211188095Y-24577380D01*
X211147619Y-24698809D01*
X210661904Y-25184523D01*
X211188095Y-25184523D01*
%TO.C,C3*%
X56053571Y-81141666D02*
X56094047Y-81182142D01*
X56134523Y-81303571D01*
X56134523Y-81384523D01*
X56094047Y-81505952D01*
X56013095Y-81586904D01*
X55932142Y-81627380D01*
X55770238Y-81667857D01*
X55648809Y-81667857D01*
X55486904Y-81627380D01*
X55405952Y-81586904D01*
X55325000Y-81505952D01*
X55284523Y-81384523D01*
X55284523Y-81303571D01*
X55325000Y-81182142D01*
X55365476Y-81141666D01*
X55284523Y-80858333D02*
X55284523Y-80332142D01*
X55608333Y-80615476D01*
X55608333Y-80494047D01*
X55648809Y-80413095D01*
X55689285Y-80372619D01*
X55770238Y-80332142D01*
X55972619Y-80332142D01*
X56053571Y-80372619D01*
X56094047Y-80413095D01*
X56134523Y-80494047D01*
X56134523Y-80736904D01*
X56094047Y-80817857D01*
X56053571Y-80858333D01*
%TO.C,L2*%
X74884523Y-102641666D02*
X74884523Y-103046428D01*
X74034523Y-103046428D01*
X74115476Y-102398809D02*
X74075000Y-102358333D01*
X74034523Y-102277380D01*
X74034523Y-102075000D01*
X74075000Y-101994047D01*
X74115476Y-101953571D01*
X74196428Y-101913095D01*
X74277380Y-101913095D01*
X74398809Y-101953571D01*
X74884523Y-102439285D01*
X74884523Y-101913095D01*
%TO.C,R8*%
X151834523Y-67741666D02*
X151429761Y-68025000D01*
X151834523Y-68227380D02*
X150984523Y-68227380D01*
X150984523Y-67903571D01*
X151025000Y-67822619D01*
X151065476Y-67782142D01*
X151146428Y-67741666D01*
X151267857Y-67741666D01*
X151348809Y-67782142D01*
X151389285Y-67822619D01*
X151429761Y-67903571D01*
X151429761Y-68227380D01*
X151348809Y-67255952D02*
X151308333Y-67336904D01*
X151267857Y-67377380D01*
X151186904Y-67417857D01*
X151146428Y-67417857D01*
X151065476Y-67377380D01*
X151025000Y-67336904D01*
X150984523Y-67255952D01*
X150984523Y-67094047D01*
X151025000Y-67013095D01*
X151065476Y-66972619D01*
X151146428Y-66932142D01*
X151186904Y-66932142D01*
X151267857Y-66972619D01*
X151308333Y-67013095D01*
X151348809Y-67094047D01*
X151348809Y-67255952D01*
X151389285Y-67336904D01*
X151429761Y-67377380D01*
X151510714Y-67417857D01*
X151672619Y-67417857D01*
X151753571Y-67377380D01*
X151794047Y-67336904D01*
X151834523Y-67255952D01*
X151834523Y-67094047D01*
X151794047Y-67013095D01*
X151753571Y-66972619D01*
X151672619Y-66932142D01*
X151510714Y-66932142D01*
X151429761Y-66972619D01*
X151389285Y-67013095D01*
X151348809Y-67094047D01*
%TO.C,C14*%
X189975791Y-99303571D02*
X189935315Y-99344047D01*
X189813886Y-99384523D01*
X189732934Y-99384523D01*
X189611505Y-99344047D01*
X189530553Y-99263095D01*
X189490077Y-99182142D01*
X189449600Y-99020238D01*
X189449600Y-98898809D01*
X189490077Y-98736904D01*
X189530553Y-98655952D01*
X189611505Y-98575000D01*
X189732934Y-98534523D01*
X189813886Y-98534523D01*
X189935315Y-98575000D01*
X189975791Y-98615476D01*
X190785315Y-99384523D02*
X190299600Y-99384523D01*
X190542458Y-99384523D02*
X190542458Y-98534523D01*
X190461505Y-98655952D01*
X190380553Y-98736904D01*
X190299600Y-98777380D01*
X191513886Y-98817857D02*
X191513886Y-99384523D01*
X191311505Y-98494047D02*
X191109124Y-99101190D01*
X191635315Y-99101190D01*
%TO.C,R15*%
X142334523Y-73283928D02*
X141929761Y-73567261D01*
X142334523Y-73769642D02*
X141484523Y-73769642D01*
X141484523Y-73445833D01*
X141525000Y-73364880D01*
X141565476Y-73324404D01*
X141646428Y-73283928D01*
X141767857Y-73283928D01*
X141848809Y-73324404D01*
X141889285Y-73364880D01*
X141929761Y-73445833D01*
X141929761Y-73769642D01*
X142334523Y-72474404D02*
X142334523Y-72960119D01*
X142334523Y-72717261D02*
X141484523Y-72717261D01*
X141605952Y-72798214D01*
X141686904Y-72879166D01*
X141727380Y-72960119D01*
X141484523Y-71705357D02*
X141484523Y-72110119D01*
X141889285Y-72150595D01*
X141848809Y-72110119D01*
X141808333Y-72029166D01*
X141808333Y-71826785D01*
X141848809Y-71745833D01*
X141889285Y-71705357D01*
X141970238Y-71664880D01*
X142172619Y-71664880D01*
X142253571Y-71705357D01*
X142294047Y-71745833D01*
X142334523Y-71826785D01*
X142334523Y-72029166D01*
X142294047Y-72110119D01*
X142253571Y-72150595D01*
%TO.C,C13*%
X210475791Y-98803571D02*
X210435315Y-98844047D01*
X210313886Y-98884523D01*
X210232934Y-98884523D01*
X210111505Y-98844047D01*
X210030553Y-98763095D01*
X209990077Y-98682142D01*
X209949600Y-98520238D01*
X209949600Y-98398809D01*
X209990077Y-98236904D01*
X210030553Y-98155952D01*
X210111505Y-98075000D01*
X210232934Y-98034523D01*
X210313886Y-98034523D01*
X210435315Y-98075000D01*
X210475791Y-98115476D01*
X211285315Y-98884523D02*
X210799600Y-98884523D01*
X211042458Y-98884523D02*
X211042458Y-98034523D01*
X210961505Y-98155952D01*
X210880553Y-98236904D01*
X210799600Y-98277380D01*
X211568648Y-98034523D02*
X212094839Y-98034523D01*
X211811505Y-98358333D01*
X211932934Y-98358333D01*
X212013886Y-98398809D01*
X212054362Y-98439285D01*
X212094839Y-98520238D01*
X212094839Y-98722619D01*
X212054362Y-98803571D01*
X212013886Y-98844047D01*
X211932934Y-98884523D01*
X211690077Y-98884523D01*
X211609124Y-98844047D01*
X211568648Y-98803571D01*
%TO.C,L1*%
X100884523Y-102641666D02*
X100884523Y-103046428D01*
X100034523Y-103046428D01*
X100884523Y-101913095D02*
X100884523Y-102398809D01*
X100884523Y-102155952D02*
X100034523Y-102155952D01*
X100155952Y-102236904D01*
X100236904Y-102317857D01*
X100277380Y-102398809D01*
%TO.C,C10*%
X112953571Y-108546428D02*
X112994047Y-108586904D01*
X113034523Y-108708333D01*
X113034523Y-108789285D01*
X112994047Y-108910714D01*
X112913095Y-108991666D01*
X112832142Y-109032142D01*
X112670238Y-109072619D01*
X112548809Y-109072619D01*
X112386904Y-109032142D01*
X112305952Y-108991666D01*
X112225000Y-108910714D01*
X112184523Y-108789285D01*
X112184523Y-108708333D01*
X112225000Y-108586904D01*
X112265476Y-108546428D01*
X113034523Y-107736904D02*
X113034523Y-108222619D01*
X113034523Y-107979761D02*
X112184523Y-107979761D01*
X112305952Y-108060714D01*
X112386904Y-108141666D01*
X112427380Y-108222619D01*
X112184523Y-107210714D02*
X112184523Y-107129761D01*
X112225000Y-107048809D01*
X112265476Y-107008333D01*
X112346428Y-106967857D01*
X112508333Y-106927380D01*
X112710714Y-106927380D01*
X112872619Y-106967857D01*
X112953571Y-107008333D01*
X112994047Y-107048809D01*
X113034523Y-107129761D01*
X113034523Y-107210714D01*
X112994047Y-107291666D01*
X112953571Y-107332142D01*
X112872619Y-107372619D01*
X112710714Y-107413095D01*
X112508333Y-107413095D01*
X112346428Y-107372619D01*
X112265476Y-107332142D01*
X112225000Y-107291666D01*
X112184523Y-107210714D01*
%TO.C,PS1*%
X90985714Y-26452380D02*
X90985714Y-25452380D01*
X91366666Y-25452380D01*
X91461904Y-25500000D01*
X91509523Y-25547619D01*
X91557142Y-25642857D01*
X91557142Y-25785714D01*
X91509523Y-25880952D01*
X91461904Y-25928571D01*
X91366666Y-25976190D01*
X90985714Y-25976190D01*
X91938095Y-26404761D02*
X92080952Y-26452380D01*
X92319047Y-26452380D01*
X92414285Y-26404761D01*
X92461904Y-26357142D01*
X92509523Y-26261904D01*
X92509523Y-26166666D01*
X92461904Y-26071428D01*
X92414285Y-26023809D01*
X92319047Y-25976190D01*
X92128571Y-25928571D01*
X92033333Y-25880952D01*
X91985714Y-25833333D01*
X91938095Y-25738095D01*
X91938095Y-25642857D01*
X91985714Y-25547619D01*
X92033333Y-25500000D01*
X92128571Y-25452380D01*
X92366666Y-25452380D01*
X92509523Y-25500000D01*
X93461904Y-26452380D02*
X92890476Y-26452380D01*
X93176190Y-26452380D02*
X93176190Y-25452380D01*
X93080952Y-25595238D01*
X92985714Y-25690476D01*
X92890476Y-25738095D01*
%TO.C,C18*%
X147841071Y-67803571D02*
X147800595Y-67844047D01*
X147679166Y-67884523D01*
X147598214Y-67884523D01*
X147476785Y-67844047D01*
X147395833Y-67763095D01*
X147355357Y-67682142D01*
X147314880Y-67520238D01*
X147314880Y-67398809D01*
X147355357Y-67236904D01*
X147395833Y-67155952D01*
X147476785Y-67075000D01*
X147598214Y-67034523D01*
X147679166Y-67034523D01*
X147800595Y-67075000D01*
X147841071Y-67115476D01*
X148650595Y-67884523D02*
X148164880Y-67884523D01*
X148407738Y-67884523D02*
X148407738Y-67034523D01*
X148326785Y-67155952D01*
X148245833Y-67236904D01*
X148164880Y-67277380D01*
X149136309Y-67398809D02*
X149055357Y-67358333D01*
X149014880Y-67317857D01*
X148974404Y-67236904D01*
X148974404Y-67196428D01*
X149014880Y-67115476D01*
X149055357Y-67075000D01*
X149136309Y-67034523D01*
X149298214Y-67034523D01*
X149379166Y-67075000D01*
X149419642Y-67115476D01*
X149460119Y-67196428D01*
X149460119Y-67236904D01*
X149419642Y-67317857D01*
X149379166Y-67358333D01*
X149298214Y-67398809D01*
X149136309Y-67398809D01*
X149055357Y-67439285D01*
X149014880Y-67479761D01*
X148974404Y-67560714D01*
X148974404Y-67722619D01*
X149014880Y-67803571D01*
X149055357Y-67844047D01*
X149136309Y-67884523D01*
X149298214Y-67884523D01*
X149379166Y-67844047D01*
X149419642Y-67803571D01*
X149460119Y-67722619D01*
X149460119Y-67560714D01*
X149419642Y-67479761D01*
X149379166Y-67439285D01*
X149298214Y-67398809D01*
%TO.C,R7*%
X138903333Y-51434523D02*
X138620000Y-51029761D01*
X138417619Y-51434523D02*
X138417619Y-50584523D01*
X138741428Y-50584523D01*
X138822380Y-50625000D01*
X138862857Y-50665476D01*
X138903333Y-50746428D01*
X138903333Y-50867857D01*
X138862857Y-50948809D01*
X138822380Y-50989285D01*
X138741428Y-51029761D01*
X138417619Y-51029761D01*
X139186666Y-50584523D02*
X139753333Y-50584523D01*
X139389047Y-51434523D01*
%TO.C,C19*%
X153803571Y-64853571D02*
X153763095Y-64894047D01*
X153641666Y-64934523D01*
X153560714Y-64934523D01*
X153439285Y-64894047D01*
X153358333Y-64813095D01*
X153317857Y-64732142D01*
X153277380Y-64570238D01*
X153277380Y-64448809D01*
X153317857Y-64286904D01*
X153358333Y-64205952D01*
X153439285Y-64125000D01*
X153560714Y-64084523D01*
X153641666Y-64084523D01*
X153763095Y-64125000D01*
X153803571Y-64165476D01*
X154613095Y-64934523D02*
X154127380Y-64934523D01*
X154370238Y-64934523D02*
X154370238Y-64084523D01*
X154289285Y-64205952D01*
X154208333Y-64286904D01*
X154127380Y-64327380D01*
X155017857Y-64934523D02*
X155179761Y-64934523D01*
X155260714Y-64894047D01*
X155301190Y-64853571D01*
X155382142Y-64732142D01*
X155422619Y-64570238D01*
X155422619Y-64246428D01*
X155382142Y-64165476D01*
X155341666Y-64125000D01*
X155260714Y-64084523D01*
X155098809Y-64084523D01*
X155017857Y-64125000D01*
X154977380Y-64165476D01*
X154936904Y-64246428D01*
X154936904Y-64448809D01*
X154977380Y-64529761D01*
X155017857Y-64570238D01*
X155098809Y-64610714D01*
X155260714Y-64610714D01*
X155341666Y-64570238D01*
X155382142Y-64529761D01*
X155422619Y-64448809D01*
%TO.C,C15*%
X209975791Y-79303571D02*
X209935315Y-79344047D01*
X209813886Y-79384523D01*
X209732934Y-79384523D01*
X209611505Y-79344047D01*
X209530553Y-79263095D01*
X209490077Y-79182142D01*
X209449600Y-79020238D01*
X209449600Y-78898809D01*
X209490077Y-78736904D01*
X209530553Y-78655952D01*
X209611505Y-78575000D01*
X209732934Y-78534523D01*
X209813886Y-78534523D01*
X209935315Y-78575000D01*
X209975791Y-78615476D01*
X210785315Y-79384523D02*
X210299600Y-79384523D01*
X210542458Y-79384523D02*
X210542458Y-78534523D01*
X210461505Y-78655952D01*
X210380553Y-78736904D01*
X210299600Y-78777380D01*
X211554362Y-78534523D02*
X211149600Y-78534523D01*
X211109124Y-78939285D01*
X211149600Y-78898809D01*
X211230553Y-78858333D01*
X211432934Y-78858333D01*
X211513886Y-78898809D01*
X211554362Y-78939285D01*
X211594839Y-79020238D01*
X211594839Y-79222619D01*
X211554362Y-79303571D01*
X211513886Y-79344047D01*
X211432934Y-79384523D01*
X211230553Y-79384523D01*
X211149600Y-79344047D01*
X211109124Y-79303571D01*
%TO.C,C17*%
X145178571Y-64653571D02*
X145138095Y-64694047D01*
X145016666Y-64734523D01*
X144935714Y-64734523D01*
X144814285Y-64694047D01*
X144733333Y-64613095D01*
X144692857Y-64532142D01*
X144652380Y-64370238D01*
X144652380Y-64248809D01*
X144692857Y-64086904D01*
X144733333Y-64005952D01*
X144814285Y-63925000D01*
X144935714Y-63884523D01*
X145016666Y-63884523D01*
X145138095Y-63925000D01*
X145178571Y-63965476D01*
X145988095Y-64734523D02*
X145502380Y-64734523D01*
X145745238Y-64734523D02*
X145745238Y-63884523D01*
X145664285Y-64005952D01*
X145583333Y-64086904D01*
X145502380Y-64127380D01*
X146271428Y-63884523D02*
X146838095Y-63884523D01*
X146473809Y-64734523D01*
%TO.C,C6*%
X80858333Y-123703571D02*
X80817857Y-123744047D01*
X80696428Y-123784523D01*
X80615476Y-123784523D01*
X80494047Y-123744047D01*
X80413095Y-123663095D01*
X80372619Y-123582142D01*
X80332142Y-123420238D01*
X80332142Y-123298809D01*
X80372619Y-123136904D01*
X80413095Y-123055952D01*
X80494047Y-122975000D01*
X80615476Y-122934523D01*
X80696428Y-122934523D01*
X80817857Y-122975000D01*
X80858333Y-123015476D01*
X81586904Y-122934523D02*
X81425000Y-122934523D01*
X81344047Y-122975000D01*
X81303571Y-123015476D01*
X81222619Y-123136904D01*
X81182142Y-123298809D01*
X81182142Y-123622619D01*
X81222619Y-123703571D01*
X81263095Y-123744047D01*
X81344047Y-123784523D01*
X81505952Y-123784523D01*
X81586904Y-123744047D01*
X81627380Y-123703571D01*
X81667857Y-123622619D01*
X81667857Y-123420238D01*
X81627380Y-123339285D01*
X81586904Y-123298809D01*
X81505952Y-123258333D01*
X81344047Y-123258333D01*
X81263095Y-123298809D01*
X81222619Y-123339285D01*
X81182142Y-123420238D01*
%TO.C,R12*%
X198816071Y-33834523D02*
X198532738Y-33429761D01*
X198330357Y-33834523D02*
X198330357Y-32984523D01*
X198654166Y-32984523D01*
X198735119Y-33025000D01*
X198775595Y-33065476D01*
X198816071Y-33146428D01*
X198816071Y-33267857D01*
X198775595Y-33348809D01*
X198735119Y-33389285D01*
X198654166Y-33429761D01*
X198330357Y-33429761D01*
X199625595Y-33834523D02*
X199139880Y-33834523D01*
X199382738Y-33834523D02*
X199382738Y-32984523D01*
X199301785Y-33105952D01*
X199220833Y-33186904D01*
X199139880Y-33227380D01*
X199949404Y-33065476D02*
X199989880Y-33025000D01*
X200070833Y-32984523D01*
X200273214Y-32984523D01*
X200354166Y-33025000D01*
X200394642Y-33065476D01*
X200435119Y-33146428D01*
X200435119Y-33227380D01*
X200394642Y-33348809D01*
X199908928Y-33834523D01*
X200435119Y-33834523D01*
%TO.C,R4*%
X138903333Y-54534523D02*
X138620000Y-54129761D01*
X138417619Y-54534523D02*
X138417619Y-53684523D01*
X138741428Y-53684523D01*
X138822380Y-53725000D01*
X138862857Y-53765476D01*
X138903333Y-53846428D01*
X138903333Y-53967857D01*
X138862857Y-54048809D01*
X138822380Y-54089285D01*
X138741428Y-54129761D01*
X138417619Y-54129761D01*
X139631904Y-53967857D02*
X139631904Y-54534523D01*
X139429523Y-53644047D02*
X139227142Y-54251190D01*
X139753333Y-54251190D01*
%TO.C,J2*%
X210716666Y-36534523D02*
X210716666Y-37141666D01*
X210676190Y-37263095D01*
X210595238Y-37344047D01*
X210473809Y-37384523D01*
X210392857Y-37384523D01*
X211080952Y-36615476D02*
X211121428Y-36575000D01*
X211202380Y-36534523D01*
X211404761Y-36534523D01*
X211485714Y-36575000D01*
X211526190Y-36615476D01*
X211566666Y-36696428D01*
X211566666Y-36777380D01*
X211526190Y-36898809D01*
X211040476Y-37384523D01*
X211566666Y-37384523D01*
%TO.C,U2*%
X145652380Y-71684523D02*
X145652380Y-72372619D01*
X145692857Y-72453571D01*
X145733333Y-72494047D01*
X145814285Y-72534523D01*
X145976190Y-72534523D01*
X146057142Y-72494047D01*
X146097619Y-72453571D01*
X146138095Y-72372619D01*
X146138095Y-71684523D01*
X146502380Y-71765476D02*
X146542857Y-71725000D01*
X146623809Y-71684523D01*
X146826190Y-71684523D01*
X146907142Y-71725000D01*
X146947619Y-71765476D01*
X146988095Y-71846428D01*
X146988095Y-71927380D01*
X146947619Y-72048809D01*
X146461904Y-72534523D01*
X146988095Y-72534523D01*
%TO.C,R6*%
X139003333Y-62934523D02*
X138720000Y-62529761D01*
X138517619Y-62934523D02*
X138517619Y-62084523D01*
X138841428Y-62084523D01*
X138922380Y-62125000D01*
X138962857Y-62165476D01*
X139003333Y-62246428D01*
X139003333Y-62367857D01*
X138962857Y-62448809D01*
X138922380Y-62489285D01*
X138841428Y-62529761D01*
X138517619Y-62529761D01*
X139731904Y-62084523D02*
X139570000Y-62084523D01*
X139489047Y-62125000D01*
X139448571Y-62165476D01*
X139367619Y-62286904D01*
X139327142Y-62448809D01*
X139327142Y-62772619D01*
X139367619Y-62853571D01*
X139408095Y-62894047D01*
X139489047Y-62934523D01*
X139650952Y-62934523D01*
X139731904Y-62894047D01*
X139772380Y-62853571D01*
X139812857Y-62772619D01*
X139812857Y-62570238D01*
X139772380Y-62489285D01*
X139731904Y-62448809D01*
X139650952Y-62408333D01*
X139489047Y-62408333D01*
X139408095Y-62448809D01*
X139367619Y-62489285D01*
X139327142Y-62570238D01*
%TO.C,C12*%
X190475791Y-118303571D02*
X190435315Y-118344047D01*
X190313886Y-118384523D01*
X190232934Y-118384523D01*
X190111505Y-118344047D01*
X190030553Y-118263095D01*
X189990077Y-118182142D01*
X189949600Y-118020238D01*
X189949600Y-117898809D01*
X189990077Y-117736904D01*
X190030553Y-117655952D01*
X190111505Y-117575000D01*
X190232934Y-117534523D01*
X190313886Y-117534523D01*
X190435315Y-117575000D01*
X190475791Y-117615476D01*
X191285315Y-118384523D02*
X190799600Y-118384523D01*
X191042458Y-118384523D02*
X191042458Y-117534523D01*
X190961505Y-117655952D01*
X190880553Y-117736904D01*
X190799600Y-117777380D01*
X191609124Y-117615476D02*
X191649600Y-117575000D01*
X191730553Y-117534523D01*
X191932934Y-117534523D01*
X192013886Y-117575000D01*
X192054362Y-117615476D01*
X192094839Y-117696428D01*
X192094839Y-117777380D01*
X192054362Y-117898809D01*
X191568648Y-118384523D01*
X192094839Y-118384523D01*
%TO.C,RV1*%
X74744047Y-47334523D02*
X74460714Y-46929761D01*
X74258333Y-47334523D02*
X74258333Y-46484523D01*
X74582142Y-46484523D01*
X74663095Y-46525000D01*
X74703571Y-46565476D01*
X74744047Y-46646428D01*
X74744047Y-46767857D01*
X74703571Y-46848809D01*
X74663095Y-46889285D01*
X74582142Y-46929761D01*
X74258333Y-46929761D01*
X74986904Y-46484523D02*
X75270238Y-47334523D01*
X75553571Y-46484523D01*
X76282142Y-47334523D02*
X75796428Y-47334523D01*
X76039285Y-47334523D02*
X76039285Y-46484523D01*
X75958333Y-46605952D01*
X75877380Y-46686904D01*
X75796428Y-46727380D01*
%TO.C,D1*%
X73022619Y-131334523D02*
X73022619Y-130484523D01*
X73225000Y-130484523D01*
X73346428Y-130525000D01*
X73427380Y-130605952D01*
X73467857Y-130686904D01*
X73508333Y-130848809D01*
X73508333Y-130970238D01*
X73467857Y-131132142D01*
X73427380Y-131213095D01*
X73346428Y-131294047D01*
X73225000Y-131334523D01*
X73022619Y-131334523D01*
X74317857Y-131334523D02*
X73832142Y-131334523D01*
X74075000Y-131334523D02*
X74075000Y-130484523D01*
X73994047Y-130605952D01*
X73913095Y-130686904D01*
X73832142Y-130727380D01*
%TO.C,R1*%
X117334523Y-97941666D02*
X116929761Y-98225000D01*
X117334523Y-98427380D02*
X116484523Y-98427380D01*
X116484523Y-98103571D01*
X116525000Y-98022619D01*
X116565476Y-97982142D01*
X116646428Y-97941666D01*
X116767857Y-97941666D01*
X116848809Y-97982142D01*
X116889285Y-98022619D01*
X116929761Y-98103571D01*
X116929761Y-98427380D01*
X117334523Y-97132142D02*
X117334523Y-97617857D01*
X117334523Y-97375000D02*
X116484523Y-97375000D01*
X116605952Y-97455952D01*
X116686904Y-97536904D01*
X116727380Y-97617857D01*
%TO.C,C16*%
X190475791Y-79303571D02*
X190435315Y-79344047D01*
X190313886Y-79384523D01*
X190232934Y-79384523D01*
X190111505Y-79344047D01*
X190030553Y-79263095D01*
X189990077Y-79182142D01*
X189949600Y-79020238D01*
X189949600Y-78898809D01*
X189990077Y-78736904D01*
X190030553Y-78655952D01*
X190111505Y-78575000D01*
X190232934Y-78534523D01*
X190313886Y-78534523D01*
X190435315Y-78575000D01*
X190475791Y-78615476D01*
X191285315Y-79384523D02*
X190799600Y-79384523D01*
X191042458Y-79384523D02*
X191042458Y-78534523D01*
X190961505Y-78655952D01*
X190880553Y-78736904D01*
X190799600Y-78777380D01*
X192013886Y-78534523D02*
X191851981Y-78534523D01*
X191771029Y-78575000D01*
X191730553Y-78615476D01*
X191649600Y-78736904D01*
X191609124Y-78898809D01*
X191609124Y-79222619D01*
X191649600Y-79303571D01*
X191690077Y-79344047D01*
X191771029Y-79384523D01*
X191932934Y-79384523D01*
X192013886Y-79344047D01*
X192054362Y-79303571D01*
X192094839Y-79222619D01*
X192094839Y-79020238D01*
X192054362Y-78939285D01*
X192013886Y-78898809D01*
X191932934Y-78858333D01*
X191771029Y-78858333D01*
X191690077Y-78898809D01*
X191649600Y-78939285D01*
X191609124Y-79020238D01*
D10*
%TO.C,FL1*%
X62750000Y-81250000D02*
X62750000Y-62750000D01*
X90250000Y-81250000D02*
X62750000Y-81250000D01*
X62750000Y-62750000D02*
X90250000Y-62750000D01*
X90250000Y-81250000D02*
X90250000Y-62750000D01*
D12*
%TO.C,C7*%
X136705000Y-61763748D02*
X136705000Y-63186252D01*
X134885000Y-61763748D02*
X134885000Y-63186252D01*
%TO.C,R16*%
X144685000Y-72089564D02*
X144685000Y-71635436D01*
X143215000Y-72089564D02*
X143215000Y-71635436D01*
%TO.C,D2*%
X152050000Y-72150000D02*
X148150000Y-72150000D01*
X152050000Y-74150000D02*
X152050000Y-72150000D01*
X152050000Y-74150000D02*
X148150000Y-74150000D01*
%TO.C,R13*%
X195822936Y-57790000D02*
X200177064Y-57790000D01*
X195822936Y-61210000D02*
X200177064Y-61210000D01*
%TO.C,C2*%
X67380000Y-89120000D02*
X67380000Y-82880000D01*
X85620000Y-89120000D02*
X85620000Y-82880000D01*
X85620000Y-82880000D02*
X67380000Y-82880000D01*
X85620000Y-89120000D02*
X67380000Y-89120000D01*
D11*
%TO.C,RV4*%
X114150000Y-117550000D02*
X119050000Y-117550000D01*
X114150000Y-102050000D02*
X119050000Y-102050000D01*
X114150000Y-117550000D02*
X114150000Y-102050000D01*
X119050000Y-117550000D02*
X119050000Y-102050000D01*
D12*
%TO.C,J1*%
X46390000Y-45960000D02*
X46390000Y-69040000D01*
X46390000Y-69040000D02*
X58610000Y-69040000D01*
X47890000Y-50630000D02*
X47890000Y-49130000D01*
X47890000Y-56750000D02*
X46390000Y-56500000D01*
X47890000Y-49130000D02*
X46390000Y-48880000D01*
X46390000Y-66120000D02*
X47890000Y-65870000D01*
X47890000Y-65870000D02*
X47890000Y-64370000D01*
X49690000Y-45960000D02*
X49690000Y-69040000D01*
X46390000Y-48880000D02*
X46390000Y-50880000D01*
X46390000Y-58500000D02*
X47890000Y-58250000D01*
X46390000Y-50880000D02*
X47890000Y-50630000D01*
X46390000Y-64120000D02*
X46390000Y-66120000D01*
X59410000Y-49580000D02*
X59410000Y-50180000D01*
X47890000Y-64370000D02*
X46390000Y-64120000D01*
X58610000Y-45960000D02*
X46390000Y-45960000D01*
X47890000Y-58250000D02*
X47890000Y-56750000D01*
X47890000Y-69040000D02*
X47890000Y-45960000D01*
X47890000Y-45960000D02*
X49690000Y-45960000D01*
X49690000Y-69040000D02*
X47890000Y-69040000D01*
X46390000Y-56500000D02*
X46390000Y-58500000D01*
X58810000Y-49880000D02*
X59410000Y-49580000D01*
X58610000Y-69040000D02*
X58610000Y-45960000D01*
X59410000Y-50180000D02*
X58810000Y-49880000D01*
%TO.C,R17*%
X150689564Y-66435000D02*
X150235436Y-66435000D01*
X150689564Y-64965000D02*
X150235436Y-64965000D01*
%TO.C,R3*%
X107290000Y-91100000D02*
X107290000Y-94800000D01*
X110710000Y-91100000D02*
X110710000Y-94800000D01*
%TO.C,F1*%
X56390000Y-44410000D02*
X79110000Y-44410000D01*
X79110000Y-37750000D02*
X79110000Y-34590000D01*
X56390000Y-34590000D02*
X79110000Y-34590000D01*
X56390000Y-44410000D02*
X56390000Y-41250000D01*
X56390000Y-37750000D02*
X56390000Y-34590000D01*
X79110000Y-44410000D02*
X79110000Y-41250000D01*
%TO.C,C4*%
X91880000Y-74380000D02*
X96120000Y-74380000D01*
X96120000Y-87620000D02*
X96120000Y-74380000D01*
X91880000Y-87620000D02*
X96120000Y-87620000D01*
X91880000Y-87620000D02*
X91880000Y-74380000D01*
%TO.C,C5*%
X145711252Y-52015000D02*
X145188748Y-52015000D01*
X145711252Y-53485000D02*
X145188748Y-53485000D01*
D11*
%TO.C,RV3*%
X192000000Y-49550000D02*
X176500000Y-49550000D01*
X192000000Y-44650000D02*
X176500000Y-44650000D01*
X192000000Y-49550000D02*
X192000000Y-44650000D01*
X176500000Y-49550000D02*
X176500000Y-44650000D01*
D10*
%TO.C,L3*%
X159600000Y-115500000D02*
G75*
G03*
X159600000Y-115500000I-19000000J0D01*
G01*
D12*
%TO.C,U1*%
X141335000Y-58050000D02*
X141335000Y-56100000D01*
X146455000Y-58050000D02*
X146455000Y-60000000D01*
X146455000Y-58050000D02*
X146455000Y-54600000D01*
X141335000Y-58050000D02*
X141335000Y-60000000D01*
%TO.C,C8*%
X138833748Y-61285000D02*
X139356252Y-61285000D01*
X138833748Y-59815000D02*
X139356252Y-59815000D01*
%TO.C,D4*%
X164380000Y-123300000D02*
X164380000Y-121800000D01*
X171180000Y-121800000D02*
X171180000Y-123300000D01*
X164380000Y-121800000D02*
X164780000Y-121800000D01*
X170830000Y-121800000D02*
X171180000Y-121800000D01*
X166180000Y-121800000D02*
X169380000Y-121800000D01*
%TO.C,R9*%
X199410000Y-46972936D02*
X199410000Y-48427064D01*
X197590000Y-46972936D02*
X197590000Y-48427064D01*
%TO.C,C9*%
X148430000Y-57588748D02*
X148430000Y-58111252D01*
X146960000Y-57588748D02*
X146960000Y-58111252D01*
%TO.C,Q1*%
X147804000Y-81451000D02*
X147804000Y-76180000D01*
X144195000Y-81451000D02*
X144195000Y-76180000D01*
X154070000Y-76180000D02*
X137930000Y-76180000D01*
X154070000Y-81451000D02*
X154070000Y-76180000D01*
X137930000Y-81451000D02*
X137930000Y-76180000D01*
X154070000Y-81451000D02*
X137930000Y-81451000D01*
%TO.C,R2*%
X114710000Y-91100000D02*
X114710000Y-94800000D01*
X111290000Y-91100000D02*
X111290000Y-94800000D01*
%TO.C,R11*%
X197590000Y-37672936D02*
X197590000Y-39127064D01*
X199410000Y-37672936D02*
X199410000Y-39127064D01*
%TO.C,R10*%
X197590000Y-42272936D02*
X197590000Y-43727064D01*
X199410000Y-42272936D02*
X199410000Y-43727064D01*
%TO.C,R14*%
X181822936Y-57790000D02*
X186177064Y-57790000D01*
X181822936Y-61210000D02*
X186177064Y-61210000D01*
%TO.C,R5*%
X103290000Y-91100000D02*
X103290000Y-94800000D01*
X106710000Y-91100000D02*
X106710000Y-94800000D01*
%TO.C,C11*%
X196709000Y-117794000D02*
X196709000Y-104206000D01*
X196029000Y-117126000D02*
X196029000Y-104874000D01*
X199149000Y-119340000D02*
X199149000Y-112440000D01*
X199429000Y-119455000D02*
X199429000Y-112440000D01*
X200789000Y-119867000D02*
X200789000Y-102133000D01*
X201069000Y-119924000D02*
X201069000Y-102076000D01*
X198109000Y-118812000D02*
X198109000Y-112440000D01*
X199789000Y-109560000D02*
X199789000Y-102413000D01*
X196189000Y-117296000D02*
X196189000Y-104704000D01*
X198309000Y-118927000D02*
X198309000Y-112440000D01*
X202230000Y-120066000D02*
X202230000Y-101934000D01*
X196229000Y-117337000D02*
X196229000Y-104663000D01*
X195669000Y-116709000D02*
X195669000Y-105291000D01*
X197069000Y-118096000D02*
X197069000Y-103904000D01*
X194949000Y-115686000D02*
X194949000Y-106314000D01*
X200389000Y-109560000D02*
X200389000Y-102230000D01*
X198389000Y-118971000D02*
X198389000Y-112440000D01*
X195469000Y-116454000D02*
X195469000Y-105546000D01*
X201349000Y-119972000D02*
X201349000Y-102028000D01*
X198749000Y-109560000D02*
X198749000Y-102844000D01*
X200069000Y-109560000D02*
X200069000Y-102322000D01*
X201829000Y-120034000D02*
X201829000Y-101966000D01*
X202110000Y-120058000D02*
X202110000Y-101942000D01*
X193790000Y-112661000D02*
X193790000Y-109339000D01*
X202029000Y-120052000D02*
X202029000Y-101948000D01*
X195949000Y-117038000D02*
X195949000Y-104962000D01*
X197189000Y-118190000D02*
X197189000Y-103810000D01*
X200229000Y-109560000D02*
X200229000Y-102275000D01*
X198229000Y-118882000D02*
X198229000Y-112440000D01*
X199429000Y-109560000D02*
X199429000Y-102545000D01*
X200909000Y-119893000D02*
X200909000Y-102107000D01*
X194749000Y-115339000D02*
X194749000Y-106661000D01*
X198149000Y-118835000D02*
X198149000Y-112440000D01*
X197429000Y-118368000D02*
X197429000Y-103632000D01*
X197749000Y-118588000D02*
X197749000Y-112440000D01*
X196549000Y-117649000D02*
X196549000Y-104351000D01*
X198669000Y-109560000D02*
X198669000Y-102883000D01*
X196749000Y-117829000D02*
X196749000Y-104171000D01*
X195709000Y-116758000D02*
X195709000Y-105242000D01*
X201629000Y-120011000D02*
X201629000Y-101989000D01*
X194869000Y-115552000D02*
X194869000Y-106448000D01*
X199189000Y-119357000D02*
X199189000Y-112440000D01*
X199749000Y-109560000D02*
X199749000Y-102427000D01*
X199989000Y-119653000D02*
X199989000Y-112440000D01*
X200269000Y-109560000D02*
X200269000Y-102263000D01*
X197589000Y-118480000D02*
X197589000Y-112440000D01*
X199549000Y-119501000D02*
X199549000Y-112440000D01*
X199309000Y-119407000D02*
X199309000Y-112440000D01*
X196869000Y-117932000D02*
X196869000Y-104068000D01*
X200029000Y-109560000D02*
X200029000Y-102335000D01*
X199389000Y-119439000D02*
X199389000Y-112440000D01*
X199189000Y-109560000D02*
X199189000Y-102643000D01*
X199629000Y-109560000D02*
X199629000Y-102470000D01*
X197269000Y-118250000D02*
X197269000Y-103750000D01*
X198549000Y-109560000D02*
X198549000Y-102944000D01*
X198989000Y-119269000D02*
X198989000Y-112440000D01*
X198109000Y-109560000D02*
X198109000Y-103188000D01*
X197309000Y-118280000D02*
X197309000Y-103720000D01*
X200229000Y-119725000D02*
X200229000Y-112440000D01*
X196829000Y-117898000D02*
X196829000Y-104102000D01*
X199629000Y-119530000D02*
X199629000Y-112440000D01*
X199349000Y-119423000D02*
X199349000Y-112440000D01*
X196949000Y-117999000D02*
X196949000Y-104001000D01*
X194390000Y-114605000D02*
X194390000Y-107395000D01*
X194829000Y-115482000D02*
X194829000Y-106518000D01*
X199029000Y-119287000D02*
X199029000Y-112440000D01*
X193630000Y-111040000D02*
X193630000Y-110960000D01*
X201709000Y-120021000D02*
X201709000Y-101979000D01*
X199589000Y-119516000D02*
X199589000Y-112440000D01*
X197389000Y-118339000D02*
X197389000Y-103661000D01*
X199149000Y-109560000D02*
X199149000Y-102660000D01*
X200149000Y-109560000D02*
X200149000Y-102298000D01*
X194030000Y-113632000D02*
X194030000Y-108368000D01*
X200589000Y-119821000D02*
X200589000Y-102179000D01*
X197469000Y-118397000D02*
X197469000Y-103603000D01*
X198749000Y-119156000D02*
X198749000Y-112440000D01*
X197909000Y-109560000D02*
X197909000Y-103310000D01*
X198509000Y-109560000D02*
X198509000Y-102965000D01*
X195509000Y-116506000D02*
X195509000Y-105494000D01*
X198829000Y-119195000D02*
X198829000Y-112440000D01*
X200749000Y-119858000D02*
X200749000Y-102142000D01*
X198349000Y-118949000D02*
X198349000Y-112440000D01*
X199029000Y-109560000D02*
X199029000Y-102713000D01*
X200349000Y-119759000D02*
X200349000Y-112440000D01*
X195429000Y-116400000D02*
X195429000Y-105600000D01*
X196309000Y-117418000D02*
X196309000Y-104582000D01*
X197909000Y-118690000D02*
X197909000Y-112440000D01*
X197229000Y-118220000D02*
X197229000Y-103780000D01*
X200349000Y-109560000D02*
X200349000Y-102241000D01*
X198949000Y-109560000D02*
X198949000Y-102749000D01*
X202150000Y-120061000D02*
X202150000Y-101939000D01*
X198829000Y-109560000D02*
X198829000Y-102805000D01*
X200269000Y-119737000D02*
X200269000Y-112440000D01*
X211609440Y-117015000D02*
X211609440Y-115215000D01*
X201509000Y-119996000D02*
X201509000Y-102004000D01*
X195389000Y-116346000D02*
X195389000Y-105654000D01*
X197629000Y-109560000D02*
X197629000Y-103492000D01*
X195229000Y-116120000D02*
X195229000Y-105880000D01*
X194909000Y-115620000D02*
X194909000Y-106380000D01*
X198789000Y-119176000D02*
X198789000Y-112440000D01*
X199749000Y-119573000D02*
X199749000Y-112440000D01*
X199709000Y-109560000D02*
X199709000Y-102441000D01*
X201949000Y-120045000D02*
X201949000Y-101955000D01*
X194430000Y-114696000D02*
X194430000Y-107304000D01*
X198069000Y-109560000D02*
X198069000Y-103212000D01*
X197029000Y-118064000D02*
X197029000Y-103936000D01*
X198949000Y-119251000D02*
X198949000Y-112440000D01*
X195629000Y-116660000D02*
X195629000Y-105340000D01*
X196429000Y-117536000D02*
X196429000Y-104464000D01*
X197949000Y-118715000D02*
X197949000Y-112440000D01*
X198069000Y-118788000D02*
X198069000Y-112440000D01*
X199309000Y-109560000D02*
X199309000Y-102593000D01*
X193670000Y-111814000D02*
X193670000Y-110186000D01*
X196389000Y-117497000D02*
X196389000Y-104503000D01*
X199669000Y-119545000D02*
X199669000Y-112440000D01*
X196269000Y-117378000D02*
X196269000Y-104622000D01*
X202470000Y-120076000D02*
X202470000Y-101924000D01*
X197149000Y-118159000D02*
X197149000Y-103841000D01*
X197629000Y-118508000D02*
X197629000Y-112440000D01*
X212509440Y-116115000D02*
X210709440Y-116115000D01*
X196509000Y-117612000D02*
X196509000Y-104388000D01*
X200069000Y-119678000D02*
X200069000Y-112440000D01*
X202190000Y-120063000D02*
X202190000Y-101937000D01*
X199909000Y-109560000D02*
X199909000Y-102373000D01*
X199709000Y-119559000D02*
X199709000Y-112440000D01*
X195549000Y-116558000D02*
X195549000Y-105442000D01*
X197709000Y-118561000D02*
X197709000Y-112440000D01*
X202390000Y-120073000D02*
X202390000Y-101927000D01*
X195829000Y-116901000D02*
X195829000Y-105099000D01*
X199509000Y-119486000D02*
X199509000Y-112440000D01*
X199069000Y-119305000D02*
X199069000Y-112440000D01*
X201469000Y-119990000D02*
X201469000Y-102010000D01*
X197829000Y-109560000D02*
X197829000Y-103360000D01*
X194510000Y-114869000D02*
X194510000Y-107131000D01*
X199269000Y-109560000D02*
X199269000Y-102610000D01*
X195349000Y-116291000D02*
X195349000Y-105709000D01*
X199389000Y-109560000D02*
X199389000Y-102561000D01*
X198349000Y-109560000D02*
X198349000Y-103051000D01*
X196349000Y-117458000D02*
X196349000Y-104542000D01*
X200029000Y-119665000D02*
X200029000Y-112440000D01*
X202590000Y-120079000D02*
X202590000Y-101921000D01*
X196909000Y-117965000D02*
X196909000Y-104035000D01*
X201549000Y-120001000D02*
X201549000Y-101999000D01*
X199269000Y-119390000D02*
X199269000Y-112440000D01*
X198469000Y-109560000D02*
X198469000Y-102986000D01*
X201309000Y-119966000D02*
X201309000Y-102034000D01*
X202710000Y-120080000D02*
X202710000Y-101920000D01*
X201789000Y-120030000D02*
X201789000Y-101970000D01*
X195189000Y-116062000D02*
X195189000Y-105938000D01*
X202630000Y-120080000D02*
X202630000Y-101920000D01*
X198269000Y-118904000D02*
X198269000Y-112440000D01*
X200629000Y-119831000D02*
X200629000Y-102169000D01*
X200109000Y-119690000D02*
X200109000Y-112440000D01*
X198149000Y-109560000D02*
X198149000Y-103165000D01*
X194629000Y-115113000D02*
X194629000Y-106887000D01*
X197989000Y-109560000D02*
X197989000Y-103260000D01*
X196589000Y-117686000D02*
X196589000Y-104314000D01*
X198229000Y-109560000D02*
X198229000Y-103118000D01*
X198629000Y-109560000D02*
X198629000Y-102903000D01*
X199589000Y-109560000D02*
X199589000Y-102484000D01*
X202310000Y-120070000D02*
X202310000Y-101930000D01*
X195069000Y-115879000D02*
X195069000Y-106121000D01*
X193750000Y-112435000D02*
X193750000Y-109565000D01*
X202750000Y-120081000D02*
X202750000Y-101919000D01*
X197549000Y-118453000D02*
X197549000Y-103547000D01*
X197749000Y-109560000D02*
X197749000Y-103412000D01*
X202550000Y-120078000D02*
X202550000Y-101922000D01*
X198869000Y-109560000D02*
X198869000Y-102786000D01*
X202670000Y-120080000D02*
X202670000Y-101920000D01*
X198909000Y-109560000D02*
X198909000Y-102767000D01*
X201669000Y-120016000D02*
X201669000Y-101984000D01*
X198469000Y-119014000D02*
X198469000Y-112440000D01*
X200989000Y-119909000D02*
X200989000Y-102091000D01*
X198029000Y-118764000D02*
X198029000Y-112440000D01*
X201029000Y-119917000D02*
X201029000Y-102083000D01*
X194150000Y-113996000D02*
X194150000Y-108004000D01*
X195149000Y-116002000D02*
X195149000Y-105998000D01*
X198989000Y-109560000D02*
X198989000Y-102731000D01*
X197789000Y-109560000D02*
X197789000Y-103386000D01*
X198709000Y-119137000D02*
X198709000Y-112440000D01*
X199829000Y-119600000D02*
X199829000Y-112440000D01*
X198429000Y-109560000D02*
X198429000Y-103008000D01*
X194110000Y-113880000D02*
X194110000Y-108120000D01*
X201909000Y-120042000D02*
X201909000Y-101958000D01*
X201229000Y-119953000D02*
X201229000Y-102047000D01*
X199509000Y-109560000D02*
X199509000Y-102514000D01*
X198589000Y-119076000D02*
X198589000Y-112440000D01*
X197589000Y-109560000D02*
X197589000Y-103520000D01*
X201269000Y-119960000D02*
X201269000Y-102040000D01*
X196989000Y-118031000D02*
X196989000Y-103969000D01*
X198189000Y-118859000D02*
X198189000Y-112440000D01*
X198309000Y-109560000D02*
X198309000Y-103073000D01*
X199989000Y-109560000D02*
X199989000Y-102347000D01*
X199109000Y-119323000D02*
X199109000Y-112440000D01*
X200429000Y-119780000D02*
X200429000Y-112440000D01*
X200669000Y-119840000D02*
X200669000Y-102160000D01*
X195029000Y-115816000D02*
X195029000Y-106184000D01*
X201189000Y-119946000D02*
X201189000Y-102054000D01*
X195269000Y-116178000D02*
X195269000Y-105822000D01*
X194350000Y-114512000D02*
X194350000Y-107488000D01*
X196629000Y-117722000D02*
X196629000Y-104278000D01*
X195869000Y-116947000D02*
X195869000Y-105053000D01*
X202510000Y-120077000D02*
X202510000Y-101923000D01*
X194789000Y-115412000D02*
X194789000Y-106588000D01*
X193990000Y-113498000D02*
X193990000Y-108502000D01*
X199909000Y-119627000D02*
X199909000Y-112440000D01*
X198669000Y-119117000D02*
X198669000Y-112440000D01*
X202070000Y-120055000D02*
X202070000Y-101945000D01*
X196669000Y-117758000D02*
X196669000Y-104242000D01*
X197669000Y-118535000D02*
X197669000Y-112440000D01*
X200869000Y-119885000D02*
X200869000Y-102115000D01*
X194270000Y-114317000D02*
X194270000Y-107683000D01*
X199349000Y-109560000D02*
X199349000Y-102577000D01*
X199229000Y-119374000D02*
X199229000Y-112440000D01*
X196149000Y-117254000D02*
X196149000Y-104746000D01*
X194190000Y-114107000D02*
X194190000Y-107893000D01*
X198429000Y-118992000D02*
X198429000Y-112440000D01*
X199229000Y-109560000D02*
X199229000Y-102626000D01*
X198389000Y-109560000D02*
X198389000Y-103029000D01*
X200549000Y-119811000D02*
X200549000Y-102189000D01*
X197989000Y-118740000D02*
X197989000Y-112440000D01*
X198549000Y-119056000D02*
X198549000Y-112440000D01*
X197509000Y-118425000D02*
X197509000Y-103575000D01*
X194070000Y-113759000D02*
X194070000Y-108241000D01*
X197949000Y-109560000D02*
X197949000Y-103285000D01*
X196469000Y-117574000D02*
X196469000Y-104426000D01*
X202270000Y-120068000D02*
X202270000Y-101932000D01*
X201869000Y-120038000D02*
X201869000Y-101962000D01*
X194230000Y-114214000D02*
X194230000Y-107786000D01*
X198269000Y-109560000D02*
X198269000Y-103096000D01*
X199949000Y-119640000D02*
X199949000Y-112440000D01*
X199069000Y-109560000D02*
X199069000Y-102695000D01*
X198029000Y-109560000D02*
X198029000Y-103236000D01*
X200309000Y-119748000D02*
X200309000Y-112440000D01*
X197109000Y-118127000D02*
X197109000Y-103873000D01*
X197869000Y-109560000D02*
X197869000Y-103335000D01*
X201389000Y-119979000D02*
X201389000Y-102021000D01*
X199109000Y-109560000D02*
X199109000Y-102677000D01*
X199869000Y-119614000D02*
X199869000Y-112440000D01*
X201109000Y-119932000D02*
X201109000Y-102068000D01*
X197669000Y-109560000D02*
X197669000Y-103465000D01*
X200509000Y-119801000D02*
X200509000Y-102199000D01*
X197709000Y-109560000D02*
X197709000Y-103439000D01*
X200189000Y-109560000D02*
X200189000Y-102286000D01*
X198589000Y-109560000D02*
X198589000Y-102924000D01*
X198909000Y-119233000D02*
X198909000Y-112440000D01*
X200109000Y-109560000D02*
X200109000Y-102310000D01*
X198189000Y-109560000D02*
X198189000Y-103141000D01*
X199869000Y-109560000D02*
X199869000Y-102386000D01*
X194669000Y-115190000D02*
X194669000Y-106810000D01*
X194709000Y-115265000D02*
X194709000Y-106735000D01*
X195789000Y-116854000D02*
X195789000Y-105146000D01*
X200829000Y-119876000D02*
X200829000Y-102124000D01*
X196069000Y-117170000D02*
X196069000Y-104830000D01*
X197349000Y-118310000D02*
X197349000Y-103690000D01*
X200429000Y-109560000D02*
X200429000Y-102220000D01*
X196789000Y-117864000D02*
X196789000Y-104136000D01*
X195309000Y-116235000D02*
X195309000Y-105765000D01*
X199469000Y-119470000D02*
X199469000Y-112440000D01*
X200949000Y-119901000D02*
X200949000Y-102099000D01*
X199829000Y-109560000D02*
X199829000Y-102400000D01*
X194310000Y-114416000D02*
X194310000Y-107584000D01*
X195749000Y-116806000D02*
X195749000Y-105194000D01*
X200189000Y-119714000D02*
X200189000Y-112440000D01*
X200309000Y-109560000D02*
X200309000Y-102252000D01*
X193830000Y-112860000D02*
X193830000Y-109140000D01*
X201989000Y-120049000D02*
X201989000Y-101951000D01*
X194989000Y-115752000D02*
X194989000Y-106248000D01*
X194589000Y-115033000D02*
X194589000Y-106967000D01*
X197829000Y-118640000D02*
X197829000Y-112440000D01*
X193710000Y-112166000D02*
X193710000Y-109834000D01*
X197869000Y-118665000D02*
X197869000Y-112440000D01*
X199789000Y-119587000D02*
X199789000Y-112440000D01*
X193870000Y-113039000D02*
X193870000Y-108961000D01*
X195989000Y-117082000D02*
X195989000Y-104918000D01*
X199469000Y-109560000D02*
X199469000Y-102530000D01*
X200149000Y-119702000D02*
X200149000Y-112440000D01*
X194550000Y-114952000D02*
X194550000Y-107048000D01*
X193910000Y-113203000D02*
X193910000Y-108797000D01*
X193950000Y-113355000D02*
X193950000Y-108645000D01*
X195109000Y-115941000D02*
X195109000Y-106059000D01*
X200389000Y-119770000D02*
X200389000Y-112440000D01*
X201589000Y-120006000D02*
X201589000Y-101994000D01*
X201429000Y-119984000D02*
X201429000Y-102016000D01*
X199669000Y-109560000D02*
X199669000Y-102455000D01*
X198709000Y-109560000D02*
X198709000Y-102863000D01*
X195589000Y-116609000D02*
X195589000Y-105391000D01*
X199949000Y-109560000D02*
X199949000Y-102360000D01*
X201749000Y-120026000D02*
X201749000Y-101974000D01*
X200469000Y-119791000D02*
X200469000Y-102209000D01*
X197789000Y-118614000D02*
X197789000Y-112440000D01*
X198509000Y-119035000D02*
X198509000Y-112440000D01*
X195909000Y-116993000D02*
X195909000Y-105007000D01*
X201149000Y-119939000D02*
X201149000Y-102061000D01*
X202350000Y-120072000D02*
X202350000Y-101928000D01*
X198789000Y-109560000D02*
X198789000Y-102824000D01*
X198629000Y-119097000D02*
X198629000Y-112440000D01*
X196109000Y-117212000D02*
X196109000Y-104788000D01*
X200709000Y-119849000D02*
X200709000Y-102151000D01*
X194470000Y-114784000D02*
X194470000Y-107216000D01*
X198869000Y-119214000D02*
X198869000Y-112440000D01*
X202430000Y-120075000D02*
X202430000Y-101925000D01*
X199549000Y-109560000D02*
X199549000Y-102499000D01*
X211870000Y-111000000D02*
G75*
G03*
X211870000Y-111000000I-9120000J0D01*
G01*
D10*
%TO.C,HS1*%
X152000000Y-94320000D02*
X167000000Y-94320000D01*
X133500000Y-78820000D02*
X133500000Y-69320000D01*
X152000000Y-83320000D02*
X152000000Y-94320000D01*
X140000000Y-83320000D02*
X140000000Y-94320000D01*
X167000000Y-69320000D02*
X167000000Y-94320000D01*
X155500000Y-81820000D02*
X136500000Y-81820000D01*
X125000000Y-69320000D02*
X125000000Y-94320000D01*
X125000000Y-69320000D02*
X133500000Y-69320000D01*
X125000000Y-94320000D02*
X140000000Y-94320000D01*
X152000000Y-83320000D02*
X140000000Y-83320000D01*
X158500000Y-78820000D02*
X158500000Y-69320000D01*
X158500000Y-69320000D02*
X167000000Y-69320000D01*
D11*
%TO.C,RV2*%
X202500000Y-55350000D02*
X202500000Y-50450000D01*
X202500000Y-50450000D02*
X187000000Y-50450000D01*
X187000000Y-55350000D02*
X187000000Y-50450000D01*
X202500000Y-55350000D02*
X187000000Y-55350000D01*
D12*
%TO.C,D3*%
X113850000Y-130350000D02*
X113850000Y-121950000D01*
X120350000Y-130350000D02*
X113850000Y-130350000D01*
X120350000Y-130350000D02*
X120350000Y-121950000D01*
%TO.C,C1*%
X83120000Y-54380000D02*
X64880000Y-54380000D01*
X83120000Y-60620000D02*
X64880000Y-60620000D01*
X83120000Y-60620000D02*
X83120000Y-54380000D01*
X64880000Y-60620000D02*
X64880000Y-54380000D01*
%TO.C,C3*%
X56880000Y-74380000D02*
X61120000Y-74380000D01*
X56880000Y-87620000D02*
X56880000Y-74380000D01*
X56880000Y-87620000D02*
X61120000Y-87620000D01*
X61120000Y-87620000D02*
X61120000Y-74380000D01*
%TO.C,L2*%
X51400000Y-91150000D02*
X51400000Y-113850000D01*
X73600000Y-91150000D02*
X73600000Y-113850000D01*
X73600000Y-113850000D02*
X66400000Y-113850000D01*
X58600000Y-91150000D02*
X51400000Y-91150000D01*
X66400000Y-91150000D02*
X73600000Y-91150000D01*
X51400000Y-113850000D02*
X58600000Y-113850000D01*
%TO.C,R8*%
X150715000Y-70227064D02*
X150715000Y-69772936D01*
X152185000Y-70227064D02*
X152185000Y-69772936D01*
%TO.C,C14*%
X178591220Y-90060000D02*
X178591220Y-83712000D01*
X178951220Y-90060000D02*
X178951220Y-83508000D01*
X177871220Y-98810000D02*
X177871220Y-84190000D01*
X175831220Y-96735000D02*
X175831220Y-86265000D01*
X177991220Y-98897000D02*
X177991220Y-84103000D01*
X179511220Y-99769000D02*
X179511220Y-92940000D01*
X178791220Y-99404000D02*
X178791220Y-92940000D01*
X176271220Y-97306000D02*
X176271220Y-85694000D01*
X174992220Y-95284000D02*
X174992220Y-87716000D01*
X178351220Y-90060000D02*
X178351220Y-83860000D01*
X181071220Y-100311000D02*
X181071220Y-82689000D01*
X183192220Y-100580000D02*
X183192220Y-82420000D01*
X180751220Y-90060000D02*
X180751220Y-82775000D01*
X182391220Y-100538000D02*
X182391220Y-82462000D01*
X181911220Y-100479000D02*
X181911220Y-82521000D01*
X178551220Y-99264000D02*
X178551220Y-92940000D01*
X181591220Y-100424000D02*
X181591220Y-82576000D01*
X180751220Y-100225000D02*
X180751220Y-92940000D01*
X183232220Y-100580000D02*
X183232220Y-82420000D01*
X176591220Y-97670000D02*
X176591220Y-85330000D01*
X180711220Y-100214000D02*
X180711220Y-92940000D01*
X174272220Y-92935000D02*
X174272220Y-90065000D01*
X180791220Y-90060000D02*
X180791220Y-82763000D01*
X182912220Y-100573000D02*
X182912220Y-82427000D01*
X178991220Y-99514000D02*
X178991220Y-92940000D01*
X179511220Y-90060000D02*
X179511220Y-83231000D01*
X180471220Y-100140000D02*
X180471220Y-92940000D01*
X182031220Y-100496000D02*
X182031220Y-82504000D01*
X178751220Y-99382000D02*
X178751220Y-92940000D01*
X181271220Y-100358000D02*
X181271220Y-82642000D01*
X182311220Y-100530000D02*
X182311220Y-82470000D01*
X179631220Y-90060000D02*
X179631220Y-83177000D01*
X181231220Y-100349000D02*
X181231220Y-82651000D01*
X179831220Y-99907000D02*
X179831220Y-92940000D01*
X177191220Y-98258000D02*
X177191220Y-84742000D01*
X174352220Y-93360000D02*
X174352220Y-89640000D01*
X181551220Y-100417000D02*
X181551220Y-82583000D01*
X177231220Y-98294000D02*
X177231220Y-84706000D01*
X177631220Y-98627000D02*
X177631220Y-84373000D01*
X176951220Y-98036000D02*
X176951220Y-84964000D01*
X178231220Y-99061000D02*
X178231220Y-92940000D01*
X179271220Y-99656000D02*
X179271220Y-92940000D01*
X180071220Y-90060000D02*
X180071220Y-82999000D01*
X180671220Y-100202000D02*
X180671220Y-92940000D01*
X178551220Y-90060000D02*
X178551220Y-83736000D01*
X176351220Y-97401000D02*
X176351220Y-85599000D01*
X179591220Y-99805000D02*
X179591220Y-92940000D01*
X179111220Y-99576000D02*
X179111220Y-92940000D01*
X183272220Y-100581000D02*
X183272220Y-82419000D01*
X179151220Y-99597000D02*
X179151220Y-92940000D01*
X181311220Y-100367000D02*
X181311220Y-82633000D01*
X179311220Y-99676000D02*
X179311220Y-92940000D01*
X177551220Y-98564000D02*
X177551220Y-84436000D01*
X175671220Y-96502000D02*
X175671220Y-86498000D01*
X178471220Y-99215000D02*
X178471220Y-92940000D01*
X178631220Y-90060000D02*
X178631220Y-83688000D01*
X181991220Y-100490000D02*
X181991220Y-82510000D01*
X175311220Y-95912000D02*
X175311220Y-87088000D01*
X181791220Y-100460000D02*
X181791220Y-82540000D01*
X180831220Y-100248000D02*
X180831220Y-92940000D01*
X177351220Y-98398000D02*
X177351220Y-84602000D01*
X181191220Y-100340000D02*
X181191220Y-82660000D01*
X181511220Y-100409000D02*
X181511220Y-82591000D01*
X176191220Y-97209000D02*
X176191220Y-85791000D01*
X175431220Y-96120000D02*
X175431220Y-86880000D01*
X180031220Y-99986000D02*
X180031220Y-92940000D01*
X179471220Y-90060000D02*
X179471220Y-83249000D01*
X180951220Y-90060000D02*
X180951220Y-82720000D01*
X174792220Y-94817000D02*
X174792220Y-88183000D01*
X175231220Y-95765000D02*
X175231220Y-87235000D01*
X180391220Y-100114000D02*
X180391220Y-92940000D01*
X176551220Y-97626000D02*
X176551220Y-85374000D01*
X182672220Y-100561000D02*
X182672220Y-82439000D01*
X176391220Y-97447000D02*
X176391220Y-85553000D01*
X180591220Y-90060000D02*
X180591220Y-82822000D01*
X176151220Y-97160000D02*
X176151220Y-85840000D01*
X181111220Y-100321000D02*
X181111220Y-82679000D01*
X179271220Y-90060000D02*
X179271220Y-83344000D01*
X176791220Y-97878000D02*
X176791220Y-85122000D01*
X182551220Y-100552000D02*
X182551220Y-82448000D01*
X181151220Y-100331000D02*
X181151220Y-82669000D01*
X180471220Y-90060000D02*
X180471220Y-82860000D01*
X179751220Y-90060000D02*
X179751220Y-83126000D01*
X177271220Y-98329000D02*
X177271220Y-84671000D01*
X179111220Y-90060000D02*
X179111220Y-83424000D01*
X180071220Y-100001000D02*
X180071220Y-92940000D01*
X178031220Y-98925000D02*
X178031220Y-84075000D01*
X176431220Y-97493000D02*
X176431220Y-85507000D01*
X174912220Y-95105000D02*
X174912220Y-87895000D01*
X179991220Y-99970000D02*
X179991220Y-92940000D01*
X178311220Y-90060000D02*
X178311220Y-83886000D01*
X182111220Y-100506000D02*
X182111220Y-82494000D01*
X182231220Y-100521000D02*
X182231220Y-82479000D01*
X176751220Y-97837000D02*
X176751220Y-85163000D01*
X182351220Y-100534000D02*
X182351220Y-82466000D01*
X180511220Y-90060000D02*
X180511220Y-82847000D01*
X179991220Y-90060000D02*
X179991220Y-83030000D01*
X182792220Y-100568000D02*
X182792220Y-82432000D01*
X180351220Y-90060000D02*
X180351220Y-82900000D01*
X178231220Y-90060000D02*
X178231220Y-83939000D01*
X175072220Y-95452000D02*
X175072220Y-87548000D01*
X183032220Y-100577000D02*
X183032220Y-82423000D01*
X178831220Y-90060000D02*
X178831220Y-83573000D01*
X180391220Y-90060000D02*
X180391220Y-82886000D01*
X174672220Y-94496000D02*
X174672220Y-88504000D01*
X181751220Y-100453000D02*
X181751220Y-82547000D01*
X175751220Y-96620000D02*
X175751220Y-86380000D01*
X181031220Y-100301000D02*
X181031220Y-82699000D01*
X175032220Y-95369000D02*
X175032220Y-87631000D01*
X182952220Y-100575000D02*
X182952220Y-82425000D01*
X182752220Y-100566000D02*
X182752220Y-82434000D01*
X179031220Y-90060000D02*
X179031220Y-83465000D01*
X176831220Y-97918000D02*
X176831220Y-85082000D01*
X177471220Y-98499000D02*
X177471220Y-84501000D01*
X183072220Y-100578000D02*
X183072220Y-82422000D01*
X175551220Y-96316000D02*
X175551220Y-86684000D01*
X182872220Y-100572000D02*
X182872220Y-82428000D01*
X178271220Y-90060000D02*
X178271220Y-83912000D01*
X178151220Y-99008000D02*
X178151220Y-92940000D01*
X178591220Y-99288000D02*
X178591220Y-92940000D01*
X180911220Y-90060000D02*
X180911220Y-82730000D01*
X180711220Y-90060000D02*
X180711220Y-82786000D01*
X178671220Y-99335000D02*
X178671220Y-92940000D01*
X174392220Y-93539000D02*
X174392220Y-89461000D01*
X176311220Y-97354000D02*
X176311220Y-85646000D01*
X179071220Y-90060000D02*
X179071220Y-83444000D01*
X176711220Y-97796000D02*
X176711220Y-85204000D01*
X180631220Y-90060000D02*
X180631220Y-82810000D01*
X179871220Y-90060000D02*
X179871220Y-83077000D01*
X178391220Y-90060000D02*
X178391220Y-83835000D01*
X179231220Y-90060000D02*
X179231220Y-83363000D01*
X180111220Y-90060000D02*
X180111220Y-82984000D01*
X175471220Y-96186000D02*
X175471220Y-86814000D01*
X178511220Y-90060000D02*
X178511220Y-83760000D01*
X177311220Y-98364000D02*
X177311220Y-84636000D01*
X175191220Y-95690000D02*
X175191220Y-87310000D01*
X182712220Y-100563000D02*
X182712220Y-82437000D01*
X179911220Y-90060000D02*
X179911220Y-83061000D01*
X176871220Y-97958000D02*
X176871220Y-85042000D01*
X179391220Y-99714000D02*
X179391220Y-92940000D01*
X180671220Y-90060000D02*
X180671220Y-82798000D01*
X175991220Y-96954000D02*
X175991220Y-86046000D01*
X175791220Y-96678000D02*
X175791220Y-86322000D01*
X177591220Y-98596000D02*
X177591220Y-84404000D01*
X175391220Y-96052000D02*
X175391220Y-86948000D01*
X180551220Y-100165000D02*
X180551220Y-92940000D01*
X181831220Y-100466000D02*
X181831220Y-82534000D01*
X179671220Y-90060000D02*
X179671220Y-83160000D01*
X179951220Y-99955000D02*
X179951220Y-92940000D01*
X180911220Y-100270000D02*
X180911220Y-92940000D01*
X179031220Y-99535000D02*
X179031220Y-92940000D01*
X180431220Y-100127000D02*
X180431220Y-92940000D01*
X180191220Y-100045000D02*
X180191220Y-92940000D01*
X178951220Y-99492000D02*
X178951220Y-92940000D01*
X174232220Y-92666000D02*
X174232220Y-90334000D01*
X179551220Y-99787000D02*
X179551220Y-92940000D01*
X179351220Y-99695000D02*
X179351220Y-92940000D01*
X179311220Y-90060000D02*
X179311220Y-83324000D01*
X177071220Y-98149000D02*
X177071220Y-84851000D01*
X180151220Y-100030000D02*
X180151220Y-92940000D01*
X175351220Y-95982000D02*
X175351220Y-87018000D01*
X175111220Y-95533000D02*
X175111220Y-87467000D01*
X183152220Y-100580000D02*
X183152220Y-82420000D01*
X174712220Y-94607000D02*
X174712220Y-88393000D01*
X176071220Y-97058000D02*
X176071220Y-85942000D01*
X181391220Y-100385000D02*
X181391220Y-82615000D01*
X177511220Y-98531000D02*
X177511220Y-84469000D01*
X174192220Y-92314000D02*
X174192220Y-90686000D01*
X182431220Y-100542000D02*
X182431220Y-82458000D01*
X177911220Y-98839000D02*
X177911220Y-84161000D01*
X178911220Y-90060000D02*
X178911220Y-83529000D01*
X181671220Y-100439000D02*
X181671220Y-82561000D01*
X180151220Y-90060000D02*
X180151220Y-82970000D01*
X175591220Y-96379000D02*
X175591220Y-86621000D01*
X176031220Y-97006000D02*
X176031220Y-85994000D01*
X177951220Y-98868000D02*
X177951220Y-84132000D01*
X180191220Y-90060000D02*
X180191220Y-82955000D01*
X174872220Y-95012000D02*
X174872220Y-87988000D01*
X178511220Y-99240000D02*
X178511220Y-92940000D01*
X178191220Y-99035000D02*
X178191220Y-92940000D01*
X182632220Y-100558000D02*
X182632220Y-82442000D01*
X179191220Y-90060000D02*
X179191220Y-83383000D01*
X178671220Y-90060000D02*
X178671220Y-83665000D01*
X179431220Y-90060000D02*
X179431220Y-83267000D01*
X179871220Y-99923000D02*
X179871220Y-92940000D01*
X175711220Y-96562000D02*
X175711220Y-86438000D01*
X175871220Y-96791000D02*
X175871220Y-86209000D01*
X174552220Y-94132000D02*
X174552220Y-88868000D01*
X180591220Y-100178000D02*
X180591220Y-92940000D01*
X178711220Y-99359000D02*
X178711220Y-92940000D01*
X179591220Y-90060000D02*
X179591220Y-83195000D01*
X178631220Y-99312000D02*
X178631220Y-92940000D01*
X182832220Y-100570000D02*
X182832220Y-82430000D01*
X183112220Y-100579000D02*
X183112220Y-82421000D01*
X182191220Y-100516000D02*
X182191220Y-82484000D01*
X180791220Y-100237000D02*
X180791220Y-92940000D01*
X180871220Y-100259000D02*
X180871220Y-92940000D01*
X178871220Y-99449000D02*
X178871220Y-92940000D01*
X180551220Y-90060000D02*
X180551220Y-82835000D01*
X179711220Y-99857000D02*
X179711220Y-92940000D01*
X174152220Y-91540000D02*
X174152220Y-91460000D01*
X176631220Y-97712000D02*
X176631220Y-85288000D01*
X181711220Y-100446000D02*
X181711220Y-82554000D01*
X181471220Y-100401000D02*
X181471220Y-82599000D01*
X178751220Y-90060000D02*
X178751220Y-83618000D01*
X177111220Y-98186000D02*
X177111220Y-84814000D01*
X178871220Y-90060000D02*
X178871220Y-83551000D01*
X174952220Y-95196000D02*
X174952220Y-87804000D01*
X181871220Y-100472000D02*
X181871220Y-82528000D01*
X180991220Y-100291000D02*
X180991220Y-82709000D01*
X180351220Y-100100000D02*
X180351220Y-92940000D01*
X179391220Y-90060000D02*
X179391220Y-83286000D01*
X181351220Y-100376000D02*
X181351220Y-82624000D01*
X178431220Y-90060000D02*
X178431220Y-83810000D01*
X176911220Y-97997000D02*
X176911220Y-85003000D01*
X180511220Y-100153000D02*
X180511220Y-92940000D01*
X182271220Y-100526000D02*
X182271220Y-82474000D01*
X180231220Y-100059000D02*
X180231220Y-92940000D01*
X179151220Y-90060000D02*
X179151220Y-83403000D01*
X174592220Y-94259000D02*
X174592220Y-88741000D01*
X177831220Y-98780000D02*
X177831220Y-84220000D01*
X180111220Y-100016000D02*
X180111220Y-92940000D01*
X178151220Y-90060000D02*
X178151220Y-83992000D01*
X179071220Y-99556000D02*
X179071220Y-92940000D01*
X174472220Y-93855000D02*
X174472220Y-89145000D01*
X182992220Y-100576000D02*
X182992220Y-82424000D01*
X180631220Y-100190000D02*
X180631220Y-92940000D01*
X177391220Y-98432000D02*
X177391220Y-84568000D01*
X174512220Y-93998000D02*
X174512220Y-89002000D01*
X181631220Y-100432000D02*
X181631220Y-82568000D01*
X182471220Y-100545000D02*
X182471220Y-82455000D01*
X178831220Y-99427000D02*
X178831220Y-92940000D01*
X192131660Y-97515000D02*
X192131660Y-95715000D01*
X182592220Y-100555000D02*
X182592220Y-82445000D01*
X178911220Y-99471000D02*
X178911220Y-92940000D01*
X179671220Y-99840000D02*
X179671220Y-92940000D01*
X179471220Y-99751000D02*
X179471220Y-92940000D01*
X176471220Y-97538000D02*
X176471220Y-85462000D01*
X182071220Y-100501000D02*
X182071220Y-82499000D01*
X177711220Y-98690000D02*
X177711220Y-84310000D01*
X179191220Y-99617000D02*
X179191220Y-92940000D01*
X180031220Y-90060000D02*
X180031220Y-83014000D01*
X180431220Y-90060000D02*
X180431220Y-82873000D01*
X180831220Y-90060000D02*
X180831220Y-82752000D01*
X175511220Y-96252000D02*
X175511220Y-86748000D01*
X175271220Y-95839000D02*
X175271220Y-87161000D01*
X179711220Y-90060000D02*
X179711220Y-83143000D01*
X175911220Y-96846000D02*
X175911220Y-86154000D01*
X178791220Y-90060000D02*
X178791220Y-83596000D01*
X178351220Y-99140000D02*
X178351220Y-92940000D01*
X179351220Y-90060000D02*
X179351220Y-83305000D01*
X180271220Y-90060000D02*
X180271220Y-82927000D01*
X176511220Y-97582000D02*
X176511220Y-85418000D01*
X176671220Y-97754000D02*
X176671220Y-85246000D01*
X178471220Y-90060000D02*
X178471220Y-83785000D01*
X179431220Y-99733000D02*
X179431220Y-92940000D01*
X180951220Y-100280000D02*
X180951220Y-92940000D01*
X176111220Y-97109000D02*
X176111220Y-85891000D01*
X179631220Y-99823000D02*
X179631220Y-92940000D01*
X179551220Y-90060000D02*
X179551220Y-83213000D01*
X182511220Y-100549000D02*
X182511220Y-82451000D01*
X180271220Y-100073000D02*
X180271220Y-92940000D01*
X181951220Y-100484000D02*
X181951220Y-82516000D01*
X177031220Y-98112000D02*
X177031220Y-84888000D01*
X179831220Y-90060000D02*
X179831220Y-83093000D01*
X178111220Y-98980000D02*
X178111220Y-92940000D01*
X178271220Y-99088000D02*
X178271220Y-92940000D01*
X178111220Y-90060000D02*
X178111220Y-84020000D01*
X174312220Y-93161000D02*
X174312220Y-89839000D01*
X179911220Y-99939000D02*
X179911220Y-92940000D01*
X178311220Y-99114000D02*
X178311220Y-92940000D01*
X178191220Y-90060000D02*
X178191220Y-83965000D01*
X179751220Y-99874000D02*
X179751220Y-92940000D01*
X179951220Y-90060000D02*
X179951220Y-83045000D01*
X178391220Y-99165000D02*
X178391220Y-92940000D01*
X177431220Y-98465000D02*
X177431220Y-84535000D01*
X179791220Y-99890000D02*
X179791220Y-92940000D01*
X178071220Y-98953000D02*
X178071220Y-84047000D01*
X177791220Y-98750000D02*
X177791220Y-84250000D01*
X174832220Y-94916000D02*
X174832220Y-88084000D01*
X180311220Y-90060000D02*
X180311220Y-82913000D01*
X181431220Y-100393000D02*
X181431220Y-82607000D01*
X182151220Y-100511000D02*
X182151220Y-82489000D01*
X174432220Y-93703000D02*
X174432220Y-89297000D01*
X179231220Y-99637000D02*
X179231220Y-92940000D01*
X180871220Y-90060000D02*
X180871220Y-82741000D01*
X177671220Y-98659000D02*
X177671220Y-84341000D01*
X174752220Y-94714000D02*
X174752220Y-88286000D01*
X178711220Y-90060000D02*
X178711220Y-83641000D01*
X178431220Y-99190000D02*
X178431220Y-92940000D01*
X180311220Y-100087000D02*
X180311220Y-92940000D01*
X176231220Y-97258000D02*
X176231220Y-85742000D01*
X174632220Y-94380000D02*
X174632220Y-88620000D01*
X175631220Y-96441000D02*
X175631220Y-86559000D01*
X193031660Y-96615000D02*
X191231660Y-96615000D01*
X176991220Y-98074000D02*
X176991220Y-84926000D01*
X180231220Y-90060000D02*
X180231220Y-82941000D01*
X177751220Y-98720000D02*
X177751220Y-84280000D01*
X175151220Y-95613000D02*
X175151220Y-87387000D01*
X177151220Y-98222000D02*
X177151220Y-84778000D01*
X175951220Y-96900000D02*
X175951220Y-86100000D01*
X178991220Y-90060000D02*
X178991220Y-83486000D01*
X179791220Y-90060000D02*
X179791220Y-83110000D01*
X192392220Y-91500000D02*
G75*
G03*
X192392220Y-91500000I-9120000J0D01*
G01*
%TO.C,R15*%
X142735000Y-69810436D02*
X142735000Y-70264564D01*
X141265000Y-69810436D02*
X141265000Y-70264564D01*
%TO.C,C13*%
X195411220Y-96846000D02*
X195411220Y-86154000D01*
X198851220Y-90060000D02*
X198851220Y-83305000D01*
X198451220Y-90060000D02*
X198451220Y-83508000D01*
X199291220Y-99890000D02*
X199291220Y-92940000D01*
X198691220Y-99617000D02*
X198691220Y-92940000D01*
X201571220Y-100501000D02*
X201571220Y-82499000D01*
X199771220Y-90060000D02*
X199771220Y-82927000D01*
X198891220Y-90060000D02*
X198891220Y-83286000D01*
X201771220Y-100526000D02*
X201771220Y-82474000D01*
X200171220Y-100202000D02*
X200171220Y-92940000D01*
X202372220Y-100572000D02*
X202372220Y-82428000D01*
X198691220Y-90060000D02*
X198691220Y-83383000D01*
X196491220Y-98074000D02*
X196491220Y-84926000D01*
X201931220Y-100542000D02*
X201931220Y-82458000D01*
X194132220Y-94380000D02*
X194132220Y-88620000D01*
X193972220Y-93855000D02*
X193972220Y-89145000D01*
X202132220Y-100558000D02*
X202132220Y-82442000D01*
X198891220Y-99714000D02*
X198891220Y-92940000D01*
X199731220Y-90060000D02*
X199731220Y-82941000D01*
X195771220Y-97306000D02*
X195771220Y-85694000D01*
X198411220Y-99471000D02*
X198411220Y-92940000D01*
X200371220Y-90060000D02*
X200371220Y-82741000D01*
X196691220Y-98258000D02*
X196691220Y-84742000D01*
X195571220Y-97058000D02*
X195571220Y-85942000D01*
X212531660Y-96615000D02*
X210731660Y-96615000D01*
X194012220Y-93998000D02*
X194012220Y-89002000D01*
X201891220Y-100538000D02*
X201891220Y-82462000D01*
X198931220Y-90060000D02*
X198931220Y-83267000D01*
X194292220Y-94817000D02*
X194292220Y-88183000D01*
X196571220Y-98149000D02*
X196571220Y-84851000D01*
X198571220Y-99556000D02*
X198571220Y-92940000D01*
X195491220Y-96954000D02*
X195491220Y-86046000D01*
X199931220Y-90060000D02*
X199931220Y-82873000D01*
X195731220Y-97258000D02*
X195731220Y-85742000D01*
X195131220Y-96441000D02*
X195131220Y-86559000D01*
X199291220Y-90060000D02*
X199291220Y-83110000D01*
X199811220Y-90060000D02*
X199811220Y-82913000D01*
X197531220Y-98925000D02*
X197531220Y-84075000D01*
X199011220Y-99769000D02*
X199011220Y-92940000D01*
X196131220Y-97712000D02*
X196131220Y-85288000D01*
X197851220Y-90060000D02*
X197851220Y-83860000D01*
X199651220Y-90060000D02*
X199651220Y-82970000D01*
X195251220Y-96620000D02*
X195251220Y-86380000D01*
X196171220Y-97754000D02*
X196171220Y-85246000D01*
X193732220Y-92666000D02*
X193732220Y-90334000D01*
X197171220Y-98659000D02*
X197171220Y-84341000D01*
X200051220Y-100165000D02*
X200051220Y-92940000D01*
X202292220Y-100568000D02*
X202292220Y-82432000D01*
X198251220Y-90060000D02*
X198251220Y-83618000D01*
X200171220Y-90060000D02*
X200171220Y-82798000D01*
X197891220Y-99165000D02*
X197891220Y-92940000D01*
X200091220Y-90060000D02*
X200091220Y-82822000D01*
X200971220Y-100401000D02*
X200971220Y-82599000D01*
X200211220Y-100214000D02*
X200211220Y-92940000D01*
X199811220Y-100087000D02*
X199811220Y-92940000D01*
X196451220Y-98036000D02*
X196451220Y-84964000D01*
X199451220Y-90060000D02*
X199451220Y-83045000D01*
X193892220Y-93539000D02*
X193892220Y-89461000D01*
X193852220Y-93360000D02*
X193852220Y-89640000D01*
X200891220Y-100385000D02*
X200891220Y-82615000D01*
X199411220Y-99939000D02*
X199411220Y-92940000D01*
X194691220Y-95690000D02*
X194691220Y-87310000D01*
X198491220Y-90060000D02*
X198491220Y-83486000D01*
X197251220Y-98720000D02*
X197251220Y-84280000D01*
X201051220Y-100417000D02*
X201051220Y-82583000D01*
X198291220Y-90060000D02*
X198291220Y-83596000D01*
X199891220Y-90060000D02*
X199891220Y-82886000D01*
X197451220Y-98868000D02*
X197451220Y-84132000D01*
X198851220Y-99695000D02*
X198851220Y-92940000D01*
X199931220Y-100127000D02*
X199931220Y-92940000D01*
X197491220Y-98897000D02*
X197491220Y-84103000D01*
X197691220Y-99035000D02*
X197691220Y-92940000D01*
X201851220Y-100534000D02*
X201851220Y-82466000D01*
X200451220Y-90060000D02*
X200451220Y-82720000D01*
X194611220Y-95533000D02*
X194611220Y-87467000D01*
X198651220Y-99597000D02*
X198651220Y-92940000D01*
X198331220Y-90060000D02*
X198331220Y-83573000D01*
X196331220Y-97918000D02*
X196331220Y-85082000D01*
X198491220Y-99514000D02*
X198491220Y-92940000D01*
X199171220Y-90060000D02*
X199171220Y-83160000D01*
X194212220Y-94607000D02*
X194212220Y-88393000D01*
X199491220Y-99970000D02*
X199491220Y-92940000D01*
X198331220Y-99427000D02*
X198331220Y-92940000D01*
X195051220Y-96316000D02*
X195051220Y-86684000D01*
X195371220Y-96791000D02*
X195371220Y-86209000D01*
X200011220Y-90060000D02*
X200011220Y-82847000D01*
X200811220Y-100367000D02*
X200811220Y-82633000D01*
X198371220Y-99449000D02*
X198371220Y-92940000D01*
X198051220Y-90060000D02*
X198051220Y-83736000D01*
X200571220Y-100311000D02*
X200571220Y-82689000D01*
X200091220Y-100178000D02*
X200091220Y-92940000D01*
X197731220Y-99061000D02*
X197731220Y-92940000D01*
X200851220Y-100376000D02*
X200851220Y-82624000D01*
X199611220Y-100016000D02*
X199611220Y-92940000D01*
X195211220Y-96562000D02*
X195211220Y-86438000D01*
X197771220Y-99088000D02*
X197771220Y-92940000D01*
X200251220Y-90060000D02*
X200251220Y-82775000D01*
X211631660Y-97515000D02*
X211631660Y-95715000D01*
X195091220Y-96379000D02*
X195091220Y-86621000D01*
X199171220Y-99840000D02*
X199171220Y-92940000D01*
X202011220Y-100549000D02*
X202011220Y-82451000D01*
X199331220Y-90060000D02*
X199331220Y-83093000D01*
X195811220Y-97354000D02*
X195811220Y-85646000D01*
X197931220Y-99190000D02*
X197931220Y-92940000D01*
X194651220Y-95613000D02*
X194651220Y-87387000D01*
X195931220Y-97493000D02*
X195931220Y-85507000D01*
X197971220Y-99215000D02*
X197971220Y-92940000D01*
X195651220Y-97160000D02*
X195651220Y-85840000D01*
X193652220Y-91540000D02*
X193652220Y-91460000D01*
X198931220Y-99733000D02*
X198931220Y-92940000D01*
X200131220Y-90060000D02*
X200131220Y-82810000D01*
X200211220Y-90060000D02*
X200211220Y-82786000D01*
X198611220Y-99576000D02*
X198611220Y-92940000D01*
X202692220Y-100580000D02*
X202692220Y-82420000D01*
X202772220Y-100581000D02*
X202772220Y-82419000D01*
X198091220Y-99288000D02*
X198091220Y-92940000D01*
X200411220Y-90060000D02*
X200411220Y-82730000D01*
X194452220Y-95196000D02*
X194452220Y-87804000D01*
X199691220Y-90060000D02*
X199691220Y-82955000D01*
X201451220Y-100484000D02*
X201451220Y-82516000D01*
X198531220Y-90060000D02*
X198531220Y-83465000D01*
X202612220Y-100579000D02*
X202612220Y-82421000D01*
X193692220Y-92314000D02*
X193692220Y-90686000D01*
X199891220Y-100114000D02*
X199891220Y-92940000D01*
X201131220Y-100432000D02*
X201131220Y-82568000D01*
X202412220Y-100573000D02*
X202412220Y-82427000D01*
X200051220Y-90060000D02*
X200051220Y-82835000D01*
X200771220Y-100358000D02*
X200771220Y-82642000D01*
X199451220Y-99955000D02*
X199451220Y-92940000D01*
X200491220Y-100291000D02*
X200491220Y-82709000D01*
X200131220Y-100190000D02*
X200131220Y-92940000D01*
X201091220Y-100424000D02*
X201091220Y-82576000D01*
X200731220Y-100349000D02*
X200731220Y-82651000D01*
X199531220Y-99986000D02*
X199531220Y-92940000D01*
X199571220Y-100001000D02*
X199571220Y-92940000D01*
X195611220Y-97109000D02*
X195611220Y-85891000D01*
X198371220Y-90060000D02*
X198371220Y-83551000D01*
X195531220Y-97006000D02*
X195531220Y-85994000D01*
X198651220Y-90060000D02*
X198651220Y-83403000D01*
X197691220Y-90060000D02*
X197691220Y-83965000D01*
X197811220Y-99114000D02*
X197811220Y-92940000D01*
X196851220Y-98398000D02*
X196851220Y-84602000D01*
X198171220Y-90060000D02*
X198171220Y-83665000D01*
X199131220Y-99823000D02*
X199131220Y-92940000D01*
X199691220Y-100045000D02*
X199691220Y-92940000D01*
X194412220Y-95105000D02*
X194412220Y-87895000D01*
X199771220Y-100073000D02*
X199771220Y-92940000D01*
X201971220Y-100545000D02*
X201971220Y-82455000D01*
X201411220Y-100479000D02*
X201411220Y-82521000D01*
X200331220Y-100248000D02*
X200331220Y-92940000D01*
X202452220Y-100575000D02*
X202452220Y-82425000D01*
X202492220Y-100576000D02*
X202492220Y-82424000D01*
X198571220Y-90060000D02*
X198571220Y-83444000D01*
X195691220Y-97209000D02*
X195691220Y-85791000D01*
X196051220Y-97626000D02*
X196051220Y-85374000D01*
X201171220Y-100439000D02*
X201171220Y-82561000D01*
X199571220Y-90060000D02*
X199571220Y-82999000D01*
X199971220Y-100140000D02*
X199971220Y-92940000D01*
X197411220Y-98839000D02*
X197411220Y-84161000D01*
X202252220Y-100566000D02*
X202252220Y-82434000D01*
X201611220Y-100506000D02*
X201611220Y-82494000D01*
X200251220Y-100225000D02*
X200251220Y-92940000D01*
X197291220Y-98750000D02*
X197291220Y-84250000D01*
X198731220Y-99637000D02*
X198731220Y-92940000D01*
X198451220Y-99492000D02*
X198451220Y-92940000D01*
X199371220Y-99923000D02*
X199371220Y-92940000D01*
X198811220Y-99676000D02*
X198811220Y-92940000D01*
X198771220Y-90060000D02*
X198771220Y-83344000D01*
X194771220Y-95839000D02*
X194771220Y-87161000D01*
X200011220Y-100153000D02*
X200011220Y-92940000D01*
X196011220Y-97582000D02*
X196011220Y-85418000D01*
X197731220Y-90060000D02*
X197731220Y-83939000D01*
X199211220Y-90060000D02*
X199211220Y-83143000D01*
X201291220Y-100460000D02*
X201291220Y-82540000D01*
X197651220Y-90060000D02*
X197651220Y-83992000D01*
X198971220Y-99751000D02*
X198971220Y-92940000D01*
X196651220Y-98222000D02*
X196651220Y-84778000D01*
X202092220Y-100555000D02*
X202092220Y-82445000D01*
X197811220Y-90060000D02*
X197811220Y-83886000D01*
X195171220Y-96502000D02*
X195171220Y-86498000D01*
X194052220Y-94132000D02*
X194052220Y-88868000D01*
X197331220Y-98780000D02*
X197331220Y-84220000D01*
X197211220Y-98690000D02*
X197211220Y-84310000D01*
X199211220Y-99857000D02*
X199211220Y-92940000D01*
X194492220Y-95284000D02*
X194492220Y-87716000D01*
X194731220Y-95765000D02*
X194731220Y-87235000D01*
X200651220Y-100331000D02*
X200651220Y-82669000D01*
X197651220Y-99008000D02*
X197651220Y-92940000D01*
X202652220Y-100580000D02*
X202652220Y-82420000D01*
X196211220Y-97796000D02*
X196211220Y-85204000D01*
X201691220Y-100516000D02*
X201691220Y-82484000D01*
X198131220Y-99312000D02*
X198131220Y-92940000D01*
X197051220Y-98564000D02*
X197051220Y-84436000D01*
X195971220Y-97538000D02*
X195971220Y-85462000D01*
X197571220Y-98953000D02*
X197571220Y-84047000D01*
X196091220Y-97670000D02*
X196091220Y-85330000D01*
X194532220Y-95369000D02*
X194532220Y-87631000D01*
X199331220Y-99907000D02*
X199331220Y-92940000D01*
X197611220Y-98980000D02*
X197611220Y-92940000D01*
X199131220Y-90060000D02*
X199131220Y-83177000D01*
X196251220Y-97837000D02*
X196251220Y-85163000D01*
X194891220Y-96052000D02*
X194891220Y-86948000D01*
X199251220Y-90060000D02*
X199251220Y-83126000D01*
X196891220Y-98432000D02*
X196891220Y-84568000D01*
X197971220Y-90060000D02*
X197971220Y-83785000D01*
X199251220Y-99874000D02*
X199251220Y-92940000D01*
X196771220Y-98329000D02*
X196771220Y-84671000D01*
X194092220Y-94259000D02*
X194092220Y-88741000D01*
X200371220Y-100259000D02*
X200371220Y-92940000D01*
X202732220Y-100580000D02*
X202732220Y-82420000D01*
X194931220Y-96120000D02*
X194931220Y-86880000D01*
X199051220Y-99787000D02*
X199051220Y-92940000D01*
X199091220Y-99805000D02*
X199091220Y-92940000D01*
X198171220Y-99335000D02*
X198171220Y-92940000D01*
X195851220Y-97401000D02*
X195851220Y-85599000D01*
X194572220Y-95452000D02*
X194572220Y-87548000D01*
X194252220Y-94714000D02*
X194252220Y-88286000D01*
X196531220Y-98112000D02*
X196531220Y-84888000D01*
X202572220Y-100578000D02*
X202572220Y-82422000D01*
X201531220Y-100496000D02*
X201531220Y-82504000D01*
X201811220Y-100530000D02*
X201811220Y-82470000D01*
X195011220Y-96252000D02*
X195011220Y-86748000D01*
X200531220Y-100301000D02*
X200531220Y-82699000D01*
X201211220Y-100446000D02*
X201211220Y-82554000D01*
X199051220Y-90060000D02*
X199051220Y-83213000D01*
X200611220Y-100321000D02*
X200611220Y-82679000D01*
X198771220Y-99656000D02*
X198771220Y-92940000D01*
X197131220Y-98627000D02*
X197131220Y-84373000D01*
X195331220Y-96735000D02*
X195331220Y-86265000D01*
X198211220Y-90060000D02*
X198211220Y-83641000D01*
X193812220Y-93161000D02*
X193812220Y-89839000D01*
X200411220Y-100270000D02*
X200411220Y-92940000D01*
X198611220Y-90060000D02*
X198611220Y-83424000D01*
X202332220Y-100570000D02*
X202332220Y-82430000D01*
X194332220Y-94916000D02*
X194332220Y-88084000D01*
X195291220Y-96678000D02*
X195291220Y-86322000D01*
X201371220Y-100472000D02*
X201371220Y-82528000D01*
X201331220Y-100466000D02*
X201331220Y-82534000D01*
X196971220Y-98499000D02*
X196971220Y-84501000D01*
X199531220Y-90060000D02*
X199531220Y-83014000D01*
X197891220Y-90060000D02*
X197891220Y-83835000D01*
X197371220Y-98810000D02*
X197371220Y-84190000D01*
X198731220Y-90060000D02*
X198731220Y-83363000D01*
X199011220Y-90060000D02*
X199011220Y-83231000D01*
X195891220Y-97447000D02*
X195891220Y-85553000D01*
X196611220Y-98186000D02*
X196611220Y-84814000D01*
X200291220Y-90060000D02*
X200291220Y-82763000D01*
X201491220Y-100490000D02*
X201491220Y-82510000D01*
X200931220Y-100393000D02*
X200931220Y-82607000D01*
X198971220Y-90060000D02*
X198971220Y-83249000D01*
X200451220Y-100280000D02*
X200451220Y-92940000D01*
X201651220Y-100511000D02*
X201651220Y-82489000D01*
X196291220Y-97878000D02*
X196291220Y-85122000D01*
X201731220Y-100521000D02*
X201731220Y-82479000D01*
X197771220Y-90060000D02*
X197771220Y-83912000D01*
X199411220Y-90060000D02*
X199411220Y-83061000D01*
X199971220Y-90060000D02*
X199971220Y-82860000D01*
X198131220Y-90060000D02*
X198131220Y-83688000D01*
X200331220Y-90060000D02*
X200331220Y-82752000D01*
X199491220Y-90060000D02*
X199491220Y-83030000D01*
X198011220Y-90060000D02*
X198011220Y-83760000D01*
X197011220Y-98531000D02*
X197011220Y-84469000D01*
X198531220Y-99535000D02*
X198531220Y-92940000D01*
X194971220Y-96186000D02*
X194971220Y-86814000D01*
X194811220Y-95912000D02*
X194811220Y-87088000D01*
X198251220Y-99382000D02*
X198251220Y-92940000D01*
X198091220Y-90060000D02*
X198091220Y-83712000D01*
X197931220Y-90060000D02*
X197931220Y-83810000D01*
X199851220Y-90060000D02*
X199851220Y-82900000D01*
X196411220Y-97997000D02*
X196411220Y-85003000D01*
X194851220Y-95982000D02*
X194851220Y-87018000D01*
X196731220Y-98294000D02*
X196731220Y-84706000D01*
X197611220Y-90060000D02*
X197611220Y-84020000D01*
X200691220Y-100340000D02*
X200691220Y-82660000D01*
X194372220Y-95012000D02*
X194372220Y-87988000D01*
X201011220Y-100409000D02*
X201011220Y-82591000D01*
X198211220Y-99359000D02*
X198211220Y-92940000D01*
X198291220Y-99404000D02*
X198291220Y-92940000D01*
X200291220Y-100237000D02*
X200291220Y-92940000D01*
X193772220Y-92935000D02*
X193772220Y-90065000D01*
X198051220Y-99264000D02*
X198051220Y-92940000D01*
X201251220Y-100453000D02*
X201251220Y-82547000D01*
X196931220Y-98465000D02*
X196931220Y-84535000D01*
X198011220Y-99240000D02*
X198011220Y-92940000D01*
X198411220Y-90060000D02*
X198411220Y-83529000D01*
X199611220Y-90060000D02*
X199611220Y-82984000D01*
X199851220Y-100100000D02*
X199851220Y-92940000D01*
X199091220Y-90060000D02*
X199091220Y-83195000D01*
X202532220Y-100577000D02*
X202532220Y-82423000D01*
X198811220Y-90060000D02*
X198811220Y-83324000D01*
X196811220Y-98364000D02*
X196811220Y-84636000D01*
X199731220Y-100059000D02*
X199731220Y-92940000D01*
X202051220Y-100552000D02*
X202051220Y-82448000D01*
X196371220Y-97958000D02*
X196371220Y-85042000D01*
X197091220Y-98596000D02*
X197091220Y-84404000D01*
X202212220Y-100563000D02*
X202212220Y-82437000D01*
X195451220Y-96900000D02*
X195451220Y-86100000D01*
X202172220Y-100561000D02*
X202172220Y-82439000D01*
X197851220Y-99140000D02*
X197851220Y-92940000D01*
X193932220Y-93703000D02*
X193932220Y-89297000D01*
X194172220Y-94496000D02*
X194172220Y-88504000D01*
X199651220Y-100030000D02*
X199651220Y-92940000D01*
X199371220Y-90060000D02*
X199371220Y-83077000D01*
X211892220Y-91500000D02*
G75*
G03*
X211892220Y-91500000I-9120000J0D01*
G01*
%TO.C,L1*%
X99600000Y-113850000D02*
X92400000Y-113850000D01*
X77400000Y-91150000D02*
X77400000Y-113850000D01*
X92400000Y-91150000D02*
X99600000Y-91150000D01*
X84600000Y-91150000D02*
X77400000Y-91150000D01*
X77400000Y-113850000D02*
X84600000Y-113850000D01*
X99600000Y-91150000D02*
X99600000Y-113850000D01*
%TO.C,C10*%
X102530000Y-117120000D02*
X111770000Y-117120000D01*
X102530000Y-98880000D02*
X111770000Y-98880000D01*
X111770000Y-117120000D02*
X111770000Y-98880000D01*
X102530000Y-117120000D02*
X102530000Y-98880000D01*
%TO.C,PS1*%
X91000000Y-26850000D02*
X97000000Y-26850000D01*
X123970000Y-27180000D02*
X123970000Y-49620000D01*
X90030000Y-27180000D02*
X123970000Y-27180000D01*
X90030000Y-49620000D02*
X123970000Y-49620000D01*
X90030000Y-49620000D02*
X90030000Y-27180000D01*
%TO.C,C18*%
X146003080Y-68010000D02*
X145721920Y-68010000D01*
X146003080Y-66990000D02*
X145721920Y-66990000D01*
%TO.C,R7*%
X139272064Y-53185000D02*
X138817936Y-53185000D01*
X139272064Y-51715000D02*
X138817936Y-51715000D01*
%TO.C,C19*%
X154209420Y-66210000D02*
X154490580Y-66210000D01*
X154209420Y-65190000D02*
X154490580Y-65190000D01*
%TO.C,C15*%
X196251220Y-78337000D02*
X196251220Y-65663000D01*
X200291220Y-80737000D02*
X200291220Y-73440000D01*
X196331220Y-78418000D02*
X196331220Y-65582000D01*
X198811220Y-70560000D02*
X198811220Y-63824000D01*
X200451220Y-70560000D02*
X200451220Y-63220000D01*
X202572220Y-81078000D02*
X202572220Y-62922000D01*
X194771220Y-76339000D02*
X194771220Y-67661000D01*
X194132220Y-74880000D02*
X194132220Y-69120000D01*
X199971220Y-70560000D02*
X199971220Y-63360000D01*
X202372220Y-81072000D02*
X202372220Y-62928000D01*
X199931220Y-70560000D02*
X199931220Y-63373000D01*
X197851220Y-79640000D02*
X197851220Y-73440000D01*
X197811220Y-79614000D02*
X197811220Y-73440000D01*
X200411220Y-70560000D02*
X200411220Y-63230000D01*
X195091220Y-76879000D02*
X195091220Y-67121000D01*
X195651220Y-77660000D02*
X195651220Y-66340000D01*
X197411220Y-79339000D02*
X197411220Y-64661000D01*
X201411220Y-80979000D02*
X201411220Y-63021000D01*
X195411220Y-77346000D02*
X195411220Y-66654000D01*
X194572220Y-75952000D02*
X194572220Y-68048000D01*
X201971220Y-81045000D02*
X201971220Y-62955000D01*
X200131220Y-80690000D02*
X200131220Y-73440000D01*
X197731220Y-79561000D02*
X197731220Y-73440000D01*
X200771220Y-80858000D02*
X200771220Y-63142000D01*
X199291220Y-80390000D02*
X199291220Y-73440000D01*
X200291220Y-70560000D02*
X200291220Y-63263000D01*
X198571220Y-70560000D02*
X198571220Y-63944000D01*
X201771220Y-81026000D02*
X201771220Y-62974000D01*
X202172220Y-81061000D02*
X202172220Y-62939000D01*
X198251220Y-79882000D02*
X198251220Y-73440000D01*
X199131220Y-80323000D02*
X199131220Y-73440000D01*
X196571220Y-78649000D02*
X196571220Y-65351000D01*
X199491220Y-80470000D02*
X199491220Y-73440000D01*
X199171220Y-70560000D02*
X199171220Y-63660000D01*
X195851220Y-77901000D02*
X195851220Y-66099000D01*
X197491220Y-79397000D02*
X197491220Y-64603000D01*
X196211220Y-78296000D02*
X196211220Y-65704000D01*
X198611220Y-70560000D02*
X198611220Y-63924000D01*
X198331220Y-79927000D02*
X198331220Y-73440000D01*
X198291220Y-70560000D02*
X198291220Y-64096000D01*
X195451220Y-77400000D02*
X195451220Y-66600000D01*
X197051220Y-79064000D02*
X197051220Y-64936000D01*
X198931220Y-70560000D02*
X198931220Y-63767000D01*
X202652220Y-81080000D02*
X202652220Y-62920000D01*
X196731220Y-78794000D02*
X196731220Y-65206000D01*
X200611220Y-80821000D02*
X200611220Y-63179000D01*
X212531660Y-77115000D02*
X210731660Y-77115000D01*
X196051220Y-78126000D02*
X196051220Y-65874000D01*
X198891220Y-80214000D02*
X198891220Y-73440000D01*
X197771220Y-70560000D02*
X197771220Y-64412000D01*
X199451220Y-80455000D02*
X199451220Y-73440000D01*
X197931220Y-70560000D02*
X197931220Y-64310000D01*
X200651220Y-80831000D02*
X200651220Y-63169000D01*
X211631660Y-78015000D02*
X211631660Y-76215000D01*
X194212220Y-75107000D02*
X194212220Y-68893000D01*
X196651220Y-78722000D02*
X196651220Y-65278000D01*
X200371220Y-70560000D02*
X200371220Y-63241000D01*
X202412220Y-81073000D02*
X202412220Y-62927000D01*
X196771220Y-78829000D02*
X196771220Y-65171000D01*
X198291220Y-79904000D02*
X198291220Y-73440000D01*
X196851220Y-78898000D02*
X196851220Y-65102000D01*
X197091220Y-79096000D02*
X197091220Y-64904000D01*
X194731220Y-76265000D02*
X194731220Y-67735000D01*
X198411220Y-70560000D02*
X198411220Y-64029000D01*
X199891220Y-80614000D02*
X199891220Y-73440000D01*
X201011220Y-80909000D02*
X201011220Y-63091000D01*
X198691220Y-80117000D02*
X198691220Y-73440000D01*
X194891220Y-76552000D02*
X194891220Y-67448000D01*
X196971220Y-78999000D02*
X196971220Y-65001000D01*
X199851220Y-80600000D02*
X199851220Y-73440000D01*
X202132220Y-81058000D02*
X202132220Y-62942000D01*
X201491220Y-80990000D02*
X201491220Y-63010000D01*
X196171220Y-78254000D02*
X196171220Y-65746000D01*
X202612220Y-81079000D02*
X202612220Y-62921000D01*
X193852220Y-73860000D02*
X193852220Y-70140000D01*
X198531220Y-70560000D02*
X198531220Y-63965000D01*
X199051220Y-80287000D02*
X199051220Y-73440000D01*
X198531220Y-80035000D02*
X198531220Y-73440000D01*
X200051220Y-80665000D02*
X200051220Y-73440000D01*
X200371220Y-80759000D02*
X200371220Y-73440000D01*
X200331220Y-80748000D02*
X200331220Y-73440000D01*
X197451220Y-79368000D02*
X197451220Y-64632000D01*
X202532220Y-81077000D02*
X202532220Y-62923000D01*
X201651220Y-81011000D02*
X201651220Y-62989000D01*
X199251220Y-80374000D02*
X199251220Y-73440000D01*
X197731220Y-70560000D02*
X197731220Y-64439000D01*
X200171220Y-80702000D02*
X200171220Y-73440000D01*
X196931220Y-78965000D02*
X196931220Y-65035000D01*
X197131220Y-79127000D02*
X197131220Y-64873000D01*
X202732220Y-81080000D02*
X202732220Y-62920000D01*
X201211220Y-80946000D02*
X201211220Y-63054000D01*
X197011220Y-79031000D02*
X197011220Y-64969000D01*
X201531220Y-80996000D02*
X201531220Y-63004000D01*
X197691220Y-70560000D02*
X197691220Y-64465000D01*
X193812220Y-73661000D02*
X193812220Y-70339000D01*
X197611220Y-79480000D02*
X197611220Y-73440000D01*
X199451220Y-70560000D02*
X199451220Y-63545000D01*
X197531220Y-79425000D02*
X197531220Y-64575000D01*
X198851220Y-80195000D02*
X198851220Y-73440000D01*
X202011220Y-81049000D02*
X202011220Y-62951000D01*
X198771220Y-80156000D02*
X198771220Y-73440000D01*
X199211220Y-80357000D02*
X199211220Y-73440000D01*
X201331220Y-80966000D02*
X201331220Y-63034000D01*
X200451220Y-80780000D02*
X200451220Y-73440000D01*
X201731220Y-81021000D02*
X201731220Y-62979000D01*
X199491220Y-70560000D02*
X199491220Y-63530000D01*
X199091220Y-80305000D02*
X199091220Y-73440000D01*
X198211220Y-70560000D02*
X198211220Y-64141000D01*
X195211220Y-77062000D02*
X195211220Y-66938000D01*
X198011220Y-70560000D02*
X198011220Y-64260000D01*
X194611220Y-76033000D02*
X194611220Y-67967000D01*
X198731220Y-70560000D02*
X198731220Y-63863000D01*
X200811220Y-80867000D02*
X200811220Y-63133000D01*
X198611220Y-80076000D02*
X198611220Y-73440000D01*
X199771220Y-70560000D02*
X199771220Y-63427000D01*
X199571220Y-70560000D02*
X199571220Y-63499000D01*
X201891220Y-81038000D02*
X201891220Y-62962000D01*
X199531220Y-70560000D02*
X199531220Y-63514000D01*
X199011220Y-80269000D02*
X199011220Y-73440000D01*
X198931220Y-80233000D02*
X198931220Y-73440000D01*
X198331220Y-70560000D02*
X198331220Y-64073000D01*
X197211220Y-79190000D02*
X197211220Y-64810000D01*
X196371220Y-78458000D02*
X196371220Y-65542000D01*
X198011220Y-79740000D02*
X198011220Y-73440000D01*
X194971220Y-76686000D02*
X194971220Y-67314000D01*
X199371220Y-70560000D02*
X199371220Y-63577000D01*
X200331220Y-70560000D02*
X200331220Y-63252000D01*
X198091220Y-79788000D02*
X198091220Y-73440000D01*
X196011220Y-78082000D02*
X196011220Y-65918000D01*
X195131220Y-76941000D02*
X195131220Y-67059000D01*
X198851220Y-70560000D02*
X198851220Y-63805000D01*
X201811220Y-81030000D02*
X201811220Y-62970000D01*
X197331220Y-79280000D02*
X197331220Y-64720000D01*
X200251220Y-70560000D02*
X200251220Y-63275000D01*
X199371220Y-80423000D02*
X199371220Y-73440000D01*
X196411220Y-78497000D02*
X196411220Y-65503000D01*
X198971220Y-70560000D02*
X198971220Y-63749000D01*
X198051220Y-79764000D02*
X198051220Y-73440000D01*
X201691220Y-81016000D02*
X201691220Y-62984000D01*
X199731220Y-70560000D02*
X199731220Y-63441000D01*
X194492220Y-75784000D02*
X194492220Y-68216000D01*
X200011220Y-70560000D02*
X200011220Y-63347000D01*
X198211220Y-79859000D02*
X198211220Y-73440000D01*
X194012220Y-74498000D02*
X194012220Y-69502000D01*
X197691220Y-79535000D02*
X197691220Y-73440000D01*
X193732220Y-73166000D02*
X193732220Y-70834000D01*
X198371220Y-70560000D02*
X198371220Y-64051000D01*
X196291220Y-78378000D02*
X196291220Y-65622000D01*
X199651220Y-70560000D02*
X199651220Y-63470000D01*
X199331220Y-70560000D02*
X199331220Y-63593000D01*
X199931220Y-80627000D02*
X199931220Y-73440000D01*
X199011220Y-70560000D02*
X199011220Y-63731000D01*
X195611220Y-77609000D02*
X195611220Y-66391000D01*
X198171220Y-70560000D02*
X198171220Y-64165000D01*
X200251220Y-80725000D02*
X200251220Y-73440000D01*
X202292220Y-81068000D02*
X202292220Y-62932000D01*
X195011220Y-76752000D02*
X195011220Y-67248000D01*
X195731220Y-77758000D02*
X195731220Y-66242000D01*
X199731220Y-80559000D02*
X199731220Y-73440000D01*
X197971220Y-79715000D02*
X197971220Y-73440000D01*
X199891220Y-70560000D02*
X199891220Y-63386000D01*
X201371220Y-80972000D02*
X201371220Y-63028000D01*
X196091220Y-78170000D02*
X196091220Y-65830000D01*
X197651220Y-79508000D02*
X197651220Y-73440000D01*
X198891220Y-70560000D02*
X198891220Y-63786000D01*
X194332220Y-75416000D02*
X194332220Y-68584000D01*
X202332220Y-81070000D02*
X202332220Y-62930000D01*
X193772220Y-73435000D02*
X193772220Y-70565000D01*
X201131220Y-80932000D02*
X201131220Y-63068000D01*
X202212220Y-81063000D02*
X202212220Y-62937000D01*
X197971220Y-70560000D02*
X197971220Y-64285000D01*
X193692220Y-72814000D02*
X193692220Y-71186000D01*
X202452220Y-81075000D02*
X202452220Y-62925000D01*
X198451220Y-79992000D02*
X198451220Y-73440000D01*
X201091220Y-80924000D02*
X201091220Y-63076000D01*
X197251220Y-79220000D02*
X197251220Y-64780000D01*
X195891220Y-77947000D02*
X195891220Y-66053000D01*
X196491220Y-78574000D02*
X196491220Y-65426000D01*
X193892220Y-74039000D02*
X193892220Y-69961000D01*
X193932220Y-74203000D02*
X193932220Y-69797000D01*
X202692220Y-81080000D02*
X202692220Y-62920000D01*
X197891220Y-70560000D02*
X197891220Y-64335000D01*
X198771220Y-70560000D02*
X198771220Y-63844000D01*
X197851220Y-70560000D02*
X197851220Y-64360000D01*
X199411220Y-70560000D02*
X199411220Y-63561000D01*
X199611220Y-70560000D02*
X199611220Y-63484000D01*
X199091220Y-70560000D02*
X199091220Y-63695000D01*
X199611220Y-80516000D02*
X199611220Y-73440000D01*
X202772220Y-81081000D02*
X202772220Y-62919000D01*
X201251220Y-80953000D02*
X201251220Y-63047000D01*
X200931220Y-80893000D02*
X200931220Y-63107000D01*
X200211220Y-80714000D02*
X200211220Y-73440000D01*
X197931220Y-79690000D02*
X197931220Y-73440000D01*
X199971220Y-80640000D02*
X199971220Y-73440000D01*
X200091220Y-80678000D02*
X200091220Y-73440000D01*
X197171220Y-79159000D02*
X197171220Y-64841000D01*
X197811220Y-70560000D02*
X197811220Y-64386000D01*
X195291220Y-77178000D02*
X195291220Y-66822000D01*
X199171220Y-80340000D02*
X199171220Y-73440000D01*
X200731220Y-80849000D02*
X200731220Y-63151000D01*
X200051220Y-70560000D02*
X200051220Y-63335000D01*
X198131220Y-70560000D02*
X198131220Y-64188000D01*
X201571220Y-81001000D02*
X201571220Y-62999000D01*
X195531220Y-77506000D02*
X195531220Y-66494000D01*
X196131220Y-78212000D02*
X196131220Y-65788000D01*
X200891220Y-80885000D02*
X200891220Y-63115000D01*
X199291220Y-70560000D02*
X199291220Y-63610000D01*
X198451220Y-70560000D02*
X198451220Y-64008000D01*
X201611220Y-81006000D02*
X201611220Y-62994000D01*
X197371220Y-79310000D02*
X197371220Y-64690000D01*
X200691220Y-80840000D02*
X200691220Y-63160000D01*
X194532220Y-75869000D02*
X194532220Y-68131000D01*
X200411220Y-80770000D02*
X200411220Y-73440000D01*
X194851220Y-76482000D02*
X194851220Y-67518000D01*
X194052220Y-74632000D02*
X194052220Y-69368000D01*
X200091220Y-70560000D02*
X200091220Y-63322000D01*
X196531220Y-78612000D02*
X196531220Y-65388000D01*
X202092220Y-81055000D02*
X202092220Y-62945000D01*
X201451220Y-80984000D02*
X201451220Y-63016000D01*
X196611220Y-78686000D02*
X196611220Y-65314000D01*
X197291220Y-79250000D02*
X197291220Y-64750000D01*
X200971220Y-80901000D02*
X200971220Y-63099000D01*
X198051220Y-70560000D02*
X198051220Y-64236000D01*
X195491220Y-77454000D02*
X195491220Y-66546000D01*
X200171220Y-70560000D02*
X200171220Y-63298000D01*
X196891220Y-78932000D02*
X196891220Y-65068000D01*
X195571220Y-77558000D02*
X195571220Y-66442000D01*
X197891220Y-79665000D02*
X197891220Y-73440000D01*
X198971220Y-80251000D02*
X198971220Y-73440000D01*
X194691220Y-76190000D02*
X194691220Y-67810000D01*
X194931220Y-76620000D02*
X194931220Y-67380000D01*
X198411220Y-79971000D02*
X198411220Y-73440000D01*
X200851220Y-80876000D02*
X200851220Y-63124000D01*
X200531220Y-80801000D02*
X200531220Y-63199000D01*
X199571220Y-80501000D02*
X199571220Y-73440000D01*
X193972220Y-74355000D02*
X193972220Y-69645000D01*
X201171220Y-80939000D02*
X201171220Y-63061000D01*
X195371220Y-77291000D02*
X195371220Y-66709000D01*
X196811220Y-78864000D02*
X196811220Y-65136000D01*
X202252220Y-81066000D02*
X202252220Y-62934000D01*
X198371220Y-79949000D02*
X198371220Y-73440000D01*
X197571220Y-79453000D02*
X197571220Y-64547000D01*
X198811220Y-80176000D02*
X198811220Y-73440000D01*
X197611220Y-70560000D02*
X197611220Y-64520000D01*
X199131220Y-70560000D02*
X199131220Y-63677000D01*
X200131220Y-70560000D02*
X200131220Y-63310000D01*
X200011220Y-80653000D02*
X200011220Y-73440000D01*
X200211220Y-70560000D02*
X200211220Y-63286000D01*
X195051220Y-76816000D02*
X195051220Y-67184000D01*
X195771220Y-77806000D02*
X195771220Y-66194000D01*
X202051220Y-81052000D02*
X202051220Y-62948000D01*
X196691220Y-78758000D02*
X196691220Y-65242000D01*
X201931220Y-81042000D02*
X201931220Y-62958000D01*
X198251220Y-70560000D02*
X198251220Y-64118000D01*
X197771220Y-79588000D02*
X197771220Y-73440000D01*
X195171220Y-77002000D02*
X195171220Y-66998000D01*
X198651220Y-70560000D02*
X198651220Y-63903000D01*
X199811220Y-70560000D02*
X199811220Y-63413000D01*
X198651220Y-80097000D02*
X198651220Y-73440000D01*
X198491220Y-80014000D02*
X198491220Y-73440000D01*
X193652220Y-72040000D02*
X193652220Y-71960000D01*
X194092220Y-74759000D02*
X194092220Y-69241000D01*
X199651220Y-80530000D02*
X199651220Y-73440000D01*
X195811220Y-77854000D02*
X195811220Y-66146000D01*
X199691220Y-70560000D02*
X199691220Y-63455000D01*
X202492220Y-81076000D02*
X202492220Y-62924000D01*
X200491220Y-80791000D02*
X200491220Y-63209000D01*
X201851220Y-81034000D02*
X201851220Y-62966000D01*
X194252220Y-75214000D02*
X194252220Y-68786000D01*
X199771220Y-80573000D02*
X199771220Y-73440000D01*
X198131220Y-79812000D02*
X198131220Y-73440000D01*
X199251220Y-70560000D02*
X199251220Y-63626000D01*
X198731220Y-80137000D02*
X198731220Y-73440000D01*
X194412220Y-75605000D02*
X194412220Y-68395000D01*
X196451220Y-78536000D02*
X196451220Y-65464000D01*
X194452220Y-75696000D02*
X194452220Y-68304000D01*
X194372220Y-75512000D02*
X194372220Y-68488000D01*
X199051220Y-70560000D02*
X199051220Y-63713000D01*
X198091220Y-70560000D02*
X198091220Y-64212000D01*
X199411220Y-80439000D02*
X199411220Y-73440000D01*
X200571220Y-80811000D02*
X200571220Y-63189000D01*
X201291220Y-80960000D02*
X201291220Y-63040000D01*
X199691220Y-80545000D02*
X199691220Y-73440000D01*
X201051220Y-80917000D02*
X201051220Y-63083000D01*
X195691220Y-77709000D02*
X195691220Y-66291000D01*
X194811220Y-76412000D02*
X194811220Y-67588000D01*
X197651220Y-70560000D02*
X197651220Y-64492000D01*
X199811220Y-80587000D02*
X199811220Y-73440000D01*
X194172220Y-74996000D02*
X194172220Y-69004000D01*
X195251220Y-77120000D02*
X195251220Y-66880000D01*
X199211220Y-70560000D02*
X199211220Y-63643000D01*
X199531220Y-80486000D02*
X199531220Y-73440000D01*
X199851220Y-70560000D02*
X199851220Y-63400000D01*
X198171220Y-79835000D02*
X198171220Y-73440000D01*
X195331220Y-77235000D02*
X195331220Y-66765000D01*
X198491220Y-70560000D02*
X198491220Y-63986000D01*
X198571220Y-80056000D02*
X198571220Y-73440000D01*
X194292220Y-75317000D02*
X194292220Y-68683000D01*
X199331220Y-80407000D02*
X199331220Y-73440000D01*
X194651220Y-76113000D02*
X194651220Y-67887000D01*
X195931220Y-77993000D02*
X195931220Y-66007000D01*
X198691220Y-70560000D02*
X198691220Y-63883000D01*
X195971220Y-78038000D02*
X195971220Y-65962000D01*
X211892220Y-72000000D02*
G75*
G03*
X211892220Y-72000000I-9120000J0D01*
G01*
%TO.C,C17*%
X145948752Y-64965000D02*
X145426248Y-64965000D01*
X145948752Y-66435000D02*
X145426248Y-66435000D01*
%TO.C,C6*%
X90120000Y-122270000D02*
X71880000Y-122270000D01*
X90120000Y-116030000D02*
X71880000Y-116030000D01*
X71880000Y-122270000D02*
X71880000Y-116030000D01*
X90120000Y-122270000D02*
X90120000Y-116030000D01*
%TO.C,R12*%
X199639564Y-35585000D02*
X199185436Y-35585000D01*
X199639564Y-34115000D02*
X199185436Y-34115000D01*
%TO.C,R4*%
X138817936Y-56335000D02*
X139272064Y-56335000D01*
X138817936Y-54865000D02*
X139272064Y-54865000D01*
%TO.C,J2*%
X205590000Y-56820000D02*
X206190000Y-57120000D01*
X217110000Y-61040000D02*
X215310000Y-61040000D01*
X218610000Y-56120000D02*
X217110000Y-56370000D01*
X217110000Y-37960000D02*
X217110000Y-61040000D01*
X217110000Y-42630000D02*
X218610000Y-42880000D01*
X215310000Y-61040000D02*
X215310000Y-37960000D01*
X218610000Y-40880000D02*
X217110000Y-41130000D01*
X217110000Y-57870000D02*
X218610000Y-58120000D01*
X217110000Y-48750000D02*
X217110000Y-50250000D01*
X215310000Y-37960000D02*
X217110000Y-37960000D01*
X218610000Y-48500000D02*
X217110000Y-48750000D01*
X206390000Y-61040000D02*
X218610000Y-61040000D01*
X217110000Y-41130000D02*
X217110000Y-42630000D01*
X217110000Y-50250000D02*
X218610000Y-50500000D01*
X218610000Y-58120000D02*
X218610000Y-56120000D01*
X218610000Y-50500000D02*
X218610000Y-48500000D01*
X218610000Y-42880000D02*
X218610000Y-40880000D01*
X206190000Y-57120000D02*
X205590000Y-57420000D01*
X217110000Y-56370000D02*
X217110000Y-57870000D01*
X206390000Y-37960000D02*
X206390000Y-61040000D01*
X218610000Y-37960000D02*
X206390000Y-37960000D01*
X218610000Y-61040000D02*
X218610000Y-37960000D01*
X205590000Y-57420000D02*
X205590000Y-56820000D01*
%TO.C,U2*%
X147762500Y-71560000D02*
X146962500Y-71560000D01*
X147762500Y-71560000D02*
X149562500Y-71560000D01*
X147762500Y-68440000D02*
X146962500Y-68440000D01*
X147762500Y-68440000D02*
X148562500Y-68440000D01*
%TO.C,R6*%
X138905436Y-63215000D02*
X139359564Y-63215000D01*
X138905436Y-64685000D02*
X139359564Y-64685000D01*
%TO.C,C12*%
X178369000Y-109560000D02*
X178369000Y-103335000D01*
X181329000Y-119876000D02*
X181329000Y-102124000D01*
X180929000Y-109560000D02*
X180929000Y-102220000D01*
X176609000Y-117212000D02*
X176609000Y-104788000D01*
X179609000Y-119323000D02*
X179609000Y-112440000D01*
X180449000Y-119640000D02*
X180449000Y-112440000D01*
X175889000Y-116346000D02*
X175889000Y-105654000D01*
X178969000Y-119014000D02*
X178969000Y-112440000D01*
X177809000Y-118280000D02*
X177809000Y-103720000D01*
X178569000Y-118788000D02*
X178569000Y-112440000D01*
X178889000Y-118971000D02*
X178889000Y-112440000D01*
X180569000Y-109560000D02*
X180569000Y-102322000D01*
X179329000Y-109560000D02*
X179329000Y-102805000D01*
X175089000Y-115033000D02*
X175089000Y-106967000D01*
X179169000Y-119117000D02*
X179169000Y-112440000D01*
X175329000Y-115482000D02*
X175329000Y-106518000D01*
X179089000Y-119076000D02*
X179089000Y-112440000D01*
X175569000Y-115879000D02*
X175569000Y-106121000D01*
X179409000Y-119233000D02*
X179409000Y-112440000D01*
X179129000Y-119097000D02*
X179129000Y-112440000D01*
X179529000Y-119287000D02*
X179529000Y-112440000D01*
X176489000Y-117082000D02*
X176489000Y-104918000D01*
X177249000Y-117829000D02*
X177249000Y-104171000D01*
X183170000Y-120080000D02*
X183170000Y-101920000D01*
X178289000Y-109560000D02*
X178289000Y-103386000D01*
X177609000Y-118127000D02*
X177609000Y-103873000D01*
X179249000Y-119156000D02*
X179249000Y-112440000D01*
X180369000Y-109560000D02*
X180369000Y-102386000D01*
X176849000Y-117458000D02*
X176849000Y-104542000D01*
X179929000Y-119455000D02*
X179929000Y-112440000D01*
X179689000Y-119357000D02*
X179689000Y-112440000D01*
X177009000Y-117612000D02*
X177009000Y-104388000D01*
X178489000Y-118740000D02*
X178489000Y-112440000D01*
X175249000Y-115339000D02*
X175249000Y-106661000D01*
X177649000Y-118159000D02*
X177649000Y-103841000D01*
X176729000Y-117337000D02*
X176729000Y-104663000D01*
X178489000Y-109560000D02*
X178489000Y-103260000D01*
X174610000Y-113880000D02*
X174610000Y-108120000D01*
X175689000Y-116062000D02*
X175689000Y-105938000D01*
X175449000Y-115686000D02*
X175449000Y-106314000D01*
X174410000Y-113203000D02*
X174410000Y-108797000D01*
X178609000Y-118812000D02*
X178609000Y-112440000D01*
X182970000Y-120076000D02*
X182970000Y-101924000D01*
X176769000Y-117378000D02*
X176769000Y-104622000D01*
X178569000Y-109560000D02*
X178569000Y-103212000D01*
X180609000Y-109560000D02*
X180609000Y-102310000D01*
X175609000Y-115941000D02*
X175609000Y-106059000D01*
X177089000Y-117686000D02*
X177089000Y-104314000D01*
X179769000Y-119390000D02*
X179769000Y-112440000D01*
X174290000Y-112661000D02*
X174290000Y-109339000D01*
X178649000Y-118835000D02*
X178649000Y-112440000D01*
X181609000Y-119932000D02*
X181609000Y-102068000D01*
X177729000Y-118220000D02*
X177729000Y-103780000D01*
X181529000Y-119917000D02*
X181529000Y-102083000D01*
X178969000Y-109560000D02*
X178969000Y-102986000D01*
X178329000Y-118640000D02*
X178329000Y-112440000D01*
X174930000Y-114696000D02*
X174930000Y-107304000D01*
X178689000Y-109560000D02*
X178689000Y-103141000D01*
X179809000Y-109560000D02*
X179809000Y-102593000D01*
X179129000Y-109560000D02*
X179129000Y-102903000D01*
X177049000Y-117649000D02*
X177049000Y-104351000D01*
X178889000Y-109560000D02*
X178889000Y-103029000D01*
X174770000Y-114317000D02*
X174770000Y-107683000D01*
X177369000Y-117932000D02*
X177369000Y-104068000D01*
X177929000Y-118368000D02*
X177929000Y-103632000D01*
X174450000Y-113355000D02*
X174450000Y-108645000D01*
X182089000Y-120006000D02*
X182089000Y-101994000D01*
X182329000Y-120034000D02*
X182329000Y-101966000D01*
X182009000Y-119996000D02*
X182009000Y-102004000D01*
X182529000Y-120052000D02*
X182529000Y-101948000D01*
X180529000Y-109560000D02*
X180529000Y-102335000D01*
X174530000Y-113632000D02*
X174530000Y-108368000D01*
X181849000Y-119972000D02*
X181849000Y-102028000D01*
X178409000Y-109560000D02*
X178409000Y-103310000D01*
X176529000Y-117126000D02*
X176529000Y-104874000D01*
X181969000Y-119990000D02*
X181969000Y-102010000D01*
X174210000Y-112166000D02*
X174210000Y-109834000D01*
X182209000Y-120021000D02*
X182209000Y-101979000D01*
X179049000Y-109560000D02*
X179049000Y-102944000D01*
X180049000Y-109560000D02*
X180049000Y-102499000D01*
X178329000Y-109560000D02*
X178329000Y-103360000D01*
X180769000Y-119737000D02*
X180769000Y-112440000D01*
X178529000Y-118764000D02*
X178529000Y-112440000D01*
X183130000Y-120080000D02*
X183130000Y-101920000D01*
X177169000Y-117758000D02*
X177169000Y-104242000D01*
X182409000Y-120042000D02*
X182409000Y-101958000D01*
X176689000Y-117296000D02*
X176689000Y-104704000D01*
X174890000Y-114605000D02*
X174890000Y-107395000D01*
X181929000Y-119984000D02*
X181929000Y-102016000D01*
X176089000Y-116609000D02*
X176089000Y-105391000D01*
X180569000Y-119678000D02*
X180569000Y-112440000D01*
X178769000Y-109560000D02*
X178769000Y-103096000D01*
X176809000Y-117418000D02*
X176809000Y-104582000D01*
X180609000Y-119690000D02*
X180609000Y-112440000D01*
X179689000Y-109560000D02*
X179689000Y-102643000D01*
X177329000Y-117898000D02*
X177329000Y-104102000D01*
X181089000Y-119821000D02*
X181089000Y-102179000D01*
X180409000Y-119627000D02*
X180409000Y-112440000D01*
X181049000Y-119811000D02*
X181049000Y-102189000D01*
X182690000Y-120063000D02*
X182690000Y-101937000D01*
X177889000Y-118339000D02*
X177889000Y-103661000D01*
X181129000Y-119831000D02*
X181129000Y-102169000D01*
X175169000Y-115190000D02*
X175169000Y-106810000D01*
X180249000Y-109560000D02*
X180249000Y-102427000D01*
X181809000Y-119966000D02*
X181809000Y-102034000D01*
X180009000Y-119486000D02*
X180009000Y-112440000D01*
X178849000Y-109560000D02*
X178849000Y-103051000D01*
X176649000Y-117254000D02*
X176649000Y-104746000D01*
X183010000Y-120077000D02*
X183010000Y-101923000D01*
X178169000Y-118535000D02*
X178169000Y-112440000D01*
X180089000Y-119516000D02*
X180089000Y-112440000D01*
X180489000Y-119653000D02*
X180489000Y-112440000D01*
X178089000Y-118480000D02*
X178089000Y-112440000D01*
X180809000Y-119748000D02*
X180809000Y-112440000D01*
X181169000Y-119840000D02*
X181169000Y-102160000D01*
X179249000Y-109560000D02*
X179249000Y-102844000D01*
X183250000Y-120081000D02*
X183250000Y-101919000D01*
X178769000Y-118904000D02*
X178769000Y-112440000D01*
X174330000Y-112860000D02*
X174330000Y-109140000D01*
X179969000Y-109560000D02*
X179969000Y-102530000D01*
X177209000Y-117794000D02*
X177209000Y-104206000D01*
X180369000Y-119614000D02*
X180369000Y-112440000D01*
X183050000Y-120078000D02*
X183050000Y-101922000D01*
X180649000Y-109560000D02*
X180649000Y-102298000D01*
X178929000Y-118992000D02*
X178929000Y-112440000D01*
X179809000Y-119407000D02*
X179809000Y-112440000D01*
X178129000Y-109560000D02*
X178129000Y-103492000D01*
X182810000Y-120070000D02*
X182810000Y-101930000D01*
X174130000Y-111040000D02*
X174130000Y-110960000D01*
X176449000Y-117038000D02*
X176449000Y-104962000D01*
X180169000Y-119545000D02*
X180169000Y-112440000D01*
X180409000Y-109560000D02*
X180409000Y-102373000D01*
X181209000Y-119849000D02*
X181209000Y-102151000D01*
X178809000Y-118927000D02*
X178809000Y-112440000D01*
X177849000Y-118310000D02*
X177849000Y-103690000D01*
X178729000Y-118882000D02*
X178729000Y-112440000D01*
X179049000Y-119056000D02*
X179049000Y-112440000D01*
X177449000Y-117999000D02*
X177449000Y-104001000D01*
X175010000Y-114869000D02*
X175010000Y-107131000D01*
X180329000Y-109560000D02*
X180329000Y-102400000D01*
X180489000Y-109560000D02*
X180489000Y-102347000D01*
X175849000Y-116291000D02*
X175849000Y-105709000D01*
X176569000Y-117170000D02*
X176569000Y-104830000D01*
X179529000Y-109560000D02*
X179529000Y-102713000D01*
X174730000Y-114214000D02*
X174730000Y-107786000D01*
X180249000Y-119573000D02*
X180249000Y-112440000D01*
X179929000Y-109560000D02*
X179929000Y-102545000D01*
X179009000Y-109560000D02*
X179009000Y-102965000D01*
X180049000Y-119501000D02*
X180049000Y-112440000D01*
X180929000Y-119780000D02*
X180929000Y-112440000D01*
X181769000Y-119960000D02*
X181769000Y-102040000D01*
X179289000Y-119176000D02*
X179289000Y-112440000D01*
X180449000Y-109560000D02*
X180449000Y-102360000D01*
X175969000Y-116454000D02*
X175969000Y-105546000D01*
X182730000Y-120066000D02*
X182730000Y-101934000D01*
X182570000Y-120055000D02*
X182570000Y-101945000D01*
X175489000Y-115752000D02*
X175489000Y-106248000D01*
X176329000Y-116901000D02*
X176329000Y-105099000D01*
X178449000Y-118715000D02*
X178449000Y-112440000D01*
X181449000Y-119901000D02*
X181449000Y-102099000D01*
X178089000Y-109560000D02*
X178089000Y-103520000D01*
X175409000Y-115620000D02*
X175409000Y-106380000D01*
X179969000Y-119470000D02*
X179969000Y-112440000D01*
X176209000Y-116758000D02*
X176209000Y-105242000D01*
X179329000Y-119195000D02*
X179329000Y-112440000D01*
X179729000Y-119374000D02*
X179729000Y-112440000D01*
X193009440Y-116115000D02*
X191209440Y-116115000D01*
X178169000Y-109560000D02*
X178169000Y-103465000D01*
X182770000Y-120068000D02*
X182770000Y-101932000D01*
X182650000Y-120061000D02*
X182650000Y-101939000D01*
X181369000Y-119885000D02*
X181369000Y-102115000D01*
X179489000Y-109560000D02*
X179489000Y-102731000D01*
X176289000Y-116854000D02*
X176289000Y-105146000D01*
X176009000Y-116506000D02*
X176009000Y-105494000D01*
X178129000Y-118508000D02*
X178129000Y-112440000D01*
X180009000Y-109560000D02*
X180009000Y-102514000D01*
X181289000Y-119867000D02*
X181289000Y-102133000D01*
X180209000Y-109560000D02*
X180209000Y-102441000D01*
X175050000Y-114952000D02*
X175050000Y-107048000D01*
X176369000Y-116947000D02*
X176369000Y-105053000D01*
X178689000Y-118859000D02*
X178689000Y-112440000D01*
X180729000Y-119725000D02*
X180729000Y-112440000D01*
X178009000Y-118425000D02*
X178009000Y-103575000D01*
X175209000Y-115265000D02*
X175209000Y-106735000D01*
X182850000Y-120072000D02*
X182850000Y-101928000D01*
X176249000Y-116806000D02*
X176249000Y-105194000D01*
X179009000Y-119035000D02*
X179009000Y-112440000D01*
X181249000Y-119858000D02*
X181249000Y-102142000D01*
X180849000Y-119759000D02*
X180849000Y-112440000D01*
X178729000Y-109560000D02*
X178729000Y-103118000D01*
X175929000Y-116400000D02*
X175929000Y-105600000D01*
X182049000Y-120001000D02*
X182049000Y-101999000D01*
X179569000Y-109560000D02*
X179569000Y-102695000D01*
X179849000Y-119423000D02*
X179849000Y-112440000D01*
X192109440Y-117015000D02*
X192109440Y-115215000D01*
X176169000Y-116709000D02*
X176169000Y-105291000D01*
X180289000Y-119587000D02*
X180289000Y-112440000D01*
X178049000Y-118453000D02*
X178049000Y-103547000D01*
X180129000Y-119530000D02*
X180129000Y-112440000D01*
X180969000Y-119791000D02*
X180969000Y-102209000D01*
X179769000Y-109560000D02*
X179769000Y-102610000D01*
X180289000Y-109560000D02*
X180289000Y-102413000D01*
X179369000Y-109560000D02*
X179369000Y-102786000D01*
X180729000Y-109560000D02*
X180729000Y-102275000D01*
X175769000Y-116178000D02*
X175769000Y-105822000D01*
X179889000Y-119439000D02*
X179889000Y-112440000D01*
X180169000Y-109560000D02*
X180169000Y-102455000D01*
X174810000Y-114416000D02*
X174810000Y-107584000D01*
X176049000Y-116558000D02*
X176049000Y-105442000D01*
X180129000Y-109560000D02*
X180129000Y-102470000D01*
X178449000Y-109560000D02*
X178449000Y-103285000D01*
X178849000Y-118949000D02*
X178849000Y-112440000D01*
X180329000Y-119600000D02*
X180329000Y-112440000D01*
X174170000Y-111814000D02*
X174170000Y-110186000D01*
X179649000Y-109560000D02*
X179649000Y-102660000D01*
X181889000Y-119979000D02*
X181889000Y-102021000D01*
X179729000Y-109560000D02*
X179729000Y-102626000D01*
X178209000Y-109560000D02*
X178209000Y-103439000D01*
X178809000Y-109560000D02*
X178809000Y-103073000D01*
X175369000Y-115552000D02*
X175369000Y-106448000D01*
X181009000Y-119801000D02*
X181009000Y-102199000D01*
X174650000Y-113996000D02*
X174650000Y-108004000D01*
X176969000Y-117574000D02*
X176969000Y-104426000D01*
X179649000Y-119340000D02*
X179649000Y-112440000D01*
X178369000Y-118665000D02*
X178369000Y-112440000D01*
X178289000Y-118614000D02*
X178289000Y-112440000D01*
X177409000Y-117965000D02*
X177409000Y-104035000D01*
X181489000Y-119909000D02*
X181489000Y-102091000D01*
X174850000Y-114512000D02*
X174850000Y-107488000D01*
X174570000Y-113759000D02*
X174570000Y-108241000D01*
X181409000Y-119893000D02*
X181409000Y-102107000D01*
X179489000Y-119269000D02*
X179489000Y-112440000D01*
X180849000Y-109560000D02*
X180849000Y-102241000D01*
X174690000Y-114107000D02*
X174690000Y-107893000D01*
X174250000Y-112435000D02*
X174250000Y-109565000D01*
X179449000Y-119251000D02*
X179449000Y-112440000D01*
X180889000Y-119770000D02*
X180889000Y-112440000D01*
X178609000Y-109560000D02*
X178609000Y-103188000D01*
X180529000Y-119665000D02*
X180529000Y-112440000D01*
X182449000Y-120045000D02*
X182449000Y-101955000D01*
X179209000Y-109560000D02*
X179209000Y-102863000D01*
X180809000Y-109560000D02*
X180809000Y-102252000D01*
X183210000Y-120080000D02*
X183210000Y-101920000D01*
X182930000Y-120075000D02*
X182930000Y-101925000D01*
X179889000Y-109560000D02*
X179889000Y-102561000D01*
X175289000Y-115412000D02*
X175289000Y-106588000D01*
X182289000Y-120030000D02*
X182289000Y-101970000D01*
X182169000Y-120016000D02*
X182169000Y-101984000D01*
X179849000Y-109560000D02*
X179849000Y-102577000D01*
X180689000Y-109560000D02*
X180689000Y-102286000D01*
X181729000Y-119953000D02*
X181729000Y-102047000D01*
X178529000Y-109560000D02*
X178529000Y-103236000D01*
X181569000Y-119924000D02*
X181569000Y-102076000D01*
X178409000Y-118690000D02*
X178409000Y-112440000D01*
X180089000Y-109560000D02*
X180089000Y-102484000D01*
X178209000Y-118561000D02*
X178209000Y-112440000D01*
X179169000Y-109560000D02*
X179169000Y-102883000D01*
X180649000Y-119702000D02*
X180649000Y-112440000D01*
X182890000Y-120073000D02*
X182890000Y-101927000D01*
X181649000Y-119939000D02*
X181649000Y-102061000D01*
X176929000Y-117536000D02*
X176929000Y-104464000D01*
X177689000Y-118190000D02*
X177689000Y-103810000D01*
X182249000Y-120026000D02*
X182249000Y-101974000D01*
X182129000Y-120011000D02*
X182129000Y-101989000D01*
X183090000Y-120079000D02*
X183090000Y-101921000D01*
X176409000Y-116993000D02*
X176409000Y-105007000D01*
X177969000Y-118397000D02*
X177969000Y-103603000D01*
X177489000Y-118031000D02*
X177489000Y-103969000D01*
X179449000Y-109560000D02*
X179449000Y-102749000D01*
X178929000Y-109560000D02*
X178929000Y-103008000D01*
X180769000Y-109560000D02*
X180769000Y-102263000D01*
X177769000Y-118250000D02*
X177769000Y-103750000D01*
X178649000Y-109560000D02*
X178649000Y-103165000D01*
X182610000Y-120058000D02*
X182610000Y-101942000D01*
X178249000Y-118588000D02*
X178249000Y-112440000D01*
X179289000Y-109560000D02*
X179289000Y-102824000D01*
X180689000Y-119714000D02*
X180689000Y-112440000D01*
X179369000Y-119214000D02*
X179369000Y-112440000D01*
X176889000Y-117497000D02*
X176889000Y-104503000D01*
X181689000Y-119946000D02*
X181689000Y-102054000D01*
X176129000Y-116660000D02*
X176129000Y-105340000D01*
X178249000Y-109560000D02*
X178249000Y-103412000D01*
X179409000Y-109560000D02*
X179409000Y-102767000D01*
X179089000Y-109560000D02*
X179089000Y-102924000D01*
X179209000Y-119137000D02*
X179209000Y-112440000D01*
X179569000Y-119305000D02*
X179569000Y-112440000D01*
X180889000Y-109560000D02*
X180889000Y-102230000D01*
X182369000Y-120038000D02*
X182369000Y-101962000D01*
X175729000Y-116120000D02*
X175729000Y-105880000D01*
X174490000Y-113498000D02*
X174490000Y-108502000D01*
X175129000Y-115113000D02*
X175129000Y-106887000D01*
X177569000Y-118096000D02*
X177569000Y-103904000D01*
X175809000Y-116235000D02*
X175809000Y-105765000D01*
X182489000Y-120049000D02*
X182489000Y-101951000D01*
X174970000Y-114784000D02*
X174970000Y-107216000D01*
X177529000Y-118064000D02*
X177529000Y-103936000D01*
X179609000Y-109560000D02*
X179609000Y-102677000D01*
X174370000Y-113039000D02*
X174370000Y-108961000D01*
X177289000Y-117864000D02*
X177289000Y-104136000D01*
X175649000Y-116002000D02*
X175649000Y-105998000D01*
X175529000Y-115816000D02*
X175529000Y-106184000D01*
X177129000Y-117722000D02*
X177129000Y-104278000D01*
X180209000Y-119559000D02*
X180209000Y-112440000D01*
X192370000Y-111000000D02*
G75*
G03*
X192370000Y-111000000I-9120000J0D01*
G01*
D11*
%TO.C,RV1*%
X83000000Y-52850000D02*
X83000000Y-47950000D01*
X83000000Y-52850000D02*
X67500000Y-52850000D01*
X83000000Y-47950000D02*
X67500000Y-47950000D01*
X67500000Y-52850000D02*
X67500000Y-47950000D01*
D12*
%TO.C,D1*%
X95140000Y-129300000D02*
X97140000Y-129300000D01*
X90040000Y-129300000D02*
X92040000Y-129300000D01*
X78040000Y-132900000D02*
X78040000Y-132400000D01*
X97140000Y-129300000D02*
X97140000Y-132900000D01*
X85040000Y-129300000D02*
X86940000Y-129300000D01*
X80340000Y-129300000D02*
X81840000Y-129300000D01*
X74840000Y-132900000D02*
X74840000Y-129300000D01*
X74840000Y-129300000D02*
X76340000Y-129300000D01*
X97140000Y-132900000D02*
X74840000Y-132900000D01*
%TO.C,R1*%
X118710000Y-91100000D02*
X118710000Y-94800000D01*
X115290000Y-91100000D02*
X115290000Y-94800000D01*
%TO.C,C16*%
X177071220Y-78649000D02*
X177071220Y-65351000D01*
X180551220Y-70560000D02*
X180551220Y-63335000D01*
X177671220Y-79159000D02*
X177671220Y-64841000D01*
X177551220Y-79064000D02*
X177551220Y-64936000D01*
X178391220Y-79665000D02*
X178391220Y-73440000D01*
X175751220Y-77120000D02*
X175751220Y-66880000D01*
X182712220Y-81063000D02*
X182712220Y-62937000D01*
X176271220Y-77806000D02*
X176271220Y-66194000D01*
X174712220Y-75107000D02*
X174712220Y-68893000D01*
X177911220Y-79339000D02*
X177911220Y-64661000D01*
X175111220Y-76033000D02*
X175111220Y-67967000D01*
X177991220Y-79397000D02*
X177991220Y-64603000D01*
X179351220Y-70560000D02*
X179351220Y-63805000D01*
X174672220Y-74996000D02*
X174672220Y-69004000D01*
X179471220Y-80251000D02*
X179471220Y-73440000D01*
X180671220Y-70560000D02*
X180671220Y-63298000D01*
X178951220Y-79992000D02*
X178951220Y-73440000D01*
X182311220Y-81030000D02*
X182311220Y-62970000D01*
X180831220Y-80748000D02*
X180831220Y-73440000D01*
X182752220Y-81066000D02*
X182752220Y-62934000D01*
X175871220Y-77291000D02*
X175871220Y-66709000D01*
X179311220Y-70560000D02*
X179311220Y-63824000D01*
X176431220Y-77993000D02*
X176431220Y-66007000D01*
X174312220Y-73661000D02*
X174312220Y-70339000D01*
X175791220Y-77178000D02*
X175791220Y-66822000D01*
X175831220Y-77235000D02*
X175831220Y-66765000D01*
X174552220Y-74632000D02*
X174552220Y-69368000D01*
X179071220Y-80056000D02*
X179071220Y-73440000D01*
X178271220Y-70560000D02*
X178271220Y-64412000D01*
X180631220Y-70560000D02*
X180631220Y-63310000D01*
X177471220Y-78999000D02*
X177471220Y-65001000D01*
X176471220Y-78038000D02*
X176471220Y-65962000D01*
X179271220Y-70560000D02*
X179271220Y-63844000D01*
X174792220Y-75317000D02*
X174792220Y-68683000D01*
X178311220Y-70560000D02*
X178311220Y-64386000D01*
X177311220Y-78864000D02*
X177311220Y-65136000D01*
X182592220Y-81055000D02*
X182592220Y-62945000D01*
X181231220Y-80849000D02*
X181231220Y-63151000D01*
X180751220Y-80725000D02*
X180751220Y-73440000D01*
X178271220Y-79588000D02*
X178271220Y-73440000D01*
X179831220Y-70560000D02*
X179831220Y-63593000D01*
X181791220Y-80960000D02*
X181791220Y-63040000D01*
X179671220Y-70560000D02*
X179671220Y-63660000D01*
X180671220Y-80702000D02*
X180671220Y-73440000D01*
X180911220Y-70560000D02*
X180911220Y-63230000D01*
X178711220Y-70560000D02*
X178711220Y-64141000D01*
X179191220Y-80117000D02*
X179191220Y-73440000D01*
X182511220Y-81049000D02*
X182511220Y-62951000D01*
X181391220Y-80885000D02*
X181391220Y-63115000D01*
X178711220Y-79859000D02*
X178711220Y-73440000D01*
X179831220Y-80407000D02*
X179831220Y-73440000D01*
X182271220Y-81026000D02*
X182271220Y-62974000D01*
X179551220Y-80287000D02*
X179551220Y-73440000D01*
X179111220Y-80076000D02*
X179111220Y-73440000D01*
X176671220Y-78254000D02*
X176671220Y-65746000D01*
X180831220Y-70560000D02*
X180831220Y-63252000D01*
X177831220Y-79280000D02*
X177831220Y-64720000D01*
X180151220Y-70560000D02*
X180151220Y-63470000D01*
X182431220Y-81042000D02*
X182431220Y-62958000D01*
X174392220Y-74039000D02*
X174392220Y-69961000D01*
X180311220Y-80587000D02*
X180311220Y-73440000D01*
X179911220Y-70560000D02*
X179911220Y-63561000D01*
X176951220Y-78536000D02*
X176951220Y-65464000D01*
X176351220Y-77901000D02*
X176351220Y-66099000D01*
X178591220Y-79788000D02*
X178591220Y-73440000D01*
X178511220Y-79740000D02*
X178511220Y-73440000D01*
X180951220Y-80780000D02*
X180951220Y-73440000D01*
X179351220Y-80195000D02*
X179351220Y-73440000D01*
X179031220Y-70560000D02*
X179031220Y-63965000D01*
X181511220Y-80909000D02*
X181511220Y-63091000D01*
X182992220Y-81076000D02*
X182992220Y-62924000D01*
X177351220Y-78898000D02*
X177351220Y-65102000D01*
X174912220Y-75605000D02*
X174912220Y-68395000D01*
X181551220Y-80917000D02*
X181551220Y-63083000D01*
X180591220Y-70560000D02*
X180591220Y-63322000D01*
X180071220Y-70560000D02*
X180071220Y-63499000D01*
X181871220Y-80972000D02*
X181871220Y-63028000D01*
X175591220Y-76879000D02*
X175591220Y-67121000D01*
X174272220Y-73435000D02*
X174272220Y-70565000D01*
X174472220Y-74355000D02*
X174472220Y-69645000D01*
X179471220Y-70560000D02*
X179471220Y-63749000D01*
X174152220Y-72040000D02*
X174152220Y-71960000D01*
X178511220Y-70560000D02*
X178511220Y-64260000D01*
X179871220Y-70560000D02*
X179871220Y-63577000D01*
X180511220Y-70560000D02*
X180511220Y-63347000D01*
X179591220Y-80305000D02*
X179591220Y-73440000D01*
X180191220Y-70560000D02*
X180191220Y-63455000D01*
X178671220Y-70560000D02*
X178671220Y-64165000D01*
X176151220Y-77660000D02*
X176151220Y-66340000D01*
X179151220Y-70560000D02*
X179151220Y-63903000D01*
X176591220Y-78170000D02*
X176591220Y-65830000D01*
X174632220Y-74880000D02*
X174632220Y-69120000D01*
X175471220Y-76686000D02*
X175471220Y-67314000D01*
X174952220Y-75696000D02*
X174952220Y-68304000D01*
X179431220Y-70560000D02*
X179431220Y-63767000D01*
X179751220Y-80374000D02*
X179751220Y-73440000D01*
X178591220Y-70560000D02*
X178591220Y-64212000D01*
X182471220Y-81045000D02*
X182471220Y-62955000D01*
X180871220Y-70560000D02*
X180871220Y-63241000D01*
X182912220Y-81073000D02*
X182912220Y-62927000D01*
X175072220Y-75952000D02*
X175072220Y-68048000D01*
X175191220Y-76190000D02*
X175191220Y-67810000D01*
X179791220Y-80390000D02*
X179791220Y-73440000D01*
X174352220Y-73860000D02*
X174352220Y-70140000D01*
X178831220Y-70560000D02*
X178831220Y-64073000D01*
X176991220Y-78574000D02*
X176991220Y-65426000D01*
X179231220Y-80137000D02*
X179231220Y-73440000D01*
X178551220Y-79764000D02*
X178551220Y-73440000D01*
X181711220Y-80946000D02*
X181711220Y-63054000D01*
X182031220Y-80996000D02*
X182031220Y-63004000D01*
X181951220Y-80984000D02*
X181951220Y-63016000D01*
X178231220Y-79561000D02*
X178231220Y-73440000D01*
X182111220Y-81006000D02*
X182111220Y-62994000D01*
X176911220Y-78497000D02*
X176911220Y-65503000D01*
X175311220Y-76412000D02*
X175311220Y-67588000D01*
X178791220Y-79904000D02*
X178791220Y-73440000D01*
X174832220Y-75416000D02*
X174832220Y-68584000D01*
X182551220Y-81052000D02*
X182551220Y-62948000D01*
X180031220Y-80486000D02*
X180031220Y-73440000D01*
X181191220Y-80840000D02*
X181191220Y-63160000D01*
X183272220Y-81081000D02*
X183272220Y-62919000D01*
X179391220Y-80214000D02*
X179391220Y-73440000D01*
X179751220Y-70560000D02*
X179751220Y-63626000D01*
X179951220Y-70560000D02*
X179951220Y-63545000D01*
X175151220Y-76113000D02*
X175151220Y-67887000D01*
X178231220Y-70560000D02*
X178231220Y-64439000D01*
X180991220Y-80791000D02*
X180991220Y-63209000D01*
X179791220Y-70560000D02*
X179791220Y-63610000D01*
X180791220Y-70560000D02*
X180791220Y-63263000D01*
X182191220Y-81016000D02*
X182191220Y-62984000D01*
X178031220Y-79425000D02*
X178031220Y-64575000D01*
X178351220Y-70560000D02*
X178351220Y-64360000D01*
X175431220Y-76620000D02*
X175431220Y-67380000D01*
X183152220Y-81080000D02*
X183152220Y-62920000D01*
X176391220Y-77947000D02*
X176391220Y-66053000D01*
X183192220Y-81080000D02*
X183192220Y-62920000D01*
X182632220Y-81058000D02*
X182632220Y-62942000D01*
X177791220Y-79250000D02*
X177791220Y-64750000D01*
X178631220Y-70560000D02*
X178631220Y-64188000D01*
X181151220Y-80831000D02*
X181151220Y-63169000D01*
X182071220Y-81001000D02*
X182071220Y-62999000D01*
X181591220Y-80924000D02*
X181591220Y-63076000D01*
X174592220Y-74759000D02*
X174592220Y-69241000D01*
X174512220Y-74498000D02*
X174512220Y-69502000D01*
X176831220Y-78418000D02*
X176831220Y-65582000D01*
X182151220Y-81011000D02*
X182151220Y-62989000D01*
X175551220Y-76816000D02*
X175551220Y-67184000D01*
X177231220Y-78794000D02*
X177231220Y-65206000D01*
X183072220Y-81078000D02*
X183072220Y-62922000D01*
X175991220Y-77454000D02*
X175991220Y-66546000D01*
X179631220Y-80323000D02*
X179631220Y-73440000D01*
X181271220Y-80858000D02*
X181271220Y-63142000D01*
X179071220Y-70560000D02*
X179071220Y-63944000D01*
X178551220Y-70560000D02*
X178551220Y-64236000D01*
X178311220Y-79614000D02*
X178311220Y-73440000D01*
X178791220Y-70560000D02*
X178791220Y-64096000D01*
X176311220Y-77854000D02*
X176311220Y-66146000D01*
X179991220Y-80470000D02*
X179991220Y-73440000D01*
X176031220Y-77506000D02*
X176031220Y-66494000D01*
X180351220Y-70560000D02*
X180351220Y-63400000D01*
X180751220Y-70560000D02*
X180751220Y-63275000D01*
X180311220Y-70560000D02*
X180311220Y-63413000D01*
X178671220Y-79835000D02*
X178671220Y-73440000D01*
X176071220Y-77558000D02*
X176071220Y-66442000D01*
X180151220Y-80530000D02*
X180151220Y-73440000D01*
X178991220Y-70560000D02*
X178991220Y-63986000D01*
X180431220Y-80627000D02*
X180431220Y-73440000D01*
X182872220Y-81072000D02*
X182872220Y-62928000D01*
X179871220Y-80423000D02*
X179871220Y-73440000D01*
X182952220Y-81075000D02*
X182952220Y-62925000D01*
X179391220Y-70560000D02*
X179391220Y-63786000D01*
X174752220Y-75214000D02*
X174752220Y-68786000D01*
X177951220Y-79368000D02*
X177951220Y-64632000D01*
X178751220Y-79882000D02*
X178751220Y-73440000D01*
X179231220Y-70560000D02*
X179231220Y-63863000D01*
X177631220Y-79127000D02*
X177631220Y-64873000D01*
X177711220Y-79190000D02*
X177711220Y-64810000D01*
X180271220Y-80573000D02*
X180271220Y-73440000D01*
X177151220Y-78722000D02*
X177151220Y-65278000D01*
X179271220Y-80156000D02*
X179271220Y-73440000D01*
X176511220Y-78082000D02*
X176511220Y-65918000D01*
X177871220Y-79310000D02*
X177871220Y-64690000D01*
X182832220Y-81070000D02*
X182832220Y-62930000D01*
X180231220Y-70560000D02*
X180231220Y-63441000D01*
X180431220Y-70560000D02*
X180431220Y-63373000D01*
X176631220Y-78212000D02*
X176631220Y-65788000D01*
X179111220Y-70560000D02*
X179111220Y-63924000D01*
X192131660Y-78015000D02*
X192131660Y-76215000D01*
X180711220Y-70560000D02*
X180711220Y-63286000D01*
X177031220Y-78612000D02*
X177031220Y-65388000D01*
X178471220Y-79715000D02*
X178471220Y-73440000D01*
X180351220Y-80600000D02*
X180351220Y-73440000D01*
X175631220Y-76941000D02*
X175631220Y-67059000D01*
X179911220Y-80439000D02*
X179911220Y-73440000D01*
X180791220Y-80737000D02*
X180791220Y-73440000D01*
X178991220Y-80014000D02*
X178991220Y-73440000D01*
X180071220Y-80501000D02*
X180071220Y-73440000D01*
X177591220Y-79096000D02*
X177591220Y-64904000D01*
X179191220Y-70560000D02*
X179191220Y-63883000D01*
X179711220Y-80357000D02*
X179711220Y-73440000D01*
X181351220Y-80876000D02*
X181351220Y-63124000D01*
X179631220Y-70560000D02*
X179631220Y-63677000D01*
X178631220Y-79812000D02*
X178631220Y-73440000D01*
X183032220Y-81077000D02*
X183032220Y-62923000D01*
X179431220Y-80233000D02*
X179431220Y-73440000D01*
X181631220Y-80932000D02*
X181631220Y-63068000D01*
X180231220Y-80559000D02*
X180231220Y-73440000D01*
X181431220Y-80893000D02*
X181431220Y-63107000D01*
X180631220Y-80690000D02*
X180631220Y-73440000D01*
X180471220Y-70560000D02*
X180471220Y-63360000D01*
X179311220Y-80176000D02*
X179311220Y-73440000D01*
X177111220Y-78686000D02*
X177111220Y-65314000D01*
X180111220Y-70560000D02*
X180111220Y-63484000D01*
X180391220Y-80614000D02*
X180391220Y-73440000D01*
X178191220Y-70560000D02*
X178191220Y-64465000D01*
X179591220Y-70560000D02*
X179591220Y-63695000D01*
X178831220Y-79927000D02*
X178831220Y-73440000D01*
X183112220Y-81079000D02*
X183112220Y-62921000D01*
X180031220Y-70560000D02*
X180031220Y-63514000D01*
X175511220Y-76752000D02*
X175511220Y-67248000D01*
X176231220Y-77758000D02*
X176231220Y-66242000D01*
X180951220Y-70560000D02*
X180951220Y-63220000D01*
X180271220Y-70560000D02*
X180271220Y-63427000D01*
X178431220Y-70560000D02*
X178431220Y-64310000D01*
X181911220Y-80979000D02*
X181911220Y-63021000D01*
X176751220Y-78337000D02*
X176751220Y-65663000D01*
X180871220Y-80759000D02*
X180871220Y-73440000D01*
X174992220Y-75784000D02*
X174992220Y-68216000D01*
X179031220Y-80035000D02*
X179031220Y-73440000D01*
X179151220Y-80097000D02*
X179151220Y-73440000D01*
X179551220Y-70560000D02*
X179551220Y-63713000D01*
X178151220Y-79508000D02*
X178151220Y-73440000D01*
X175671220Y-77002000D02*
X175671220Y-66998000D01*
X180911220Y-80770000D02*
X180911220Y-73440000D01*
X176191220Y-77709000D02*
X176191220Y-66291000D01*
X181831220Y-80966000D02*
X181831220Y-63034000D01*
X182792220Y-81068000D02*
X182792220Y-62932000D01*
X180111220Y-80516000D02*
X180111220Y-73440000D01*
X177271220Y-78829000D02*
X177271220Y-65171000D01*
X181471220Y-80901000D02*
X181471220Y-63099000D01*
X177751220Y-79220000D02*
X177751220Y-64780000D01*
X179511220Y-70560000D02*
X179511220Y-63731000D01*
X179991220Y-70560000D02*
X179991220Y-63530000D01*
X193031660Y-77115000D02*
X191231660Y-77115000D01*
X181071220Y-80811000D02*
X181071220Y-63189000D01*
X181671220Y-80939000D02*
X181671220Y-63061000D01*
X180391220Y-70560000D02*
X180391220Y-63386000D01*
X181751220Y-80953000D02*
X181751220Y-63047000D01*
X180511220Y-80653000D02*
X180511220Y-73440000D01*
X175271220Y-76339000D02*
X175271220Y-67661000D01*
X178431220Y-79690000D02*
X178431220Y-73440000D01*
X179711220Y-70560000D02*
X179711220Y-63643000D01*
X178071220Y-79453000D02*
X178071220Y-64547000D01*
X181111220Y-80821000D02*
X181111220Y-63179000D01*
X180551220Y-80665000D02*
X180551220Y-73440000D01*
X182391220Y-81038000D02*
X182391220Y-62962000D01*
X176711220Y-78296000D02*
X176711220Y-65704000D01*
X182672220Y-81061000D02*
X182672220Y-62939000D01*
X181031220Y-80801000D02*
X181031220Y-63199000D01*
X178351220Y-79640000D02*
X178351220Y-73440000D01*
X174232220Y-73166000D02*
X174232220Y-70834000D01*
X180191220Y-80545000D02*
X180191220Y-73440000D01*
X178391220Y-70560000D02*
X178391220Y-64335000D01*
X178871220Y-70560000D02*
X178871220Y-64051000D01*
X178911220Y-79971000D02*
X178911220Y-73440000D01*
X178951220Y-70560000D02*
X178951220Y-64008000D01*
X176111220Y-77609000D02*
X176111220Y-66391000D01*
X175911220Y-77346000D02*
X175911220Y-66654000D01*
X177431220Y-78965000D02*
X177431220Y-65035000D01*
X175351220Y-76482000D02*
X175351220Y-67518000D01*
X181311220Y-80867000D02*
X181311220Y-63133000D01*
X182231220Y-81021000D02*
X182231220Y-62979000D01*
X177391220Y-78932000D02*
X177391220Y-65068000D01*
X178471220Y-70560000D02*
X178471220Y-64285000D01*
X179951220Y-80455000D02*
X179951220Y-73440000D01*
X175951220Y-77400000D02*
X175951220Y-66600000D01*
X177191220Y-78758000D02*
X177191220Y-65242000D01*
X178191220Y-79535000D02*
X178191220Y-73440000D01*
X180711220Y-80714000D02*
X180711220Y-73440000D01*
X179511220Y-80269000D02*
X179511220Y-73440000D01*
X176871220Y-78458000D02*
X176871220Y-65542000D01*
X174432220Y-74203000D02*
X174432220Y-69797000D01*
X180591220Y-80678000D02*
X180591220Y-73440000D01*
X181991220Y-80990000D02*
X181991220Y-63010000D01*
X175711220Y-77062000D02*
X175711220Y-66938000D01*
X176551220Y-78126000D02*
X176551220Y-65874000D01*
X174192220Y-72814000D02*
X174192220Y-71186000D01*
X179671220Y-80340000D02*
X179671220Y-73440000D01*
X178111220Y-70560000D02*
X178111220Y-64520000D01*
X174872220Y-75512000D02*
X174872220Y-68488000D01*
X178911220Y-70560000D02*
X178911220Y-64029000D01*
X175032220Y-75869000D02*
X175032220Y-68131000D01*
X178871220Y-79949000D02*
X178871220Y-73440000D01*
X183232220Y-81080000D02*
X183232220Y-62920000D01*
X180471220Y-80640000D02*
X180471220Y-73440000D01*
X175231220Y-76265000D02*
X175231220Y-67735000D01*
X177511220Y-79031000D02*
X177511220Y-64969000D01*
X178151220Y-70560000D02*
X178151220Y-64492000D01*
X176791220Y-78378000D02*
X176791220Y-65622000D01*
X175391220Y-76552000D02*
X175391220Y-67448000D01*
X178111220Y-79480000D02*
X178111220Y-73440000D01*
X182351220Y-81034000D02*
X182351220Y-62966000D01*
X178751220Y-70560000D02*
X178751220Y-64118000D01*
X192392220Y-72000000D02*
G75*
G03*
X192392220Y-72000000I-9120000J0D01*
G01*
%TD*%
M02*
