%TF.GenerationSoftware,KiCad,Pcbnew,6.0.7-f9a2dced07~116~ubuntu20.04.1*%
%TF.CreationDate,2022-10-02T03:02:37-04:00*%
%TF.ProjectId,SSTC_PFC_Power_Supply,53535443-5f50-4464-935f-506f7765725f,rev?*%
%TF.SameCoordinates,Original*%
%TF.FileFunction,Copper,L2,Bot*%
%TF.FilePolarity,Positive*%
%FSLAX46Y46*%
G04 Gerber Fmt 4.6, Leading zero omitted, Abs format (unit mm)*
G04 Created by KiCad (PCBNEW 6.0.7-f9a2dced07~116~ubuntu20.04.1) date 2022-10-02 03:02:37*
%MOMM*%
%LPD*%
G01*
G04 APERTURE LIST*
G04 Aperture macros list*
%AMRoundRect*
0 Rectangle with rounded corners*
0 $1 Rounding radius*
0 $2 $3 $4 $5 $6 $7 $8 $9 X,Y pos of 4 corners*
0 Add a 4 corners polygon primitive as box body*
4,1,4,$2,$3,$4,$5,$6,$7,$8,$9,$2,$3,0*
0 Add four circle primitives for the rounded corners*
1,1,$1+$1,$2,$3*
1,1,$1+$1,$4,$5*
1,1,$1+$1,$6,$7*
1,1,$1+$1,$8,$9*
0 Add four rect primitives between the rounded corners*
20,1,$1+$1,$2,$3,$4,$5,0*
20,1,$1+$1,$4,$5,$6,$7,0*
20,1,$1+$1,$6,$7,$8,$9,0*
20,1,$1+$1,$8,$9,$2,$3,0*%
G04 Aperture macros list end*
%TA.AperFunction,ComponentPad*%
%ADD10C,2.750000*%
%TD*%
%TA.AperFunction,ComponentPad*%
%ADD11C,2.400000*%
%TD*%
%TA.AperFunction,ComponentPad*%
%ADD12C,7.400000*%
%TD*%
%TA.AperFunction,ComponentPad*%
%ADD13C,2.000000*%
%TD*%
%TA.AperFunction,ComponentPad*%
%ADD14RoundRect,0.250001X-1.549999X0.799999X-1.549999X-0.799999X1.549999X-0.799999X1.549999X0.799999X0*%
%TD*%
%TA.AperFunction,ComponentPad*%
%ADD15O,3.600000X2.100000*%
%TD*%
%TA.AperFunction,ComponentPad*%
%ADD16C,3.000000*%
%TD*%
%TA.AperFunction,ComponentPad*%
%ADD17C,4.500000*%
%TD*%
%TA.AperFunction,ComponentPad*%
%ADD18R,2.500000X4.500000*%
%TD*%
%TA.AperFunction,ComponentPad*%
%ADD19O,2.500000X4.500000*%
%TD*%
%TA.AperFunction,ComponentPad*%
%ADD20R,2.400000X2.400000*%
%TD*%
%TA.AperFunction,ComponentPad*%
%ADD21R,2.300000X2.000000*%
%TD*%
%TA.AperFunction,ComponentPad*%
%ADD22C,2.300000*%
%TD*%
%TA.AperFunction,ComponentPad*%
%ADD23RoundRect,0.250001X1.549999X-0.799999X1.549999X0.799999X-1.549999X0.799999X-1.549999X-0.799999X0*%
%TD*%
%TA.AperFunction,ComponentPad*%
%ADD24R,3.200000X3.200000*%
%TD*%
%TA.AperFunction,ComponentPad*%
%ADD25C,3.200000*%
%TD*%
%TA.AperFunction,ViaPad*%
%ADD26C,0.800000*%
%TD*%
%TA.AperFunction,ViaPad*%
%ADD27C,1.600000*%
%TD*%
%TA.AperFunction,Conductor*%
%ADD28C,3.000000*%
%TD*%
%TA.AperFunction,Conductor*%
%ADD29C,2.000000*%
%TD*%
%TA.AperFunction,Conductor*%
%ADD30C,0.350000*%
%TD*%
%TA.AperFunction,Conductor*%
%ADD31C,0.250000*%
%TD*%
G04 APERTURE END LIST*
D10*
%TO.P,FL1,1,1*%
%TO.N,/LIVE_FUSED*%
X81500000Y-66000000D03*
%TO.P,FL1,2,2*%
%TO.N,/L_CMC*%
X81500000Y-78000000D03*
%TO.P,FL1,3,3*%
%TO.N,/NEUTRAL*%
X71500000Y-66000000D03*
%TO.P,FL1,4,4*%
%TO.N,/N_CMC*%
X71500000Y-78000000D03*
%TD*%
D11*
%TO.P,C2,1*%
%TO.N,/L_CMC*%
X84000000Y-86000000D03*
%TO.P,C2,2*%
%TO.N,/N_CMC*%
X69000000Y-86000000D03*
%TD*%
D12*
%TO.P,H5,1*%
%TO.N,N/C*%
X132500000Y-29500000D03*
%TD*%
D13*
%TO.P,RV4,1*%
%TO.N,/V_RECT*%
X115500000Y-113550000D03*
%TO.P,RV4,2*%
%TO.N,Net-(C10-Pad2)*%
X117700000Y-106050000D03*
%TD*%
D12*
%TO.P,H3,1*%
%TO.N,N/C*%
X210500000Y-130500000D03*
%TD*%
D14*
%TO.P,J1,1,Pin_1*%
%TO.N,/LIVE_EXT*%
X56500000Y-49880000D03*
D15*
%TO.P,J1,2,Pin_2*%
%TO.N,/NEUTRAL*%
X56500000Y-57500000D03*
%TO.P,J1,3,Pin_3*%
%TO.N,Earth*%
X56500000Y-65120000D03*
%TD*%
D12*
%TO.P,H1,1*%
%TO.N,N/C*%
X54500000Y-29500000D03*
%TD*%
D16*
%TO.P,F1,1*%
%TO.N,/LIVE_EXT*%
X56500000Y-39500000D03*
%TO.P,F1,2*%
%TO.N,/LIVE_FUSED*%
X79000000Y-39500000D03*
%TD*%
D13*
%TO.P,C4,1*%
%TO.N,/L_CMC*%
X94000000Y-86000000D03*
%TO.P,C4,2*%
%TO.N,Earth*%
X94000000Y-76000000D03*
%TD*%
%TO.P,RV3,1*%
%TO.N,Net-(RV2-Pad2)*%
X188000000Y-48200000D03*
%TO.P,RV3,2*%
%TO.N,GND*%
X180500000Y-46000000D03*
%TD*%
D17*
%TO.P,L3,1,1*%
%TO.N,/V_RECT*%
X126000000Y-115500000D03*
%TO.P,L3,2,2*%
%TO.N,/SW*%
X155200000Y-115500000D03*
%TD*%
D12*
%TO.P,H4,1*%
%TO.N,N/C*%
X105500000Y-130500000D03*
%TD*%
D18*
%TO.P,Q1,1,G*%
%TO.N,Net-(D2-Pad1)*%
X151450000Y-79000000D03*
D19*
%TO.P,Q1,2,D*%
%TO.N,/SW*%
X146000000Y-79000000D03*
%TO.P,Q1,3,S*%
%TO.N,GND*%
X140550000Y-79000000D03*
%TD*%
D20*
%TO.P,C11,1*%
%TO.N,/VOUT*%
X206500000Y-111000000D03*
D11*
%TO.P,C11,2*%
%TO.N,/VOUT_HALF*%
X199000000Y-111000000D03*
%TD*%
D17*
%TO.P,HS1,1*%
%TO.N,N/C*%
X158700000Y-81820000D03*
X133300000Y-81820000D03*
%TD*%
D12*
%TO.P,H6,1*%
%TO.N,N/C*%
X54500000Y-130500000D03*
%TD*%
D13*
%TO.P,RV2,1*%
%TO.N,/VOUT*%
X198500000Y-54000000D03*
%TO.P,RV2,2*%
%TO.N,Net-(RV2-Pad2)*%
X191000000Y-51800000D03*
%TD*%
D11*
%TO.P,C1,1*%
%TO.N,/LIVE_FUSED*%
X81500000Y-57500000D03*
%TO.P,C1,2*%
%TO.N,/NEUTRAL*%
X66500000Y-57500000D03*
%TD*%
D12*
%TO.P,H2,1*%
%TO.N,N/C*%
X210500000Y-29500000D03*
%TD*%
D13*
%TO.P,C3,1*%
%TO.N,/N_CMC*%
X59000000Y-86000000D03*
%TO.P,C3,2*%
%TO.N,Earth*%
X59000000Y-76000000D03*
%TD*%
D20*
%TO.P,C14,1*%
%TO.N,/VOUT_HALF*%
X187022220Y-91500000D03*
D11*
%TO.P,C14,2*%
%TO.N,GND*%
X179522220Y-91500000D03*
%TD*%
D20*
%TO.P,C13,1*%
%TO.N,/VOUT*%
X206522220Y-91500000D03*
D11*
%TO.P,C13,2*%
%TO.N,/VOUT_HALF*%
X199022220Y-91500000D03*
%TD*%
%TO.P,C10,1*%
%TO.N,/V_RECT*%
X107150000Y-115500000D03*
%TO.P,C10,2*%
%TO.N,Net-(C10-Pad2)*%
X107150000Y-100500000D03*
%TD*%
D21*
%TO.P,PS1,1,AC/N*%
%TO.N,/NEUTRAL*%
X93000000Y-30800000D03*
D22*
%TO.P,PS1,2,AC/L*%
%TO.N,/LIVE_FUSED*%
X93000000Y-46000000D03*
%TO.P,PS1,3,-Vo*%
%TO.N,GND*%
X121000000Y-30800000D03*
%TO.P,PS1,4,+Vo*%
%TO.N,+15V*%
X121000000Y-38400000D03*
%TD*%
D20*
%TO.P,C15,1*%
%TO.N,/VOUT*%
X206522220Y-72000000D03*
D11*
%TO.P,C15,2*%
%TO.N,/VOUT_HALF*%
X199022220Y-72000000D03*
%TD*%
%TO.P,C6,1*%
%TO.N,/L_FILT*%
X88500000Y-119150000D03*
%TO.P,C6,2*%
%TO.N,/N_FILT*%
X73500000Y-119150000D03*
%TD*%
D23*
%TO.P,J2,1,Pin_1*%
%TO.N,/VOUT*%
X208500000Y-57120000D03*
D15*
%TO.P,J2,2,Pin_2*%
%TO.N,unconnected-(J2-Pad2)*%
X208500000Y-49500000D03*
%TO.P,J2,3,Pin_3*%
%TO.N,GND*%
X208500000Y-41880000D03*
%TD*%
D20*
%TO.P,C12,1*%
%TO.N,/VOUT_HALF*%
X187000000Y-111000000D03*
D11*
%TO.P,C12,2*%
%TO.N,GND*%
X179500000Y-111000000D03*
%TD*%
D13*
%TO.P,RV1,1*%
%TO.N,/LIVE_FUSED*%
X79000000Y-51500000D03*
%TO.P,RV1,2*%
%TO.N,/NEUTRAL*%
X71500000Y-49300000D03*
%TD*%
D24*
%TO.P,D1,1,+*%
%TO.N,/V_RECT*%
X78340000Y-130500000D03*
D25*
%TO.P,D1,2*%
%TO.N,/N_FILT*%
X83420000Y-130500000D03*
%TO.P,D1,3*%
%TO.N,/L_FILT*%
X88500000Y-130500000D03*
%TO.P,D1,4,-*%
%TO.N,Net-(C10-Pad2)*%
X93580000Y-130500000D03*
%TD*%
D20*
%TO.P,C16,1*%
%TO.N,/VOUT_HALF*%
X187022220Y-72000000D03*
D11*
%TO.P,C16,2*%
%TO.N,GND*%
X179522220Y-72000000D03*
%TD*%
D26*
%TO.N,GND*%
X146595000Y-55600000D03*
X179900000Y-59500000D03*
X112462500Y-88500000D03*
X149950000Y-70450000D03*
X135795000Y-59950000D03*
X116175000Y-88500000D03*
X118650000Y-88500000D03*
X103800000Y-88500000D03*
X117412500Y-88500000D03*
X143787500Y-65700000D03*
X201400000Y-34850000D03*
X179900000Y-60600000D03*
X143937500Y-73712500D03*
X107512500Y-88500000D03*
X147200000Y-73150000D03*
X105037500Y-88500000D03*
X137145000Y-60550000D03*
X179900000Y-58400000D03*
X156050000Y-65700000D03*
X108750000Y-88500000D03*
X109987500Y-88500000D03*
X147350000Y-52750000D03*
X147695000Y-55900000D03*
X137145000Y-55600000D03*
X113700000Y-88500000D03*
X106275000Y-88500000D03*
X111225000Y-88500000D03*
X144137500Y-67500000D03*
X148900000Y-71700000D03*
X114937500Y-88500000D03*
%TO.N,/V_RECT*%
X118250000Y-120450000D03*
X116050000Y-120450000D03*
X117150000Y-120450000D03*
D27*
X105900000Y-121200000D03*
D26*
%TO.N,/VOUT*%
X170750000Y-128450000D03*
X164750000Y-125400000D03*
X164750000Y-124100000D03*
X164750000Y-129700000D03*
X167800000Y-128350000D03*
X164750000Y-126850000D03*
X167800000Y-124150000D03*
X170750000Y-125650000D03*
X166250000Y-126900000D03*
X169300000Y-126950000D03*
X170750000Y-129750000D03*
X170800000Y-124150000D03*
X166200000Y-129700000D03*
X167800000Y-125500000D03*
X164750000Y-128200000D03*
X169300000Y-129700000D03*
X167800000Y-129700000D03*
X166250000Y-124150000D03*
X167800000Y-126900000D03*
X169500000Y-124150000D03*
X170750000Y-127000000D03*
%TO.N,/VOUT_HALF*%
X188500000Y-59500000D03*
X193500000Y-60500000D03*
X193500000Y-58500000D03*
X188500000Y-60500000D03*
X188500000Y-58500000D03*
X193500000Y-59500000D03*
%TO.N,Net-(R11-Pad1)*%
X151050000Y-62400000D03*
X143260000Y-62435000D03*
%TO.N,Net-(C19-Pad1)*%
X145350000Y-70000000D03*
X152550000Y-65700000D03*
%TD*%
D28*
%TO.N,/LIVE_FUSED*%
X79000000Y-55000000D02*
X81500000Y-57500000D01*
X79000000Y-51500000D02*
X79000000Y-55000000D01*
X79000000Y-39500000D02*
X79000000Y-51500000D01*
X81500000Y-57500000D02*
X81500000Y-66000000D01*
D29*
%TO.N,/NEUTRAL*%
X66500000Y-57500000D02*
X66500000Y-54300000D01*
X66500000Y-54300000D02*
X71500000Y-49300000D01*
D28*
X71550000Y-62550000D02*
X71550000Y-62650000D01*
X66500000Y-57500000D02*
X71550000Y-62550000D01*
X56500000Y-57500000D02*
X66500000Y-57500000D01*
X71500000Y-62700000D02*
X71500000Y-66000000D01*
X71550000Y-62650000D02*
X71500000Y-62700000D01*
D29*
%TO.N,Earth*%
X59000000Y-76000000D02*
X62950000Y-76000000D01*
X56500000Y-68350000D02*
X59000000Y-70850000D01*
X66900000Y-72050000D02*
X86050000Y-72050000D01*
X62950000Y-76000000D02*
X66900000Y-72050000D01*
X56500000Y-65120000D02*
X56500000Y-68350000D01*
X90000000Y-76000000D02*
X94000000Y-76000000D01*
X86050000Y-72050000D02*
X90000000Y-76000000D01*
X59000000Y-70850000D02*
X59000000Y-76000000D01*
D28*
%TO.N,/V_RECT*%
X79950000Y-124550000D02*
X92150000Y-124550000D01*
X92150000Y-124550000D02*
X95500000Y-121200000D01*
X95500000Y-121200000D02*
X105900000Y-121200000D01*
X78340000Y-130500000D02*
X78340000Y-126160000D01*
X78340000Y-126160000D02*
X79950000Y-124550000D01*
%TO.N,/SW*%
X155200000Y-106200000D02*
X155200000Y-115500000D01*
X146000000Y-97000000D02*
X155200000Y-106200000D01*
X146000000Y-79000000D02*
X146000000Y-97000000D01*
%TO.N,/LIVE_EXT*%
X56500000Y-48800000D02*
X56500000Y-39500000D01*
D30*
%TO.N,Net-(R11-Pad1)*%
X151050000Y-62400000D02*
X151015000Y-62435000D01*
X151015000Y-62435000D02*
X143260000Y-62435000D01*
D31*
%TO.N,Net-(C19-Pad1)*%
X145350000Y-70000000D02*
X146350000Y-70000000D01*
X150650000Y-65700000D02*
X152550000Y-65700000D01*
X146350000Y-70000000D02*
X150650000Y-65700000D01*
%TD*%
%TA.AperFunction,Conductor*%
%TO.N,/VOUT_HALF*%
G36*
X195842121Y-57820002D02*
G01*
X195888614Y-57873658D01*
X195900000Y-57926000D01*
X195900000Y-62300000D01*
X195907706Y-62308129D01*
X195907706Y-62308130D01*
X200415445Y-67063546D01*
X200447792Y-67126745D01*
X200450000Y-67150228D01*
X200450000Y-70947390D01*
X200429998Y-71015511D01*
X200376342Y-71062004D01*
X200306068Y-71072108D01*
X200255125Y-71052899D01*
X200234483Y-71039424D01*
X200224275Y-71045432D01*
X199282519Y-71987188D01*
X199274905Y-72001132D01*
X199275036Y-72002965D01*
X199279287Y-72009580D01*
X200222817Y-72953110D01*
X200236354Y-72960502D01*
X200251771Y-72949716D01*
X200319054Y-72927055D01*
X200387907Y-72944368D01*
X200436471Y-72996157D01*
X200450000Y-73052958D01*
X200450000Y-90447390D01*
X200429998Y-90515511D01*
X200376342Y-90562004D01*
X200306068Y-90572108D01*
X200255125Y-90552899D01*
X200234483Y-90539424D01*
X200224275Y-90545432D01*
X199282519Y-91487188D01*
X199274905Y-91501132D01*
X199275036Y-91502965D01*
X199279287Y-91509580D01*
X200222817Y-92453110D01*
X200236354Y-92460502D01*
X200251771Y-92449716D01*
X200319054Y-92427055D01*
X200387907Y-92444368D01*
X200436471Y-92496157D01*
X200450000Y-92552958D01*
X200450000Y-109969552D01*
X200429998Y-110037673D01*
X200376342Y-110084166D01*
X200306068Y-110094270D01*
X200241488Y-110064776D01*
X200228189Y-110051383D01*
X200225173Y-110047852D01*
X200212263Y-110039424D01*
X200202055Y-110045432D01*
X199260299Y-110987188D01*
X199252685Y-111001132D01*
X199252816Y-111002965D01*
X199257067Y-111009580D01*
X200200597Y-111953110D01*
X200214134Y-111960502D01*
X200223835Y-111953715D01*
X200228189Y-111948617D01*
X200287640Y-111909808D01*
X200358635Y-111909302D01*
X200418633Y-111947258D01*
X200448586Y-112011627D01*
X200450000Y-112030448D01*
X200450000Y-112245246D01*
X200429998Y-112313367D01*
X200409972Y-112337359D01*
X200120130Y-112607879D01*
X199778920Y-112926342D01*
X199736308Y-112966113D01*
X199672860Y-112997970D01*
X199650336Y-113000000D01*
X185776000Y-113000000D01*
X185707879Y-112979998D01*
X185661386Y-112926342D01*
X185650000Y-112874000D01*
X185650000Y-112676000D01*
X185670002Y-112607879D01*
X185723658Y-112561386D01*
X185776000Y-112550000D01*
X186806885Y-112550000D01*
X186822124Y-112545525D01*
X186823329Y-112544135D01*
X186825000Y-112536452D01*
X186825000Y-112531884D01*
X187175000Y-112531884D01*
X187179475Y-112547123D01*
X187180865Y-112548328D01*
X187188548Y-112549999D01*
X188228568Y-112549999D01*
X188237734Y-112549328D01*
X188292278Y-112541300D01*
X188310759Y-112535557D01*
X188397213Y-112493111D01*
X188413918Y-112481151D01*
X188481523Y-112413428D01*
X188493455Y-112396700D01*
X188535755Y-112310162D01*
X188541463Y-112291694D01*
X188549340Y-112237703D01*
X188550000Y-112228604D01*
X188550000Y-112214134D01*
X198039498Y-112214134D01*
X198046285Y-112223835D01*
X198082357Y-112254644D01*
X198090330Y-112260436D01*
X198289919Y-112382745D01*
X198298713Y-112387226D01*
X198514970Y-112476802D01*
X198524355Y-112479851D01*
X198751964Y-112534496D01*
X198761711Y-112536039D01*
X198995070Y-112554405D01*
X199004930Y-112554405D01*
X199238289Y-112536039D01*
X199248036Y-112534496D01*
X199475645Y-112479851D01*
X199485030Y-112476802D01*
X199701287Y-112387226D01*
X199710081Y-112382745D01*
X199909670Y-112260436D01*
X199917643Y-112254644D01*
X199952148Y-112225173D01*
X199960576Y-112212263D01*
X199954568Y-112202055D01*
X199012812Y-111260299D01*
X198998868Y-111252685D01*
X198997035Y-111252816D01*
X198990420Y-111257067D01*
X198046890Y-112200597D01*
X198039498Y-112214134D01*
X188550000Y-112214134D01*
X188550000Y-111193115D01*
X188545525Y-111177876D01*
X188544135Y-111176671D01*
X188536452Y-111175000D01*
X187193115Y-111175000D01*
X187177876Y-111179475D01*
X187176671Y-111180865D01*
X187175000Y-111188548D01*
X187175000Y-112531884D01*
X186825000Y-112531884D01*
X186825000Y-111004930D01*
X197445595Y-111004930D01*
X197463961Y-111238289D01*
X197465504Y-111248036D01*
X197520149Y-111475645D01*
X197523198Y-111485030D01*
X197612774Y-111701287D01*
X197617255Y-111710081D01*
X197739564Y-111909670D01*
X197745356Y-111917643D01*
X197774827Y-111952148D01*
X197787737Y-111960576D01*
X197797945Y-111954568D01*
X198739701Y-111012812D01*
X198747315Y-110998868D01*
X198747184Y-110997035D01*
X198742933Y-110990420D01*
X197799403Y-110046890D01*
X197785866Y-110039498D01*
X197776165Y-110046285D01*
X197745356Y-110082357D01*
X197739564Y-110090330D01*
X197617255Y-110289919D01*
X197612774Y-110298713D01*
X197523198Y-110514970D01*
X197520149Y-110524355D01*
X197465504Y-110751964D01*
X197463961Y-110761711D01*
X197445595Y-110995070D01*
X197445595Y-111004930D01*
X186825000Y-111004930D01*
X186825000Y-110806885D01*
X187175000Y-110806885D01*
X187179475Y-110822124D01*
X187180865Y-110823329D01*
X187188548Y-110825000D01*
X188531884Y-110825000D01*
X188547123Y-110820525D01*
X188548328Y-110819135D01*
X188549999Y-110811452D01*
X188549999Y-109787737D01*
X198039424Y-109787737D01*
X198045432Y-109797945D01*
X198987188Y-110739701D01*
X199001132Y-110747315D01*
X199002965Y-110747184D01*
X199009580Y-110742933D01*
X199953110Y-109799403D01*
X199960502Y-109785866D01*
X199953715Y-109776165D01*
X199917643Y-109745356D01*
X199909670Y-109739564D01*
X199710081Y-109617255D01*
X199701287Y-109612774D01*
X199485030Y-109523198D01*
X199475645Y-109520149D01*
X199248036Y-109465504D01*
X199238289Y-109463961D01*
X199004930Y-109445595D01*
X198995070Y-109445595D01*
X198761711Y-109463961D01*
X198751964Y-109465504D01*
X198524355Y-109520149D01*
X198514970Y-109523198D01*
X198298713Y-109612774D01*
X198289919Y-109617255D01*
X198090330Y-109739564D01*
X198082357Y-109745356D01*
X198047852Y-109774827D01*
X198039424Y-109787737D01*
X188549999Y-109787737D01*
X188549999Y-109771432D01*
X188549328Y-109762266D01*
X188541300Y-109707722D01*
X188535557Y-109689241D01*
X188493111Y-109602787D01*
X188481151Y-109586082D01*
X188413428Y-109518477D01*
X188396700Y-109506545D01*
X188310162Y-109464245D01*
X188291694Y-109458537D01*
X188237703Y-109450660D01*
X188228604Y-109450000D01*
X187193115Y-109450000D01*
X187177876Y-109454475D01*
X187176671Y-109455865D01*
X187175000Y-109463548D01*
X187175000Y-110806885D01*
X186825000Y-110806885D01*
X186825000Y-109468116D01*
X186820525Y-109452877D01*
X186819135Y-109451672D01*
X186811452Y-109450001D01*
X185776000Y-109450001D01*
X185707879Y-109429999D01*
X185661386Y-109376343D01*
X185650000Y-109324001D01*
X185650000Y-93175053D01*
X185670002Y-93106932D01*
X185723658Y-93060439D01*
X185785124Y-93049384D01*
X185793608Y-93050000D01*
X186829105Y-93050000D01*
X186844344Y-93045525D01*
X186845549Y-93044135D01*
X186847220Y-93036452D01*
X186847220Y-93031884D01*
X187197220Y-93031884D01*
X187201695Y-93047123D01*
X187203085Y-93048328D01*
X187210768Y-93049999D01*
X188250788Y-93049999D01*
X188259954Y-93049328D01*
X188314498Y-93041300D01*
X188332979Y-93035557D01*
X188419433Y-92993111D01*
X188436138Y-92981151D01*
X188503743Y-92913428D01*
X188515675Y-92896700D01*
X188557975Y-92810162D01*
X188563683Y-92791694D01*
X188571560Y-92737703D01*
X188572220Y-92728604D01*
X188572220Y-92714134D01*
X198061718Y-92714134D01*
X198068505Y-92723835D01*
X198104577Y-92754644D01*
X198112550Y-92760436D01*
X198312139Y-92882745D01*
X198320933Y-92887226D01*
X198537190Y-92976802D01*
X198546575Y-92979851D01*
X198774184Y-93034496D01*
X198783931Y-93036039D01*
X199017290Y-93054405D01*
X199027150Y-93054405D01*
X199260509Y-93036039D01*
X199270256Y-93034496D01*
X199497865Y-92979851D01*
X199507250Y-92976802D01*
X199723507Y-92887226D01*
X199732301Y-92882745D01*
X199931890Y-92760436D01*
X199939863Y-92754644D01*
X199974368Y-92725173D01*
X199982796Y-92712263D01*
X199976788Y-92702055D01*
X199035032Y-91760299D01*
X199021088Y-91752685D01*
X199019255Y-91752816D01*
X199012640Y-91757067D01*
X198069110Y-92700597D01*
X198061718Y-92714134D01*
X188572220Y-92714134D01*
X188572220Y-91693115D01*
X188567745Y-91677876D01*
X188566355Y-91676671D01*
X188558672Y-91675000D01*
X187215335Y-91675000D01*
X187200096Y-91679475D01*
X187198891Y-91680865D01*
X187197220Y-91688548D01*
X187197220Y-93031884D01*
X186847220Y-93031884D01*
X186847220Y-91504930D01*
X197467815Y-91504930D01*
X197486181Y-91738289D01*
X197487724Y-91748036D01*
X197542369Y-91975645D01*
X197545418Y-91985030D01*
X197634994Y-92201287D01*
X197639475Y-92210081D01*
X197761784Y-92409670D01*
X197767576Y-92417643D01*
X197797047Y-92452148D01*
X197809957Y-92460576D01*
X197820165Y-92454568D01*
X198761921Y-91512812D01*
X198769535Y-91498868D01*
X198769404Y-91497035D01*
X198765153Y-91490420D01*
X197821623Y-90546890D01*
X197808086Y-90539498D01*
X197798385Y-90546285D01*
X197767576Y-90582357D01*
X197761784Y-90590330D01*
X197639475Y-90789919D01*
X197634994Y-90798713D01*
X197545418Y-91014970D01*
X197542369Y-91024355D01*
X197487724Y-91251964D01*
X197486181Y-91261711D01*
X197467815Y-91495070D01*
X197467815Y-91504930D01*
X186847220Y-91504930D01*
X186847220Y-91306885D01*
X187197220Y-91306885D01*
X187201695Y-91322124D01*
X187203085Y-91323329D01*
X187210768Y-91325000D01*
X188554104Y-91325000D01*
X188569343Y-91320525D01*
X188570548Y-91319135D01*
X188572219Y-91311452D01*
X188572219Y-90287737D01*
X198061644Y-90287737D01*
X198067652Y-90297945D01*
X199009408Y-91239701D01*
X199023352Y-91247315D01*
X199025185Y-91247184D01*
X199031800Y-91242933D01*
X199975330Y-90299403D01*
X199982722Y-90285866D01*
X199975935Y-90276165D01*
X199939863Y-90245356D01*
X199931890Y-90239564D01*
X199732301Y-90117255D01*
X199723507Y-90112774D01*
X199507250Y-90023198D01*
X199497865Y-90020149D01*
X199270256Y-89965504D01*
X199260509Y-89963961D01*
X199027150Y-89945595D01*
X199017290Y-89945595D01*
X198783931Y-89963961D01*
X198774184Y-89965504D01*
X198546575Y-90020149D01*
X198537190Y-90023198D01*
X198320933Y-90112774D01*
X198312139Y-90117255D01*
X198112550Y-90239564D01*
X198104577Y-90245356D01*
X198070072Y-90274827D01*
X198061644Y-90287737D01*
X188572219Y-90287737D01*
X188572219Y-90271432D01*
X188571548Y-90262266D01*
X188563520Y-90207722D01*
X188557777Y-90189241D01*
X188515331Y-90102787D01*
X188503371Y-90086082D01*
X188435648Y-90018477D01*
X188418920Y-90006545D01*
X188332382Y-89964245D01*
X188313914Y-89958537D01*
X188259923Y-89950660D01*
X188250824Y-89950000D01*
X187215335Y-89950000D01*
X187200096Y-89954475D01*
X187198891Y-89955865D01*
X187197220Y-89963548D01*
X187197220Y-91306885D01*
X186847220Y-91306885D01*
X186847220Y-89968116D01*
X186842745Y-89952877D01*
X186841355Y-89951672D01*
X186833672Y-89950001D01*
X185793655Y-89950001D01*
X185785200Y-89950620D01*
X185715801Y-89935645D01*
X185665514Y-89885527D01*
X185650000Y-89824956D01*
X185650000Y-73675053D01*
X185670002Y-73606932D01*
X185723658Y-73560439D01*
X185785124Y-73549384D01*
X185793608Y-73550000D01*
X186829105Y-73550000D01*
X186844344Y-73545525D01*
X186845549Y-73544135D01*
X186847220Y-73536452D01*
X186847220Y-73531884D01*
X187197220Y-73531884D01*
X187201695Y-73547123D01*
X187203085Y-73548328D01*
X187210768Y-73549999D01*
X188250788Y-73549999D01*
X188259954Y-73549328D01*
X188314498Y-73541300D01*
X188332979Y-73535557D01*
X188419433Y-73493111D01*
X188436138Y-73481151D01*
X188503743Y-73413428D01*
X188515675Y-73396700D01*
X188557975Y-73310162D01*
X188563683Y-73291694D01*
X188571560Y-73237703D01*
X188572220Y-73228604D01*
X188572220Y-73214134D01*
X198061718Y-73214134D01*
X198068505Y-73223835D01*
X198104577Y-73254644D01*
X198112550Y-73260436D01*
X198312139Y-73382745D01*
X198320933Y-73387226D01*
X198537190Y-73476802D01*
X198546575Y-73479851D01*
X198774184Y-73534496D01*
X198783931Y-73536039D01*
X199017290Y-73554405D01*
X199027150Y-73554405D01*
X199260509Y-73536039D01*
X199270256Y-73534496D01*
X199497865Y-73479851D01*
X199507250Y-73476802D01*
X199723507Y-73387226D01*
X199732301Y-73382745D01*
X199931890Y-73260436D01*
X199939863Y-73254644D01*
X199974368Y-73225173D01*
X199982796Y-73212263D01*
X199976788Y-73202055D01*
X199035032Y-72260299D01*
X199021088Y-72252685D01*
X199019255Y-72252816D01*
X199012640Y-72257067D01*
X198069110Y-73200597D01*
X198061718Y-73214134D01*
X188572220Y-73214134D01*
X188572220Y-72193115D01*
X188567745Y-72177876D01*
X188566355Y-72176671D01*
X188558672Y-72175000D01*
X187215335Y-72175000D01*
X187200096Y-72179475D01*
X187198891Y-72180865D01*
X187197220Y-72188548D01*
X187197220Y-73531884D01*
X186847220Y-73531884D01*
X186847220Y-72004930D01*
X197467815Y-72004930D01*
X197486181Y-72238289D01*
X197487724Y-72248036D01*
X197542369Y-72475645D01*
X197545418Y-72485030D01*
X197634994Y-72701287D01*
X197639475Y-72710081D01*
X197761784Y-72909670D01*
X197767576Y-72917643D01*
X197797047Y-72952148D01*
X197809957Y-72960576D01*
X197820165Y-72954568D01*
X198761921Y-72012812D01*
X198769535Y-71998868D01*
X198769404Y-71997035D01*
X198765153Y-71990420D01*
X197821623Y-71046890D01*
X197808086Y-71039498D01*
X197798385Y-71046285D01*
X197767576Y-71082357D01*
X197761784Y-71090330D01*
X197639475Y-71289919D01*
X197634994Y-71298713D01*
X197545418Y-71514970D01*
X197542369Y-71524355D01*
X197487724Y-71751964D01*
X197486181Y-71761711D01*
X197467815Y-71995070D01*
X197467815Y-72004930D01*
X186847220Y-72004930D01*
X186847220Y-71806885D01*
X187197220Y-71806885D01*
X187201695Y-71822124D01*
X187203085Y-71823329D01*
X187210768Y-71825000D01*
X188554104Y-71825000D01*
X188569343Y-71820525D01*
X188570548Y-71819135D01*
X188572219Y-71811452D01*
X188572219Y-70787737D01*
X198061644Y-70787737D01*
X198067652Y-70797945D01*
X199009408Y-71739701D01*
X199023352Y-71747315D01*
X199025185Y-71747184D01*
X199031800Y-71742933D01*
X199975330Y-70799403D01*
X199982722Y-70785866D01*
X199975935Y-70776165D01*
X199939863Y-70745356D01*
X199931890Y-70739564D01*
X199732301Y-70617255D01*
X199723507Y-70612774D01*
X199507250Y-70523198D01*
X199497865Y-70520149D01*
X199270256Y-70465504D01*
X199260509Y-70463961D01*
X199027150Y-70445595D01*
X199017290Y-70445595D01*
X198783931Y-70463961D01*
X198774184Y-70465504D01*
X198546575Y-70520149D01*
X198537190Y-70523198D01*
X198320933Y-70612774D01*
X198312139Y-70617255D01*
X198112550Y-70739564D01*
X198104577Y-70745356D01*
X198070072Y-70774827D01*
X198061644Y-70787737D01*
X188572219Y-70787737D01*
X188572219Y-70771432D01*
X188571548Y-70762266D01*
X188563520Y-70707722D01*
X188557777Y-70689241D01*
X188515331Y-70602787D01*
X188503371Y-70586082D01*
X188435648Y-70518477D01*
X188418920Y-70506545D01*
X188332382Y-70464245D01*
X188313914Y-70458537D01*
X188259923Y-70450660D01*
X188250824Y-70450000D01*
X187215335Y-70450000D01*
X187200096Y-70454475D01*
X187198891Y-70455865D01*
X187197220Y-70463548D01*
X187197220Y-71806885D01*
X186847220Y-71806885D01*
X186847220Y-70468116D01*
X186842745Y-70452877D01*
X186841355Y-70451672D01*
X186833672Y-70450001D01*
X185793655Y-70450001D01*
X185785200Y-70450620D01*
X185715801Y-70435645D01*
X185665514Y-70385527D01*
X185650000Y-70324956D01*
X185650000Y-57926000D01*
X185670002Y-57857879D01*
X185723658Y-57811386D01*
X185776000Y-57800000D01*
X195774000Y-57800000D01*
X195842121Y-57820002D01*
G37*
%TD.AperFunction*%
%TD*%
%TA.AperFunction,Conductor*%
%TO.N,/V_RECT*%
G36*
X115179733Y-112020002D02*
G01*
X115226226Y-112073658D01*
X115236330Y-112143932D01*
X115206836Y-112208512D01*
X115144223Y-112247707D01*
X115041819Y-112275146D01*
X115031527Y-112278892D01*
X114827409Y-112374074D01*
X114817914Y-112379557D01*
X114691083Y-112468365D01*
X114682708Y-112478842D01*
X114689776Y-112492289D01*
X115487188Y-113289701D01*
X115501132Y-113297315D01*
X115502965Y-113297184D01*
X115509580Y-113292933D01*
X116310945Y-112491568D01*
X116317375Y-112479793D01*
X116308079Y-112467778D01*
X116182087Y-112379557D01*
X116172592Y-112374074D01*
X115968473Y-112278892D01*
X115958181Y-112275146D01*
X115855777Y-112247707D01*
X115795154Y-112210755D01*
X115764133Y-112146894D01*
X115772561Y-112076400D01*
X115817764Y-112021653D01*
X115888388Y-112000000D01*
X127447810Y-112000000D01*
X127515931Y-112020002D01*
X127536905Y-112036905D01*
X129463095Y-113963095D01*
X129497121Y-114025407D01*
X129500000Y-114052190D01*
X129500000Y-121347810D01*
X129479998Y-121415931D01*
X129463095Y-121436905D01*
X127536905Y-123363095D01*
X127474593Y-123397121D01*
X127447810Y-123400000D01*
X105952190Y-123400000D01*
X105884069Y-123379998D01*
X105863095Y-123363095D01*
X103936905Y-121436905D01*
X103902879Y-121374593D01*
X103900000Y-121347810D01*
X103900000Y-117459770D01*
X124293632Y-117459770D01*
X124301157Y-117470202D01*
X124488159Y-117620824D01*
X124494336Y-117625214D01*
X124753893Y-117787088D01*
X124760569Y-117790713D01*
X125037676Y-117920224D01*
X125044741Y-117923022D01*
X125335427Y-118018314D01*
X125342738Y-118020232D01*
X125642777Y-118079912D01*
X125650275Y-118080940D01*
X125955309Y-118104144D01*
X125962872Y-118104262D01*
X126268476Y-118090652D01*
X126276017Y-118089860D01*
X126577777Y-118039632D01*
X126585141Y-118037946D01*
X126878696Y-117951826D01*
X126885805Y-117949267D01*
X127166876Y-117828510D01*
X127173649Y-117825104D01*
X127438166Y-117671459D01*
X127444481Y-117667264D01*
X127688624Y-117482954D01*
X127694380Y-117478038D01*
X127699753Y-117472859D01*
X127707621Y-117459058D01*
X127707556Y-117457837D01*
X127702805Y-117450293D01*
X126012810Y-115760297D01*
X125998869Y-115752685D01*
X125997034Y-115752816D01*
X125990420Y-115757067D01*
X124300747Y-117446741D01*
X124293632Y-117459770D01*
X103900000Y-117459770D01*
X103900000Y-116714134D01*
X106189498Y-116714134D01*
X106196285Y-116723835D01*
X106232357Y-116754644D01*
X106240330Y-116760436D01*
X106439919Y-116882745D01*
X106448713Y-116887226D01*
X106664970Y-116976802D01*
X106674355Y-116979851D01*
X106901964Y-117034496D01*
X106911711Y-117036039D01*
X107145070Y-117054405D01*
X107154930Y-117054405D01*
X107388289Y-117036039D01*
X107398036Y-117034496D01*
X107625645Y-116979851D01*
X107635030Y-116976802D01*
X107851287Y-116887226D01*
X107860081Y-116882745D01*
X108059670Y-116760436D01*
X108067643Y-116754644D01*
X108102148Y-116725173D01*
X108110576Y-116712263D01*
X108104568Y-116702055D01*
X107162812Y-115760299D01*
X107148868Y-115752685D01*
X107147035Y-115752816D01*
X107140420Y-115757067D01*
X106196890Y-116700597D01*
X106189498Y-116714134D01*
X103900000Y-116714134D01*
X103900000Y-115504930D01*
X105595595Y-115504930D01*
X105613961Y-115738289D01*
X105615504Y-115748036D01*
X105670149Y-115975645D01*
X105673198Y-115985030D01*
X105762774Y-116201287D01*
X105767255Y-116210081D01*
X105889564Y-116409670D01*
X105895356Y-116417643D01*
X105924827Y-116452148D01*
X105937737Y-116460576D01*
X105947945Y-116454568D01*
X106889701Y-115512812D01*
X106896079Y-115501132D01*
X107402685Y-115501132D01*
X107402816Y-115502965D01*
X107407067Y-115509580D01*
X108350597Y-116453110D01*
X108364134Y-116460502D01*
X108373835Y-116453715D01*
X108404644Y-116417643D01*
X108410436Y-116409670D01*
X108532745Y-116210081D01*
X108537226Y-116201287D01*
X108626802Y-115985030D01*
X108629851Y-115975645D01*
X108684496Y-115748036D01*
X108686039Y-115738289D01*
X108704405Y-115504930D01*
X108704405Y-115495070D01*
X108702945Y-115476516D01*
X123395580Y-115476516D01*
X123410789Y-115782041D01*
X123411620Y-115789570D01*
X123463424Y-116091052D01*
X123465157Y-116098439D01*
X123552804Y-116391511D01*
X123555407Y-116398624D01*
X123677632Y-116679052D01*
X123681074Y-116685808D01*
X123836102Y-116949518D01*
X123840325Y-116955803D01*
X124025910Y-117198978D01*
X124027529Y-117200853D01*
X124040418Y-117208111D01*
X124041815Y-117208029D01*
X124049094Y-117203418D01*
X125739703Y-115512810D01*
X125746080Y-115501131D01*
X126252685Y-115501131D01*
X126252816Y-115502966D01*
X126257067Y-115509580D01*
X127946378Y-117198890D01*
X127959501Y-117206056D01*
X127969802Y-117198667D01*
X128112879Y-117022924D01*
X128117300Y-117016772D01*
X128280540Y-116758054D01*
X128284188Y-116751416D01*
X128415154Y-116474979D01*
X128417985Y-116467939D01*
X128514800Y-116177746D01*
X128516754Y-116170455D01*
X128578006Y-115870730D01*
X128579074Y-115863226D01*
X128603999Y-115556785D01*
X128604204Y-115552310D01*
X128604729Y-115502221D01*
X128604619Y-115497789D01*
X128586115Y-115190851D01*
X128585207Y-115183349D01*
X128530244Y-114882401D01*
X128528443Y-114875068D01*
X128437722Y-114582901D01*
X128435050Y-114575828D01*
X128309896Y-114296698D01*
X128306379Y-114289971D01*
X128148602Y-114027905D01*
X128144312Y-114021661D01*
X127972087Y-113800828D01*
X127960295Y-113792359D01*
X127948582Y-113798906D01*
X126260297Y-115487190D01*
X126252685Y-115501131D01*
X125746080Y-115501131D01*
X125747315Y-115498869D01*
X125747184Y-115497034D01*
X125742933Y-115490420D01*
X124052846Y-113800334D01*
X124039911Y-113793270D01*
X124029350Y-113800930D01*
X123871288Y-113999286D01*
X123866932Y-114005484D01*
X123706414Y-114265893D01*
X123702834Y-114272569D01*
X123574763Y-114550377D01*
X123572013Y-114557428D01*
X123478243Y-114848616D01*
X123476360Y-114855949D01*
X123418251Y-115156293D01*
X123417264Y-115163793D01*
X123395659Y-115468935D01*
X123395580Y-115476516D01*
X108702945Y-115476516D01*
X108686039Y-115261711D01*
X108684496Y-115251964D01*
X108629851Y-115024355D01*
X108626802Y-115014970D01*
X108537226Y-114798713D01*
X108532745Y-114789919D01*
X108428745Y-114620207D01*
X114682625Y-114620207D01*
X114691921Y-114632222D01*
X114817913Y-114720443D01*
X114827408Y-114725926D01*
X115031527Y-114821108D01*
X115041819Y-114824854D01*
X115259364Y-114883145D01*
X115270159Y-114885048D01*
X115494525Y-114904678D01*
X115505475Y-114904678D01*
X115729841Y-114885048D01*
X115740636Y-114883145D01*
X115958181Y-114824854D01*
X115968473Y-114821108D01*
X116172592Y-114725926D01*
X116182087Y-114720443D01*
X116308916Y-114631636D01*
X116317292Y-114621157D01*
X116310224Y-114607711D01*
X115512812Y-113810299D01*
X115498868Y-113802685D01*
X115497035Y-113802816D01*
X115490420Y-113807067D01*
X114689055Y-114608432D01*
X114682625Y-114620207D01*
X108428745Y-114620207D01*
X108410436Y-114590329D01*
X108404644Y-114582357D01*
X108375173Y-114547852D01*
X108362263Y-114539424D01*
X108352055Y-114545432D01*
X107410299Y-115487188D01*
X107402685Y-115501132D01*
X106896079Y-115501132D01*
X106897315Y-115498868D01*
X106897184Y-115497035D01*
X106892933Y-115490420D01*
X105949403Y-114546890D01*
X105935866Y-114539498D01*
X105926165Y-114546285D01*
X105895356Y-114582357D01*
X105889564Y-114590329D01*
X105767255Y-114789919D01*
X105762774Y-114798713D01*
X105673198Y-115014970D01*
X105670149Y-115024355D01*
X105615504Y-115251964D01*
X105613961Y-115261711D01*
X105595595Y-115495070D01*
X105595595Y-115504930D01*
X103900000Y-115504930D01*
X103900000Y-114287737D01*
X106189424Y-114287737D01*
X106195432Y-114297945D01*
X107137188Y-115239701D01*
X107151132Y-115247315D01*
X107152965Y-115247184D01*
X107159580Y-115242933D01*
X108103110Y-114299403D01*
X108110502Y-114285866D01*
X108103715Y-114276165D01*
X108067643Y-114245356D01*
X108059670Y-114239564D01*
X107860081Y-114117255D01*
X107851287Y-114112774D01*
X107635030Y-114023198D01*
X107625645Y-114020149D01*
X107398036Y-113965504D01*
X107388289Y-113963961D01*
X107154930Y-113945595D01*
X107145070Y-113945595D01*
X106911711Y-113963961D01*
X106901964Y-113965504D01*
X106674355Y-114020149D01*
X106664970Y-114023198D01*
X106448713Y-114112774D01*
X106439919Y-114117255D01*
X106240330Y-114239564D01*
X106232357Y-114245356D01*
X106197852Y-114274827D01*
X106189424Y-114287737D01*
X103900000Y-114287737D01*
X103900000Y-114052190D01*
X103920002Y-113984069D01*
X103936905Y-113963095D01*
X104344525Y-113555475D01*
X114145322Y-113555475D01*
X114164952Y-113779841D01*
X114166855Y-113790636D01*
X114225146Y-114008181D01*
X114228892Y-114018473D01*
X114324074Y-114222591D01*
X114329557Y-114232086D01*
X114418365Y-114358917D01*
X114428842Y-114367292D01*
X114442289Y-114360224D01*
X115239701Y-113562812D01*
X115246079Y-113551132D01*
X115752685Y-113551132D01*
X115752816Y-113552965D01*
X115757067Y-113559580D01*
X116558432Y-114360945D01*
X116570207Y-114367375D01*
X116582222Y-114358079D01*
X116670443Y-114232086D01*
X116675926Y-114222591D01*
X116771108Y-114018473D01*
X116774854Y-114008181D01*
X116833145Y-113790636D01*
X116835048Y-113779841D01*
X116854678Y-113555475D01*
X116854678Y-113544525D01*
X116854269Y-113539845D01*
X124291347Y-113539845D01*
X124291446Y-113541405D01*
X124295923Y-113548435D01*
X125987190Y-115239703D01*
X126001131Y-115247315D01*
X126002966Y-115247184D01*
X126009580Y-115242933D01*
X127700130Y-113552382D01*
X127707142Y-113539541D01*
X127699348Y-113528853D01*
X127489548Y-113363460D01*
X127483325Y-113359135D01*
X127222073Y-113199979D01*
X127215396Y-113196444D01*
X126936912Y-113069824D01*
X126929842Y-113067111D01*
X126638179Y-112974870D01*
X126630828Y-112973023D01*
X126330185Y-112916487D01*
X126322676Y-112915539D01*
X126017422Y-112895532D01*
X126009857Y-112895492D01*
X125704399Y-112912302D01*
X125696888Y-112913171D01*
X125395669Y-112966556D01*
X125388303Y-112968324D01*
X125095682Y-113057508D01*
X125088589Y-113060146D01*
X124808798Y-113183840D01*
X124802072Y-113187311D01*
X124539172Y-113343720D01*
X124532910Y-113347976D01*
X124296717Y-113530198D01*
X124291347Y-113539845D01*
X116854269Y-113539845D01*
X116835048Y-113320159D01*
X116833145Y-113309364D01*
X116774854Y-113091819D01*
X116771108Y-113081527D01*
X116675926Y-112877409D01*
X116670443Y-112867914D01*
X116581635Y-112741083D01*
X116571158Y-112732708D01*
X116557711Y-112739776D01*
X115760299Y-113537188D01*
X115752685Y-113551132D01*
X115246079Y-113551132D01*
X115247315Y-113548868D01*
X115247184Y-113547035D01*
X115242933Y-113540420D01*
X114441568Y-112739055D01*
X114429793Y-112732625D01*
X114417778Y-112741921D01*
X114329557Y-112867914D01*
X114324074Y-112877409D01*
X114228892Y-113081527D01*
X114225146Y-113091819D01*
X114166855Y-113309364D01*
X114164952Y-113320159D01*
X114145322Y-113544525D01*
X114145322Y-113555475D01*
X104344525Y-113555475D01*
X105863095Y-112036905D01*
X105925407Y-112002879D01*
X105952190Y-112000000D01*
X115111612Y-112000000D01*
X115179733Y-112020002D01*
G37*
%TD.AperFunction*%
%TD*%
%TA.AperFunction,Conductor*%
%TO.N,GND*%
G36*
X127494376Y-26520002D02*
G01*
X127540869Y-26573658D01*
X127550973Y-26643932D01*
X127538271Y-26683692D01*
X127324975Y-27097833D01*
X127145546Y-27529945D01*
X127002128Y-27975305D01*
X126895684Y-28430920D01*
X126895302Y-28433490D01*
X126895302Y-28433491D01*
X126875670Y-28565643D01*
X126826930Y-28893724D01*
X126796329Y-29360605D01*
X126797229Y-29414856D01*
X126803297Y-29780762D01*
X126804087Y-29828424D01*
X126804341Y-29830989D01*
X126804341Y-29830993D01*
X126848326Y-30275593D01*
X126850150Y-30294035D01*
X126850615Y-30296579D01*
X126925332Y-30705687D01*
X126934211Y-30754305D01*
X126949074Y-30809580D01*
X127043567Y-31161008D01*
X127055702Y-31206140D01*
X127213808Y-31646500D01*
X127407464Y-32072425D01*
X127408720Y-32074676D01*
X127408721Y-32074679D01*
X127530777Y-32293520D01*
X127635369Y-32481050D01*
X127636805Y-32483191D01*
X127867504Y-32827154D01*
X127895990Y-32869626D01*
X127897596Y-32871641D01*
X128157472Y-33197766D01*
X128187573Y-33235541D01*
X128400861Y-33462273D01*
X128475244Y-33541344D01*
X128508159Y-33576334D01*
X128510065Y-33578053D01*
X128510073Y-33578061D01*
X128807652Y-33846472D01*
X128855591Y-33889712D01*
X129227532Y-34173569D01*
X129229694Y-34174955D01*
X129229705Y-34174962D01*
X129619311Y-34424605D01*
X129619319Y-34424610D01*
X129621481Y-34425995D01*
X130034789Y-34645292D01*
X130037148Y-34646305D01*
X130037149Y-34646306D01*
X130462312Y-34828971D01*
X130462326Y-34828976D01*
X130464676Y-34829986D01*
X130467111Y-34830803D01*
X130467116Y-34830805D01*
X130905800Y-34978013D01*
X130905811Y-34978016D01*
X130908251Y-34978835D01*
X130910751Y-34979451D01*
X130910760Y-34979454D01*
X131360039Y-35090223D01*
X131360048Y-35090225D01*
X131362531Y-35090837D01*
X131365064Y-35091245D01*
X131821926Y-35164832D01*
X131821933Y-35164833D01*
X131824461Y-35165240D01*
X131827020Y-35165439D01*
X131827027Y-35165440D01*
X132288360Y-35201342D01*
X132288368Y-35201342D01*
X132290934Y-35201542D01*
X132293505Y-35201531D01*
X132293511Y-35201531D01*
X132524874Y-35200521D01*
X132758813Y-35199501D01*
X133224951Y-35159129D01*
X133227501Y-35158695D01*
X133227512Y-35158694D01*
X133683674Y-35081130D01*
X133683677Y-35081129D01*
X133686214Y-35080698D01*
X134139499Y-34964736D01*
X134581759Y-34812022D01*
X135010018Y-34623583D01*
X135012291Y-34622352D01*
X135012296Y-34622349D01*
X135419121Y-34401920D01*
X135419127Y-34401916D01*
X135421396Y-34400687D01*
X135813128Y-34144834D01*
X136141437Y-33889712D01*
X136180531Y-33859333D01*
X136180536Y-33859329D01*
X136182578Y-33857742D01*
X136491189Y-33574456D01*
X136525354Y-33543095D01*
X136525360Y-33543089D01*
X136527261Y-33541344D01*
X136529010Y-33539452D01*
X136529016Y-33539446D01*
X136843111Y-33199659D01*
X136844861Y-33197766D01*
X137100117Y-32871641D01*
X137131645Y-32831359D01*
X137131646Y-32831357D01*
X137133240Y-32829321D01*
X137390460Y-32438485D01*
X137464517Y-32302936D01*
X137613547Y-32030163D01*
X137613552Y-32030154D01*
X137614790Y-32027887D01*
X137804723Y-31600288D01*
X137815103Y-31570566D01*
X137958126Y-31161008D01*
X137958127Y-31161005D01*
X137958979Y-31158565D01*
X138076523Y-30705687D01*
X138076961Y-30703162D01*
X138076964Y-30703150D01*
X138156124Y-30247236D01*
X138156124Y-30247232D01*
X138156564Y-30244701D01*
X138188894Y-29885991D01*
X138198378Y-29780762D01*
X138198379Y-29780753D01*
X138198563Y-29778706D01*
X138205374Y-29500000D01*
X138199654Y-29360605D01*
X138186295Y-29035093D01*
X138186189Y-29032510D01*
X138128763Y-28568164D01*
X138128239Y-28565643D01*
X138034009Y-28112612D01*
X138034007Y-28112603D01*
X138033483Y-28110085D01*
X137900988Y-27661354D01*
X137732171Y-27224987D01*
X137528166Y-26803921D01*
X137460954Y-26690045D01*
X137443554Y-26621213D01*
X137466130Y-26553901D01*
X137521513Y-26509481D01*
X137569463Y-26500000D01*
X205426255Y-26500000D01*
X205494376Y-26520002D01*
X205540869Y-26573658D01*
X205550973Y-26643932D01*
X205538271Y-26683692D01*
X205324975Y-27097833D01*
X205145546Y-27529945D01*
X205002128Y-27975305D01*
X204895684Y-28430920D01*
X204895302Y-28433490D01*
X204895302Y-28433491D01*
X204875670Y-28565643D01*
X204826930Y-28893724D01*
X204796329Y-29360605D01*
X204797229Y-29414856D01*
X204803297Y-29780762D01*
X204804087Y-29828424D01*
X204804341Y-29830989D01*
X204804341Y-29830993D01*
X204848326Y-30275593D01*
X204850150Y-30294035D01*
X204850615Y-30296579D01*
X204925332Y-30705687D01*
X204934211Y-30754305D01*
X204949074Y-30809580D01*
X205043567Y-31161008D01*
X205055702Y-31206140D01*
X205213808Y-31646500D01*
X205407464Y-32072425D01*
X205408720Y-32074676D01*
X205408721Y-32074679D01*
X205530777Y-32293520D01*
X205635369Y-32481050D01*
X205636805Y-32483191D01*
X205867504Y-32827154D01*
X205895990Y-32869626D01*
X205897596Y-32871641D01*
X206157472Y-33197766D01*
X206187573Y-33235541D01*
X206400861Y-33462273D01*
X206475244Y-33541344D01*
X206508159Y-33576334D01*
X206510065Y-33578053D01*
X206510073Y-33578061D01*
X206807652Y-33846472D01*
X206855591Y-33889712D01*
X207227532Y-34173569D01*
X207229694Y-34174955D01*
X207229705Y-34174962D01*
X207619311Y-34424605D01*
X207619319Y-34424610D01*
X207621481Y-34425995D01*
X208034789Y-34645292D01*
X208037148Y-34646305D01*
X208037149Y-34646306D01*
X208462312Y-34828971D01*
X208462326Y-34828976D01*
X208464676Y-34829986D01*
X208467111Y-34830803D01*
X208467116Y-34830805D01*
X208905800Y-34978013D01*
X208905811Y-34978016D01*
X208908251Y-34978835D01*
X208910751Y-34979451D01*
X208910760Y-34979454D01*
X209360039Y-35090223D01*
X209360048Y-35090225D01*
X209362531Y-35090837D01*
X209365064Y-35091245D01*
X209821926Y-35164832D01*
X209821933Y-35164833D01*
X209824461Y-35165240D01*
X209827020Y-35165439D01*
X209827027Y-35165440D01*
X210288360Y-35201342D01*
X210288368Y-35201342D01*
X210290934Y-35201542D01*
X210293505Y-35201531D01*
X210293511Y-35201531D01*
X210524874Y-35200521D01*
X210758813Y-35199501D01*
X211224951Y-35159129D01*
X211227501Y-35158695D01*
X211227512Y-35158694D01*
X211552879Y-35103370D01*
X211623389Y-35111670D01*
X211678218Y-35156773D01*
X211700000Y-35227587D01*
X211700000Y-43574000D01*
X211679998Y-43642121D01*
X211626342Y-43688614D01*
X211574000Y-43700000D01*
X181700000Y-43700000D01*
X181700000Y-45054987D01*
X181679998Y-45123108D01*
X181626342Y-45169601D01*
X181582367Y-45176816D01*
X181557711Y-45189776D01*
X180760299Y-45987188D01*
X180752685Y-46001132D01*
X180752816Y-46002965D01*
X180757067Y-46009580D01*
X181558432Y-46810945D01*
X181578856Y-46822098D01*
X181634384Y-46834177D01*
X181684587Y-46884378D01*
X181700000Y-46944765D01*
X181700000Y-112974000D01*
X181679998Y-113042121D01*
X181626342Y-113088614D01*
X181574000Y-113100000D01*
X177552358Y-113100000D01*
X177484237Y-113079998D01*
X177463061Y-113062893D01*
X176618143Y-112214134D01*
X178539498Y-112214134D01*
X178546285Y-112223835D01*
X178582357Y-112254644D01*
X178590330Y-112260436D01*
X178789919Y-112382745D01*
X178798713Y-112387226D01*
X179014970Y-112476802D01*
X179024355Y-112479851D01*
X179251964Y-112534496D01*
X179261711Y-112536039D01*
X179495070Y-112554405D01*
X179504930Y-112554405D01*
X179738289Y-112536039D01*
X179748036Y-112534496D01*
X179975645Y-112479851D01*
X179985030Y-112476802D01*
X180201287Y-112387226D01*
X180210081Y-112382745D01*
X180409670Y-112260436D01*
X180417643Y-112254644D01*
X180452148Y-112225173D01*
X180460576Y-112212263D01*
X180454568Y-112202055D01*
X179512812Y-111260299D01*
X179498868Y-111252685D01*
X179497035Y-111252816D01*
X179490420Y-111257067D01*
X178546890Y-112200597D01*
X178539498Y-112214134D01*
X176618143Y-112214134D01*
X175414410Y-111004930D01*
X177945595Y-111004930D01*
X177963961Y-111238289D01*
X177965504Y-111248036D01*
X178020149Y-111475645D01*
X178023198Y-111485030D01*
X178112774Y-111701287D01*
X178117255Y-111710081D01*
X178239564Y-111909670D01*
X178245356Y-111917643D01*
X178274827Y-111952148D01*
X178287737Y-111960576D01*
X178297945Y-111954568D01*
X179239701Y-111012812D01*
X179246079Y-111001132D01*
X179752685Y-111001132D01*
X179752816Y-111002965D01*
X179757067Y-111009580D01*
X180700597Y-111953110D01*
X180714134Y-111960502D01*
X180723835Y-111953715D01*
X180754644Y-111917643D01*
X180760436Y-111909670D01*
X180882745Y-111710081D01*
X180887226Y-111701287D01*
X180976802Y-111485030D01*
X180979851Y-111475645D01*
X181034496Y-111248036D01*
X181036039Y-111238289D01*
X181054405Y-111004930D01*
X181054405Y-110995070D01*
X181036039Y-110761711D01*
X181034496Y-110751964D01*
X180979851Y-110524355D01*
X180976802Y-110514970D01*
X180887226Y-110298713D01*
X180882745Y-110289919D01*
X180760436Y-110090330D01*
X180754644Y-110082357D01*
X180725173Y-110047852D01*
X180712263Y-110039424D01*
X180702055Y-110045432D01*
X179760299Y-110987188D01*
X179752685Y-111001132D01*
X179246079Y-111001132D01*
X179247315Y-110998868D01*
X179247184Y-110997035D01*
X179242933Y-110990420D01*
X178299403Y-110046890D01*
X178285866Y-110039498D01*
X178276165Y-110046285D01*
X178245356Y-110082357D01*
X178239564Y-110090330D01*
X178117255Y-110289919D01*
X178112774Y-110298713D01*
X178023198Y-110514970D01*
X178020149Y-110524355D01*
X177965504Y-110751964D01*
X177963961Y-110761711D01*
X177945595Y-110995070D01*
X177945595Y-111004930D01*
X175414410Y-111004930D01*
X174202725Y-109787737D01*
X178539424Y-109787737D01*
X178545432Y-109797945D01*
X179487188Y-110739701D01*
X179501132Y-110747315D01*
X179502965Y-110747184D01*
X179509580Y-110742933D01*
X180453110Y-109799403D01*
X180460502Y-109785866D01*
X180453715Y-109776165D01*
X180417643Y-109745356D01*
X180409670Y-109739564D01*
X180210081Y-109617255D01*
X180201287Y-109612774D01*
X179985030Y-109523198D01*
X179975645Y-109520149D01*
X179748036Y-109465504D01*
X179738289Y-109463961D01*
X179504930Y-109445595D01*
X179495070Y-109445595D01*
X179261711Y-109463961D01*
X179251964Y-109465504D01*
X179024355Y-109520149D01*
X179014970Y-109523198D01*
X178798713Y-109612774D01*
X178789919Y-109617255D01*
X178590330Y-109739564D01*
X178582357Y-109745356D01*
X178547852Y-109774827D01*
X178539424Y-109787737D01*
X174202725Y-109787737D01*
X157206378Y-92714134D01*
X178561718Y-92714134D01*
X178568505Y-92723835D01*
X178604577Y-92754644D01*
X178612550Y-92760436D01*
X178812139Y-92882745D01*
X178820933Y-92887226D01*
X179037190Y-92976802D01*
X179046575Y-92979851D01*
X179274184Y-93034496D01*
X179283931Y-93036039D01*
X179517290Y-93054405D01*
X179527150Y-93054405D01*
X179760509Y-93036039D01*
X179770256Y-93034496D01*
X179997865Y-92979851D01*
X180007250Y-92976802D01*
X180223507Y-92887226D01*
X180232301Y-92882745D01*
X180431890Y-92760436D01*
X180439863Y-92754644D01*
X180474368Y-92725173D01*
X180482796Y-92712263D01*
X180476788Y-92702055D01*
X179535032Y-91760299D01*
X179521088Y-91752685D01*
X179519255Y-91752816D01*
X179512640Y-91757067D01*
X178569110Y-92700597D01*
X178561718Y-92714134D01*
X157206378Y-92714134D01*
X156002645Y-91504930D01*
X177967815Y-91504930D01*
X177986181Y-91738289D01*
X177987724Y-91748036D01*
X178042369Y-91975645D01*
X178045418Y-91985030D01*
X178134994Y-92201287D01*
X178139475Y-92210081D01*
X178261784Y-92409670D01*
X178267576Y-92417643D01*
X178297047Y-92452148D01*
X178309957Y-92460576D01*
X178320165Y-92454568D01*
X179261921Y-91512812D01*
X179268299Y-91501132D01*
X179774905Y-91501132D01*
X179775036Y-91502965D01*
X179779287Y-91509580D01*
X180722817Y-92453110D01*
X180736354Y-92460502D01*
X180746055Y-92453715D01*
X180776864Y-92417643D01*
X180782656Y-92409670D01*
X180904965Y-92210081D01*
X180909446Y-92201287D01*
X180999022Y-91985030D01*
X181002071Y-91975645D01*
X181056716Y-91748036D01*
X181058259Y-91738289D01*
X181076625Y-91504930D01*
X181076625Y-91495070D01*
X181058259Y-91261711D01*
X181056716Y-91251964D01*
X181002071Y-91024355D01*
X180999022Y-91014970D01*
X180909446Y-90798713D01*
X180904965Y-90789919D01*
X180782656Y-90590330D01*
X180776864Y-90582357D01*
X180747393Y-90547852D01*
X180734483Y-90539424D01*
X180724275Y-90545432D01*
X179782519Y-91487188D01*
X179774905Y-91501132D01*
X179268299Y-91501132D01*
X179269535Y-91498868D01*
X179269404Y-91497035D01*
X179265153Y-91490420D01*
X178321623Y-90546890D01*
X178308086Y-90539498D01*
X178298385Y-90546285D01*
X178267576Y-90582357D01*
X178261784Y-90590330D01*
X178139475Y-90789919D01*
X178134994Y-90798713D01*
X178045418Y-91014970D01*
X178042369Y-91024355D01*
X177987724Y-91251964D01*
X177986181Y-91261711D01*
X177967815Y-91495070D01*
X177967815Y-91504930D01*
X156002645Y-91504930D01*
X155512783Y-91012841D01*
X155500000Y-91000000D01*
X149426000Y-91000000D01*
X149357879Y-90979998D01*
X149311386Y-90926342D01*
X149300000Y-90874000D01*
X149300000Y-90287737D01*
X178561644Y-90287737D01*
X178567652Y-90297945D01*
X179509408Y-91239701D01*
X179523352Y-91247315D01*
X179525185Y-91247184D01*
X179531800Y-91242933D01*
X180475330Y-90299403D01*
X180482722Y-90285866D01*
X180475935Y-90276165D01*
X180439863Y-90245356D01*
X180431890Y-90239564D01*
X180232301Y-90117255D01*
X180223507Y-90112774D01*
X180007250Y-90023198D01*
X179997865Y-90020149D01*
X179770256Y-89965504D01*
X179760509Y-89963961D01*
X179527150Y-89945595D01*
X179517290Y-89945595D01*
X179283931Y-89963961D01*
X179274184Y-89965504D01*
X179046575Y-90020149D01*
X179037190Y-90023198D01*
X178820933Y-90112774D01*
X178812139Y-90117255D01*
X178612550Y-90239564D01*
X178604577Y-90245356D01*
X178570072Y-90274827D01*
X178561644Y-90287737D01*
X149300000Y-90287737D01*
X149300000Y-81806891D01*
X154944703Y-81806891D01*
X154944853Y-81810072D01*
X154946638Y-81847912D01*
X154962603Y-82186455D01*
X155018768Y-82562267D01*
X155019554Y-82565349D01*
X155019554Y-82565351D01*
X155028584Y-82600775D01*
X155112624Y-82930478D01*
X155243210Y-83287320D01*
X155409188Y-83629139D01*
X155608860Y-83952435D01*
X155610792Y-83954953D01*
X155610799Y-83954963D01*
X155838239Y-84251369D01*
X155840180Y-84253898D01*
X156100781Y-84530441D01*
X156387994Y-84779233D01*
X156390604Y-84781068D01*
X156390610Y-84781072D01*
X156576676Y-84911841D01*
X156698879Y-84997726D01*
X157030253Y-85183684D01*
X157033168Y-85184951D01*
X157033171Y-85184953D01*
X157070042Y-85200985D01*
X157378722Y-85335203D01*
X157551174Y-85390240D01*
X157737675Y-85449760D01*
X157737683Y-85449762D01*
X157740719Y-85450731D01*
X157942702Y-85493296D01*
X158109420Y-85528429D01*
X158109425Y-85528430D01*
X158112539Y-85529086D01*
X158490372Y-85569465D01*
X158493559Y-85569482D01*
X158493565Y-85569482D01*
X158666168Y-85570385D01*
X158870353Y-85571454D01*
X159014001Y-85557622D01*
X159245424Y-85535339D01*
X159245429Y-85535338D01*
X159248589Y-85535034D01*
X159251709Y-85534411D01*
X159251713Y-85534410D01*
X159618080Y-85461203D01*
X159618079Y-85461203D01*
X159621208Y-85460578D01*
X159624243Y-85459644D01*
X159624252Y-85459642D01*
X159981353Y-85349782D01*
X159981356Y-85349781D01*
X159984395Y-85348846D01*
X159987323Y-85347609D01*
X159987329Y-85347607D01*
X160144610Y-85281169D01*
X160334432Y-85200985D01*
X160337235Y-85199451D01*
X160337240Y-85199448D01*
X160480719Y-85120895D01*
X160667735Y-85018507D01*
X160980891Y-84803281D01*
X161270693Y-84557510D01*
X161272898Y-84555218D01*
X161272904Y-84555213D01*
X161379897Y-84444031D01*
X161534176Y-84283712D01*
X161768641Y-83984688D01*
X161787433Y-83954963D01*
X161969978Y-83666204D01*
X161971687Y-83663501D01*
X161973107Y-83660653D01*
X161973112Y-83660644D01*
X162139815Y-83326287D01*
X162141235Y-83323439D01*
X162275551Y-82967984D01*
X162373257Y-82600775D01*
X162433355Y-82225572D01*
X162435429Y-82189614D01*
X162455130Y-81847912D01*
X162455228Y-81846217D01*
X162455320Y-81820000D01*
X162454495Y-81803716D01*
X162436256Y-81443674D01*
X162436255Y-81443669D01*
X162436095Y-81440501D01*
X162378619Y-81064888D01*
X162346100Y-80939148D01*
X162284275Y-80700086D01*
X162284272Y-80700078D01*
X162283478Y-80697006D01*
X162278854Y-80684504D01*
X162237192Y-80571878D01*
X162151647Y-80340622D01*
X162144349Y-80325724D01*
X161985878Y-80002244D01*
X161985875Y-80002238D01*
X161984477Y-79999385D01*
X161783678Y-79676788D01*
X161551307Y-79376135D01*
X161289742Y-79100503D01*
X161001662Y-78852715D01*
X160690016Y-78635308D01*
X160357996Y-78450508D01*
X160355076Y-78449250D01*
X160355071Y-78449248D01*
X160011934Y-78301469D01*
X160011924Y-78301465D01*
X160009000Y-78300206D01*
X159646601Y-78185942D01*
X159380336Y-78130801D01*
X159277636Y-78109533D01*
X159277633Y-78109533D01*
X159274511Y-78108886D01*
X158998042Y-78080316D01*
X158899694Y-78070153D01*
X158899691Y-78070153D01*
X158896538Y-78069827D01*
X158893371Y-78069821D01*
X158893362Y-78069821D01*
X158706183Y-78069494D01*
X158516553Y-78069163D01*
X158366617Y-78084129D01*
X158141620Y-78106586D01*
X158141614Y-78106587D01*
X158138447Y-78106903D01*
X157945065Y-78146247D01*
X157769215Y-78182024D01*
X157769211Y-78182025D01*
X157766090Y-78182660D01*
X157763048Y-78183607D01*
X157763042Y-78183609D01*
X157584693Y-78239159D01*
X157403295Y-78295658D01*
X157053776Y-78444741D01*
X156721112Y-78628381D01*
X156718491Y-78630196D01*
X156718486Y-78630199D01*
X156441312Y-78822124D01*
X156408710Y-78844699D01*
X156119767Y-79091480D01*
X155857241Y-79366197D01*
X155623822Y-79666037D01*
X155622126Y-79668741D01*
X155622123Y-79668745D01*
X155495397Y-79870764D01*
X155421898Y-79987931D01*
X155420488Y-79990783D01*
X155420484Y-79990791D01*
X155294286Y-80246135D01*
X155253538Y-80328583D01*
X155120464Y-80684504D01*
X155024040Y-81052052D01*
X155023548Y-81055196D01*
X154985962Y-81295214D01*
X154965252Y-81427462D01*
X154965081Y-81430624D01*
X154965080Y-81430631D01*
X154954898Y-81618642D01*
X154944703Y-81806891D01*
X149300000Y-81806891D01*
X149300000Y-81298134D01*
X149691500Y-81298134D01*
X149698255Y-81360316D01*
X149749385Y-81496705D01*
X149836739Y-81613261D01*
X149953295Y-81700615D01*
X150089684Y-81751745D01*
X150151866Y-81758500D01*
X152748134Y-81758500D01*
X152810316Y-81751745D01*
X152946705Y-81700615D01*
X153063261Y-81613261D01*
X153150615Y-81496705D01*
X153201745Y-81360316D01*
X153208500Y-81298134D01*
X153208500Y-76701866D01*
X153201745Y-76639684D01*
X153150615Y-76503295D01*
X153063261Y-76386739D01*
X152946705Y-76299385D01*
X152810316Y-76248255D01*
X152748134Y-76241500D01*
X150151866Y-76241500D01*
X150089684Y-76248255D01*
X149953295Y-76299385D01*
X149836739Y-76386739D01*
X149749385Y-76503295D01*
X149698255Y-76639684D01*
X149691500Y-76701866D01*
X149691500Y-81298134D01*
X149300000Y-81298134D01*
X149300000Y-75300000D01*
X142600000Y-75300000D01*
X142600000Y-90874000D01*
X142579998Y-90942121D01*
X142526342Y-90988614D01*
X142474000Y-91000000D01*
X103326000Y-91000000D01*
X103257879Y-90979998D01*
X103211386Y-90926342D01*
X103200000Y-90874000D01*
X103200000Y-81806891D01*
X129544703Y-81806891D01*
X129544853Y-81810072D01*
X129546638Y-81847912D01*
X129562603Y-82186455D01*
X129618768Y-82562267D01*
X129619554Y-82565349D01*
X129619554Y-82565351D01*
X129628584Y-82600775D01*
X129712624Y-82930478D01*
X129843210Y-83287320D01*
X130009188Y-83629139D01*
X130208860Y-83952435D01*
X130210792Y-83954953D01*
X130210799Y-83954963D01*
X130438239Y-84251369D01*
X130440180Y-84253898D01*
X130700781Y-84530441D01*
X130987994Y-84779233D01*
X130990604Y-84781068D01*
X130990610Y-84781072D01*
X131176676Y-84911841D01*
X131298879Y-84997726D01*
X131630253Y-85183684D01*
X131633168Y-85184951D01*
X131633171Y-85184953D01*
X131670042Y-85200985D01*
X131978722Y-85335203D01*
X132151174Y-85390240D01*
X132337675Y-85449760D01*
X132337683Y-85449762D01*
X132340719Y-85450731D01*
X132542702Y-85493296D01*
X132709420Y-85528429D01*
X132709425Y-85528430D01*
X132712539Y-85529086D01*
X133090372Y-85569465D01*
X133093559Y-85569482D01*
X133093565Y-85569482D01*
X133266168Y-85570385D01*
X133470353Y-85571454D01*
X133614001Y-85557622D01*
X133845424Y-85535339D01*
X133845429Y-85535338D01*
X133848589Y-85535034D01*
X133851709Y-85534411D01*
X133851713Y-85534410D01*
X134218080Y-85461203D01*
X134218079Y-85461203D01*
X134221208Y-85460578D01*
X134224243Y-85459644D01*
X134224252Y-85459642D01*
X134581353Y-85349782D01*
X134581356Y-85349781D01*
X134584395Y-85348846D01*
X134587323Y-85347609D01*
X134587329Y-85347607D01*
X134744610Y-85281169D01*
X134934432Y-85200985D01*
X134937235Y-85199451D01*
X134937240Y-85199448D01*
X135080719Y-85120895D01*
X135267735Y-85018507D01*
X135580891Y-84803281D01*
X135870693Y-84557510D01*
X135872898Y-84555218D01*
X135872904Y-84555213D01*
X135979897Y-84444031D01*
X136134176Y-84283712D01*
X136368641Y-83984688D01*
X136387433Y-83954963D01*
X136569978Y-83666204D01*
X136571687Y-83663501D01*
X136573107Y-83660653D01*
X136573112Y-83660644D01*
X136739815Y-83326287D01*
X136741235Y-83323439D01*
X136875551Y-82967984D01*
X136973257Y-82600775D01*
X137033355Y-82225572D01*
X137035429Y-82189614D01*
X137055130Y-81847912D01*
X137055228Y-81846217D01*
X137055320Y-81820000D01*
X137054495Y-81803716D01*
X137036256Y-81443674D01*
X137036255Y-81443669D01*
X137036095Y-81440501D01*
X136978619Y-81064888D01*
X136946100Y-80939148D01*
X136884275Y-80700086D01*
X136884272Y-80700078D01*
X136883478Y-80697006D01*
X136878854Y-80684504D01*
X136837192Y-80571878D01*
X136751647Y-80340622D01*
X136744349Y-80325724D01*
X136614368Y-80060400D01*
X138950000Y-80060400D01*
X138950193Y-80065325D01*
X138964424Y-80246135D01*
X138965967Y-80255882D01*
X139022449Y-80491144D01*
X139025498Y-80500529D01*
X139118086Y-80724057D01*
X139122567Y-80732851D01*
X139248986Y-80939148D01*
X139254786Y-80947130D01*
X139411917Y-81131108D01*
X139418892Y-81138083D01*
X139602870Y-81295214D01*
X139610852Y-81301014D01*
X139817149Y-81427433D01*
X139825943Y-81431914D01*
X140049471Y-81524502D01*
X140058856Y-81527551D01*
X140294118Y-81584033D01*
X140303865Y-81585576D01*
X140356943Y-81589754D01*
X140372030Y-81586584D01*
X140375000Y-81575120D01*
X140375000Y-81573060D01*
X140725000Y-81573060D01*
X140729344Y-81587855D01*
X140741003Y-81589915D01*
X140796135Y-81585576D01*
X140805882Y-81584033D01*
X141041144Y-81527551D01*
X141050529Y-81524502D01*
X141274057Y-81431914D01*
X141282851Y-81427433D01*
X141489148Y-81301014D01*
X141497130Y-81295214D01*
X141681108Y-81138083D01*
X141688083Y-81131108D01*
X141845214Y-80947130D01*
X141851014Y-80939148D01*
X141977433Y-80732851D01*
X141981914Y-80724057D01*
X142074502Y-80500529D01*
X142077551Y-80491144D01*
X142134033Y-80255882D01*
X142135576Y-80246135D01*
X142149807Y-80065325D01*
X142150000Y-80060400D01*
X142150000Y-79193115D01*
X142145525Y-79177876D01*
X142144135Y-79176671D01*
X142136452Y-79175000D01*
X140743115Y-79175000D01*
X140727876Y-79179475D01*
X140726671Y-79180865D01*
X140725000Y-79188548D01*
X140725000Y-81573060D01*
X140375000Y-81573060D01*
X140375000Y-79193115D01*
X140370525Y-79177876D01*
X140369135Y-79176671D01*
X140361452Y-79175000D01*
X138968115Y-79175000D01*
X138952876Y-79179475D01*
X138951671Y-79180865D01*
X138950000Y-79188548D01*
X138950000Y-80060400D01*
X136614368Y-80060400D01*
X136585878Y-80002244D01*
X136585875Y-80002238D01*
X136584477Y-79999385D01*
X136383678Y-79676788D01*
X136151307Y-79376135D01*
X135889742Y-79100503D01*
X135601662Y-78852715D01*
X135535966Y-78806885D01*
X138950000Y-78806885D01*
X138954475Y-78822124D01*
X138955865Y-78823329D01*
X138963548Y-78825000D01*
X140356885Y-78825000D01*
X140372124Y-78820525D01*
X140373329Y-78819135D01*
X140375000Y-78811452D01*
X140375000Y-78806885D01*
X140725000Y-78806885D01*
X140729475Y-78822124D01*
X140730865Y-78823329D01*
X140738548Y-78825000D01*
X142131885Y-78825000D01*
X142147124Y-78820525D01*
X142148329Y-78819135D01*
X142150000Y-78811452D01*
X142150000Y-77939601D01*
X142149807Y-77934675D01*
X142135576Y-77753865D01*
X142134033Y-77744118D01*
X142077551Y-77508856D01*
X142074502Y-77499471D01*
X141981914Y-77275943D01*
X141977433Y-77267149D01*
X141851014Y-77060852D01*
X141845214Y-77052870D01*
X141688083Y-76868892D01*
X141681108Y-76861917D01*
X141497130Y-76704786D01*
X141489148Y-76698986D01*
X141282851Y-76572567D01*
X141274057Y-76568086D01*
X141050529Y-76475498D01*
X141041144Y-76472449D01*
X140805882Y-76415967D01*
X140796135Y-76414424D01*
X140743057Y-76410246D01*
X140727970Y-76413416D01*
X140725000Y-76424880D01*
X140725000Y-78806885D01*
X140375000Y-78806885D01*
X140375000Y-76426940D01*
X140370656Y-76412145D01*
X140358997Y-76410085D01*
X140303865Y-76414424D01*
X140294118Y-76415967D01*
X140058856Y-76472449D01*
X140049471Y-76475498D01*
X139825943Y-76568086D01*
X139817149Y-76572567D01*
X139610852Y-76698986D01*
X139602870Y-76704786D01*
X139418892Y-76861917D01*
X139411917Y-76868892D01*
X139254786Y-77052870D01*
X139248986Y-77060852D01*
X139122567Y-77267149D01*
X139118086Y-77275943D01*
X139025498Y-77499471D01*
X139022449Y-77508856D01*
X138965967Y-77744118D01*
X138964424Y-77753865D01*
X138950193Y-77934675D01*
X138950000Y-77939601D01*
X138950000Y-78806885D01*
X135535966Y-78806885D01*
X135290016Y-78635308D01*
X134957996Y-78450508D01*
X134955076Y-78449250D01*
X134955071Y-78449248D01*
X134611934Y-78301469D01*
X134611924Y-78301465D01*
X134609000Y-78300206D01*
X134246601Y-78185942D01*
X133980336Y-78130801D01*
X133877636Y-78109533D01*
X133877633Y-78109533D01*
X133874511Y-78108886D01*
X133598042Y-78080316D01*
X133499694Y-78070153D01*
X133499691Y-78070153D01*
X133496538Y-78069827D01*
X133493371Y-78069821D01*
X133493362Y-78069821D01*
X133306183Y-78069494D01*
X133116553Y-78069163D01*
X132966617Y-78084129D01*
X132741620Y-78106586D01*
X132741614Y-78106587D01*
X132738447Y-78106903D01*
X132545065Y-78146247D01*
X132369215Y-78182024D01*
X132369211Y-78182025D01*
X132366090Y-78182660D01*
X132363048Y-78183607D01*
X132363042Y-78183609D01*
X132184693Y-78239159D01*
X132003295Y-78295658D01*
X131653776Y-78444741D01*
X131321112Y-78628381D01*
X131318491Y-78630196D01*
X131318486Y-78630199D01*
X131041312Y-78822124D01*
X131008710Y-78844699D01*
X130719767Y-79091480D01*
X130457241Y-79366197D01*
X130223822Y-79666037D01*
X130222126Y-79668741D01*
X130222123Y-79668745D01*
X130095397Y-79870764D01*
X130021898Y-79987931D01*
X130020488Y-79990783D01*
X130020484Y-79990791D01*
X129894286Y-80246135D01*
X129853538Y-80328583D01*
X129720464Y-80684504D01*
X129624040Y-81052052D01*
X129623548Y-81055196D01*
X129585962Y-81295214D01*
X129565252Y-81427462D01*
X129565081Y-81430624D01*
X129565080Y-81430631D01*
X129554898Y-81618642D01*
X129544703Y-81806891D01*
X103200000Y-81806891D01*
X103200000Y-73214134D01*
X178561718Y-73214134D01*
X178568505Y-73223835D01*
X178604577Y-73254644D01*
X178612550Y-73260436D01*
X178812139Y-73382745D01*
X178820933Y-73387226D01*
X179037190Y-73476802D01*
X179046575Y-73479851D01*
X179274184Y-73534496D01*
X179283931Y-73536039D01*
X179517290Y-73554405D01*
X179527150Y-73554405D01*
X179760509Y-73536039D01*
X179770256Y-73534496D01*
X179997865Y-73479851D01*
X180007250Y-73476802D01*
X180223507Y-73387226D01*
X180232301Y-73382745D01*
X180431890Y-73260436D01*
X180439863Y-73254644D01*
X180474368Y-73225173D01*
X180482796Y-73212263D01*
X180476788Y-73202055D01*
X179535032Y-72260299D01*
X179521088Y-72252685D01*
X179519255Y-72252816D01*
X179512640Y-72257067D01*
X178569110Y-73200597D01*
X178561718Y-73214134D01*
X103200000Y-73214134D01*
X103200000Y-72652190D01*
X103220002Y-72584069D01*
X103236905Y-72563095D01*
X103795070Y-72004930D01*
X177967815Y-72004930D01*
X177986181Y-72238289D01*
X177987724Y-72248036D01*
X178042369Y-72475645D01*
X178045418Y-72485030D01*
X178134994Y-72701287D01*
X178139475Y-72710081D01*
X178261784Y-72909670D01*
X178267576Y-72917643D01*
X178297047Y-72952148D01*
X178309957Y-72960576D01*
X178320165Y-72954568D01*
X179261921Y-72012812D01*
X179268299Y-72001132D01*
X179774905Y-72001132D01*
X179775036Y-72002965D01*
X179779287Y-72009580D01*
X180722817Y-72953110D01*
X180736354Y-72960502D01*
X180746055Y-72953715D01*
X180776864Y-72917643D01*
X180782656Y-72909670D01*
X180904965Y-72710081D01*
X180909446Y-72701287D01*
X180999022Y-72485030D01*
X181002071Y-72475645D01*
X181056716Y-72248036D01*
X181058259Y-72238289D01*
X181076625Y-72004930D01*
X181076625Y-71995070D01*
X181058259Y-71761711D01*
X181056716Y-71751964D01*
X181002071Y-71524355D01*
X180999022Y-71514970D01*
X180909446Y-71298713D01*
X180904965Y-71289919D01*
X180782656Y-71090330D01*
X180776864Y-71082357D01*
X180747393Y-71047852D01*
X180734483Y-71039424D01*
X180724275Y-71045432D01*
X179782519Y-71987188D01*
X179774905Y-72001132D01*
X179268299Y-72001132D01*
X179269535Y-71998868D01*
X179269404Y-71997035D01*
X179265153Y-71990420D01*
X178321623Y-71046890D01*
X178308086Y-71039498D01*
X178298385Y-71046285D01*
X178267576Y-71082357D01*
X178261784Y-71090330D01*
X178139475Y-71289919D01*
X178134994Y-71298713D01*
X178045418Y-71514970D01*
X178042369Y-71524355D01*
X177987724Y-71751964D01*
X177986181Y-71761711D01*
X177967815Y-71995070D01*
X177967815Y-72004930D01*
X103795070Y-72004930D01*
X105800000Y-70000000D01*
X144436496Y-70000000D01*
X144456458Y-70189928D01*
X144515473Y-70371556D01*
X144610960Y-70536944D01*
X144615378Y-70541851D01*
X144615379Y-70541852D01*
X144697452Y-70633003D01*
X144738747Y-70678866D01*
X144893248Y-70791118D01*
X144899276Y-70793802D01*
X144899278Y-70793803D01*
X145061681Y-70866109D01*
X145067712Y-70868794D01*
X145161113Y-70888647D01*
X145248056Y-70907128D01*
X145248061Y-70907128D01*
X145254513Y-70908500D01*
X145445487Y-70908500D01*
X145451939Y-70907128D01*
X145451944Y-70907128D01*
X145538887Y-70888647D01*
X145632288Y-70868794D01*
X145638319Y-70866109D01*
X145800722Y-70793803D01*
X145800724Y-70793802D01*
X145806752Y-70791118D01*
X145811406Y-70787737D01*
X178561644Y-70787737D01*
X178567652Y-70797945D01*
X179509408Y-71739701D01*
X179523352Y-71747315D01*
X179525185Y-71747184D01*
X179531800Y-71742933D01*
X180475330Y-70799403D01*
X180482722Y-70785866D01*
X180475935Y-70776165D01*
X180439863Y-70745356D01*
X180431890Y-70739564D01*
X180232301Y-70617255D01*
X180223507Y-70612774D01*
X180007250Y-70523198D01*
X179997865Y-70520149D01*
X179770256Y-70465504D01*
X179760509Y-70463961D01*
X179527150Y-70445595D01*
X179517290Y-70445595D01*
X179283931Y-70463961D01*
X179274184Y-70465504D01*
X179046575Y-70520149D01*
X179037190Y-70523198D01*
X178820933Y-70612774D01*
X178812139Y-70617255D01*
X178612550Y-70739564D01*
X178604577Y-70745356D01*
X178570072Y-70774827D01*
X178561644Y-70787737D01*
X145811406Y-70787737D01*
X145961253Y-70678866D01*
X145965668Y-70673963D01*
X145970580Y-70669540D01*
X145971705Y-70670789D01*
X146025014Y-70637949D01*
X146058200Y-70633500D01*
X146271233Y-70633500D01*
X146282416Y-70634027D01*
X146289909Y-70635702D01*
X146297835Y-70635453D01*
X146297836Y-70635453D01*
X146357986Y-70633562D01*
X146361945Y-70633500D01*
X146389856Y-70633500D01*
X146393791Y-70633003D01*
X146393856Y-70632995D01*
X146405693Y-70632062D01*
X146437951Y-70631048D01*
X146441970Y-70630922D01*
X146449889Y-70630673D01*
X146469343Y-70625021D01*
X146488700Y-70621013D01*
X146500930Y-70619468D01*
X146500931Y-70619468D01*
X146508797Y-70618474D01*
X146516168Y-70615555D01*
X146516170Y-70615555D01*
X146549912Y-70602196D01*
X146561142Y-70598351D01*
X146595983Y-70588229D01*
X146595984Y-70588229D01*
X146603593Y-70586018D01*
X146610412Y-70581985D01*
X146610417Y-70581983D01*
X146621028Y-70575707D01*
X146638776Y-70567012D01*
X146657617Y-70559552D01*
X146693387Y-70533564D01*
X146703307Y-70527048D01*
X146734535Y-70508580D01*
X146734538Y-70508578D01*
X146741362Y-70504542D01*
X146755683Y-70490221D01*
X146770717Y-70477380D01*
X146780694Y-70470131D01*
X146787107Y-70465472D01*
X146815298Y-70431395D01*
X146823288Y-70422616D01*
X150875499Y-66370405D01*
X150937811Y-66336379D01*
X150964594Y-66333500D01*
X151841800Y-66333500D01*
X151909921Y-66353502D01*
X151929147Y-66369843D01*
X151929420Y-66369540D01*
X151934332Y-66373963D01*
X151938747Y-66378866D01*
X152093248Y-66491118D01*
X152099276Y-66493802D01*
X152099278Y-66493803D01*
X152261681Y-66566109D01*
X152267712Y-66568794D01*
X152361112Y-66588647D01*
X152448056Y-66607128D01*
X152448061Y-66607128D01*
X152454513Y-66608500D01*
X152645487Y-66608500D01*
X152651939Y-66607128D01*
X152651944Y-66607128D01*
X152738888Y-66588647D01*
X152832288Y-66568794D01*
X152838319Y-66566109D01*
X153000722Y-66493803D01*
X153000724Y-66493802D01*
X153006752Y-66491118D01*
X153161253Y-66378866D01*
X153184091Y-66353502D01*
X153284621Y-66241852D01*
X153284622Y-66241851D01*
X153289040Y-66236944D01*
X153384527Y-66071556D01*
X153443542Y-65889928D01*
X153463504Y-65700000D01*
X153443542Y-65510072D01*
X153384527Y-65328444D01*
X153289040Y-65163056D01*
X153272881Y-65145109D01*
X153165675Y-65026045D01*
X153165674Y-65026044D01*
X153161253Y-65021134D01*
X153006752Y-64908882D01*
X153000724Y-64906198D01*
X153000722Y-64906197D01*
X152838319Y-64833891D01*
X152838318Y-64833891D01*
X152832288Y-64831206D01*
X152738888Y-64811353D01*
X152651944Y-64792872D01*
X152651939Y-64792872D01*
X152645487Y-64791500D01*
X152454513Y-64791500D01*
X152448061Y-64792872D01*
X152448056Y-64792872D01*
X152361112Y-64811353D01*
X152267712Y-64831206D01*
X152261682Y-64833891D01*
X152261681Y-64833891D01*
X152099278Y-64906197D01*
X152099276Y-64906198D01*
X152093248Y-64908882D01*
X151938747Y-65021134D01*
X151934332Y-65026037D01*
X151929420Y-65030460D01*
X151928295Y-65029211D01*
X151874986Y-65062051D01*
X151841800Y-65066500D01*
X150728763Y-65066500D01*
X150717579Y-65065973D01*
X150710091Y-65064299D01*
X150702168Y-65064548D01*
X150642033Y-65066438D01*
X150638075Y-65066500D01*
X150610144Y-65066500D01*
X150606229Y-65066995D01*
X150606225Y-65066995D01*
X150606167Y-65067003D01*
X150606138Y-65067006D01*
X150594296Y-65067939D01*
X150550110Y-65069327D01*
X150532744Y-65074372D01*
X150530658Y-65074978D01*
X150511306Y-65078986D01*
X150504235Y-65079880D01*
X150491203Y-65081526D01*
X150483834Y-65084443D01*
X150483832Y-65084444D01*
X150450097Y-65097800D01*
X150438869Y-65101645D01*
X150396407Y-65113982D01*
X150389585Y-65118016D01*
X150389579Y-65118019D01*
X150378968Y-65124294D01*
X150361218Y-65132990D01*
X150349756Y-65137528D01*
X150349751Y-65137531D01*
X150342383Y-65140448D01*
X150335968Y-65145109D01*
X150306625Y-65166427D01*
X150296707Y-65172943D01*
X150278019Y-65183995D01*
X150258637Y-65195458D01*
X150244313Y-65209782D01*
X150229281Y-65222621D01*
X150212893Y-65234528D01*
X150184712Y-65268593D01*
X150176722Y-65277373D01*
X146135666Y-69318429D01*
X146073354Y-69352455D01*
X146002539Y-69347390D01*
X145963683Y-69323833D01*
X145961253Y-69321134D01*
X145806752Y-69208882D01*
X145800724Y-69206198D01*
X145800722Y-69206197D01*
X145638319Y-69133891D01*
X145638318Y-69133891D01*
X145632288Y-69131206D01*
X145538888Y-69111353D01*
X145451944Y-69092872D01*
X145451939Y-69092872D01*
X145445487Y-69091500D01*
X145254513Y-69091500D01*
X145248061Y-69092872D01*
X145248056Y-69092872D01*
X145161112Y-69111353D01*
X145067712Y-69131206D01*
X145061682Y-69133891D01*
X145061681Y-69133891D01*
X144899278Y-69206197D01*
X144899276Y-69206198D01*
X144893248Y-69208882D01*
X144738747Y-69321134D01*
X144610960Y-69463056D01*
X144515473Y-69628444D01*
X144456458Y-69810072D01*
X144436496Y-70000000D01*
X105800000Y-70000000D01*
X110500000Y-65300000D01*
X110500000Y-62435000D01*
X142346496Y-62435000D01*
X142347186Y-62441565D01*
X142362090Y-62583365D01*
X142366458Y-62624928D01*
X142425473Y-62806556D01*
X142520960Y-62971944D01*
X142648747Y-63113866D01*
X142803248Y-63226118D01*
X142809276Y-63228802D01*
X142809278Y-63228803D01*
X142971681Y-63301109D01*
X142977712Y-63303794D01*
X143071113Y-63323647D01*
X143158056Y-63342128D01*
X143158061Y-63342128D01*
X143164513Y-63343500D01*
X143355487Y-63343500D01*
X143361939Y-63342128D01*
X143361944Y-63342128D01*
X143448887Y-63323647D01*
X143542288Y-63303794D01*
X143548319Y-63301109D01*
X143710722Y-63228803D01*
X143710724Y-63228802D01*
X143716752Y-63226118D01*
X143831754Y-63142564D01*
X143898622Y-63118705D01*
X143905815Y-63118500D01*
X150452358Y-63118500D01*
X150526419Y-63142564D01*
X150593248Y-63191118D01*
X150599276Y-63193802D01*
X150599278Y-63193803D01*
X150677890Y-63228803D01*
X150767712Y-63268794D01*
X150861113Y-63288647D01*
X150948056Y-63307128D01*
X150948061Y-63307128D01*
X150954513Y-63308500D01*
X151145487Y-63308500D01*
X151151939Y-63307128D01*
X151151944Y-63307128D01*
X151238887Y-63288647D01*
X151332288Y-63268794D01*
X151422110Y-63228803D01*
X151500722Y-63193803D01*
X151500724Y-63193802D01*
X151506752Y-63191118D01*
X151661253Y-63078866D01*
X151757526Y-62971944D01*
X151784621Y-62941852D01*
X151784622Y-62941851D01*
X151789040Y-62936944D01*
X151884527Y-62771556D01*
X151943542Y-62589928D01*
X151963504Y-62400000D01*
X151962814Y-62393435D01*
X151944232Y-62216635D01*
X151944232Y-62216633D01*
X151943542Y-62210072D01*
X151884527Y-62028444D01*
X151789040Y-61863056D01*
X151661253Y-61721134D01*
X151506752Y-61608882D01*
X151500724Y-61606198D01*
X151500722Y-61606197D01*
X151338319Y-61533891D01*
X151338318Y-61533891D01*
X151332288Y-61531206D01*
X151238888Y-61511353D01*
X151151944Y-61492872D01*
X151151939Y-61492872D01*
X151145487Y-61491500D01*
X150954513Y-61491500D01*
X150948061Y-61492872D01*
X150948056Y-61492872D01*
X150861112Y-61511353D01*
X150767712Y-61531206D01*
X150761682Y-61533891D01*
X150761681Y-61533891D01*
X150599278Y-61606197D01*
X150599276Y-61606198D01*
X150593248Y-61608882D01*
X150440524Y-61719843D01*
X150440522Y-61719844D01*
X150438747Y-61721134D01*
X150438511Y-61720809D01*
X150377991Y-61749853D01*
X150357687Y-61751500D01*
X143905815Y-61751500D01*
X143837694Y-61731498D01*
X143831754Y-61727436D01*
X143722094Y-61647763D01*
X143722093Y-61647762D01*
X143716752Y-61643882D01*
X143710724Y-61641198D01*
X143710722Y-61641197D01*
X143548319Y-61568891D01*
X143548318Y-61568891D01*
X143542288Y-61566206D01*
X143448888Y-61546353D01*
X143361944Y-61527872D01*
X143361939Y-61527872D01*
X143355487Y-61526500D01*
X143164513Y-61526500D01*
X143158061Y-61527872D01*
X143158056Y-61527872D01*
X143071112Y-61546353D01*
X142977712Y-61566206D01*
X142971682Y-61568891D01*
X142971681Y-61568891D01*
X142809278Y-61641197D01*
X142809276Y-61641198D01*
X142803248Y-61643882D01*
X142648747Y-61756134D01*
X142644326Y-61761044D01*
X142644325Y-61761045D01*
X142547326Y-61868774D01*
X142520960Y-61898056D01*
X142425473Y-62063444D01*
X142366458Y-62245072D01*
X142346496Y-62435000D01*
X110500000Y-62435000D01*
X110500000Y-47070207D01*
X179682625Y-47070207D01*
X179691921Y-47082222D01*
X179817913Y-47170443D01*
X179827408Y-47175926D01*
X180031527Y-47271108D01*
X180041819Y-47274854D01*
X180259364Y-47333145D01*
X180270159Y-47335048D01*
X180494525Y-47354678D01*
X180505475Y-47354678D01*
X180729841Y-47335048D01*
X180740636Y-47333145D01*
X180958181Y-47274854D01*
X180968473Y-47271108D01*
X181172592Y-47175926D01*
X181182087Y-47170443D01*
X181308916Y-47081636D01*
X181317292Y-47071157D01*
X181310224Y-47057711D01*
X180512812Y-46260299D01*
X180498868Y-46252685D01*
X180497035Y-46252816D01*
X180490420Y-46257067D01*
X179689055Y-47058432D01*
X179682625Y-47070207D01*
X110500000Y-47070207D01*
X110500000Y-46005475D01*
X179145322Y-46005475D01*
X179164952Y-46229841D01*
X179166855Y-46240636D01*
X179225146Y-46458181D01*
X179228892Y-46468473D01*
X179324074Y-46672591D01*
X179329557Y-46682086D01*
X179418365Y-46808917D01*
X179428842Y-46817292D01*
X179442289Y-46810224D01*
X180239701Y-46012812D01*
X180247315Y-45998868D01*
X180247184Y-45997035D01*
X180242933Y-45990420D01*
X179441568Y-45189055D01*
X179429793Y-45182625D01*
X179417778Y-45191921D01*
X179329557Y-45317914D01*
X179324074Y-45327409D01*
X179228892Y-45531527D01*
X179225146Y-45541819D01*
X179166855Y-45759364D01*
X179164952Y-45770159D01*
X179145322Y-45994525D01*
X179145322Y-46005475D01*
X110500000Y-46005475D01*
X110500000Y-44928842D01*
X179682708Y-44928842D01*
X179689776Y-44942289D01*
X180487188Y-45739701D01*
X180501132Y-45747315D01*
X180502965Y-45747184D01*
X180509580Y-45742933D01*
X181310945Y-44941568D01*
X181317375Y-44929793D01*
X181308079Y-44917778D01*
X181182087Y-44829557D01*
X181172592Y-44824074D01*
X180968473Y-44728892D01*
X180958181Y-44725146D01*
X180740636Y-44666855D01*
X180729841Y-44664952D01*
X180505475Y-44645322D01*
X180494525Y-44645322D01*
X180270159Y-44664952D01*
X180259364Y-44666855D01*
X180041819Y-44725146D01*
X180031527Y-44728892D01*
X179827409Y-44824074D01*
X179817914Y-44829557D01*
X179691083Y-44918365D01*
X179682708Y-44928842D01*
X110500000Y-44928842D01*
X110500000Y-42069580D01*
X206359260Y-42069580D01*
X206403103Y-42278532D01*
X206406163Y-42288729D01*
X206489507Y-42499771D01*
X206494238Y-42509303D01*
X206611957Y-42703297D01*
X206618221Y-42711887D01*
X206766940Y-42883271D01*
X206774570Y-42890691D01*
X206950036Y-43034563D01*
X206958803Y-43040589D01*
X207156001Y-43152841D01*
X207165665Y-43157306D01*
X207378960Y-43234728D01*
X207389227Y-43237499D01*
X207613688Y-43278088D01*
X207621917Y-43279021D01*
X207641177Y-43279930D01*
X207644152Y-43280000D01*
X208306885Y-43280000D01*
X208322124Y-43275525D01*
X208323329Y-43274135D01*
X208325000Y-43266452D01*
X208325000Y-43261885D01*
X208675000Y-43261885D01*
X208679475Y-43277124D01*
X208680865Y-43278329D01*
X208688548Y-43280000D01*
X209306996Y-43280000D01*
X209312304Y-43279775D01*
X209481427Y-43265425D01*
X209491899Y-43263635D01*
X209711536Y-43206628D01*
X209721576Y-43203092D01*
X209928470Y-43109894D01*
X209937756Y-43104725D01*
X210125990Y-42977998D01*
X210134276Y-42971337D01*
X210298472Y-42814701D01*
X210305512Y-42806744D01*
X210440966Y-42624688D01*
X210446570Y-42615651D01*
X210549412Y-42413374D01*
X210553412Y-42403523D01*
X210620703Y-42186809D01*
X210622986Y-42176428D01*
X210636700Y-42072958D01*
X210634503Y-42058792D01*
X210621319Y-42055000D01*
X208693115Y-42055000D01*
X208677876Y-42059475D01*
X208676671Y-42060865D01*
X208675000Y-42068548D01*
X208675000Y-43261885D01*
X208325000Y-43261885D01*
X208325000Y-42073115D01*
X208320525Y-42057876D01*
X208319135Y-42056671D01*
X208311452Y-42055000D01*
X206374316Y-42055000D01*
X206360785Y-42058973D01*
X206359260Y-42069580D01*
X110500000Y-42069580D01*
X110500000Y-41687042D01*
X206363300Y-41687042D01*
X206365497Y-41701208D01*
X206378681Y-41705000D01*
X208306885Y-41705000D01*
X208322124Y-41700525D01*
X208323329Y-41699135D01*
X208325000Y-41691452D01*
X208325000Y-41686885D01*
X208675000Y-41686885D01*
X208679475Y-41702124D01*
X208680865Y-41703329D01*
X208688548Y-41705000D01*
X210625684Y-41705000D01*
X210639215Y-41701027D01*
X210640740Y-41690420D01*
X210596897Y-41481468D01*
X210593837Y-41471271D01*
X210510493Y-41260229D01*
X210505762Y-41250697D01*
X210388043Y-41056703D01*
X210381779Y-41048113D01*
X210233060Y-40876729D01*
X210225430Y-40869309D01*
X210049964Y-40725437D01*
X210041197Y-40719411D01*
X209843999Y-40607159D01*
X209834335Y-40602694D01*
X209621040Y-40525272D01*
X209610773Y-40522501D01*
X209386312Y-40481912D01*
X209378083Y-40480979D01*
X209358823Y-40480070D01*
X209355848Y-40480000D01*
X208693115Y-40480000D01*
X208677876Y-40484475D01*
X208676671Y-40485865D01*
X208675000Y-40493548D01*
X208675000Y-41686885D01*
X208325000Y-41686885D01*
X208325000Y-40498115D01*
X208320525Y-40482876D01*
X208319135Y-40481671D01*
X208311452Y-40480000D01*
X207693004Y-40480000D01*
X207687696Y-40480225D01*
X207518573Y-40494575D01*
X207508101Y-40496365D01*
X207288464Y-40553372D01*
X207278424Y-40556908D01*
X207071530Y-40650106D01*
X207062244Y-40655275D01*
X206874010Y-40782002D01*
X206865724Y-40788663D01*
X206701528Y-40945299D01*
X206694488Y-40953256D01*
X206559034Y-41135312D01*
X206553430Y-41144349D01*
X206450588Y-41346626D01*
X206446588Y-41356477D01*
X206379297Y-41573191D01*
X206377014Y-41583572D01*
X206363300Y-41687042D01*
X110500000Y-41687042D01*
X110500000Y-38400000D01*
X119336372Y-38400000D01*
X119356854Y-38660249D01*
X119358008Y-38665056D01*
X119358009Y-38665062D01*
X119396424Y-38825069D01*
X119417796Y-38914089D01*
X119517697Y-39155271D01*
X119654097Y-39377856D01*
X119823637Y-39576363D01*
X120022144Y-39745903D01*
X120244729Y-39882303D01*
X120249299Y-39884196D01*
X120249303Y-39884198D01*
X120481338Y-39980310D01*
X120485911Y-39982204D01*
X120574931Y-40003576D01*
X120734938Y-40041991D01*
X120734944Y-40041992D01*
X120739751Y-40043146D01*
X121000000Y-40063628D01*
X121260249Y-40043146D01*
X121265056Y-40041992D01*
X121265062Y-40041991D01*
X121425069Y-40003576D01*
X121514089Y-39982204D01*
X121518662Y-39980310D01*
X121750697Y-39884198D01*
X121750701Y-39884196D01*
X121755271Y-39882303D01*
X121977856Y-39745903D01*
X122176363Y-39576363D01*
X122345903Y-39377856D01*
X122482303Y-39155271D01*
X122582204Y-38914089D01*
X122603576Y-38825069D01*
X122641991Y-38665062D01*
X122641992Y-38665056D01*
X122643146Y-38660249D01*
X122663628Y-38400000D01*
X122643146Y-38139751D01*
X122641992Y-38134944D01*
X122641991Y-38134938D01*
X122583359Y-37890723D01*
X122582204Y-37885911D01*
X122482303Y-37644729D01*
X122345903Y-37422144D01*
X122176363Y-37223637D01*
X121977856Y-37054097D01*
X121755271Y-36917697D01*
X121750701Y-36915804D01*
X121750697Y-36915802D01*
X121518662Y-36819690D01*
X121518660Y-36819689D01*
X121514089Y-36817796D01*
X121425069Y-36796424D01*
X121265062Y-36758009D01*
X121265056Y-36758008D01*
X121260249Y-36756854D01*
X121000000Y-36736372D01*
X120739751Y-36756854D01*
X120734944Y-36758008D01*
X120734938Y-36758009D01*
X120574931Y-36796424D01*
X120485911Y-36817796D01*
X120481340Y-36819689D01*
X120481338Y-36819690D01*
X120249303Y-36915802D01*
X120249299Y-36915804D01*
X120244729Y-36917697D01*
X120022144Y-37054097D01*
X119823637Y-37223637D01*
X119654097Y-37422144D01*
X119517697Y-37644729D01*
X119417796Y-37885911D01*
X119416641Y-37890723D01*
X119358009Y-38134938D01*
X119358008Y-38134944D01*
X119356854Y-38139751D01*
X119336372Y-38400000D01*
X110500000Y-38400000D01*
X110500000Y-31978016D01*
X120075505Y-31978016D01*
X120082649Y-31988076D01*
X120132712Y-32029639D01*
X120141146Y-32035545D01*
X120345192Y-32154780D01*
X120354475Y-32159227D01*
X120575248Y-32243532D01*
X120585150Y-32246409D01*
X120816709Y-32293520D01*
X120826962Y-32294743D01*
X121063114Y-32303403D01*
X121073400Y-32302936D01*
X121307805Y-32272907D01*
X121317890Y-32270764D01*
X121544248Y-32202853D01*
X121553825Y-32199100D01*
X121766059Y-32095128D01*
X121774904Y-32089855D01*
X121916267Y-31989022D01*
X121924668Y-31978321D01*
X121917681Y-31965168D01*
X121012812Y-31060299D01*
X120998868Y-31052685D01*
X120997035Y-31052816D01*
X120990420Y-31057067D01*
X120082764Y-31964723D01*
X120075505Y-31978016D01*
X110500000Y-31978016D01*
X110500000Y-30768382D01*
X119495605Y-30768382D01*
X119509209Y-31004306D01*
X119510645Y-31014527D01*
X119562598Y-31245057D01*
X119565677Y-31254885D01*
X119654588Y-31473847D01*
X119659231Y-31483038D01*
X119782714Y-31684544D01*
X119788792Y-31692848D01*
X119809828Y-31717133D01*
X119822912Y-31725544D01*
X119832885Y-31719628D01*
X120739701Y-30812812D01*
X120746079Y-30801132D01*
X121252685Y-30801132D01*
X121252816Y-30802965D01*
X121257067Y-30809580D01*
X122165513Y-31718026D01*
X122177523Y-31724585D01*
X122189262Y-31715617D01*
X122287140Y-31579405D01*
X122292451Y-31570566D01*
X122397151Y-31358720D01*
X122400950Y-31349125D01*
X122469645Y-31123026D01*
X122471824Y-31112945D01*
X122502907Y-30876848D01*
X122503426Y-30870174D01*
X122505059Y-30803365D01*
X122504865Y-30796647D01*
X122485354Y-30559322D01*
X122483671Y-30549160D01*
X122426100Y-30319956D01*
X122422782Y-30310209D01*
X122328546Y-30093481D01*
X122323679Y-30084406D01*
X122195319Y-29885991D01*
X122191137Y-29880559D01*
X122178430Y-29872822D01*
X122178177Y-29872828D01*
X122169159Y-29878328D01*
X121260299Y-30787188D01*
X121252685Y-30801132D01*
X120746079Y-30801132D01*
X120747315Y-30798868D01*
X120747184Y-30797035D01*
X120742933Y-30790420D01*
X119832964Y-29880451D01*
X119821428Y-29874151D01*
X119809146Y-29883774D01*
X119694201Y-30052277D01*
X119689112Y-30061236D01*
X119589611Y-30275593D01*
X119586054Y-30285261D01*
X119522901Y-30512982D01*
X119520970Y-30523102D01*
X119495857Y-30758093D01*
X119495605Y-30768382D01*
X110500000Y-30768382D01*
X110500000Y-29622911D01*
X120075983Y-29622911D01*
X120082727Y-29635240D01*
X120987188Y-30539701D01*
X121001132Y-30547315D01*
X121002965Y-30547184D01*
X121009580Y-30542933D01*
X121916918Y-29635595D01*
X121923939Y-29622738D01*
X121916167Y-29612071D01*
X121836988Y-29549539D01*
X121828404Y-29543836D01*
X121621518Y-29429630D01*
X121612119Y-29425405D01*
X121389357Y-29346520D01*
X121379386Y-29343886D01*
X121146736Y-29302446D01*
X121136482Y-29301476D01*
X120900177Y-29298588D01*
X120889893Y-29299308D01*
X120656300Y-29335053D01*
X120646272Y-29337442D01*
X120421652Y-29410859D01*
X120412143Y-29414856D01*
X120202537Y-29523970D01*
X120193812Y-29529464D01*
X120084436Y-29611585D01*
X120075983Y-29622911D01*
X110500000Y-29622911D01*
X110500000Y-26626000D01*
X110520002Y-26557879D01*
X110573658Y-26511386D01*
X110626000Y-26500000D01*
X127426255Y-26500000D01*
X127494376Y-26520002D01*
G37*
%TD.AperFunction*%
%TD*%
%TA.AperFunction,Conductor*%
%TO.N,/VOUT*%
G36*
X211942121Y-55020002D02*
G01*
X211988614Y-55073658D01*
X212000000Y-55126000D01*
X212000000Y-119447810D01*
X211979998Y-119515931D01*
X211963095Y-119536905D01*
X200286905Y-131213095D01*
X200224593Y-131247121D01*
X200197810Y-131250000D01*
X163376000Y-131250000D01*
X163307879Y-131229998D01*
X163261386Y-131176342D01*
X163250000Y-131124000D01*
X163250000Y-123626000D01*
X163270002Y-123557879D01*
X163323658Y-123511386D01*
X163376000Y-123500000D01*
X169200000Y-123500000D01*
X169200000Y-118126000D01*
X169220002Y-118057879D01*
X169273658Y-118011386D01*
X169326000Y-118000000D01*
X201000000Y-118000000D01*
X204100000Y-114900000D01*
X204100000Y-112228568D01*
X204950001Y-112228568D01*
X204950672Y-112237734D01*
X204958700Y-112292278D01*
X204964443Y-112310759D01*
X205006889Y-112397213D01*
X205018849Y-112413918D01*
X205086572Y-112481523D01*
X205103300Y-112493455D01*
X205189838Y-112535755D01*
X205208306Y-112541463D01*
X205262297Y-112549340D01*
X205271396Y-112550000D01*
X206306885Y-112550000D01*
X206322124Y-112545525D01*
X206323329Y-112544135D01*
X206325000Y-112536452D01*
X206325000Y-112531884D01*
X206675000Y-112531884D01*
X206679475Y-112547123D01*
X206680865Y-112548328D01*
X206688548Y-112549999D01*
X207728568Y-112549999D01*
X207737734Y-112549328D01*
X207792278Y-112541300D01*
X207810759Y-112535557D01*
X207897213Y-112493111D01*
X207913918Y-112481151D01*
X207981523Y-112413428D01*
X207993455Y-112396700D01*
X208035755Y-112310162D01*
X208041463Y-112291694D01*
X208049340Y-112237703D01*
X208050000Y-112228604D01*
X208050000Y-111193115D01*
X208045525Y-111177876D01*
X208044135Y-111176671D01*
X208036452Y-111175000D01*
X206693115Y-111175000D01*
X206677876Y-111179475D01*
X206676671Y-111180865D01*
X206675000Y-111188548D01*
X206675000Y-112531884D01*
X206325000Y-112531884D01*
X206325000Y-111193115D01*
X206320525Y-111177876D01*
X206319135Y-111176671D01*
X206311452Y-111175000D01*
X204968116Y-111175000D01*
X204952877Y-111179475D01*
X204951672Y-111180865D01*
X204950001Y-111188548D01*
X204950001Y-112228568D01*
X204100000Y-112228568D01*
X204100000Y-110806885D01*
X204950000Y-110806885D01*
X204954475Y-110822124D01*
X204955865Y-110823329D01*
X204963548Y-110825000D01*
X206306885Y-110825000D01*
X206322124Y-110820525D01*
X206323329Y-110819135D01*
X206325000Y-110811452D01*
X206325000Y-110806885D01*
X206675000Y-110806885D01*
X206679475Y-110822124D01*
X206680865Y-110823329D01*
X206688548Y-110825000D01*
X208031884Y-110825000D01*
X208047123Y-110820525D01*
X208048328Y-110819135D01*
X208049999Y-110811452D01*
X208049999Y-109771432D01*
X208049328Y-109762266D01*
X208041300Y-109707722D01*
X208035557Y-109689241D01*
X207993111Y-109602787D01*
X207981151Y-109586082D01*
X207913428Y-109518477D01*
X207896700Y-109506545D01*
X207810162Y-109464245D01*
X207791694Y-109458537D01*
X207737703Y-109450660D01*
X207728604Y-109450000D01*
X206693115Y-109450000D01*
X206677876Y-109454475D01*
X206676671Y-109455865D01*
X206675000Y-109463548D01*
X206675000Y-110806885D01*
X206325000Y-110806885D01*
X206325000Y-109468116D01*
X206320525Y-109452877D01*
X206319135Y-109451672D01*
X206311452Y-109450001D01*
X205271432Y-109450001D01*
X205262266Y-109450672D01*
X205207722Y-109458700D01*
X205189241Y-109464443D01*
X205102787Y-109506889D01*
X205086082Y-109518849D01*
X205018477Y-109586572D01*
X205006545Y-109603300D01*
X204964245Y-109689838D01*
X204958537Y-109708306D01*
X204950660Y-109762297D01*
X204950000Y-109771396D01*
X204950000Y-110806885D01*
X204100000Y-110806885D01*
X204100000Y-92728568D01*
X204972221Y-92728568D01*
X204972892Y-92737734D01*
X204980920Y-92792278D01*
X204986663Y-92810759D01*
X205029109Y-92897213D01*
X205041069Y-92913918D01*
X205108792Y-92981523D01*
X205125520Y-92993455D01*
X205212058Y-93035755D01*
X205230526Y-93041463D01*
X205284517Y-93049340D01*
X205293616Y-93050000D01*
X206329105Y-93050000D01*
X206344344Y-93045525D01*
X206345549Y-93044135D01*
X206347220Y-93036452D01*
X206347220Y-93031884D01*
X206697220Y-93031884D01*
X206701695Y-93047123D01*
X206703085Y-93048328D01*
X206710768Y-93049999D01*
X207750788Y-93049999D01*
X207759954Y-93049328D01*
X207814498Y-93041300D01*
X207832979Y-93035557D01*
X207919433Y-92993111D01*
X207936138Y-92981151D01*
X208003743Y-92913428D01*
X208015675Y-92896700D01*
X208057975Y-92810162D01*
X208063683Y-92791694D01*
X208071560Y-92737703D01*
X208072220Y-92728604D01*
X208072220Y-91693115D01*
X208067745Y-91677876D01*
X208066355Y-91676671D01*
X208058672Y-91675000D01*
X206715335Y-91675000D01*
X206700096Y-91679475D01*
X206698891Y-91680865D01*
X206697220Y-91688548D01*
X206697220Y-93031884D01*
X206347220Y-93031884D01*
X206347220Y-91693115D01*
X206342745Y-91677876D01*
X206341355Y-91676671D01*
X206333672Y-91675000D01*
X204990336Y-91675000D01*
X204975097Y-91679475D01*
X204973892Y-91680865D01*
X204972221Y-91688548D01*
X204972221Y-92728568D01*
X204100000Y-92728568D01*
X204100000Y-91306885D01*
X204972220Y-91306885D01*
X204976695Y-91322124D01*
X204978085Y-91323329D01*
X204985768Y-91325000D01*
X206329105Y-91325000D01*
X206344344Y-91320525D01*
X206345549Y-91319135D01*
X206347220Y-91311452D01*
X206347220Y-91306885D01*
X206697220Y-91306885D01*
X206701695Y-91322124D01*
X206703085Y-91323329D01*
X206710768Y-91325000D01*
X208054104Y-91325000D01*
X208069343Y-91320525D01*
X208070548Y-91319135D01*
X208072219Y-91311452D01*
X208072219Y-90271432D01*
X208071548Y-90262266D01*
X208063520Y-90207722D01*
X208057777Y-90189241D01*
X208015331Y-90102787D01*
X208003371Y-90086082D01*
X207935648Y-90018477D01*
X207918920Y-90006545D01*
X207832382Y-89964245D01*
X207813914Y-89958537D01*
X207759923Y-89950660D01*
X207750824Y-89950000D01*
X206715335Y-89950000D01*
X206700096Y-89954475D01*
X206698891Y-89955865D01*
X206697220Y-89963548D01*
X206697220Y-91306885D01*
X206347220Y-91306885D01*
X206347220Y-89968116D01*
X206342745Y-89952877D01*
X206341355Y-89951672D01*
X206333672Y-89950001D01*
X205293652Y-89950001D01*
X205284486Y-89950672D01*
X205229942Y-89958700D01*
X205211461Y-89964443D01*
X205125007Y-90006889D01*
X205108302Y-90018849D01*
X205040697Y-90086572D01*
X205028765Y-90103300D01*
X204986465Y-90189838D01*
X204980757Y-90208306D01*
X204972880Y-90262297D01*
X204972220Y-90271396D01*
X204972220Y-91306885D01*
X204100000Y-91306885D01*
X204100000Y-73228568D01*
X204972221Y-73228568D01*
X204972892Y-73237734D01*
X204980920Y-73292278D01*
X204986663Y-73310759D01*
X205029109Y-73397213D01*
X205041069Y-73413918D01*
X205108792Y-73481523D01*
X205125520Y-73493455D01*
X205212058Y-73535755D01*
X205230526Y-73541463D01*
X205284517Y-73549340D01*
X205293616Y-73550000D01*
X206329105Y-73550000D01*
X206344344Y-73545525D01*
X206345549Y-73544135D01*
X206347220Y-73536452D01*
X206347220Y-73531884D01*
X206697220Y-73531884D01*
X206701695Y-73547123D01*
X206703085Y-73548328D01*
X206710768Y-73549999D01*
X207750788Y-73549999D01*
X207759954Y-73549328D01*
X207814498Y-73541300D01*
X207832979Y-73535557D01*
X207919433Y-73493111D01*
X207936138Y-73481151D01*
X208003743Y-73413428D01*
X208015675Y-73396700D01*
X208057975Y-73310162D01*
X208063683Y-73291694D01*
X208071560Y-73237703D01*
X208072220Y-73228604D01*
X208072220Y-72193115D01*
X208067745Y-72177876D01*
X208066355Y-72176671D01*
X208058672Y-72175000D01*
X206715335Y-72175000D01*
X206700096Y-72179475D01*
X206698891Y-72180865D01*
X206697220Y-72188548D01*
X206697220Y-73531884D01*
X206347220Y-73531884D01*
X206347220Y-72193115D01*
X206342745Y-72177876D01*
X206341355Y-72176671D01*
X206333672Y-72175000D01*
X204990336Y-72175000D01*
X204975097Y-72179475D01*
X204973892Y-72180865D01*
X204972221Y-72188548D01*
X204972221Y-73228568D01*
X204100000Y-73228568D01*
X204100000Y-71806885D01*
X204972220Y-71806885D01*
X204976695Y-71822124D01*
X204978085Y-71823329D01*
X204985768Y-71825000D01*
X206329105Y-71825000D01*
X206344344Y-71820525D01*
X206345549Y-71819135D01*
X206347220Y-71811452D01*
X206347220Y-71806885D01*
X206697220Y-71806885D01*
X206701695Y-71822124D01*
X206703085Y-71823329D01*
X206710768Y-71825000D01*
X208054104Y-71825000D01*
X208069343Y-71820525D01*
X208070548Y-71819135D01*
X208072219Y-71811452D01*
X208072219Y-70771432D01*
X208071548Y-70762266D01*
X208063520Y-70707722D01*
X208057777Y-70689241D01*
X208015331Y-70602787D01*
X208003371Y-70586082D01*
X207935648Y-70518477D01*
X207918920Y-70506545D01*
X207832382Y-70464245D01*
X207813914Y-70458537D01*
X207759923Y-70450660D01*
X207750824Y-70450000D01*
X206715335Y-70450000D01*
X206700096Y-70454475D01*
X206698891Y-70455865D01*
X206697220Y-70463548D01*
X206697220Y-71806885D01*
X206347220Y-71806885D01*
X206347220Y-70468116D01*
X206342745Y-70452877D01*
X206341355Y-70451672D01*
X206333672Y-70450001D01*
X205293652Y-70450001D01*
X205284486Y-70450672D01*
X205229942Y-70458700D01*
X205211461Y-70464443D01*
X205125007Y-70506889D01*
X205108302Y-70518849D01*
X205040697Y-70586572D01*
X205028765Y-70603300D01*
X204986465Y-70689838D01*
X204980757Y-70708306D01*
X204972880Y-70762297D01*
X204972220Y-70771396D01*
X204972220Y-71806885D01*
X204100000Y-71806885D01*
X204100000Y-57955200D01*
X206350000Y-57955200D01*
X206350538Y-57963409D01*
X206364366Y-58068443D01*
X206368604Y-58084261D01*
X206422741Y-58214960D01*
X206430927Y-58229138D01*
X206517053Y-58341378D01*
X206528622Y-58352947D01*
X206640862Y-58439073D01*
X206655040Y-58447259D01*
X206785739Y-58501396D01*
X206801557Y-58505634D01*
X206906591Y-58519462D01*
X206914800Y-58520000D01*
X208306885Y-58520000D01*
X208322124Y-58515525D01*
X208323329Y-58514135D01*
X208325000Y-58506452D01*
X208325000Y-58501885D01*
X208675000Y-58501885D01*
X208679475Y-58517124D01*
X208680865Y-58518329D01*
X208688548Y-58520000D01*
X210085200Y-58520000D01*
X210093409Y-58519462D01*
X210198443Y-58505634D01*
X210214261Y-58501396D01*
X210344960Y-58447259D01*
X210359138Y-58439073D01*
X210471378Y-58352947D01*
X210482947Y-58341378D01*
X210569073Y-58229138D01*
X210577259Y-58214960D01*
X210631396Y-58084261D01*
X210635634Y-58068443D01*
X210649462Y-57963409D01*
X210650000Y-57955200D01*
X210650000Y-57313115D01*
X210645525Y-57297876D01*
X210644135Y-57296671D01*
X210636452Y-57295000D01*
X208693115Y-57295000D01*
X208677876Y-57299475D01*
X208676671Y-57300865D01*
X208675000Y-57308548D01*
X208675000Y-58501885D01*
X208325000Y-58501885D01*
X208325000Y-57313115D01*
X208320525Y-57297876D01*
X208319135Y-57296671D01*
X208311452Y-57295000D01*
X206368115Y-57295000D01*
X206352876Y-57299475D01*
X206351671Y-57300865D01*
X206350000Y-57308548D01*
X206350000Y-57955200D01*
X204100000Y-57955200D01*
X204100000Y-56926885D01*
X206350000Y-56926885D01*
X206354475Y-56942124D01*
X206355865Y-56943329D01*
X206363548Y-56945000D01*
X208306885Y-56945000D01*
X208322124Y-56940525D01*
X208323329Y-56939135D01*
X208325000Y-56931452D01*
X208325000Y-56926885D01*
X208675000Y-56926885D01*
X208679475Y-56942124D01*
X208680865Y-56943329D01*
X208688548Y-56945000D01*
X210631885Y-56945000D01*
X210647124Y-56940525D01*
X210648329Y-56939135D01*
X210650000Y-56931452D01*
X210650000Y-56284800D01*
X210649462Y-56276591D01*
X210635634Y-56171557D01*
X210631396Y-56155739D01*
X210577259Y-56025040D01*
X210569073Y-56010862D01*
X210482947Y-55898622D01*
X210471378Y-55887053D01*
X210359138Y-55800927D01*
X210344960Y-55792741D01*
X210214261Y-55738604D01*
X210198443Y-55734366D01*
X210093409Y-55720538D01*
X210085200Y-55720000D01*
X208693115Y-55720000D01*
X208677876Y-55724475D01*
X208676671Y-55725865D01*
X208675000Y-55733548D01*
X208675000Y-56926885D01*
X208325000Y-56926885D01*
X208325000Y-55738115D01*
X208320525Y-55722876D01*
X208319135Y-55721671D01*
X208311452Y-55720000D01*
X206914800Y-55720000D01*
X206906591Y-55720538D01*
X206801557Y-55734366D01*
X206785739Y-55738604D01*
X206655040Y-55792741D01*
X206640862Y-55800927D01*
X206528622Y-55887053D01*
X206517053Y-55898622D01*
X206430927Y-56010862D01*
X206422741Y-56025040D01*
X206368604Y-56155739D01*
X206364366Y-56171557D01*
X206350538Y-56276591D01*
X206350000Y-56284800D01*
X206350000Y-56926885D01*
X204100000Y-56926885D01*
X204100000Y-55126000D01*
X204120002Y-55057879D01*
X204173658Y-55011386D01*
X204226000Y-55000000D01*
X211874000Y-55000000D01*
X211942121Y-55020002D01*
G37*
%TD.AperFunction*%
%TD*%
M02*
