%TF.GenerationSoftware,KiCad,Pcbnew,6.0.7-f9a2dced07~116~ubuntu20.04.1*%
%TF.CreationDate,2022-10-02T03:02:38-04:00*%
%TF.ProjectId,SSTC_PFC_Power_Supply,53535443-5f50-4464-935f-506f7765725f,rev?*%
%TF.SameCoordinates,Original*%
%TF.FileFunction,Soldermask,Top*%
%TF.FilePolarity,Negative*%
%FSLAX46Y46*%
G04 Gerber Fmt 4.6, Leading zero omitted, Abs format (unit mm)*
G04 Created by KiCad (PCBNEW 6.0.7-f9a2dced07~116~ubuntu20.04.1) date 2022-10-02 03:02:38*
%MOMM*%
%LPD*%
G01*
G04 APERTURE LIST*
G04 Aperture macros list*
%AMRoundRect*
0 Rectangle with rounded corners*
0 $1 Rounding radius*
0 $2 $3 $4 $5 $6 $7 $8 $9 X,Y pos of 4 corners*
0 Add a 4 corners polygon primitive as box body*
4,1,4,$2,$3,$4,$5,$6,$7,$8,$9,$2,$3,0*
0 Add four circle primitives for the rounded corners*
1,1,$1+$1,$2,$3*
1,1,$1+$1,$4,$5*
1,1,$1+$1,$6,$7*
1,1,$1+$1,$8,$9*
0 Add four rect primitives between the rounded corners*
20,1,$1+$1,$2,$3,$4,$5,0*
20,1,$1+$1,$4,$5,$6,$7,0*
20,1,$1+$1,$6,$7,$8,$9,0*
20,1,$1+$1,$8,$9,$2,$3,0*%
G04 Aperture macros list end*
%ADD10C,2.750000*%
%ADD11RoundRect,0.250000X-0.650000X0.325000X-0.650000X-0.325000X0.650000X-0.325000X0.650000X0.325000X0*%
%ADD12RoundRect,0.250000X0.450000X-0.262500X0.450000X0.262500X-0.450000X0.262500X-0.450000X-0.262500X0*%
%ADD13R,0.900000X1.200000*%
%ADD14RoundRect,0.250000X-0.362500X-1.425000X0.362500X-1.425000X0.362500X1.425000X-0.362500X1.425000X0*%
%ADD15C,2.400000*%
%ADD16C,7.400000*%
%ADD17C,2.000000*%
%ADD18RoundRect,0.250001X-1.549999X0.799999X-1.549999X-0.799999X1.549999X-0.799999X1.549999X0.799999X0*%
%ADD19O,3.600000X2.100000*%
%ADD20RoundRect,0.250000X0.262500X0.450000X-0.262500X0.450000X-0.262500X-0.450000X0.262500X-0.450000X0*%
%ADD21RoundRect,0.408164X-1.341836X0.591836X-1.341836X-0.591836X1.341836X-0.591836X1.341836X0.591836X0*%
%ADD22C,2.700000*%
%ADD23C,3.000000*%
%ADD24RoundRect,0.250000X0.250000X0.475000X-0.250000X0.475000X-0.250000X-0.475000X0.250000X-0.475000X0*%
%ADD25C,4.500000*%
%ADD26RoundRect,0.150000X-0.150000X0.825000X-0.150000X-0.825000X0.150000X-0.825000X0.150000X0.825000X0*%
%ADD27RoundRect,0.250000X-0.250000X-0.475000X0.250000X-0.475000X0.250000X0.475000X-0.250000X0.475000X0*%
%ADD28R,7.000000X6.500000*%
%ADD29R,1.500000X2.400000*%
%ADD30RoundRect,0.250000X-0.625000X0.312500X-0.625000X-0.312500X0.625000X-0.312500X0.625000X0.312500X0*%
%ADD31RoundRect,0.250000X-0.475000X0.250000X-0.475000X-0.250000X0.475000X-0.250000X0.475000X0.250000X0*%
%ADD32R,2.500000X4.500000*%
%ADD33O,2.500000X4.500000*%
%ADD34R,2.400000X2.400000*%
%ADD35R,3.300000X2.500000*%
%ADD36R,7.000000X7.000000*%
%ADD37RoundRect,0.250000X-0.450000X0.262500X-0.450000X-0.262500X0.450000X-0.262500X0.450000X0.262500X0*%
%ADD38R,2.300000X2.000000*%
%ADD39C,2.300000*%
%ADD40RoundRect,0.225000X0.225000X0.250000X-0.225000X0.250000X-0.225000X-0.250000X0.225000X-0.250000X0*%
%ADD41RoundRect,0.225000X-0.225000X-0.250000X0.225000X-0.250000X0.225000X0.250000X-0.225000X0.250000X0*%
%ADD42RoundRect,0.250000X-0.262500X-0.450000X0.262500X-0.450000X0.262500X0.450000X-0.262500X0.450000X0*%
%ADD43RoundRect,0.250001X1.549999X-0.799999X1.549999X0.799999X-1.549999X0.799999X-1.549999X-0.799999X0*%
%ADD44RoundRect,0.150000X0.512500X0.150000X-0.512500X0.150000X-0.512500X-0.150000X0.512500X-0.150000X0*%
%ADD45R,3.200000X3.200000*%
%ADD46C,3.200000*%
G04 APERTURE END LIST*
D10*
%TO.C,FL1*%
X81500000Y-66000000D03*
X81500000Y-78000000D03*
X71500000Y-66000000D03*
X71500000Y-78000000D03*
%TD*%
D11*
%TO.C,C7*%
X135795000Y-61000000D03*
X135795000Y-63950000D03*
%TD*%
D12*
%TO.C,R16*%
X143950000Y-72775000D03*
X143950000Y-70950000D03*
%TD*%
D13*
%TO.C,D2*%
X151450000Y-73150000D03*
X148150000Y-73150000D03*
%TD*%
D14*
%TO.C,R13*%
X195037500Y-59500000D03*
X200962500Y-59500000D03*
%TD*%
D15*
%TO.C,C2*%
X84000000Y-86000000D03*
X69000000Y-86000000D03*
%TD*%
D16*
%TO.C,H5*%
X132500000Y-29500000D03*
%TD*%
D17*
%TO.C,RV4*%
X115500000Y-113550000D03*
X117700000Y-106050000D03*
%TD*%
D16*
%TO.C,H3*%
X210500000Y-130500000D03*
%TD*%
D18*
%TO.C,J1*%
X56500000Y-49880000D03*
D19*
X56500000Y-57500000D03*
X56500000Y-65120000D03*
%TD*%
D16*
%TO.C,H1*%
X54500000Y-29500000D03*
%TD*%
D20*
%TO.C,R17*%
X151375000Y-65700000D03*
X149550000Y-65700000D03*
%TD*%
D21*
%TO.C,R3*%
X109000000Y-89987500D03*
X109000000Y-95912500D03*
%TD*%
D22*
%TO.C,F1*%
X67750000Y-39500000D03*
D23*
X56500000Y-39500000D03*
X79000000Y-39500000D03*
%TD*%
D17*
%TO.C,C4*%
X94000000Y-86000000D03*
X94000000Y-76000000D03*
%TD*%
D24*
%TO.C,C5*%
X146400000Y-52750000D03*
X144500000Y-52750000D03*
%TD*%
D17*
%TO.C,RV3*%
X188000000Y-48200000D03*
X180500000Y-46000000D03*
%TD*%
D25*
%TO.C,L3*%
X126000000Y-115500000D03*
X155200000Y-115500000D03*
%TD*%
D26*
%TO.C,U1*%
X145800000Y-55575000D03*
X144530000Y-55575000D03*
X143260000Y-55575000D03*
X141990000Y-55575000D03*
X141990000Y-60525000D03*
X143260000Y-60525000D03*
X144530000Y-60525000D03*
X145800000Y-60525000D03*
%TD*%
D27*
%TO.C,C8*%
X138145000Y-60550000D03*
X140045000Y-60550000D03*
%TD*%
D28*
%TO.C,D4*%
X167780000Y-126900000D03*
D29*
X170080000Y-119500000D03*
X165500000Y-119500000D03*
%TD*%
D16*
%TO.C,H4*%
X105500000Y-130500000D03*
%TD*%
D30*
%TO.C,R9*%
X198500000Y-46237500D03*
X198500000Y-49162500D03*
%TD*%
D31*
%TO.C,C9*%
X147695000Y-56900000D03*
X147695000Y-58800000D03*
%TD*%
D32*
%TO.C,Q1*%
X151450000Y-79000000D03*
D33*
X146000000Y-79000000D03*
X140550000Y-79000000D03*
%TD*%
D21*
%TO.C,R2*%
X113000000Y-89987500D03*
X113000000Y-95912500D03*
%TD*%
D30*
%TO.C,R11*%
X198500000Y-36937500D03*
X198500000Y-39862500D03*
%TD*%
%TO.C,R10*%
X198500000Y-41537500D03*
X198500000Y-44462500D03*
%TD*%
D14*
%TO.C,R14*%
X181037500Y-59500000D03*
X186962500Y-59500000D03*
%TD*%
D21*
%TO.C,R5*%
X105000000Y-89987500D03*
X105000000Y-95912500D03*
%TD*%
D34*
%TO.C,C11*%
X206500000Y-111000000D03*
D15*
X199000000Y-111000000D03*
%TD*%
D25*
%TO.C,HS1*%
X158700000Y-81820000D03*
X133300000Y-81820000D03*
%TD*%
D16*
%TO.C,H6*%
X54500000Y-130500000D03*
%TD*%
D17*
%TO.C,RV2*%
X198500000Y-54000000D03*
X191000000Y-51800000D03*
%TD*%
D35*
%TO.C,D3*%
X117100000Y-128950000D03*
X117100000Y-122150000D03*
%TD*%
D15*
%TO.C,C1*%
X81500000Y-57500000D03*
X66500000Y-57500000D03*
%TD*%
D16*
%TO.C,H2*%
X210500000Y-29500000D03*
%TD*%
D17*
%TO.C,C3*%
X59000000Y-86000000D03*
X59000000Y-76000000D03*
%TD*%
D36*
%TO.C,L2*%
X62500000Y-94250000D03*
X62500000Y-110750000D03*
%TD*%
D12*
%TO.C,R8*%
X151450000Y-70912500D03*
X151450000Y-69087500D03*
%TD*%
D34*
%TO.C,C14*%
X187022220Y-91500000D03*
D15*
X179522220Y-91500000D03*
%TD*%
D37*
%TO.C,R15*%
X142000000Y-69125000D03*
X142000000Y-70950000D03*
%TD*%
D34*
%TO.C,C13*%
X206522220Y-91500000D03*
D15*
X199022220Y-91500000D03*
%TD*%
D36*
%TO.C,L1*%
X88500000Y-94250000D03*
X88500000Y-110750000D03*
%TD*%
D15*
%TO.C,C10*%
X107150000Y-115500000D03*
X107150000Y-100500000D03*
%TD*%
D38*
%TO.C,PS1*%
X93000000Y-30800000D03*
D39*
X93000000Y-46000000D03*
X121000000Y-30800000D03*
X121000000Y-38400000D03*
%TD*%
D40*
%TO.C,C18*%
X146637500Y-67500000D03*
X145087500Y-67500000D03*
%TD*%
D20*
%TO.C,R7*%
X139957500Y-52450000D03*
X138132500Y-52450000D03*
%TD*%
D41*
%TO.C,C19*%
X153575000Y-65700000D03*
X155125000Y-65700000D03*
%TD*%
D34*
%TO.C,C15*%
X206522220Y-72000000D03*
D15*
X199022220Y-72000000D03*
%TD*%
D24*
%TO.C,C17*%
X146637500Y-65700000D03*
X144737500Y-65700000D03*
%TD*%
D15*
%TO.C,C6*%
X88500000Y-119150000D03*
X73500000Y-119150000D03*
%TD*%
D20*
%TO.C,R12*%
X200325000Y-34850000D03*
X198500000Y-34850000D03*
%TD*%
D42*
%TO.C,R4*%
X138132500Y-55600000D03*
X139957500Y-55600000D03*
%TD*%
D43*
%TO.C,J2*%
X208500000Y-57120000D03*
D19*
X208500000Y-49500000D03*
X208500000Y-41880000D03*
%TD*%
D44*
%TO.C,U2*%
X148900000Y-70950000D03*
X148900000Y-70000000D03*
X148900000Y-69050000D03*
X146625000Y-69050000D03*
X146625000Y-70000000D03*
X146625000Y-70950000D03*
%TD*%
D42*
%TO.C,R6*%
X138220000Y-63950000D03*
X140045000Y-63950000D03*
%TD*%
D34*
%TO.C,C12*%
X187000000Y-111000000D03*
D15*
X179500000Y-111000000D03*
%TD*%
D17*
%TO.C,RV1*%
X79000000Y-51500000D03*
X71500000Y-49300000D03*
%TD*%
D45*
%TO.C,D1*%
X78340000Y-130500000D03*
D46*
X83420000Y-130500000D03*
X88500000Y-130500000D03*
X93580000Y-130500000D03*
%TD*%
D21*
%TO.C,R1*%
X117000000Y-89987500D03*
X117000000Y-95912500D03*
%TD*%
D34*
%TO.C,C16*%
X187022220Y-72000000D03*
D15*
X179522220Y-72000000D03*
%TD*%
M02*
