M48
; DRILL file {KiCad 6.0.7-f9a2dced07~116~ubuntu20.04.1} date Sun 02 Oct 2022 03:02:44 AM EDT
; FORMAT={-:-/ absolute / metric / decimal}
; #@! TF.CreationDate,2022-10-02T03:02:44-04:00
; #@! TF.GenerationSoftware,Kicad,Pcbnew,6.0.7-f9a2dced07~116~ubuntu20.04.1
; #@! TF.FileFunction,Plated,1,2,PTH
FMAT,2
METRIC
; #@! TA.AperFunction,Plated,PTH,ViaDrill
T1C0.400
; #@! TA.AperFunction,Plated,PTH,ComponentDrill
T2C0.760
; #@! TA.AperFunction,Plated,PTH,ComponentDrill
T3C0.800
; #@! TA.AperFunction,Plated,PTH,ViaDrill
T4C1.000
; #@! TA.AperFunction,Plated,PTH,ComponentDrill
T5C1.000
; #@! TA.AperFunction,Plated,PTH,ComponentDrill
T6C1.200
; #@! TA.AperFunction,Plated,PTH,ComponentDrill
T7C1.300
; #@! TA.AperFunction,Plated,PTH,ComponentDrill
T8C1.400
; #@! TA.AperFunction,Plated,PTH,ComponentDrill
T9C1.500
; #@! TA.AperFunction,Plated,PTH,ComponentDrill
T10C1.600
; #@! TA.AperFunction,Plated,PTH,ComponentDrill
T11C2.000
; #@! TA.AperFunction,Plated,PTH,ComponentDrill
T12C2.500
; #@! TA.AperFunction,Plated,PTH,ComponentDrill
T13C3.700
%
G90
G05
T1
X103.8Y-88.5
X105.037Y-88.5
X106.275Y-88.5
X107.512Y-88.5
X108.75Y-88.5
X109.987Y-88.5
X111.225Y-88.5
X112.462Y-88.5
X113.7Y-88.5
X114.938Y-88.5
X116.05Y-120.45
X116.175Y-88.5
X117.15Y-120.45
X117.412Y-88.5
X118.25Y-120.45
X118.65Y-88.5
X135.795Y-59.95
X137.145Y-55.6
X137.145Y-60.55
X143.26Y-62.435
X143.787Y-65.7
X143.938Y-73.712
X144.137Y-67.5
X145.35Y-70.0
X146.595Y-55.6
X147.2Y-73.15
X147.35Y-52.75
X147.695Y-55.9
X148.9Y-71.7
X149.95Y-70.45
X151.05Y-62.4
X152.55Y-65.7
X156.05Y-65.7
X164.75Y-124.1
X164.75Y-125.4
X164.75Y-126.85
X164.75Y-128.2
X164.75Y-129.7
X166.2Y-129.7
X166.25Y-124.15
X166.25Y-126.9
X167.8Y-124.15
X167.8Y-125.5
X167.8Y-126.9
X167.8Y-128.35
X167.8Y-129.7
X169.3Y-126.95
X169.3Y-129.7
X169.5Y-124.15
X170.75Y-125.65
X170.75Y-127.0
X170.75Y-128.45
X170.75Y-129.75
X170.8Y-124.15
X179.9Y-58.4
X179.9Y-59.5
X179.9Y-60.6
X188.5Y-58.5
X188.5Y-59.5
X188.5Y-60.5
X193.5Y-58.5
X193.5Y-59.5
X193.5Y-60.5
X201.4Y-34.85
T2
X121.0Y-30.8
X121.0Y-38.4
T3
X93.0Y-30.8
X93.0Y-46.0
T4
X105.9Y-121.2
T5
X59.0Y-76.0
X59.0Y-86.0
X71.5Y-49.3
X79.0Y-51.5
X94.0Y-76.0
X94.0Y-86.0
X115.5Y-113.55
X117.7Y-106.05
X180.5Y-46.0
X188.0Y-48.2
X191.0Y-51.8
X198.5Y-54.0
T6
X66.5Y-57.5
X69.0Y-86.0
X73.5Y-119.15
X81.5Y-57.5
X84.0Y-86.0
X88.5Y-119.15
X107.15Y-100.5
X107.15Y-115.5
X179.5Y-111.0
X179.522Y-72.0
X179.522Y-91.5
X187.0Y-111.0
X187.022Y-72.0
X187.022Y-91.5
X199.0Y-111.0
X199.022Y-72.0
X199.022Y-91.5
X206.5Y-111.0
X206.522Y-72.0
X206.522Y-91.5
T7
X56.5Y-39.5
X71.5Y-66.0
X71.5Y-78.0
X79.0Y-39.5
X81.5Y-66.0
X81.5Y-78.0
T8
X56.5Y-49.88
X56.5Y-57.5
X56.5Y-65.12
X208.5Y-41.88
X208.5Y-49.5
X208.5Y-57.12
T9
X140.55Y-79.0
X146.0Y-79.0
X151.45Y-79.0
T10
X78.34Y-130.5
X83.42Y-130.5
X88.5Y-130.5
X93.58Y-130.5
T11
X126.0Y-115.5
X155.2Y-115.5
T12
X133.3Y-81.82
X158.7Y-81.82
T13
X54.5Y-29.5
X54.5Y-130.5
X105.5Y-130.5
X132.5Y-29.5
X210.5Y-29.5
X210.5Y-130.5
T0
M30
