M48
; DRILL file {KiCad 6.0.8-f2edbf62ab~116~ubuntu20.04.1} date Fri 07 Oct 2022 12:55:23 AM EDT
; FORMAT={-:-/ absolute / metric / decimal}
; #@! TF.CreationDate,2022-10-07T00:55:23-04:00
; #@! TF.GenerationSoftware,Kicad,Pcbnew,6.0.8-f2edbf62ab~116~ubuntu20.04.1
; #@! TF.FileFunction,Plated,1,2,PTH
FMAT,2
METRIC
; #@! TA.AperFunction,Plated,PTH,ViaDrill
T1C0.400
; #@! TA.AperFunction,Plated,PTH,ComponentDrill
T2C0.400
; #@! TA.AperFunction,Plated,PTH,ComponentDrill
T3C0.700
; #@! TA.AperFunction,Plated,PTH,ComponentDrill
T4C0.800
%
G90
G05
T1
X112.85Y-55.4
X114.3Y-81.7
X114.3Y-101.15
X115.85Y-55.4
X116.8Y-93.2
X117.1Y-64.9
X117.75Y-97.1
X118.6Y-94.4
X121.35Y-78.7
X123.0Y-73.5
X125.8Y-88.2
X127.65Y-65.95
X131.2Y-65.6
X133.2Y-71.85
X134.95Y-70.8
X135.0Y-73.3
X140.05Y-67.6
X140.05Y-70.8
X140.05Y-73.3
X141.35Y-65.55
X142.6Y-82.05
X142.65Y-90.05
X143.7Y-92.0
X144.05Y-101.2
X144.45Y-81.8
X145.75Y-73.45
X151.25Y-74.8
X151.35Y-85.1
X152.7Y-95.2
X153.05Y-67.6
X153.05Y-76.05
X153.95Y-81.1
X154.15Y-94.6
X157.287Y-80.5
X158.338Y-79.3
X158.338Y-81.7
X167.912Y-101.3
X169.787Y-59.35
T4
X126.13Y-78.695
X126.13Y-81.235
X126.13Y-83.775
X133.75Y-78.695
X133.75Y-81.235
X133.75Y-83.775
X133.75Y-93.575
X133.75Y-96.115
X133.75Y-98.655
X141.37Y-93.575
X141.37Y-96.115
X141.37Y-98.655
T2
G00X104.5Y-91.022
M15
G01X104.5Y-92.022
M16
G05
G00X110.0Y-86.522
M15
G01X109.0Y-86.522
M16
G05
G00X109.0Y-96.522
M15
G01X110.0Y-96.522
M16
G05
G00X166.0Y-75.5
M15
G01X165.0Y-75.5
M16
G05
G00X165.0Y-85.5
M15
G01X166.0Y-85.5
M16
G05
G00X170.5Y-81.0
M15
G01X170.5Y-80.0
M16
G05
T3
G00X108.275Y-67.368
M15
G01X108.275Y-69.668
M16
G05
G00X112.525Y-73.318
M15
G01X110.225Y-73.318
M16
G05
G00X114.375Y-69.668
M15
G01X114.375Y-67.368
M16
G05
T0
M30
