M48
; DRILL file {KiCad 6.0.8-f2edbf62ab~116~ubuntu20.04.1} date Fri 07 Oct 2022 12:48:59 AM EDT
; FORMAT={-:-/ absolute / metric / decimal}
; #@! TF.CreationDate,2022-10-07T00:48:59-04:00
; #@! TF.GenerationSoftware,Kicad,Pcbnew,6.0.8-f2edbf62ab~116~ubuntu20.04.1
; #@! TF.FileFunction,Plated,1,4,PTH
FMAT,2
METRIC
; #@! TA.AperFunction,Plated,PTH,ViaDrill
T1C0.400
; #@! TA.AperFunction,Plated,PTH,ComponentDrill
T2C0.400
; #@! TA.AperFunction,Plated,PTH,ComponentDrill
T3C0.500
; #@! TA.AperFunction,Plated,PTH,ComponentDrill
T4C0.800
; #@! TA.AperFunction,Plated,PTH,ComponentDrill
T5C1.000
; #@! TA.AperFunction,Plated,PTH,ComponentDrill
T6C1.200
; #@! TA.AperFunction,Plated,PTH,ComponentDrill
T7C1.400
; #@! TA.AperFunction,Plated,PTH,ComponentDrill
T8C2.300
; #@! TA.AperFunction,Plated,PTH,ComponentDrill
T9C3.700
%
G90
G05
T1
X41.0Y-53.5
X41.0Y-56.0
X41.0Y-58.5
X41.0Y-61.0
X41.0Y-63.5
X41.0Y-66.0
X41.0Y-68.5
X41.0Y-71.0
X41.0Y-73.5
X41.0Y-76.0
X41.0Y-81.0
X41.0Y-83.5
X41.0Y-86.0
X41.0Y-88.5
X41.0Y-91.0
X43.5Y-91.0
X46.0Y-91.0
X48.5Y-91.0
X49.0Y-46.0
X50.8Y-52.05
X51.0Y-91.0
X51.5Y-46.0
X52.75Y-51.7
X53.5Y-91.0
X54.0Y-46.0
X54.85Y-68.05
X55.25Y-87.35
X55.5Y-91.0
X56.25Y-48.85
X56.25Y-59.75
X56.5Y-46.0
X56.5Y-90.2
X56.9Y-74.1
X57.5Y-93.0
X58.2Y-89.8
X59.0Y-46.0
X59.5Y-95.0
X61.5Y-46.0
X61.5Y-97.0
X63.5Y-99.0
X64.875Y-72.35
X64.925Y-70.8
X65.25Y-84.05
X65.5Y-101.0
X67.1Y-87.3
X67.5Y-103.0
X69.0Y-46.0
X69.5Y-105.0
X70.0Y-107.0
X70.0Y-109.4
X70.0Y-111.8
X70.0Y-114.2
X70.0Y-116.6
X70.0Y-119.0
X70.65Y-64.4
X71.5Y-46.0
X72.0Y-119.0
X74.0Y-46.0
X74.45Y-48.65
X74.45Y-59.65
X74.5Y-119.0
X74.85Y-66.5
X76.5Y-46.0
X77.0Y-119.0
X77.85Y-51.7
X77.85Y-74.2
X79.0Y-46.0
X79.5Y-119.0
X79.9Y-52.0
X80.8Y-67.888
X81.4Y-69.25
X81.5Y-46.0
X82.0Y-119.0
X83.425Y-61.672
X84.0Y-46.0
X84.4Y-58.15
X84.5Y-119.0
X85.9Y-60.6
X86.5Y-46.0
X87.0Y-119.0
X88.3Y-63.25
X88.75Y-69.25
X89.0Y-46.0
X89.5Y-119.0
X90.55Y-74.235
X91.5Y-46.0
X91.7Y-60.25
X92.0Y-119.0
X92.15Y-76.3
X92.8Y-80.85
X93.05Y-85.75
X93.35Y-115.0
X93.785Y-83.325
X94.0Y-46.0
X94.5Y-119.0
X94.65Y-70.0
X95.05Y-72.95
X95.05Y-88.15
X96.5Y-46.0
X97.0Y-119.0
X97.1Y-69.0
X97.125Y-76.475
X98.45Y-110.45
X99.0Y-46.0
X99.5Y-119.0
X100.035Y-85.775
X100.7Y-92.0
X100.85Y-94.0
X101.0Y-109.65
X101.2Y-115.0
X101.5Y-46.0
X101.75Y-78.8
X102.0Y-119.0
X102.6Y-101.25
X103.45Y-99.6
X104.0Y-46.0
X104.5Y-119.0
X104.6Y-60.25
X104.6Y-70.8
X104.6Y-79.2
X105.9Y-98.6
X106.2Y-96.45
X106.5Y-46.0
X106.725Y-90.1
X107.0Y-119.0
X107.2Y-103.15
X107.5Y-106.3
X107.8Y-108.85
X108.05Y-76.438
X108.05Y-83.638
X108.1Y-65.05
X108.35Y-50.55
X108.4Y-96.05
X108.45Y-56.8
X109.0Y-46.0
X109.4Y-72.95
X109.5Y-119.0
X109.962Y-86.537
X110.35Y-84.25
X110.4Y-88.8
X110.6Y-64.05
X111.5Y-46.0
X112.0Y-119.0
X112.075Y-76.075
X112.315Y-90.125
X113.05Y-57.9
X113.6Y-99.45
X114.0Y-46.0
X114.5Y-84.05
X114.5Y-119.0
X114.85Y-89.95
X114.85Y-101.8
X115.587Y-86.537
X115.7Y-75.45
X116.5Y-46.0
X116.65Y-77.9
X116.915Y-96.525
X117.0Y-119.0
X117.3Y-57.65
X117.315Y-98.675
X117.765Y-100.525
X118.45Y-91.95
X118.71Y-90.71
X119.0Y-46.0
X119.5Y-119.0
X120.425Y-97.85
X120.7Y-68.8
X121.5Y-46.0
X121.6Y-105.162
X122.0Y-119.0
X122.05Y-63.6
X122.175Y-75.2
X122.2Y-93.25
X122.2Y-94.52
X122.875Y-87.85
X122.9Y-113.665
X123.55Y-61.5
X123.65Y-93.25
X123.75Y-71.35
X124.0Y-46.0
X124.5Y-119.0
X124.55Y-57.35
X124.675Y-74.25
X125.375Y-86.85
X125.4Y-62.8
X125.4Y-112.665
X126.125Y-78.1
X126.5Y-46.0
X126.675Y-83.25
X126.83Y-94.52
X126.85Y-92.0
X127.0Y-85.05
X127.0Y-119.0
X127.05Y-56.35
X127.125Y-68.0
X128.0Y-106.412
X128.2Y-114.0
X129.0Y-46.0
X129.5Y-119.0
X129.6Y-58.75
X130.375Y-97.8
X130.5Y-68.0
X131.5Y-46.0
X131.75Y-66.25
X131.97Y-94.52
X132.0Y-119.0
X132.35Y-113.75
X132.55Y-91.95
X132.825Y-87.8
X133.2Y-104.85
X133.3Y-116.3
X133.45Y-90.71
X133.45Y-95.8
X134.0Y-46.0
X134.25Y-86.0
X134.35Y-105.85
X134.5Y-119.0
X135.325Y-86.8
X135.55Y-104.85
X136.075Y-77.85
X136.4Y-56.85
X136.5Y-46.0
X136.7Y-105.8
X137.0Y-119.0
X137.1Y-91.95
X137.1Y-94.55
X137.85Y-104.85
X138.2Y-93.25
X138.425Y-70.087
X138.475Y-73.487
X138.625Y-78.85
X139.0Y-96.0
X139.3Y-90.75
X139.55Y-94.9
X141.8Y-89.8
X144.0Y-53.5
X144.0Y-56.022
X144.0Y-58.543
X144.0Y-61.065
X144.0Y-63.587
X144.0Y-66.109
X144.0Y-68.63
X144.0Y-71.152
X144.0Y-73.674
X144.0Y-76.196
X144.0Y-78.717
X144.0Y-81.239
X144.0Y-83.761
X144.0Y-86.283
X144.0Y-88.804
X144.0Y-91.326
X144.0Y-93.848
X144.0Y-96.37
X144.0Y-98.891
X144.0Y-101.413
X144.0Y-103.935
X144.0Y-106.457
X144.0Y-108.978
X144.0Y-111.5
T3
X41.725Y-49.5
X41.725Y-115.5
X42.538Y-47.538
X42.538Y-51.462
X42.538Y-113.538
X42.538Y-117.462
X44.5Y-46.725
X44.5Y-52.275
X44.5Y-112.725
X44.5Y-118.275
X46.462Y-47.538
X46.462Y-51.462
X46.462Y-113.538
X46.462Y-117.462
X47.275Y-49.5
X47.275Y-115.5
X137.725Y-49.5
X137.725Y-115.5
X138.538Y-47.538
X138.538Y-51.462
X138.538Y-113.538
X138.538Y-117.462
X140.5Y-46.725
X140.5Y-52.275
X140.5Y-112.725
X140.5Y-118.275
X142.462Y-47.538
X142.462Y-51.462
X142.462Y-113.538
X142.462Y-117.462
X143.275Y-49.5
X143.275Y-115.5
T4
X57.32Y-98.61
X57.32Y-116.39
X80.18Y-98.61
X80.18Y-113.85
X95.66Y-63.065
X98.2Y-65.605
X100.74Y-63.065
X136.795Y-63.05
X139.335Y-60.51
X139.335Y-65.59
T5
X41.83Y-78.5
X44.37Y-78.5
X61.85Y-76.71
X61.85Y-79.25
X71.13Y-82.7
X71.13Y-87.3
X73.67Y-82.7
X73.67Y-87.3
X89.325Y-48.65
X91.825Y-48.65
X94.325Y-48.65
X98.0Y-94.32
X98.0Y-96.86
X98.0Y-99.4
X105.6Y-111.85
X108.14Y-111.85
X122.33Y-116.3
X124.87Y-116.3
T6
X44.782Y-64.495
X44.782Y-68.305
X44.782Y-72.115
X140.567Y-101.54
X140.567Y-105.35
T7
X46.5Y-88.88
X46.5Y-96.5
X46.5Y-104.12
T8
X86.825Y-51.95
X96.825Y-51.95
T9
X44.5Y-49.5
X44.5Y-115.5
X140.5Y-49.5
X140.5Y-115.5
T2
G00X60.3Y-54.0
M15
G01X60.3Y-55.0
M16
G05
G00X65.8Y-49.5
M15
G01X64.8Y-49.5
M16
G05
G00X70.3Y-55.0
M15
G01X70.3Y-54.0
M16
G05
T0
M30
