%TF.GenerationSoftware,KiCad,Pcbnew,6.0.8-f2edbf62ab~116~ubuntu20.04.1*%
%TF.CreationDate,2022-10-07T00:48:49-04:00*%
%TF.ProjectId,SSTC_Control_Board,53535443-5f43-46f6-9e74-726f6c5f426f,rev?*%
%TF.SameCoordinates,Original*%
%TF.FileFunction,Soldermask,Bot*%
%TF.FilePolarity,Negative*%
%FSLAX46Y46*%
G04 Gerber Fmt 4.6, Leading zero omitted, Abs format (unit mm)*
G04 Created by KiCad (PCBNEW 6.0.8-f2edbf62ab~116~ubuntu20.04.1) date 2022-10-07 00:48:49*
%MOMM*%
%LPD*%
G01*
G04 APERTURE LIST*
G04 Aperture macros list*
%AMRoundRect*
0 Rectangle with rounded corners*
0 $1 Rounding radius*
0 $2 $3 $4 $5 $6 $7 $8 $9 X,Y pos of 4 corners*
0 Add a 4 corners polygon primitive as box body*
4,1,4,$2,$3,$4,$5,$6,$7,$8,$9,$2,$3,0*
0 Add four circle primitives for the rounded corners*
1,1,$1+$1,$2,$3*
1,1,$1+$1,$4,$5*
1,1,$1+$1,$6,$7*
1,1,$1+$1,$8,$9*
0 Add four rect primitives between the rounded corners*
20,1,$1+$1,$2,$3,$4,$5,0*
20,1,$1+$1,$4,$5,$6,$7,0*
20,1,$1+$1,$6,$7,$8,$9,0*
20,1,$1+$1,$8,$9,$2,$3,0*%
G04 Aperture macros list end*
%ADD10R,1.600000X1.600000*%
%ADD11C,1.600000*%
%ADD12C,2.000000*%
%ADD13RoundRect,0.250001X-1.549999X0.799999X-1.549999X-0.799999X1.549999X-0.799999X1.549999X0.799999X0*%
%ADD14O,3.600000X2.100000*%
%ADD15C,0.800000*%
%ADD16C,7.400000*%
%ADD17O,1.200000X2.200000*%
%ADD18O,2.200000X1.200000*%
%ADD19C,1.440000*%
%ADD20RoundRect,0.250000X-1.550000X0.650000X-1.550000X-0.650000X1.550000X-0.650000X1.550000X0.650000X0*%
%ADD21O,3.600000X1.800000*%
%ADD22R,1.700000X1.700000*%
%ADD23O,1.700000X1.700000*%
%ADD24C,4.600000*%
%ADD25C,1.800000*%
%ADD26RoundRect,0.250000X1.550000X-0.650000X1.550000X0.650000X-1.550000X0.650000X-1.550000X-0.650000X0*%
G04 APERTURE END LIST*
D10*
%TO.C,PS1*%
X57320000Y-116390000D03*
D11*
X80180000Y-113850000D03*
X80180000Y-98610000D03*
X57320000Y-98610000D03*
%TD*%
D12*
%TO.C,TP5*%
X71130000Y-87300000D03*
X73670000Y-87300000D03*
%TD*%
%TO.C,TP6*%
X61850000Y-79250000D03*
X61850000Y-76710000D03*
%TD*%
D13*
%TO.C,J2*%
X46500000Y-88880000D03*
D14*
X46500000Y-96500000D03*
X46500000Y-104120000D03*
%TD*%
D15*
%TO.C,H4*%
X46462221Y-113537779D03*
X46462221Y-117462221D03*
X41725000Y-115500000D03*
X42537779Y-113537779D03*
D16*
X44500000Y-115500000D03*
D15*
X44500000Y-118275000D03*
X44500000Y-112725000D03*
X47275000Y-115500000D03*
X42537779Y-117462221D03*
%TD*%
D17*
%TO.C,J3*%
X70300000Y-54500000D03*
D18*
X65300000Y-49500000D03*
D17*
X60300000Y-54500000D03*
%TD*%
D12*
%TO.C,TP4*%
X73670000Y-82700000D03*
X71130000Y-82700000D03*
%TD*%
D19*
%TO.C,RV3*%
X139335000Y-60510000D03*
X136795000Y-63050000D03*
X139335000Y-65590000D03*
%TD*%
%TO.C,RV1*%
X95660000Y-63065000D03*
X98200000Y-65605000D03*
X100740000Y-63065000D03*
%TD*%
D15*
%TO.C,H2*%
X138537779Y-51462221D03*
X140500000Y-52275000D03*
D16*
X140500000Y-49500000D03*
D15*
X142462221Y-51462221D03*
X143275000Y-49500000D03*
X138537779Y-47537779D03*
X137725000Y-49500000D03*
X142462221Y-47537779D03*
X140500000Y-46725000D03*
%TD*%
D12*
%TO.C,TP2*%
X41830000Y-78500000D03*
X44370000Y-78500000D03*
%TD*%
D20*
%TO.C,J4*%
X44782500Y-64495000D03*
D21*
X44782500Y-68305000D03*
X44782500Y-72115000D03*
%TD*%
D22*
%TO.C,JP1*%
X98000000Y-94320000D03*
D23*
X98000000Y-96860000D03*
X98000000Y-99400000D03*
%TD*%
D15*
%TO.C,H3*%
X140500000Y-112725000D03*
X138537779Y-113537779D03*
X140500000Y-118275000D03*
D16*
X140500000Y-115500000D03*
D15*
X138537779Y-117462221D03*
X137725000Y-115500000D03*
X143275000Y-115500000D03*
X142462221Y-117462221D03*
X142462221Y-113537779D03*
%TD*%
%TO.C,H1*%
X46462221Y-51462221D03*
X42537779Y-51462221D03*
X44500000Y-46725000D03*
X41725000Y-49500000D03*
X44500000Y-52275000D03*
X46462221Y-47537779D03*
X42537779Y-47537779D03*
X47275000Y-49500000D03*
D16*
X44500000Y-49500000D03*
%TD*%
D24*
%TO.C,RV2*%
X86825000Y-51950000D03*
X96825000Y-51950000D03*
D25*
X94325000Y-48650000D03*
X91825000Y-48650000D03*
X89325000Y-48650000D03*
%TD*%
D12*
%TO.C,TP3*%
X105600000Y-111850000D03*
X108140000Y-111850000D03*
%TD*%
D26*
%TO.C,J1*%
X140567500Y-105350000D03*
D21*
X140567500Y-101540000D03*
%TD*%
D12*
%TO.C,TP1*%
X124870000Y-116300000D03*
X122330000Y-116300000D03*
%TD*%
M02*
