%TF.GenerationSoftware,KiCad,Pcbnew,6.0.8-f2edbf62ab~116~ubuntu20.04.1*%
%TF.CreationDate,2022-10-07T00:48:49-04:00*%
%TF.ProjectId,SSTC_Control_Board,53535443-5f43-46f6-9e74-726f6c5f426f,rev?*%
%TF.SameCoordinates,Original*%
%TF.FileFunction,Legend,Top*%
%TF.FilePolarity,Positive*%
%FSLAX46Y46*%
G04 Gerber Fmt 4.6, Leading zero omitted, Abs format (unit mm)*
G04 Created by KiCad (PCBNEW 6.0.8-f2edbf62ab~116~ubuntu20.04.1) date 2022-10-07 00:48:49*
%MOMM*%
%LPD*%
G01*
G04 APERTURE LIST*
%ADD10C,0.200000*%
%ADD11C,0.150000*%
%ADD12C,0.250000*%
%ADD13C,0.120000*%
G04 APERTURE END LIST*
D10*
X87892142Y-117683333D02*
X87963571Y-117497619D01*
X87963571Y-117188095D01*
X87892142Y-117064285D01*
X87820714Y-117002380D01*
X87677857Y-116940476D01*
X87535000Y-116940476D01*
X87392142Y-117002380D01*
X87320714Y-117064285D01*
X87249285Y-117188095D01*
X87177857Y-117435714D01*
X87106428Y-117559523D01*
X87035000Y-117621428D01*
X86892142Y-117683333D01*
X86749285Y-117683333D01*
X86606428Y-117621428D01*
X86535000Y-117559523D01*
X86463571Y-117435714D01*
X86463571Y-117126190D01*
X86535000Y-116940476D01*
X87892142Y-116445238D02*
X87963571Y-116259523D01*
X87963571Y-115950000D01*
X87892142Y-115826190D01*
X87820714Y-115764285D01*
X87677857Y-115702380D01*
X87535000Y-115702380D01*
X87392142Y-115764285D01*
X87320714Y-115826190D01*
X87249285Y-115950000D01*
X87177857Y-116197619D01*
X87106428Y-116321428D01*
X87035000Y-116383333D01*
X86892142Y-116445238D01*
X86749285Y-116445238D01*
X86606428Y-116383333D01*
X86535000Y-116321428D01*
X86463571Y-116197619D01*
X86463571Y-115888095D01*
X86535000Y-115702380D01*
X86463571Y-115330952D02*
X86463571Y-114588095D01*
X87963571Y-114959523D02*
X86463571Y-114959523D01*
X87820714Y-113411904D02*
X87892142Y-113473809D01*
X87963571Y-113659523D01*
X87963571Y-113783333D01*
X87892142Y-113969047D01*
X87749285Y-114092857D01*
X87606428Y-114154761D01*
X87320714Y-114216666D01*
X87106428Y-114216666D01*
X86820714Y-114154761D01*
X86677857Y-114092857D01*
X86535000Y-113969047D01*
X86463571Y-113783333D01*
X86463571Y-113659523D01*
X86535000Y-113473809D01*
X86606428Y-113411904D01*
X87820714Y-111121428D02*
X87892142Y-111183333D01*
X87963571Y-111369047D01*
X87963571Y-111492857D01*
X87892142Y-111678571D01*
X87749285Y-111802380D01*
X87606428Y-111864285D01*
X87320714Y-111926190D01*
X87106428Y-111926190D01*
X86820714Y-111864285D01*
X86677857Y-111802380D01*
X86535000Y-111678571D01*
X86463571Y-111492857D01*
X86463571Y-111369047D01*
X86535000Y-111183333D01*
X86606428Y-111121428D01*
X86463571Y-110316666D02*
X86463571Y-110069047D01*
X86535000Y-109945238D01*
X86677857Y-109821428D01*
X86963571Y-109759523D01*
X87463571Y-109759523D01*
X87749285Y-109821428D01*
X87892142Y-109945238D01*
X87963571Y-110069047D01*
X87963571Y-110316666D01*
X87892142Y-110440476D01*
X87749285Y-110564285D01*
X87463571Y-110626190D01*
X86963571Y-110626190D01*
X86677857Y-110564285D01*
X86535000Y-110440476D01*
X86463571Y-110316666D01*
X87963571Y-109202380D02*
X86463571Y-109202380D01*
X87963571Y-108459523D01*
X86463571Y-108459523D01*
X86463571Y-108026190D02*
X86463571Y-107283333D01*
X87963571Y-107654761D02*
X86463571Y-107654761D01*
X87963571Y-106107142D02*
X87249285Y-106540476D01*
X87963571Y-106850000D02*
X86463571Y-106850000D01*
X86463571Y-106354761D01*
X86535000Y-106230952D01*
X86606428Y-106169047D01*
X86749285Y-106107142D01*
X86963571Y-106107142D01*
X87106428Y-106169047D01*
X87177857Y-106230952D01*
X87249285Y-106354761D01*
X87249285Y-106850000D01*
X86463571Y-105302380D02*
X86463571Y-105054761D01*
X86535000Y-104930952D01*
X86677857Y-104807142D01*
X86963571Y-104745238D01*
X87463571Y-104745238D01*
X87749285Y-104807142D01*
X87892142Y-104930952D01*
X87963571Y-105054761D01*
X87963571Y-105302380D01*
X87892142Y-105426190D01*
X87749285Y-105550000D01*
X87463571Y-105611904D01*
X86963571Y-105611904D01*
X86677857Y-105550000D01*
X86535000Y-105426190D01*
X86463571Y-105302380D01*
X87963571Y-103569047D02*
X87963571Y-104188095D01*
X86463571Y-104188095D01*
X87177857Y-101711904D02*
X87249285Y-101526190D01*
X87320714Y-101464285D01*
X87463571Y-101402380D01*
X87677857Y-101402380D01*
X87820714Y-101464285D01*
X87892142Y-101526190D01*
X87963571Y-101650000D01*
X87963571Y-102145238D01*
X86463571Y-102145238D01*
X86463571Y-101711904D01*
X86535000Y-101588095D01*
X86606428Y-101526190D01*
X86749285Y-101464285D01*
X86892142Y-101464285D01*
X87035000Y-101526190D01*
X87106428Y-101588095D01*
X87177857Y-101711904D01*
X87177857Y-102145238D01*
X86463571Y-100597619D02*
X86463571Y-100350000D01*
X86535000Y-100226190D01*
X86677857Y-100102380D01*
X86963571Y-100040476D01*
X87463571Y-100040476D01*
X87749285Y-100102380D01*
X87892142Y-100226190D01*
X87963571Y-100350000D01*
X87963571Y-100597619D01*
X87892142Y-100721428D01*
X87749285Y-100845238D01*
X87463571Y-100907142D01*
X86963571Y-100907142D01*
X86677857Y-100845238D01*
X86535000Y-100721428D01*
X86463571Y-100597619D01*
X87535000Y-99545238D02*
X87535000Y-98926190D01*
X87963571Y-99669047D02*
X86463571Y-99235714D01*
X87963571Y-98802380D01*
X87963571Y-97626190D02*
X87249285Y-98059523D01*
X87963571Y-98369047D02*
X86463571Y-98369047D01*
X86463571Y-97873809D01*
X86535000Y-97750000D01*
X86606428Y-97688095D01*
X86749285Y-97626190D01*
X86963571Y-97626190D01*
X87106428Y-97688095D01*
X87177857Y-97750000D01*
X87249285Y-97873809D01*
X87249285Y-98369047D01*
X87963571Y-97069047D02*
X86463571Y-97069047D01*
X86463571Y-96759523D01*
X86535000Y-96573809D01*
X86677857Y-96450000D01*
X86820714Y-96388095D01*
X87106428Y-96326190D01*
X87320714Y-96326190D01*
X87606428Y-96388095D01*
X87749285Y-96450000D01*
X87892142Y-96573809D01*
X87963571Y-96759523D01*
X87963571Y-97069047D01*
X87963571Y-94035714D02*
X87249285Y-94469047D01*
X87963571Y-94778571D02*
X86463571Y-94778571D01*
X86463571Y-94283333D01*
X86535000Y-94159523D01*
X86606428Y-94097619D01*
X86749285Y-94035714D01*
X86963571Y-94035714D01*
X87106428Y-94097619D01*
X87177857Y-94159523D01*
X87249285Y-94283333D01*
X87249285Y-94778571D01*
X87177857Y-93478571D02*
X87177857Y-93045238D01*
X87963571Y-92859523D02*
X87963571Y-93478571D01*
X86463571Y-93478571D01*
X86463571Y-92859523D01*
X86463571Y-92488095D02*
X87963571Y-92054761D01*
X86463571Y-91621428D01*
X87963571Y-89516666D02*
X87963571Y-90259523D01*
X87963571Y-89888095D02*
X86463571Y-89888095D01*
X86677857Y-90011904D01*
X86820714Y-90135714D01*
X86892142Y-90259523D01*
X90950000Y-116847619D02*
X90878571Y-116909523D01*
X90664285Y-117033333D01*
X90521428Y-117095238D01*
X90307142Y-117157142D01*
X89950000Y-117219047D01*
X89664285Y-117219047D01*
X89307142Y-117157142D01*
X89092857Y-117095238D01*
X88950000Y-117033333D01*
X88735714Y-116909523D01*
X88664285Y-116847619D01*
X90235714Y-115609523D02*
X90307142Y-115671428D01*
X90378571Y-115857142D01*
X90378571Y-115980952D01*
X90307142Y-116166666D01*
X90164285Y-116290476D01*
X90021428Y-116352380D01*
X89735714Y-116414285D01*
X89521428Y-116414285D01*
X89235714Y-116352380D01*
X89092857Y-116290476D01*
X88950000Y-116166666D01*
X88878571Y-115980952D01*
X88878571Y-115857142D01*
X88950000Y-115671428D01*
X89021428Y-115609523D01*
X90950000Y-115176190D02*
X90878571Y-115114285D01*
X90664285Y-114990476D01*
X90521428Y-114928571D01*
X90307142Y-114866666D01*
X89950000Y-114804761D01*
X89664285Y-114804761D01*
X89307142Y-114866666D01*
X89092857Y-114928571D01*
X88950000Y-114990476D01*
X88735714Y-115114285D01*
X88664285Y-115176190D01*
X89021428Y-113257142D02*
X88950000Y-113195238D01*
X88878571Y-113071428D01*
X88878571Y-112761904D01*
X88950000Y-112638095D01*
X89021428Y-112576190D01*
X89164285Y-112514285D01*
X89307142Y-112514285D01*
X89521428Y-112576190D01*
X90378571Y-113319047D01*
X90378571Y-112514285D01*
X88878571Y-111709523D02*
X88878571Y-111585714D01*
X88950000Y-111461904D01*
X89021428Y-111400000D01*
X89164285Y-111338095D01*
X89450000Y-111276190D01*
X89807142Y-111276190D01*
X90092857Y-111338095D01*
X90235714Y-111400000D01*
X90307142Y-111461904D01*
X90378571Y-111585714D01*
X90378571Y-111709523D01*
X90307142Y-111833333D01*
X90235714Y-111895238D01*
X90092857Y-111957142D01*
X89807142Y-112019047D01*
X89450000Y-112019047D01*
X89164285Y-111957142D01*
X89021428Y-111895238D01*
X88950000Y-111833333D01*
X88878571Y-111709523D01*
X89021428Y-110780952D02*
X88950000Y-110719047D01*
X88878571Y-110595238D01*
X88878571Y-110285714D01*
X88950000Y-110161904D01*
X89021428Y-110100000D01*
X89164285Y-110038095D01*
X89307142Y-110038095D01*
X89521428Y-110100000D01*
X90378571Y-110842857D01*
X90378571Y-110038095D01*
X89021428Y-109542857D02*
X88950000Y-109480952D01*
X88878571Y-109357142D01*
X88878571Y-109047619D01*
X88950000Y-108923809D01*
X89021428Y-108861904D01*
X89164285Y-108800000D01*
X89307142Y-108800000D01*
X89521428Y-108861904D01*
X90378571Y-109604761D01*
X90378571Y-108800000D01*
X89950000Y-107314285D02*
X89950000Y-106695238D01*
X90378571Y-107438095D02*
X88878571Y-107004761D01*
X90378571Y-106571428D01*
X90378571Y-106138095D02*
X88878571Y-106138095D01*
X88878571Y-105828571D01*
X88950000Y-105642857D01*
X89092857Y-105519047D01*
X89235714Y-105457142D01*
X89521428Y-105395238D01*
X89735714Y-105395238D01*
X90021428Y-105457142D01*
X90164285Y-105519047D01*
X90307142Y-105642857D01*
X90378571Y-105828571D01*
X90378571Y-106138095D01*
X89950000Y-104900000D02*
X89950000Y-104280952D01*
X90378571Y-105023809D02*
X88878571Y-104590476D01*
X90378571Y-104157142D01*
X90378571Y-103723809D02*
X88878571Y-103723809D01*
X89950000Y-103290476D01*
X88878571Y-102857142D01*
X90378571Y-102857142D01*
X90235714Y-100504761D02*
X90307142Y-100566666D01*
X90378571Y-100752380D01*
X90378571Y-100876190D01*
X90307142Y-101061904D01*
X90164285Y-101185714D01*
X90021428Y-101247619D01*
X89735714Y-101309523D01*
X89521428Y-101309523D01*
X89235714Y-101247619D01*
X89092857Y-101185714D01*
X88950000Y-101061904D01*
X88878571Y-100876190D01*
X88878571Y-100752380D01*
X88950000Y-100566666D01*
X89021428Y-100504761D01*
X88878571Y-99700000D02*
X88878571Y-99452380D01*
X88950000Y-99328571D01*
X89092857Y-99204761D01*
X89378571Y-99142857D01*
X89878571Y-99142857D01*
X90164285Y-99204761D01*
X90307142Y-99328571D01*
X90378571Y-99452380D01*
X90378571Y-99700000D01*
X90307142Y-99823809D01*
X90164285Y-99947619D01*
X89878571Y-100009523D01*
X89378571Y-100009523D01*
X89092857Y-99947619D01*
X88950000Y-99823809D01*
X88878571Y-99700000D01*
X90378571Y-97842857D02*
X89664285Y-98276190D01*
X90378571Y-98585714D02*
X88878571Y-98585714D01*
X88878571Y-98090476D01*
X88950000Y-97966666D01*
X89021428Y-97904761D01*
X89164285Y-97842857D01*
X89378571Y-97842857D01*
X89521428Y-97904761D01*
X89592857Y-97966666D01*
X89664285Y-98090476D01*
X89664285Y-98585714D01*
X90378571Y-97285714D02*
X88878571Y-97285714D01*
X88878571Y-96976190D01*
X88950000Y-96790476D01*
X89092857Y-96666666D01*
X89235714Y-96604761D01*
X89521428Y-96542857D01*
X89735714Y-96542857D01*
X90021428Y-96604761D01*
X90164285Y-96666666D01*
X90307142Y-96790476D01*
X90378571Y-96976190D01*
X90378571Y-97285714D01*
X90378571Y-95985714D02*
X88878571Y-95985714D01*
X90378571Y-95366666D02*
X88878571Y-95366666D01*
X90378571Y-94623809D01*
X88878571Y-94623809D01*
X88950000Y-93323809D02*
X88878571Y-93447619D01*
X88878571Y-93633333D01*
X88950000Y-93819047D01*
X89092857Y-93942857D01*
X89235714Y-94004761D01*
X89521428Y-94066666D01*
X89735714Y-94066666D01*
X90021428Y-94004761D01*
X90164285Y-93942857D01*
X90307142Y-93819047D01*
X90378571Y-93633333D01*
X90378571Y-93509523D01*
X90307142Y-93323809D01*
X90235714Y-93261904D01*
X89735714Y-93261904D01*
X89735714Y-93509523D01*
X90378571Y-92085714D02*
X90378571Y-92704761D01*
X88878571Y-92704761D01*
X89592857Y-91652380D02*
X89592857Y-91219047D01*
X90378571Y-91033333D02*
X90378571Y-91652380D01*
X88878571Y-91652380D01*
X88878571Y-91033333D01*
X89664285Y-90228571D02*
X90378571Y-90228571D01*
X88878571Y-90661904D02*
X89664285Y-90228571D01*
X88878571Y-89795238D01*
X91793571Y-112792857D02*
X92793571Y-112545238D01*
X92079285Y-112297619D01*
X92793571Y-112050000D01*
X91793571Y-111802380D01*
X91793571Y-111430952D02*
X92793571Y-111183333D01*
X92079285Y-110935714D01*
X92793571Y-110688095D01*
X91793571Y-110440476D01*
X91793571Y-110069047D02*
X92793571Y-109821428D01*
X92079285Y-109573809D01*
X92793571Y-109326190D01*
X91793571Y-109078571D01*
X92650714Y-108583333D02*
X92722142Y-108521428D01*
X92793571Y-108583333D01*
X92722142Y-108645238D01*
X92650714Y-108583333D01*
X92793571Y-108583333D01*
X92793571Y-107407142D02*
X92007857Y-107407142D01*
X91865000Y-107469047D01*
X91793571Y-107592857D01*
X91793571Y-107840476D01*
X91865000Y-107964285D01*
X92722142Y-107407142D02*
X92793571Y-107530952D01*
X92793571Y-107840476D01*
X92722142Y-107964285D01*
X92579285Y-108026190D01*
X92436428Y-108026190D01*
X92293571Y-107964285D01*
X92222142Y-107840476D01*
X92222142Y-107530952D01*
X92150714Y-107407142D01*
X92722142Y-106230952D02*
X92793571Y-106354761D01*
X92793571Y-106602380D01*
X92722142Y-106726190D01*
X92650714Y-106788095D01*
X92507857Y-106850000D01*
X92079285Y-106850000D01*
X91936428Y-106788095D01*
X91865000Y-106726190D01*
X91793571Y-106602380D01*
X91793571Y-106354761D01*
X91865000Y-106230952D01*
X92793571Y-105488095D02*
X92722142Y-105611904D01*
X92650714Y-105673809D01*
X92507857Y-105735714D01*
X92079285Y-105735714D01*
X91936428Y-105673809D01*
X91865000Y-105611904D01*
X91793571Y-105488095D01*
X91793571Y-105302380D01*
X91865000Y-105178571D01*
X91936428Y-105116666D01*
X92079285Y-105054761D01*
X92507857Y-105054761D01*
X92650714Y-105116666D01*
X92722142Y-105178571D01*
X92793571Y-105302380D01*
X92793571Y-105488095D01*
X92793571Y-104497619D02*
X91793571Y-104497619D01*
X92079285Y-104497619D02*
X91936428Y-104435714D01*
X91865000Y-104373809D01*
X91793571Y-104250000D01*
X91793571Y-104126190D01*
X92793571Y-103135714D02*
X91293571Y-103135714D01*
X92722142Y-103135714D02*
X92793571Y-103259523D01*
X92793571Y-103507142D01*
X92722142Y-103630952D01*
X92650714Y-103692857D01*
X92507857Y-103754761D01*
X92079285Y-103754761D01*
X91936428Y-103692857D01*
X91865000Y-103630952D01*
X91793571Y-103507142D01*
X91793571Y-103259523D01*
X91865000Y-103135714D01*
X92793571Y-102516666D02*
X91793571Y-102516666D01*
X91293571Y-102516666D02*
X91365000Y-102578571D01*
X91436428Y-102516666D01*
X91365000Y-102454761D01*
X91293571Y-102516666D01*
X91436428Y-102516666D01*
X91793571Y-101897619D02*
X92793571Y-101897619D01*
X91936428Y-101897619D02*
X91865000Y-101835714D01*
X91793571Y-101711904D01*
X91793571Y-101526190D01*
X91865000Y-101402380D01*
X92007857Y-101340476D01*
X92793571Y-101340476D01*
X91793571Y-100164285D02*
X93007857Y-100164285D01*
X93150714Y-100226190D01*
X93222142Y-100288095D01*
X93293571Y-100411904D01*
X93293571Y-100597619D01*
X93222142Y-100721428D01*
X92722142Y-100164285D02*
X92793571Y-100288095D01*
X92793571Y-100535714D01*
X92722142Y-100659523D01*
X92650714Y-100721428D01*
X92507857Y-100783333D01*
X92079285Y-100783333D01*
X91936428Y-100721428D01*
X91865000Y-100659523D01*
X91793571Y-100535714D01*
X91793571Y-100288095D01*
X91865000Y-100164285D01*
X92793571Y-99359523D02*
X92722142Y-99483333D01*
X92579285Y-99545238D01*
X91293571Y-99545238D01*
X92722142Y-98369047D02*
X92793571Y-98492857D01*
X92793571Y-98740476D01*
X92722142Y-98864285D01*
X92579285Y-98926190D01*
X92007857Y-98926190D01*
X91865000Y-98864285D01*
X91793571Y-98740476D01*
X91793571Y-98492857D01*
X91865000Y-98369047D01*
X92007857Y-98307142D01*
X92150714Y-98307142D01*
X92293571Y-98926190D01*
X91793571Y-97873809D02*
X92793571Y-97564285D01*
X91793571Y-97254761D02*
X92793571Y-97564285D01*
X93150714Y-97688095D01*
X93222142Y-97750000D01*
X93293571Y-97873809D01*
X92650714Y-96759523D02*
X92722142Y-96697619D01*
X92793571Y-96759523D01*
X92722142Y-96821428D01*
X92650714Y-96759523D01*
X92793571Y-96759523D01*
X91793571Y-95583333D02*
X92793571Y-95583333D01*
X91793571Y-96140476D02*
X92579285Y-96140476D01*
X92722142Y-96078571D01*
X92793571Y-95954761D01*
X92793571Y-95769047D01*
X92722142Y-95645238D01*
X92650714Y-95583333D01*
X92722142Y-95026190D02*
X92793571Y-94902380D01*
X92793571Y-94654761D01*
X92722142Y-94530952D01*
X92579285Y-94469047D01*
X92507857Y-94469047D01*
X92365000Y-94530952D01*
X92293571Y-94654761D01*
X92293571Y-94840476D01*
X92222142Y-94964285D01*
X92079285Y-95026190D01*
X92007857Y-95026190D01*
X91865000Y-94964285D01*
X91793571Y-94840476D01*
X91793571Y-94654761D01*
X91865000Y-94530952D01*
D11*
X111475000Y-117800000D02*
X111475000Y-114750000D01*
X74875000Y-85700000D02*
X83100000Y-85700000D01*
X52000000Y-80050000D02*
X45550000Y-80050000D01*
X53550000Y-75550000D02*
X53550000Y-80450000D01*
X60650000Y-75550000D02*
X53550000Y-75550000D01*
X120987500Y-110300000D02*
X120987500Y-113350000D01*
X111475000Y-114750000D02*
X121200000Y-114750000D01*
X109212500Y-110300000D02*
X120987500Y-110300000D01*
X74725000Y-81200000D02*
X84250000Y-81200000D01*
X111487500Y-117800000D02*
X121212500Y-117800000D01*
X84250000Y-84250000D02*
X74775000Y-84250000D01*
X45500000Y-77000000D02*
X52000000Y-77000000D01*
X84250000Y-81200000D02*
X84250000Y-84250000D01*
X53550000Y-80450000D02*
X60650000Y-80450000D01*
X52000000Y-77000000D02*
X52000000Y-80050000D01*
X120987500Y-113350000D02*
X109212500Y-113350000D01*
X83100000Y-88750000D02*
X74925000Y-88750000D01*
X83100000Y-85700000D02*
X83100000Y-88750000D01*
D12*
X112016666Y-117209523D02*
X112302380Y-117304761D01*
X112778571Y-117304761D01*
X112969047Y-117209523D01*
X113064285Y-117114285D01*
X113159523Y-116923809D01*
X113159523Y-116733333D01*
X113064285Y-116542857D01*
X112969047Y-116447619D01*
X112778571Y-116352380D01*
X112397619Y-116257142D01*
X112207142Y-116161904D01*
X112111904Y-116066666D01*
X112016666Y-115876190D01*
X112016666Y-115685714D01*
X112111904Y-115495238D01*
X112207142Y-115400000D01*
X112397619Y-115304761D01*
X112873809Y-115304761D01*
X113159523Y-115400000D01*
X114016666Y-117304761D02*
X114016666Y-115304761D01*
X116016666Y-115400000D02*
X115826190Y-115304761D01*
X115540476Y-115304761D01*
X115254761Y-115400000D01*
X115064285Y-115590476D01*
X114969047Y-115780952D01*
X114873809Y-116161904D01*
X114873809Y-116447619D01*
X114969047Y-116828571D01*
X115064285Y-117019047D01*
X115254761Y-117209523D01*
X115540476Y-117304761D01*
X115730952Y-117304761D01*
X116016666Y-117209523D01*
X116111904Y-117114285D01*
X116111904Y-116447619D01*
X115730952Y-116447619D01*
X118492857Y-117304761D02*
X118492857Y-115304761D01*
X119445238Y-117304761D02*
X119445238Y-115304761D01*
X120588095Y-117304761D01*
X120588095Y-115304761D01*
D10*
X49595238Y-87691428D02*
X51595238Y-87691428D01*
X51595238Y-88453333D01*
X51500000Y-88643809D01*
X51404761Y-88739047D01*
X51214285Y-88834285D01*
X50928571Y-88834285D01*
X50738095Y-88739047D01*
X50642857Y-88643809D01*
X50547619Y-88453333D01*
X50547619Y-87691428D01*
X50642857Y-89691428D02*
X50642857Y-90358095D01*
X49595238Y-90643809D02*
X49595238Y-89691428D01*
X51595238Y-89691428D01*
X51595238Y-90643809D01*
D12*
X109864285Y-112854761D02*
X109864285Y-110854761D01*
X110550000Y-110854761D01*
X110721428Y-110950000D01*
X110807142Y-111045238D01*
X110892857Y-111235714D01*
X110892857Y-111521428D01*
X110807142Y-111711904D01*
X110721428Y-111807142D01*
X110550000Y-111902380D01*
X109864285Y-111902380D01*
X112521428Y-112854761D02*
X111664285Y-112854761D01*
X111664285Y-110854761D01*
X113978571Y-112854761D02*
X113121428Y-112854761D01*
X113121428Y-110854761D01*
X116292857Y-110854761D02*
X116635714Y-110854761D01*
X116807142Y-110950000D01*
X116978571Y-111140476D01*
X117064285Y-111521428D01*
X117064285Y-112188095D01*
X116978571Y-112569047D01*
X116807142Y-112759523D01*
X116635714Y-112854761D01*
X116292857Y-112854761D01*
X116121428Y-112759523D01*
X115950000Y-112569047D01*
X115864285Y-112188095D01*
X115864285Y-111521428D01*
X115950000Y-111140476D01*
X116121428Y-110950000D01*
X116292857Y-110854761D01*
X117835714Y-110854761D02*
X117835714Y-112473809D01*
X117921428Y-112664285D01*
X118007142Y-112759523D01*
X118178571Y-112854761D01*
X118521428Y-112854761D01*
X118692857Y-112759523D01*
X118778571Y-112664285D01*
X118864285Y-112473809D01*
X118864285Y-110854761D01*
X119464285Y-110854761D02*
X120492857Y-110854761D01*
X119978571Y-112854761D02*
X119978571Y-110854761D01*
X47176190Y-77700000D02*
X46985714Y-77604761D01*
X46700000Y-77604761D01*
X46414285Y-77700000D01*
X46223809Y-77890476D01*
X46128571Y-78080952D01*
X46033333Y-78461904D01*
X46033333Y-78747619D01*
X46128571Y-79128571D01*
X46223809Y-79319047D01*
X46414285Y-79509523D01*
X46700000Y-79604761D01*
X46890476Y-79604761D01*
X47176190Y-79509523D01*
X47271428Y-79414285D01*
X47271428Y-78747619D01*
X46890476Y-78747619D01*
X48128571Y-79604761D02*
X48128571Y-77604761D01*
X49271428Y-79604761D01*
X49271428Y-77604761D01*
X50223809Y-79604761D02*
X50223809Y-77604761D01*
X50700000Y-77604761D01*
X50985714Y-77700000D01*
X51176190Y-77890476D01*
X51271428Y-78080952D01*
X51366666Y-78461904D01*
X51366666Y-78747619D01*
X51271428Y-79128571D01*
X51176190Y-79319047D01*
X50985714Y-79509523D01*
X50700000Y-79604761D01*
X50223809Y-79604761D01*
D10*
X49595238Y-96048571D02*
X51595238Y-96048571D01*
X49595238Y-97191428D01*
X51595238Y-97191428D01*
X47895238Y-68769047D02*
X47895238Y-67816666D01*
X49895238Y-67816666D01*
X140057142Y-108600000D02*
X139914285Y-108528571D01*
X139700000Y-108528571D01*
X139485714Y-108600000D01*
X139342857Y-108742857D01*
X139271428Y-108885714D01*
X139200000Y-109171428D01*
X139200000Y-109385714D01*
X139271428Y-109671428D01*
X139342857Y-109814285D01*
X139485714Y-109957142D01*
X139700000Y-110028571D01*
X139842857Y-110028571D01*
X140057142Y-109957142D01*
X140128571Y-109885714D01*
X140128571Y-109385714D01*
X139842857Y-109385714D01*
X140771428Y-110028571D02*
X140771428Y-108528571D01*
X141628571Y-110028571D01*
X141628571Y-108528571D01*
X142342857Y-110028571D02*
X142342857Y-108528571D01*
X142700000Y-108528571D01*
X142914285Y-108600000D01*
X143057142Y-108742857D01*
X143128571Y-108885714D01*
X143200000Y-109171428D01*
X143200000Y-109385714D01*
X143128571Y-109671428D01*
X143057142Y-109814285D01*
X142914285Y-109957142D01*
X142700000Y-110028571D01*
X142342857Y-110028571D01*
X49595238Y-104739047D02*
X49595238Y-103786666D01*
X51595238Y-103786666D01*
D12*
X54290476Y-78904761D02*
X54290476Y-76904761D01*
X55052380Y-76904761D01*
X55242857Y-77000000D01*
X55338095Y-77095238D01*
X55433333Y-77285714D01*
X55433333Y-77571428D01*
X55338095Y-77761904D01*
X55242857Y-77857142D01*
X55052380Y-77952380D01*
X54290476Y-77952380D01*
X56100000Y-76904761D02*
X56576190Y-78904761D01*
X56957142Y-77476190D01*
X57338095Y-78904761D01*
X57814285Y-76904761D01*
X58576190Y-78904761D02*
X58576190Y-76904761D01*
X59242857Y-78333333D01*
X59909523Y-76904761D01*
X59909523Y-78904761D01*
D10*
X139492857Y-98307142D02*
X139707142Y-98378571D01*
X140064285Y-98378571D01*
X140207142Y-98307142D01*
X140278571Y-98235714D01*
X140350000Y-98092857D01*
X140350000Y-97950000D01*
X140278571Y-97807142D01*
X140207142Y-97735714D01*
X140064285Y-97664285D01*
X139778571Y-97592857D01*
X139635714Y-97521428D01*
X139564285Y-97450000D01*
X139492857Y-97307142D01*
X139492857Y-97164285D01*
X139564285Y-97021428D01*
X139635714Y-96950000D01*
X139778571Y-96878571D01*
X140135714Y-96878571D01*
X140350000Y-96950000D01*
X140992857Y-97592857D02*
X141492857Y-97592857D01*
X141707142Y-98378571D02*
X140992857Y-98378571D01*
X140992857Y-96878571D01*
X141707142Y-96878571D01*
X143207142Y-98235714D02*
X143135714Y-98307142D01*
X142921428Y-98378571D01*
X142778571Y-98378571D01*
X142564285Y-98307142D01*
X142421428Y-98164285D01*
X142350000Y-98021428D01*
X142278571Y-97735714D01*
X142278571Y-97521428D01*
X142350000Y-97235714D01*
X142421428Y-97092857D01*
X142564285Y-96950000D01*
X142778571Y-96878571D01*
X142921428Y-96878571D01*
X143135714Y-96950000D01*
X143207142Y-97021428D01*
D12*
X143254761Y-84271428D02*
X141254761Y-84271428D01*
X141254761Y-83623809D01*
X141350000Y-83461904D01*
X141445238Y-83380952D01*
X141635714Y-83300000D01*
X141921428Y-83300000D01*
X142111904Y-83380952D01*
X142207142Y-83461904D01*
X142302380Y-83623809D01*
X142302380Y-84271428D01*
X143254761Y-82571428D02*
X141254761Y-82571428D01*
X142207142Y-82571428D02*
X142207142Y-81600000D01*
X143254761Y-81600000D02*
X141254761Y-81600000D01*
X142683333Y-80871428D02*
X142683333Y-80061904D01*
X143254761Y-81033333D02*
X141254761Y-80466666D01*
X143254761Y-79900000D01*
X143159523Y-79414285D02*
X143254761Y-79171428D01*
X143254761Y-78766666D01*
X143159523Y-78604761D01*
X143064285Y-78523809D01*
X142873809Y-78442857D01*
X142683333Y-78442857D01*
X142492857Y-78523809D01*
X142397619Y-78604761D01*
X142302380Y-78766666D01*
X142207142Y-79090476D01*
X142111904Y-79252380D01*
X142016666Y-79333333D01*
X141826190Y-79414285D01*
X141635714Y-79414285D01*
X141445238Y-79333333D01*
X141350000Y-79252380D01*
X141254761Y-79090476D01*
X141254761Y-78685714D01*
X141350000Y-78442857D01*
X142207142Y-77714285D02*
X142207142Y-77147619D01*
X143254761Y-76904761D02*
X143254761Y-77714285D01*
X141254761Y-77714285D01*
X141254761Y-76904761D01*
X143159523Y-74961904D02*
X143254761Y-74719047D01*
X143254761Y-74314285D01*
X143159523Y-74152380D01*
X143064285Y-74071428D01*
X142873809Y-73990476D01*
X142683333Y-73990476D01*
X142492857Y-74071428D01*
X142397619Y-74152380D01*
X142302380Y-74314285D01*
X142207142Y-74638095D01*
X142111904Y-74800000D01*
X142016666Y-74880952D01*
X141826190Y-74961904D01*
X141635714Y-74961904D01*
X141445238Y-74880952D01*
X141350000Y-74800000D01*
X141254761Y-74638095D01*
X141254761Y-74233333D01*
X141350000Y-73990476D01*
X143254761Y-73261904D02*
X141254761Y-73261904D01*
X142207142Y-73261904D02*
X142207142Y-72290476D01*
X143254761Y-72290476D02*
X141254761Y-72290476D01*
X143254761Y-71480952D02*
X141254761Y-71480952D01*
X142207142Y-70104761D02*
X142207142Y-70671428D01*
X143254761Y-70671428D02*
X141254761Y-70671428D01*
X141254761Y-69861904D01*
X141254761Y-69457142D02*
X141254761Y-68485714D01*
X143254761Y-68971428D02*
X141254761Y-68971428D01*
D10*
X49700000Y-61576190D02*
X49795238Y-61385714D01*
X49795238Y-61100000D01*
X49700000Y-60814285D01*
X49509523Y-60623809D01*
X49319047Y-60528571D01*
X48938095Y-60433333D01*
X48652380Y-60433333D01*
X48271428Y-60528571D01*
X48080952Y-60623809D01*
X47890476Y-60814285D01*
X47795238Y-61100000D01*
X47795238Y-61290476D01*
X47890476Y-61576190D01*
X47985714Y-61671428D01*
X48652380Y-61671428D01*
X48652380Y-61290476D01*
X47795238Y-62528571D02*
X49795238Y-62528571D01*
X47795238Y-63671428D01*
X49795238Y-63671428D01*
X47795238Y-64623809D02*
X49795238Y-64623809D01*
X49795238Y-65100000D01*
X49700000Y-65385714D01*
X49509523Y-65576190D01*
X49319047Y-65671428D01*
X48938095Y-65766666D01*
X48652380Y-65766666D01*
X48271428Y-65671428D01*
X48080952Y-65576190D01*
X47890476Y-65385714D01*
X47795238Y-65100000D01*
X47795238Y-64623809D01*
D12*
X93252380Y-57654761D02*
X92685714Y-56702380D01*
X92280952Y-57654761D02*
X92280952Y-55654761D01*
X92928571Y-55654761D01*
X93090476Y-55750000D01*
X93171428Y-55845238D01*
X93252380Y-56035714D01*
X93252380Y-56321428D01*
X93171428Y-56511904D01*
X93090476Y-56607142D01*
X92928571Y-56702380D01*
X92280952Y-56702380D01*
X93900000Y-57083333D02*
X94709523Y-57083333D01*
X93738095Y-57654761D02*
X94304761Y-55654761D01*
X94871428Y-57654761D01*
X95438095Y-57654761D02*
X95438095Y-55654761D01*
X96004761Y-57083333D01*
X96571428Y-55654761D01*
X96571428Y-57654761D01*
X97380952Y-57654761D02*
X97380952Y-55654761D01*
X98028571Y-55654761D01*
X98190476Y-55750000D01*
X98271428Y-55845238D01*
X98352380Y-56035714D01*
X98352380Y-56321428D01*
X98271428Y-56511904D01*
X98190476Y-56607142D01*
X98028571Y-56702380D01*
X97380952Y-56702380D01*
X100295238Y-57083333D02*
X101104761Y-57083333D01*
X100133333Y-57654761D02*
X100700000Y-55654761D01*
X101266666Y-57654761D01*
X101833333Y-57654761D02*
X101833333Y-55654761D01*
X102238095Y-55654761D01*
X102480952Y-55750000D01*
X102642857Y-55940476D01*
X102723809Y-56130952D01*
X102804761Y-56511904D01*
X102804761Y-56797619D01*
X102723809Y-57178571D01*
X102642857Y-57369047D01*
X102480952Y-57559523D01*
X102238095Y-57654761D01*
X101833333Y-57654761D01*
X104019047Y-55654761D02*
X104019047Y-57083333D01*
X103938095Y-57369047D01*
X103776190Y-57559523D01*
X103533333Y-57654761D01*
X103371428Y-57654761D01*
X76569047Y-88254761D02*
X75902380Y-87302380D01*
X75426190Y-88254761D02*
X75426190Y-86254761D01*
X76188095Y-86254761D01*
X76378571Y-86350000D01*
X76473809Y-86445238D01*
X76569047Y-86635714D01*
X76569047Y-86921428D01*
X76473809Y-87111904D01*
X76378571Y-87207142D01*
X76188095Y-87302380D01*
X75426190Y-87302380D01*
X77330952Y-87683333D02*
X78283333Y-87683333D01*
X77140476Y-88254761D02*
X77807142Y-86254761D01*
X78473809Y-88254761D01*
X79140476Y-88254761D02*
X79140476Y-86254761D01*
X79807142Y-87683333D01*
X80473809Y-86254761D01*
X80473809Y-88254761D01*
X81426190Y-88254761D02*
X81426190Y-86254761D01*
X82188095Y-86254761D01*
X82378571Y-86350000D01*
X82473809Y-86445238D01*
X82569047Y-86635714D01*
X82569047Y-86921428D01*
X82473809Y-87111904D01*
X82378571Y-87207142D01*
X82188095Y-87302380D01*
X81426190Y-87302380D01*
D10*
X49704761Y-72671428D02*
X47704761Y-72671428D01*
X48657142Y-72671428D02*
X48657142Y-71528571D01*
X49704761Y-71528571D02*
X47704761Y-71528571D01*
D12*
X75452380Y-83183333D02*
X76404761Y-83183333D01*
X75261904Y-83754761D02*
X75928571Y-81754761D01*
X76595238Y-83754761D01*
X77261904Y-81754761D02*
X77261904Y-83373809D01*
X77357142Y-83564285D01*
X77452380Y-83659523D01*
X77642857Y-83754761D01*
X78023809Y-83754761D01*
X78214285Y-83659523D01*
X78309523Y-83564285D01*
X78404761Y-83373809D01*
X78404761Y-81754761D01*
X79357142Y-83754761D02*
X79357142Y-81754761D01*
X79833333Y-81754761D01*
X80119047Y-81850000D01*
X80309523Y-82040476D01*
X80404761Y-82230952D01*
X80500000Y-82611904D01*
X80500000Y-82897619D01*
X80404761Y-83278571D01*
X80309523Y-83469047D01*
X80119047Y-83659523D01*
X79833333Y-83754761D01*
X79357142Y-83754761D01*
X81357142Y-83754761D02*
X81357142Y-81754761D01*
X82690476Y-81754761D02*
X83071428Y-81754761D01*
X83261904Y-81850000D01*
X83452380Y-82040476D01*
X83547619Y-82421428D01*
X83547619Y-83088095D01*
X83452380Y-83469047D01*
X83261904Y-83659523D01*
X83071428Y-83754761D01*
X82690476Y-83754761D01*
X82500000Y-83659523D01*
X82309523Y-83469047D01*
X82214285Y-83088095D01*
X82214285Y-82421428D01*
X82309523Y-82040476D01*
X82500000Y-81850000D01*
X82690476Y-81754761D01*
D11*
%TO.C,R35*%
X94985714Y-117011904D02*
X94719047Y-116630952D01*
X94528571Y-117011904D02*
X94528571Y-116211904D01*
X94833333Y-116211904D01*
X94909523Y-116250000D01*
X94947619Y-116288095D01*
X94985714Y-116364285D01*
X94985714Y-116478571D01*
X94947619Y-116554761D01*
X94909523Y-116592857D01*
X94833333Y-116630952D01*
X94528571Y-116630952D01*
X95252380Y-116211904D02*
X95747619Y-116211904D01*
X95480952Y-116516666D01*
X95595238Y-116516666D01*
X95671428Y-116554761D01*
X95709523Y-116592857D01*
X95747619Y-116669047D01*
X95747619Y-116859523D01*
X95709523Y-116935714D01*
X95671428Y-116973809D01*
X95595238Y-117011904D01*
X95366666Y-117011904D01*
X95290476Y-116973809D01*
X95252380Y-116935714D01*
X96471428Y-116211904D02*
X96090476Y-116211904D01*
X96052380Y-116592857D01*
X96090476Y-116554761D01*
X96166666Y-116516666D01*
X96357142Y-116516666D01*
X96433333Y-116554761D01*
X96471428Y-116592857D01*
X96509523Y-116669047D01*
X96509523Y-116859523D01*
X96471428Y-116935714D01*
X96433333Y-116973809D01*
X96357142Y-117011904D01*
X96166666Y-117011904D01*
X96090476Y-116973809D01*
X96052380Y-116935714D01*
%TO.C,D5*%
X98759523Y-116791904D02*
X98759523Y-115991904D01*
X98950000Y-115991904D01*
X99064285Y-116030000D01*
X99140476Y-116106190D01*
X99178571Y-116182380D01*
X99216666Y-116334761D01*
X99216666Y-116449047D01*
X99178571Y-116601428D01*
X99140476Y-116677619D01*
X99064285Y-116753809D01*
X98950000Y-116791904D01*
X98759523Y-116791904D01*
X99940476Y-115991904D02*
X99559523Y-115991904D01*
X99521428Y-116372857D01*
X99559523Y-116334761D01*
X99635714Y-116296666D01*
X99826190Y-116296666D01*
X99902380Y-116334761D01*
X99940476Y-116372857D01*
X99978571Y-116449047D01*
X99978571Y-116639523D01*
X99940476Y-116715714D01*
X99902380Y-116753809D01*
X99826190Y-116791904D01*
X99635714Y-116791904D01*
X99559523Y-116753809D01*
X99521428Y-116715714D01*
%TO.C,PS1*%
X67535714Y-95252380D02*
X67535714Y-94252380D01*
X67916666Y-94252380D01*
X68011904Y-94300000D01*
X68059523Y-94347619D01*
X68107142Y-94442857D01*
X68107142Y-94585714D01*
X68059523Y-94680952D01*
X68011904Y-94728571D01*
X67916666Y-94776190D01*
X67535714Y-94776190D01*
X68488095Y-95204761D02*
X68630952Y-95252380D01*
X68869047Y-95252380D01*
X68964285Y-95204761D01*
X69011904Y-95157142D01*
X69059523Y-95061904D01*
X69059523Y-94966666D01*
X69011904Y-94871428D01*
X68964285Y-94823809D01*
X68869047Y-94776190D01*
X68678571Y-94728571D01*
X68583333Y-94680952D01*
X68535714Y-94633333D01*
X68488095Y-94538095D01*
X68488095Y-94442857D01*
X68535714Y-94347619D01*
X68583333Y-94300000D01*
X68678571Y-94252380D01*
X68916666Y-94252380D01*
X69059523Y-94300000D01*
X70011904Y-95252380D02*
X69440476Y-95252380D01*
X69726190Y-95252380D02*
X69726190Y-94252380D01*
X69630952Y-94395238D01*
X69535714Y-94490476D01*
X69440476Y-94538095D01*
%TO.C,D1*%
X137084523Y-100677380D02*
X136234523Y-100677380D01*
X136234523Y-100475000D01*
X136275000Y-100353571D01*
X136355952Y-100272619D01*
X136436904Y-100232142D01*
X136598809Y-100191666D01*
X136720238Y-100191666D01*
X136882142Y-100232142D01*
X136963095Y-100272619D01*
X137044047Y-100353571D01*
X137084523Y-100475000D01*
X137084523Y-100677380D01*
X137084523Y-99382142D02*
X137084523Y-99867857D01*
X137084523Y-99625000D02*
X136234523Y-99625000D01*
X136355952Y-99705952D01*
X136436904Y-99786904D01*
X136477380Y-99867857D01*
%TO.C,U12*%
X91097619Y-69834523D02*
X91097619Y-70522619D01*
X91138095Y-70603571D01*
X91178571Y-70644047D01*
X91259523Y-70684523D01*
X91421428Y-70684523D01*
X91502380Y-70644047D01*
X91542857Y-70603571D01*
X91583333Y-70522619D01*
X91583333Y-69834523D01*
X92433333Y-70684523D02*
X91947619Y-70684523D01*
X92190476Y-70684523D02*
X92190476Y-69834523D01*
X92109523Y-69955952D01*
X92028571Y-70036904D01*
X91947619Y-70077380D01*
X92757142Y-69915476D02*
X92797619Y-69875000D01*
X92878571Y-69834523D01*
X93080952Y-69834523D01*
X93161904Y-69875000D01*
X93202380Y-69915476D01*
X93242857Y-69996428D01*
X93242857Y-70077380D01*
X93202380Y-70198809D01*
X92716666Y-70684523D01*
X93242857Y-70684523D01*
%TO.C,R6*%
X122183333Y-85434523D02*
X121900000Y-85029761D01*
X121697619Y-85434523D02*
X121697619Y-84584523D01*
X122021428Y-84584523D01*
X122102380Y-84625000D01*
X122142857Y-84665476D01*
X122183333Y-84746428D01*
X122183333Y-84867857D01*
X122142857Y-84948809D01*
X122102380Y-84989285D01*
X122021428Y-85029761D01*
X121697619Y-85029761D01*
X122911904Y-84584523D02*
X122750000Y-84584523D01*
X122669047Y-84625000D01*
X122628571Y-84665476D01*
X122547619Y-84786904D01*
X122507142Y-84948809D01*
X122507142Y-85272619D01*
X122547619Y-85353571D01*
X122588095Y-85394047D01*
X122669047Y-85434523D01*
X122830952Y-85434523D01*
X122911904Y-85394047D01*
X122952380Y-85353571D01*
X122992857Y-85272619D01*
X122992857Y-85070238D01*
X122952380Y-84989285D01*
X122911904Y-84948809D01*
X122830952Y-84908333D01*
X122669047Y-84908333D01*
X122588095Y-84948809D01*
X122547619Y-84989285D01*
X122507142Y-85070238D01*
%TO.C,TP5*%
X71157380Y-88934523D02*
X71643095Y-88934523D01*
X71400238Y-89784523D02*
X71400238Y-88934523D01*
X71926428Y-89784523D02*
X71926428Y-88934523D01*
X72250238Y-88934523D01*
X72331190Y-88975000D01*
X72371666Y-89015476D01*
X72412142Y-89096428D01*
X72412142Y-89217857D01*
X72371666Y-89298809D01*
X72331190Y-89339285D01*
X72250238Y-89379761D01*
X71926428Y-89379761D01*
X73181190Y-88934523D02*
X72776428Y-88934523D01*
X72735952Y-89339285D01*
X72776428Y-89298809D01*
X72857380Y-89258333D01*
X73059761Y-89258333D01*
X73140714Y-89298809D01*
X73181190Y-89339285D01*
X73221666Y-89420238D01*
X73221666Y-89622619D01*
X73181190Y-89703571D01*
X73140714Y-89744047D01*
X73059761Y-89784523D01*
X72857380Y-89784523D01*
X72776428Y-89744047D01*
X72735952Y-89703571D01*
%TO.C,C8*%
X123483333Y-75703571D02*
X123442857Y-75744047D01*
X123321428Y-75784523D01*
X123240476Y-75784523D01*
X123119047Y-75744047D01*
X123038095Y-75663095D01*
X122997619Y-75582142D01*
X122957142Y-75420238D01*
X122957142Y-75298809D01*
X122997619Y-75136904D01*
X123038095Y-75055952D01*
X123119047Y-74975000D01*
X123240476Y-74934523D01*
X123321428Y-74934523D01*
X123442857Y-74975000D01*
X123483333Y-75015476D01*
X123969047Y-75298809D02*
X123888095Y-75258333D01*
X123847619Y-75217857D01*
X123807142Y-75136904D01*
X123807142Y-75096428D01*
X123847619Y-75015476D01*
X123888095Y-74975000D01*
X123969047Y-74934523D01*
X124130952Y-74934523D01*
X124211904Y-74975000D01*
X124252380Y-75015476D01*
X124292857Y-75096428D01*
X124292857Y-75136904D01*
X124252380Y-75217857D01*
X124211904Y-75258333D01*
X124130952Y-75298809D01*
X123969047Y-75298809D01*
X123888095Y-75339285D01*
X123847619Y-75379761D01*
X123807142Y-75460714D01*
X123807142Y-75622619D01*
X123847619Y-75703571D01*
X123888095Y-75744047D01*
X123969047Y-75784523D01*
X124130952Y-75784523D01*
X124211904Y-75744047D01*
X124252380Y-75703571D01*
X124292857Y-75622619D01*
X124292857Y-75460714D01*
X124252380Y-75379761D01*
X124211904Y-75339285D01*
X124130952Y-75298809D01*
%TO.C,C28*%
X87178571Y-62026071D02*
X87138095Y-62066547D01*
X87016666Y-62107023D01*
X86935714Y-62107023D01*
X86814285Y-62066547D01*
X86733333Y-61985595D01*
X86692857Y-61904642D01*
X86652380Y-61742738D01*
X86652380Y-61621309D01*
X86692857Y-61459404D01*
X86733333Y-61378452D01*
X86814285Y-61297500D01*
X86935714Y-61257023D01*
X87016666Y-61257023D01*
X87138095Y-61297500D01*
X87178571Y-61337976D01*
X87502380Y-61337976D02*
X87542857Y-61297500D01*
X87623809Y-61257023D01*
X87826190Y-61257023D01*
X87907142Y-61297500D01*
X87947619Y-61337976D01*
X87988095Y-61418928D01*
X87988095Y-61499880D01*
X87947619Y-61621309D01*
X87461904Y-62107023D01*
X87988095Y-62107023D01*
X88473809Y-61621309D02*
X88392857Y-61580833D01*
X88352380Y-61540357D01*
X88311904Y-61459404D01*
X88311904Y-61418928D01*
X88352380Y-61337976D01*
X88392857Y-61297500D01*
X88473809Y-61257023D01*
X88635714Y-61257023D01*
X88716666Y-61297500D01*
X88757142Y-61337976D01*
X88797619Y-61418928D01*
X88797619Y-61459404D01*
X88757142Y-61540357D01*
X88716666Y-61580833D01*
X88635714Y-61621309D01*
X88473809Y-61621309D01*
X88392857Y-61661785D01*
X88352380Y-61702261D01*
X88311904Y-61783214D01*
X88311904Y-61945119D01*
X88352380Y-62026071D01*
X88392857Y-62066547D01*
X88473809Y-62107023D01*
X88635714Y-62107023D01*
X88716666Y-62066547D01*
X88757142Y-62026071D01*
X88797619Y-61945119D01*
X88797619Y-61783214D01*
X88757142Y-61702261D01*
X88716666Y-61661785D01*
X88635714Y-61621309D01*
%TO.C,R23*%
X113353571Y-81284523D02*
X113070238Y-80879761D01*
X112867857Y-81284523D02*
X112867857Y-80434523D01*
X113191666Y-80434523D01*
X113272619Y-80475000D01*
X113313095Y-80515476D01*
X113353571Y-80596428D01*
X113353571Y-80717857D01*
X113313095Y-80798809D01*
X113272619Y-80839285D01*
X113191666Y-80879761D01*
X112867857Y-80879761D01*
X113677380Y-80515476D02*
X113717857Y-80475000D01*
X113798809Y-80434523D01*
X114001190Y-80434523D01*
X114082142Y-80475000D01*
X114122619Y-80515476D01*
X114163095Y-80596428D01*
X114163095Y-80677380D01*
X114122619Y-80798809D01*
X113636904Y-81284523D01*
X114163095Y-81284523D01*
X114446428Y-80434523D02*
X114972619Y-80434523D01*
X114689285Y-80758333D01*
X114810714Y-80758333D01*
X114891666Y-80798809D01*
X114932142Y-80839285D01*
X114972619Y-80920238D01*
X114972619Y-81122619D01*
X114932142Y-81203571D01*
X114891666Y-81244047D01*
X114810714Y-81284523D01*
X114567857Y-81284523D01*
X114486904Y-81244047D01*
X114446428Y-81203571D01*
%TO.C,D8*%
X114010119Y-53034523D02*
X114010119Y-52184523D01*
X114212500Y-52184523D01*
X114333928Y-52225000D01*
X114414880Y-52305952D01*
X114455357Y-52386904D01*
X114495833Y-52548809D01*
X114495833Y-52670238D01*
X114455357Y-52832142D01*
X114414880Y-52913095D01*
X114333928Y-52994047D01*
X114212500Y-53034523D01*
X114010119Y-53034523D01*
X114981547Y-52548809D02*
X114900595Y-52508333D01*
X114860119Y-52467857D01*
X114819642Y-52386904D01*
X114819642Y-52346428D01*
X114860119Y-52265476D01*
X114900595Y-52225000D01*
X114981547Y-52184523D01*
X115143452Y-52184523D01*
X115224404Y-52225000D01*
X115264880Y-52265476D01*
X115305357Y-52346428D01*
X115305357Y-52386904D01*
X115264880Y-52467857D01*
X115224404Y-52508333D01*
X115143452Y-52548809D01*
X114981547Y-52548809D01*
X114900595Y-52589285D01*
X114860119Y-52629761D01*
X114819642Y-52710714D01*
X114819642Y-52872619D01*
X114860119Y-52953571D01*
X114900595Y-52994047D01*
X114981547Y-53034523D01*
X115143452Y-53034523D01*
X115224404Y-52994047D01*
X115264880Y-52953571D01*
X115305357Y-52872619D01*
X115305357Y-52710714D01*
X115264880Y-52629761D01*
X115224404Y-52589285D01*
X115143452Y-52548809D01*
%TO.C,TP6*%
X63584523Y-79052619D02*
X63584523Y-78566904D01*
X64434523Y-78809761D02*
X63584523Y-78809761D01*
X64434523Y-78283571D02*
X63584523Y-78283571D01*
X63584523Y-77959761D01*
X63625000Y-77878809D01*
X63665476Y-77838333D01*
X63746428Y-77797857D01*
X63867857Y-77797857D01*
X63948809Y-77838333D01*
X63989285Y-77878809D01*
X64029761Y-77959761D01*
X64029761Y-78283571D01*
X63584523Y-77069285D02*
X63584523Y-77231190D01*
X63625000Y-77312142D01*
X63665476Y-77352619D01*
X63786904Y-77433571D01*
X63948809Y-77474047D01*
X64272619Y-77474047D01*
X64353571Y-77433571D01*
X64394047Y-77393095D01*
X64434523Y-77312142D01*
X64434523Y-77150238D01*
X64394047Y-77069285D01*
X64353571Y-77028809D01*
X64272619Y-76988333D01*
X64070238Y-76988333D01*
X63989285Y-77028809D01*
X63948809Y-77069285D01*
X63908333Y-77150238D01*
X63908333Y-77312142D01*
X63948809Y-77393095D01*
X63989285Y-77433571D01*
X64070238Y-77474047D01*
%TO.C,C25*%
X55123571Y-58396428D02*
X55164047Y-58436904D01*
X55204523Y-58558333D01*
X55204523Y-58639285D01*
X55164047Y-58760714D01*
X55083095Y-58841666D01*
X55002142Y-58882142D01*
X54840238Y-58922619D01*
X54718809Y-58922619D01*
X54556904Y-58882142D01*
X54475952Y-58841666D01*
X54395000Y-58760714D01*
X54354523Y-58639285D01*
X54354523Y-58558333D01*
X54395000Y-58436904D01*
X54435476Y-58396428D01*
X54435476Y-58072619D02*
X54395000Y-58032142D01*
X54354523Y-57951190D01*
X54354523Y-57748809D01*
X54395000Y-57667857D01*
X54435476Y-57627380D01*
X54516428Y-57586904D01*
X54597380Y-57586904D01*
X54718809Y-57627380D01*
X55204523Y-58113095D01*
X55204523Y-57586904D01*
X54354523Y-56817857D02*
X54354523Y-57222619D01*
X54759285Y-57263095D01*
X54718809Y-57222619D01*
X54678333Y-57141666D01*
X54678333Y-56939285D01*
X54718809Y-56858333D01*
X54759285Y-56817857D01*
X54840238Y-56777380D01*
X55042619Y-56777380D01*
X55123571Y-56817857D01*
X55164047Y-56858333D01*
X55204523Y-56939285D01*
X55204523Y-57141666D01*
X55164047Y-57222619D01*
X55123571Y-57263095D01*
%TO.C,C19*%
X92953571Y-82996428D02*
X92994047Y-83036904D01*
X93034523Y-83158333D01*
X93034523Y-83239285D01*
X92994047Y-83360714D01*
X92913095Y-83441666D01*
X92832142Y-83482142D01*
X92670238Y-83522619D01*
X92548809Y-83522619D01*
X92386904Y-83482142D01*
X92305952Y-83441666D01*
X92225000Y-83360714D01*
X92184523Y-83239285D01*
X92184523Y-83158333D01*
X92225000Y-83036904D01*
X92265476Y-82996428D01*
X93034523Y-82186904D02*
X93034523Y-82672619D01*
X93034523Y-82429761D02*
X92184523Y-82429761D01*
X92305952Y-82510714D01*
X92386904Y-82591666D01*
X92427380Y-82672619D01*
X93034523Y-81782142D02*
X93034523Y-81620238D01*
X92994047Y-81539285D01*
X92953571Y-81498809D01*
X92832142Y-81417857D01*
X92670238Y-81377380D01*
X92346428Y-81377380D01*
X92265476Y-81417857D01*
X92225000Y-81458333D01*
X92184523Y-81539285D01*
X92184523Y-81701190D01*
X92225000Y-81782142D01*
X92265476Y-81822619D01*
X92346428Y-81863095D01*
X92548809Y-81863095D01*
X92629761Y-81822619D01*
X92670238Y-81782142D01*
X92710714Y-81701190D01*
X92710714Y-81539285D01*
X92670238Y-81458333D01*
X92629761Y-81417857D01*
X92548809Y-81377380D01*
%TO.C,C10*%
X115503571Y-70553571D02*
X115463095Y-70594047D01*
X115341666Y-70634523D01*
X115260714Y-70634523D01*
X115139285Y-70594047D01*
X115058333Y-70513095D01*
X115017857Y-70432142D01*
X114977380Y-70270238D01*
X114977380Y-70148809D01*
X115017857Y-69986904D01*
X115058333Y-69905952D01*
X115139285Y-69825000D01*
X115260714Y-69784523D01*
X115341666Y-69784523D01*
X115463095Y-69825000D01*
X115503571Y-69865476D01*
X116313095Y-70634523D02*
X115827380Y-70634523D01*
X116070238Y-70634523D02*
X116070238Y-69784523D01*
X115989285Y-69905952D01*
X115908333Y-69986904D01*
X115827380Y-70027380D01*
X116839285Y-69784523D02*
X116920238Y-69784523D01*
X117001190Y-69825000D01*
X117041666Y-69865476D01*
X117082142Y-69946428D01*
X117122619Y-70108333D01*
X117122619Y-70310714D01*
X117082142Y-70472619D01*
X117041666Y-70553571D01*
X117001190Y-70594047D01*
X116920238Y-70634523D01*
X116839285Y-70634523D01*
X116758333Y-70594047D01*
X116717857Y-70553571D01*
X116677380Y-70472619D01*
X116636904Y-70310714D01*
X116636904Y-70108333D01*
X116677380Y-69946428D01*
X116717857Y-69865476D01*
X116758333Y-69825000D01*
X116839285Y-69784523D01*
%TO.C,C40*%
X132653571Y-118796428D02*
X132694047Y-118836904D01*
X132734523Y-118958333D01*
X132734523Y-119039285D01*
X132694047Y-119160714D01*
X132613095Y-119241666D01*
X132532142Y-119282142D01*
X132370238Y-119322619D01*
X132248809Y-119322619D01*
X132086904Y-119282142D01*
X132005952Y-119241666D01*
X131925000Y-119160714D01*
X131884523Y-119039285D01*
X131884523Y-118958333D01*
X131925000Y-118836904D01*
X131965476Y-118796428D01*
X132167857Y-118067857D02*
X132734523Y-118067857D01*
X131844047Y-118270238D02*
X132451190Y-118472619D01*
X132451190Y-117946428D01*
X131884523Y-117460714D02*
X131884523Y-117379761D01*
X131925000Y-117298809D01*
X131965476Y-117258333D01*
X132046428Y-117217857D01*
X132208333Y-117177380D01*
X132410714Y-117177380D01*
X132572619Y-117217857D01*
X132653571Y-117258333D01*
X132694047Y-117298809D01*
X132734523Y-117379761D01*
X132734523Y-117460714D01*
X132694047Y-117541666D01*
X132653571Y-117582142D01*
X132572619Y-117622619D01*
X132410714Y-117663095D01*
X132208333Y-117663095D01*
X132046428Y-117622619D01*
X131965476Y-117582142D01*
X131925000Y-117541666D01*
X131884523Y-117460714D01*
%TO.C,U16*%
X58322619Y-74284523D02*
X58322619Y-74972619D01*
X58363095Y-75053571D01*
X58403571Y-75094047D01*
X58484523Y-75134523D01*
X58646428Y-75134523D01*
X58727380Y-75094047D01*
X58767857Y-75053571D01*
X58808333Y-74972619D01*
X58808333Y-74284523D01*
X59658333Y-75134523D02*
X59172619Y-75134523D01*
X59415476Y-75134523D02*
X59415476Y-74284523D01*
X59334523Y-74405952D01*
X59253571Y-74486904D01*
X59172619Y-74527380D01*
X60386904Y-74284523D02*
X60225000Y-74284523D01*
X60144047Y-74325000D01*
X60103571Y-74365476D01*
X60022619Y-74486904D01*
X59982142Y-74648809D01*
X59982142Y-74972619D01*
X60022619Y-75053571D01*
X60063095Y-75094047D01*
X60144047Y-75134523D01*
X60305952Y-75134523D01*
X60386904Y-75094047D01*
X60427380Y-75053571D01*
X60467857Y-74972619D01*
X60467857Y-74770238D01*
X60427380Y-74689285D01*
X60386904Y-74648809D01*
X60305952Y-74608333D01*
X60144047Y-74608333D01*
X60063095Y-74648809D01*
X60022619Y-74689285D01*
X59982142Y-74770238D01*
%TO.C,R53*%
X66966071Y-81434523D02*
X66682738Y-81029761D01*
X66480357Y-81434523D02*
X66480357Y-80584523D01*
X66804166Y-80584523D01*
X66885119Y-80625000D01*
X66925595Y-80665476D01*
X66966071Y-80746428D01*
X66966071Y-80867857D01*
X66925595Y-80948809D01*
X66885119Y-80989285D01*
X66804166Y-81029761D01*
X66480357Y-81029761D01*
X67735119Y-80584523D02*
X67330357Y-80584523D01*
X67289880Y-80989285D01*
X67330357Y-80948809D01*
X67411309Y-80908333D01*
X67613690Y-80908333D01*
X67694642Y-80948809D01*
X67735119Y-80989285D01*
X67775595Y-81070238D01*
X67775595Y-81272619D01*
X67735119Y-81353571D01*
X67694642Y-81394047D01*
X67613690Y-81434523D01*
X67411309Y-81434523D01*
X67330357Y-81394047D01*
X67289880Y-81353571D01*
X68058928Y-80584523D02*
X68585119Y-80584523D01*
X68301785Y-80908333D01*
X68423214Y-80908333D01*
X68504166Y-80948809D01*
X68544642Y-80989285D01*
X68585119Y-81070238D01*
X68585119Y-81272619D01*
X68544642Y-81353571D01*
X68504166Y-81394047D01*
X68423214Y-81434523D01*
X68180357Y-81434523D01*
X68099404Y-81394047D01*
X68058928Y-81353571D01*
%TO.C,C39*%
X112393571Y-98978571D02*
X112353095Y-99019047D01*
X112231666Y-99059523D01*
X112150714Y-99059523D01*
X112029285Y-99019047D01*
X111948333Y-98938095D01*
X111907857Y-98857142D01*
X111867380Y-98695238D01*
X111867380Y-98573809D01*
X111907857Y-98411904D01*
X111948333Y-98330952D01*
X112029285Y-98250000D01*
X112150714Y-98209523D01*
X112231666Y-98209523D01*
X112353095Y-98250000D01*
X112393571Y-98290476D01*
X112676904Y-98209523D02*
X113203095Y-98209523D01*
X112919761Y-98533333D01*
X113041190Y-98533333D01*
X113122142Y-98573809D01*
X113162619Y-98614285D01*
X113203095Y-98695238D01*
X113203095Y-98897619D01*
X113162619Y-98978571D01*
X113122142Y-99019047D01*
X113041190Y-99059523D01*
X112798333Y-99059523D01*
X112717380Y-99019047D01*
X112676904Y-98978571D01*
X113607857Y-99059523D02*
X113769761Y-99059523D01*
X113850714Y-99019047D01*
X113891190Y-98978571D01*
X113972142Y-98857142D01*
X114012619Y-98695238D01*
X114012619Y-98371428D01*
X113972142Y-98290476D01*
X113931666Y-98250000D01*
X113850714Y-98209523D01*
X113688809Y-98209523D01*
X113607857Y-98250000D01*
X113567380Y-98290476D01*
X113526904Y-98371428D01*
X113526904Y-98573809D01*
X113567380Y-98654761D01*
X113607857Y-98695238D01*
X113688809Y-98735714D01*
X113850714Y-98735714D01*
X113931666Y-98695238D01*
X113972142Y-98654761D01*
X114012619Y-98573809D01*
%TO.C,R20*%
X106984523Y-82296428D02*
X106579761Y-82579761D01*
X106984523Y-82782142D02*
X106134523Y-82782142D01*
X106134523Y-82458333D01*
X106175000Y-82377380D01*
X106215476Y-82336904D01*
X106296428Y-82296428D01*
X106417857Y-82296428D01*
X106498809Y-82336904D01*
X106539285Y-82377380D01*
X106579761Y-82458333D01*
X106579761Y-82782142D01*
X106215476Y-81972619D02*
X106175000Y-81932142D01*
X106134523Y-81851190D01*
X106134523Y-81648809D01*
X106175000Y-81567857D01*
X106215476Y-81527380D01*
X106296428Y-81486904D01*
X106377380Y-81486904D01*
X106498809Y-81527380D01*
X106984523Y-82013095D01*
X106984523Y-81486904D01*
X106134523Y-80960714D02*
X106134523Y-80879761D01*
X106175000Y-80798809D01*
X106215476Y-80758333D01*
X106296428Y-80717857D01*
X106458333Y-80677380D01*
X106660714Y-80677380D01*
X106822619Y-80717857D01*
X106903571Y-80758333D01*
X106944047Y-80798809D01*
X106984523Y-80879761D01*
X106984523Y-80960714D01*
X106944047Y-81041666D01*
X106903571Y-81082142D01*
X106822619Y-81122619D01*
X106660714Y-81163095D01*
X106458333Y-81163095D01*
X106296428Y-81122619D01*
X106215476Y-81082142D01*
X106175000Y-81041666D01*
X106134523Y-80960714D01*
%TO.C,C31*%
X58603571Y-86071428D02*
X58644047Y-86111904D01*
X58684523Y-86233333D01*
X58684523Y-86314285D01*
X58644047Y-86435714D01*
X58563095Y-86516666D01*
X58482142Y-86557142D01*
X58320238Y-86597619D01*
X58198809Y-86597619D01*
X58036904Y-86557142D01*
X57955952Y-86516666D01*
X57875000Y-86435714D01*
X57834523Y-86314285D01*
X57834523Y-86233333D01*
X57875000Y-86111904D01*
X57915476Y-86071428D01*
X57834523Y-85788095D02*
X57834523Y-85261904D01*
X58158333Y-85545238D01*
X58158333Y-85423809D01*
X58198809Y-85342857D01*
X58239285Y-85302380D01*
X58320238Y-85261904D01*
X58522619Y-85261904D01*
X58603571Y-85302380D01*
X58644047Y-85342857D01*
X58684523Y-85423809D01*
X58684523Y-85666666D01*
X58644047Y-85747619D01*
X58603571Y-85788095D01*
X58684523Y-84452380D02*
X58684523Y-84938095D01*
X58684523Y-84695238D02*
X57834523Y-84695238D01*
X57955952Y-84776190D01*
X58036904Y-84857142D01*
X58077380Y-84938095D01*
%TO.C,R51*%
X79316071Y-58234523D02*
X79032738Y-57829761D01*
X78830357Y-58234523D02*
X78830357Y-57384523D01*
X79154166Y-57384523D01*
X79235119Y-57425000D01*
X79275595Y-57465476D01*
X79316071Y-57546428D01*
X79316071Y-57667857D01*
X79275595Y-57748809D01*
X79235119Y-57789285D01*
X79154166Y-57829761D01*
X78830357Y-57829761D01*
X80085119Y-57384523D02*
X79680357Y-57384523D01*
X79639880Y-57789285D01*
X79680357Y-57748809D01*
X79761309Y-57708333D01*
X79963690Y-57708333D01*
X80044642Y-57748809D01*
X80085119Y-57789285D01*
X80125595Y-57870238D01*
X80125595Y-58072619D01*
X80085119Y-58153571D01*
X80044642Y-58194047D01*
X79963690Y-58234523D01*
X79761309Y-58234523D01*
X79680357Y-58194047D01*
X79639880Y-58153571D01*
X80935119Y-58234523D02*
X80449404Y-58234523D01*
X80692261Y-58234523D02*
X80692261Y-57384523D01*
X80611309Y-57505952D01*
X80530357Y-57586904D01*
X80449404Y-57627380D01*
%TO.C,J2*%
X42716666Y-83654523D02*
X42716666Y-84261666D01*
X42676190Y-84383095D01*
X42595238Y-84464047D01*
X42473809Y-84504523D01*
X42392857Y-84504523D01*
X43080952Y-83735476D02*
X43121428Y-83695000D01*
X43202380Y-83654523D01*
X43404761Y-83654523D01*
X43485714Y-83695000D01*
X43526190Y-83735476D01*
X43566666Y-83816428D01*
X43566666Y-83897380D01*
X43526190Y-84018809D01*
X43040476Y-84504523D01*
X43566666Y-84504523D01*
%TO.C,D11*%
X103184523Y-77682142D02*
X102334523Y-77682142D01*
X102334523Y-77479761D01*
X102375000Y-77358333D01*
X102455952Y-77277380D01*
X102536904Y-77236904D01*
X102698809Y-77196428D01*
X102820238Y-77196428D01*
X102982142Y-77236904D01*
X103063095Y-77277380D01*
X103144047Y-77358333D01*
X103184523Y-77479761D01*
X103184523Y-77682142D01*
X103184523Y-76386904D02*
X103184523Y-76872619D01*
X103184523Y-76629761D02*
X102334523Y-76629761D01*
X102455952Y-76710714D01*
X102536904Y-76791666D01*
X102577380Y-76872619D01*
X103184523Y-75577380D02*
X103184523Y-76063095D01*
X103184523Y-75820238D02*
X102334523Y-75820238D01*
X102455952Y-75901190D01*
X102536904Y-75982142D01*
X102577380Y-76063095D01*
%TO.C,R33*%
X93784523Y-90683928D02*
X93379761Y-90967261D01*
X93784523Y-91169642D02*
X92934523Y-91169642D01*
X92934523Y-90845833D01*
X92975000Y-90764880D01*
X93015476Y-90724404D01*
X93096428Y-90683928D01*
X93217857Y-90683928D01*
X93298809Y-90724404D01*
X93339285Y-90764880D01*
X93379761Y-90845833D01*
X93379761Y-91169642D01*
X92934523Y-90400595D02*
X92934523Y-89874404D01*
X93258333Y-90157738D01*
X93258333Y-90036309D01*
X93298809Y-89955357D01*
X93339285Y-89914880D01*
X93420238Y-89874404D01*
X93622619Y-89874404D01*
X93703571Y-89914880D01*
X93744047Y-89955357D01*
X93784523Y-90036309D01*
X93784523Y-90279166D01*
X93744047Y-90360119D01*
X93703571Y-90400595D01*
X92934523Y-89591071D02*
X92934523Y-89064880D01*
X93258333Y-89348214D01*
X93258333Y-89226785D01*
X93298809Y-89145833D01*
X93339285Y-89105357D01*
X93420238Y-89064880D01*
X93622619Y-89064880D01*
X93703571Y-89105357D01*
X93744047Y-89145833D01*
X93784523Y-89226785D01*
X93784523Y-89469642D01*
X93744047Y-89550595D01*
X93703571Y-89591071D01*
%TO.C,R3*%
X130634523Y-105654166D02*
X130229761Y-105937500D01*
X130634523Y-106139880D02*
X129784523Y-106139880D01*
X129784523Y-105816071D01*
X129825000Y-105735119D01*
X129865476Y-105694642D01*
X129946428Y-105654166D01*
X130067857Y-105654166D01*
X130148809Y-105694642D01*
X130189285Y-105735119D01*
X130229761Y-105816071D01*
X130229761Y-106139880D01*
X129784523Y-105370833D02*
X129784523Y-104844642D01*
X130108333Y-105127976D01*
X130108333Y-105006547D01*
X130148809Y-104925595D01*
X130189285Y-104885119D01*
X130270238Y-104844642D01*
X130472619Y-104844642D01*
X130553571Y-104885119D01*
X130594047Y-104925595D01*
X130634523Y-105006547D01*
X130634523Y-105249404D01*
X130594047Y-105330357D01*
X130553571Y-105370833D01*
%TO.C,C35*%
X109003571Y-65553571D02*
X108963095Y-65594047D01*
X108841666Y-65634523D01*
X108760714Y-65634523D01*
X108639285Y-65594047D01*
X108558333Y-65513095D01*
X108517857Y-65432142D01*
X108477380Y-65270238D01*
X108477380Y-65148809D01*
X108517857Y-64986904D01*
X108558333Y-64905952D01*
X108639285Y-64825000D01*
X108760714Y-64784523D01*
X108841666Y-64784523D01*
X108963095Y-64825000D01*
X109003571Y-64865476D01*
X109286904Y-64784523D02*
X109813095Y-64784523D01*
X109529761Y-65108333D01*
X109651190Y-65108333D01*
X109732142Y-65148809D01*
X109772619Y-65189285D01*
X109813095Y-65270238D01*
X109813095Y-65472619D01*
X109772619Y-65553571D01*
X109732142Y-65594047D01*
X109651190Y-65634523D01*
X109408333Y-65634523D01*
X109327380Y-65594047D01*
X109286904Y-65553571D01*
X110582142Y-64784523D02*
X110177380Y-64784523D01*
X110136904Y-65189285D01*
X110177380Y-65148809D01*
X110258333Y-65108333D01*
X110460714Y-65108333D01*
X110541666Y-65148809D01*
X110582142Y-65189285D01*
X110622619Y-65270238D01*
X110622619Y-65472619D01*
X110582142Y-65553571D01*
X110541666Y-65594047D01*
X110460714Y-65634523D01*
X110258333Y-65634523D01*
X110177380Y-65594047D01*
X110136904Y-65553571D01*
%TO.C,R49*%
X72903571Y-66984523D02*
X72620238Y-66579761D01*
X72417857Y-66984523D02*
X72417857Y-66134523D01*
X72741666Y-66134523D01*
X72822619Y-66175000D01*
X72863095Y-66215476D01*
X72903571Y-66296428D01*
X72903571Y-66417857D01*
X72863095Y-66498809D01*
X72822619Y-66539285D01*
X72741666Y-66579761D01*
X72417857Y-66579761D01*
X73632142Y-66417857D02*
X73632142Y-66984523D01*
X73429761Y-66094047D02*
X73227380Y-66701190D01*
X73753571Y-66701190D01*
X74117857Y-66984523D02*
X74279761Y-66984523D01*
X74360714Y-66944047D01*
X74401190Y-66903571D01*
X74482142Y-66782142D01*
X74522619Y-66620238D01*
X74522619Y-66296428D01*
X74482142Y-66215476D01*
X74441666Y-66175000D01*
X74360714Y-66134523D01*
X74198809Y-66134523D01*
X74117857Y-66175000D01*
X74077380Y-66215476D01*
X74036904Y-66296428D01*
X74036904Y-66498809D01*
X74077380Y-66579761D01*
X74117857Y-66620238D01*
X74198809Y-66660714D01*
X74360714Y-66660714D01*
X74441666Y-66620238D01*
X74482142Y-66579761D01*
X74522619Y-66498809D01*
%TO.C,C9*%
X134533333Y-79103571D02*
X134492857Y-79144047D01*
X134371428Y-79184523D01*
X134290476Y-79184523D01*
X134169047Y-79144047D01*
X134088095Y-79063095D01*
X134047619Y-78982142D01*
X134007142Y-78820238D01*
X134007142Y-78698809D01*
X134047619Y-78536904D01*
X134088095Y-78455952D01*
X134169047Y-78375000D01*
X134290476Y-78334523D01*
X134371428Y-78334523D01*
X134492857Y-78375000D01*
X134533333Y-78415476D01*
X134938095Y-79184523D02*
X135100000Y-79184523D01*
X135180952Y-79144047D01*
X135221428Y-79103571D01*
X135302380Y-78982142D01*
X135342857Y-78820238D01*
X135342857Y-78496428D01*
X135302380Y-78415476D01*
X135261904Y-78375000D01*
X135180952Y-78334523D01*
X135019047Y-78334523D01*
X134938095Y-78375000D01*
X134897619Y-78415476D01*
X134857142Y-78496428D01*
X134857142Y-78698809D01*
X134897619Y-78779761D01*
X134938095Y-78820238D01*
X135019047Y-78860714D01*
X135180952Y-78860714D01*
X135261904Y-78820238D01*
X135302380Y-78779761D01*
X135342857Y-78698809D01*
%TO.C,H4*%
X43852380Y-111184523D02*
X43852380Y-110334523D01*
X43852380Y-110739285D02*
X44338095Y-110739285D01*
X44338095Y-111184523D02*
X44338095Y-110334523D01*
X45107142Y-110617857D02*
X45107142Y-111184523D01*
X44904761Y-110294047D02*
X44702380Y-110901190D01*
X45228571Y-110901190D01*
%TO.C,C23*%
X51153571Y-56796428D02*
X51194047Y-56836904D01*
X51234523Y-56958333D01*
X51234523Y-57039285D01*
X51194047Y-57160714D01*
X51113095Y-57241666D01*
X51032142Y-57282142D01*
X50870238Y-57322619D01*
X50748809Y-57322619D01*
X50586904Y-57282142D01*
X50505952Y-57241666D01*
X50425000Y-57160714D01*
X50384523Y-57039285D01*
X50384523Y-56958333D01*
X50425000Y-56836904D01*
X50465476Y-56796428D01*
X50465476Y-56472619D02*
X50425000Y-56432142D01*
X50384523Y-56351190D01*
X50384523Y-56148809D01*
X50425000Y-56067857D01*
X50465476Y-56027380D01*
X50546428Y-55986904D01*
X50627380Y-55986904D01*
X50748809Y-56027380D01*
X51234523Y-56513095D01*
X51234523Y-55986904D01*
X50384523Y-55703571D02*
X50384523Y-55177380D01*
X50708333Y-55460714D01*
X50708333Y-55339285D01*
X50748809Y-55258333D01*
X50789285Y-55217857D01*
X50870238Y-55177380D01*
X51072619Y-55177380D01*
X51153571Y-55217857D01*
X51194047Y-55258333D01*
X51234523Y-55339285D01*
X51234523Y-55582142D01*
X51194047Y-55663095D01*
X51153571Y-55703571D01*
%TO.C,C18*%
X104403571Y-88973571D02*
X104363095Y-89014047D01*
X104241666Y-89054523D01*
X104160714Y-89054523D01*
X104039285Y-89014047D01*
X103958333Y-88933095D01*
X103917857Y-88852142D01*
X103877380Y-88690238D01*
X103877380Y-88568809D01*
X103917857Y-88406904D01*
X103958333Y-88325952D01*
X104039285Y-88245000D01*
X104160714Y-88204523D01*
X104241666Y-88204523D01*
X104363095Y-88245000D01*
X104403571Y-88285476D01*
X105213095Y-89054523D02*
X104727380Y-89054523D01*
X104970238Y-89054523D02*
X104970238Y-88204523D01*
X104889285Y-88325952D01*
X104808333Y-88406904D01*
X104727380Y-88447380D01*
X105698809Y-88568809D02*
X105617857Y-88528333D01*
X105577380Y-88487857D01*
X105536904Y-88406904D01*
X105536904Y-88366428D01*
X105577380Y-88285476D01*
X105617857Y-88245000D01*
X105698809Y-88204523D01*
X105860714Y-88204523D01*
X105941666Y-88245000D01*
X105982142Y-88285476D01*
X106022619Y-88366428D01*
X106022619Y-88406904D01*
X105982142Y-88487857D01*
X105941666Y-88528333D01*
X105860714Y-88568809D01*
X105698809Y-88568809D01*
X105617857Y-88609285D01*
X105577380Y-88649761D01*
X105536904Y-88730714D01*
X105536904Y-88892619D01*
X105577380Y-88973571D01*
X105617857Y-89014047D01*
X105698809Y-89054523D01*
X105860714Y-89054523D01*
X105941666Y-89014047D01*
X105982142Y-88973571D01*
X106022619Y-88892619D01*
X106022619Y-88730714D01*
X105982142Y-88649761D01*
X105941666Y-88609285D01*
X105860714Y-88568809D01*
%TO.C,J3*%
X71966666Y-46484523D02*
X71966666Y-47091666D01*
X71926190Y-47213095D01*
X71845238Y-47294047D01*
X71723809Y-47334523D01*
X71642857Y-47334523D01*
X72290476Y-46484523D02*
X72816666Y-46484523D01*
X72533333Y-46808333D01*
X72654761Y-46808333D01*
X72735714Y-46848809D01*
X72776190Y-46889285D01*
X72816666Y-46970238D01*
X72816666Y-47172619D01*
X72776190Y-47253571D01*
X72735714Y-47294047D01*
X72654761Y-47334523D01*
X72411904Y-47334523D01*
X72330952Y-47294047D01*
X72290476Y-47253571D01*
%TO.C,R22*%
X135928571Y-71972023D02*
X135645238Y-71567261D01*
X135442857Y-71972023D02*
X135442857Y-71122023D01*
X135766666Y-71122023D01*
X135847619Y-71162500D01*
X135888095Y-71202976D01*
X135928571Y-71283928D01*
X135928571Y-71405357D01*
X135888095Y-71486309D01*
X135847619Y-71526785D01*
X135766666Y-71567261D01*
X135442857Y-71567261D01*
X136252380Y-71202976D02*
X136292857Y-71162500D01*
X136373809Y-71122023D01*
X136576190Y-71122023D01*
X136657142Y-71162500D01*
X136697619Y-71202976D01*
X136738095Y-71283928D01*
X136738095Y-71364880D01*
X136697619Y-71486309D01*
X136211904Y-71972023D01*
X136738095Y-71972023D01*
X137061904Y-71202976D02*
X137102380Y-71162500D01*
X137183333Y-71122023D01*
X137385714Y-71122023D01*
X137466666Y-71162500D01*
X137507142Y-71202976D01*
X137547619Y-71283928D01*
X137547619Y-71364880D01*
X137507142Y-71486309D01*
X137021428Y-71972023D01*
X137547619Y-71972023D01*
%TO.C,C30*%
X56803571Y-86046428D02*
X56844047Y-86086904D01*
X56884523Y-86208333D01*
X56884523Y-86289285D01*
X56844047Y-86410714D01*
X56763095Y-86491666D01*
X56682142Y-86532142D01*
X56520238Y-86572619D01*
X56398809Y-86572619D01*
X56236904Y-86532142D01*
X56155952Y-86491666D01*
X56075000Y-86410714D01*
X56034523Y-86289285D01*
X56034523Y-86208333D01*
X56075000Y-86086904D01*
X56115476Y-86046428D01*
X56034523Y-85763095D02*
X56034523Y-85236904D01*
X56358333Y-85520238D01*
X56358333Y-85398809D01*
X56398809Y-85317857D01*
X56439285Y-85277380D01*
X56520238Y-85236904D01*
X56722619Y-85236904D01*
X56803571Y-85277380D01*
X56844047Y-85317857D01*
X56884523Y-85398809D01*
X56884523Y-85641666D01*
X56844047Y-85722619D01*
X56803571Y-85763095D01*
X56034523Y-84710714D02*
X56034523Y-84629761D01*
X56075000Y-84548809D01*
X56115476Y-84508333D01*
X56196428Y-84467857D01*
X56358333Y-84427380D01*
X56560714Y-84427380D01*
X56722619Y-84467857D01*
X56803571Y-84508333D01*
X56844047Y-84548809D01*
X56884523Y-84629761D01*
X56884523Y-84710714D01*
X56844047Y-84791666D01*
X56803571Y-84832142D01*
X56722619Y-84872619D01*
X56560714Y-84913095D01*
X56358333Y-84913095D01*
X56196428Y-84872619D01*
X56115476Y-84832142D01*
X56075000Y-84791666D01*
X56034523Y-84710714D01*
%TO.C,R24*%
X137803571Y-55584523D02*
X137520238Y-55179761D01*
X137317857Y-55584523D02*
X137317857Y-54734523D01*
X137641666Y-54734523D01*
X137722619Y-54775000D01*
X137763095Y-54815476D01*
X137803571Y-54896428D01*
X137803571Y-55017857D01*
X137763095Y-55098809D01*
X137722619Y-55139285D01*
X137641666Y-55179761D01*
X137317857Y-55179761D01*
X138127380Y-54815476D02*
X138167857Y-54775000D01*
X138248809Y-54734523D01*
X138451190Y-54734523D01*
X138532142Y-54775000D01*
X138572619Y-54815476D01*
X138613095Y-54896428D01*
X138613095Y-54977380D01*
X138572619Y-55098809D01*
X138086904Y-55584523D01*
X138613095Y-55584523D01*
X139341666Y-55017857D02*
X139341666Y-55584523D01*
X139139285Y-54694047D02*
X138936904Y-55301190D01*
X139463095Y-55301190D01*
%TO.C,U15*%
X63847619Y-89534523D02*
X63847619Y-90222619D01*
X63888095Y-90303571D01*
X63928571Y-90344047D01*
X64009523Y-90384523D01*
X64171428Y-90384523D01*
X64252380Y-90344047D01*
X64292857Y-90303571D01*
X64333333Y-90222619D01*
X64333333Y-89534523D01*
X65183333Y-90384523D02*
X64697619Y-90384523D01*
X64940476Y-90384523D02*
X64940476Y-89534523D01*
X64859523Y-89655952D01*
X64778571Y-89736904D01*
X64697619Y-89777380D01*
X65952380Y-89534523D02*
X65547619Y-89534523D01*
X65507142Y-89939285D01*
X65547619Y-89898809D01*
X65628571Y-89858333D01*
X65830952Y-89858333D01*
X65911904Y-89898809D01*
X65952380Y-89939285D01*
X65992857Y-90020238D01*
X65992857Y-90222619D01*
X65952380Y-90303571D01*
X65911904Y-90344047D01*
X65830952Y-90384523D01*
X65628571Y-90384523D01*
X65547619Y-90344047D01*
X65507142Y-90303571D01*
%TO.C,R4*%
X132034523Y-108304166D02*
X131629761Y-108587500D01*
X132034523Y-108789880D02*
X131184523Y-108789880D01*
X131184523Y-108466071D01*
X131225000Y-108385119D01*
X131265476Y-108344642D01*
X131346428Y-108304166D01*
X131467857Y-108304166D01*
X131548809Y-108344642D01*
X131589285Y-108385119D01*
X131629761Y-108466071D01*
X131629761Y-108789880D01*
X131467857Y-107575595D02*
X132034523Y-107575595D01*
X131144047Y-107777976D02*
X131751190Y-107980357D01*
X131751190Y-107454166D01*
%TO.C,TP4*%
X71227380Y-80184523D02*
X71713095Y-80184523D01*
X71470238Y-81034523D02*
X71470238Y-80184523D01*
X71996428Y-81034523D02*
X71996428Y-80184523D01*
X72320238Y-80184523D01*
X72401190Y-80225000D01*
X72441666Y-80265476D01*
X72482142Y-80346428D01*
X72482142Y-80467857D01*
X72441666Y-80548809D01*
X72401190Y-80589285D01*
X72320238Y-80629761D01*
X71996428Y-80629761D01*
X73210714Y-80467857D02*
X73210714Y-81034523D01*
X73008333Y-80144047D02*
X72805952Y-80751190D01*
X73332142Y-80751190D01*
%TO.C,D10*%
X116334523Y-67382142D02*
X115484523Y-67382142D01*
X115484523Y-67179761D01*
X115525000Y-67058333D01*
X115605952Y-66977380D01*
X115686904Y-66936904D01*
X115848809Y-66896428D01*
X115970238Y-66896428D01*
X116132142Y-66936904D01*
X116213095Y-66977380D01*
X116294047Y-67058333D01*
X116334523Y-67179761D01*
X116334523Y-67382142D01*
X116334523Y-66086904D02*
X116334523Y-66572619D01*
X116334523Y-66329761D02*
X115484523Y-66329761D01*
X115605952Y-66410714D01*
X115686904Y-66491666D01*
X115727380Y-66572619D01*
X115484523Y-65560714D02*
X115484523Y-65479761D01*
X115525000Y-65398809D01*
X115565476Y-65358333D01*
X115646428Y-65317857D01*
X115808333Y-65277380D01*
X116010714Y-65277380D01*
X116172619Y-65317857D01*
X116253571Y-65358333D01*
X116294047Y-65398809D01*
X116334523Y-65479761D01*
X116334523Y-65560714D01*
X116294047Y-65641666D01*
X116253571Y-65682142D01*
X116172619Y-65722619D01*
X116010714Y-65763095D01*
X115808333Y-65763095D01*
X115646428Y-65722619D01*
X115565476Y-65682142D01*
X115525000Y-65641666D01*
X115484523Y-65560714D01*
%TO.C,R29*%
X133734523Y-64308928D02*
X133329761Y-64592261D01*
X133734523Y-64794642D02*
X132884523Y-64794642D01*
X132884523Y-64470833D01*
X132925000Y-64389880D01*
X132965476Y-64349404D01*
X133046428Y-64308928D01*
X133167857Y-64308928D01*
X133248809Y-64349404D01*
X133289285Y-64389880D01*
X133329761Y-64470833D01*
X133329761Y-64794642D01*
X132965476Y-63985119D02*
X132925000Y-63944642D01*
X132884523Y-63863690D01*
X132884523Y-63661309D01*
X132925000Y-63580357D01*
X132965476Y-63539880D01*
X133046428Y-63499404D01*
X133127380Y-63499404D01*
X133248809Y-63539880D01*
X133734523Y-64025595D01*
X133734523Y-63499404D01*
X133734523Y-63094642D02*
X133734523Y-62932738D01*
X133694047Y-62851785D01*
X133653571Y-62811309D01*
X133532142Y-62730357D01*
X133370238Y-62689880D01*
X133046428Y-62689880D01*
X132965476Y-62730357D01*
X132925000Y-62770833D01*
X132884523Y-62851785D01*
X132884523Y-63013690D01*
X132925000Y-63094642D01*
X132965476Y-63135119D01*
X133046428Y-63175595D01*
X133248809Y-63175595D01*
X133329761Y-63135119D01*
X133370238Y-63094642D01*
X133410714Y-63013690D01*
X133410714Y-62851785D01*
X133370238Y-62770833D01*
X133329761Y-62730357D01*
X133248809Y-62689880D01*
%TO.C,RV3*%
X142244047Y-57784523D02*
X141960714Y-57379761D01*
X141758333Y-57784523D02*
X141758333Y-56934523D01*
X142082142Y-56934523D01*
X142163095Y-56975000D01*
X142203571Y-57015476D01*
X142244047Y-57096428D01*
X142244047Y-57217857D01*
X142203571Y-57298809D01*
X142163095Y-57339285D01*
X142082142Y-57379761D01*
X141758333Y-57379761D01*
X142486904Y-56934523D02*
X142770238Y-57784523D01*
X143053571Y-56934523D01*
X143255952Y-56934523D02*
X143782142Y-56934523D01*
X143498809Y-57258333D01*
X143620238Y-57258333D01*
X143701190Y-57298809D01*
X143741666Y-57339285D01*
X143782142Y-57420238D01*
X143782142Y-57622619D01*
X143741666Y-57703571D01*
X143701190Y-57744047D01*
X143620238Y-57784523D01*
X143377380Y-57784523D01*
X143296428Y-57744047D01*
X143255952Y-57703571D01*
%TO.C,R39*%
X88034523Y-75958928D02*
X87629761Y-76242261D01*
X88034523Y-76444642D02*
X87184523Y-76444642D01*
X87184523Y-76120833D01*
X87225000Y-76039880D01*
X87265476Y-75999404D01*
X87346428Y-75958928D01*
X87467857Y-75958928D01*
X87548809Y-75999404D01*
X87589285Y-76039880D01*
X87629761Y-76120833D01*
X87629761Y-76444642D01*
X87184523Y-75675595D02*
X87184523Y-75149404D01*
X87508333Y-75432738D01*
X87508333Y-75311309D01*
X87548809Y-75230357D01*
X87589285Y-75189880D01*
X87670238Y-75149404D01*
X87872619Y-75149404D01*
X87953571Y-75189880D01*
X87994047Y-75230357D01*
X88034523Y-75311309D01*
X88034523Y-75554166D01*
X87994047Y-75635119D01*
X87953571Y-75675595D01*
X88034523Y-74744642D02*
X88034523Y-74582738D01*
X87994047Y-74501785D01*
X87953571Y-74461309D01*
X87832142Y-74380357D01*
X87670238Y-74339880D01*
X87346428Y-74339880D01*
X87265476Y-74380357D01*
X87225000Y-74420833D01*
X87184523Y-74501785D01*
X87184523Y-74663690D01*
X87225000Y-74744642D01*
X87265476Y-74785119D01*
X87346428Y-74825595D01*
X87548809Y-74825595D01*
X87629761Y-74785119D01*
X87670238Y-74744642D01*
X87710714Y-74663690D01*
X87710714Y-74501785D01*
X87670238Y-74420833D01*
X87629761Y-74380357D01*
X87548809Y-74339880D01*
%TO.C,D12*%
X103184523Y-94182142D02*
X102334523Y-94182142D01*
X102334523Y-93979761D01*
X102375000Y-93858333D01*
X102455952Y-93777380D01*
X102536904Y-93736904D01*
X102698809Y-93696428D01*
X102820238Y-93696428D01*
X102982142Y-93736904D01*
X103063095Y-93777380D01*
X103144047Y-93858333D01*
X103184523Y-93979761D01*
X103184523Y-94182142D01*
X103184523Y-92886904D02*
X103184523Y-93372619D01*
X103184523Y-93129761D02*
X102334523Y-93129761D01*
X102455952Y-93210714D01*
X102536904Y-93291666D01*
X102577380Y-93372619D01*
X102415476Y-92563095D02*
X102375000Y-92522619D01*
X102334523Y-92441666D01*
X102334523Y-92239285D01*
X102375000Y-92158333D01*
X102415476Y-92117857D01*
X102496428Y-92077380D01*
X102577380Y-92077380D01*
X102698809Y-92117857D01*
X103184523Y-92603571D01*
X103184523Y-92077380D01*
%TO.C,C20*%
X96853571Y-79153571D02*
X96813095Y-79194047D01*
X96691666Y-79234523D01*
X96610714Y-79234523D01*
X96489285Y-79194047D01*
X96408333Y-79113095D01*
X96367857Y-79032142D01*
X96327380Y-78870238D01*
X96327380Y-78748809D01*
X96367857Y-78586904D01*
X96408333Y-78505952D01*
X96489285Y-78425000D01*
X96610714Y-78384523D01*
X96691666Y-78384523D01*
X96813095Y-78425000D01*
X96853571Y-78465476D01*
X97177380Y-78465476D02*
X97217857Y-78425000D01*
X97298809Y-78384523D01*
X97501190Y-78384523D01*
X97582142Y-78425000D01*
X97622619Y-78465476D01*
X97663095Y-78546428D01*
X97663095Y-78627380D01*
X97622619Y-78748809D01*
X97136904Y-79234523D01*
X97663095Y-79234523D01*
X98189285Y-78384523D02*
X98270238Y-78384523D01*
X98351190Y-78425000D01*
X98391666Y-78465476D01*
X98432142Y-78546428D01*
X98472619Y-78708333D01*
X98472619Y-78910714D01*
X98432142Y-79072619D01*
X98391666Y-79153571D01*
X98351190Y-79194047D01*
X98270238Y-79234523D01*
X98189285Y-79234523D01*
X98108333Y-79194047D01*
X98067857Y-79153571D01*
X98027380Y-79072619D01*
X97986904Y-78910714D01*
X97986904Y-78708333D01*
X98027380Y-78546428D01*
X98067857Y-78465476D01*
X98108333Y-78425000D01*
X98189285Y-78384523D01*
%TO.C,U5*%
X140402380Y-95084523D02*
X140402380Y-95772619D01*
X140442857Y-95853571D01*
X140483333Y-95894047D01*
X140564285Y-95934523D01*
X140726190Y-95934523D01*
X140807142Y-95894047D01*
X140847619Y-95853571D01*
X140888095Y-95772619D01*
X140888095Y-95084523D01*
X141697619Y-95084523D02*
X141292857Y-95084523D01*
X141252380Y-95489285D01*
X141292857Y-95448809D01*
X141373809Y-95408333D01*
X141576190Y-95408333D01*
X141657142Y-95448809D01*
X141697619Y-95489285D01*
X141738095Y-95570238D01*
X141738095Y-95772619D01*
X141697619Y-95853571D01*
X141657142Y-95894047D01*
X141576190Y-95934523D01*
X141373809Y-95934523D01*
X141292857Y-95894047D01*
X141252380Y-95853571D01*
%TO.C,C14*%
X118423571Y-59996428D02*
X118464047Y-60036904D01*
X118504523Y-60158333D01*
X118504523Y-60239285D01*
X118464047Y-60360714D01*
X118383095Y-60441666D01*
X118302142Y-60482142D01*
X118140238Y-60522619D01*
X118018809Y-60522619D01*
X117856904Y-60482142D01*
X117775952Y-60441666D01*
X117695000Y-60360714D01*
X117654523Y-60239285D01*
X117654523Y-60158333D01*
X117695000Y-60036904D01*
X117735476Y-59996428D01*
X118504523Y-59186904D02*
X118504523Y-59672619D01*
X118504523Y-59429761D02*
X117654523Y-59429761D01*
X117775952Y-59510714D01*
X117856904Y-59591666D01*
X117897380Y-59672619D01*
X117937857Y-58458333D02*
X118504523Y-58458333D01*
X117614047Y-58660714D02*
X118221190Y-58863095D01*
X118221190Y-58336904D01*
%TO.C,RV1*%
X93994047Y-69134523D02*
X93710714Y-68729761D01*
X93508333Y-69134523D02*
X93508333Y-68284523D01*
X93832142Y-68284523D01*
X93913095Y-68325000D01*
X93953571Y-68365476D01*
X93994047Y-68446428D01*
X93994047Y-68567857D01*
X93953571Y-68648809D01*
X93913095Y-68689285D01*
X93832142Y-68729761D01*
X93508333Y-68729761D01*
X94236904Y-68284523D02*
X94520238Y-69134523D01*
X94803571Y-68284523D01*
X95532142Y-69134523D02*
X95046428Y-69134523D01*
X95289285Y-69134523D02*
X95289285Y-68284523D01*
X95208333Y-68405952D01*
X95127380Y-68486904D01*
X95046428Y-68527380D01*
%TO.C,U10*%
X100047619Y-99384523D02*
X100047619Y-100072619D01*
X100088095Y-100153571D01*
X100128571Y-100194047D01*
X100209523Y-100234523D01*
X100371428Y-100234523D01*
X100452380Y-100194047D01*
X100492857Y-100153571D01*
X100533333Y-100072619D01*
X100533333Y-99384523D01*
X101383333Y-100234523D02*
X100897619Y-100234523D01*
X101140476Y-100234523D02*
X101140476Y-99384523D01*
X101059523Y-99505952D01*
X100978571Y-99586904D01*
X100897619Y-99627380D01*
X101909523Y-99384523D02*
X101990476Y-99384523D01*
X102071428Y-99425000D01*
X102111904Y-99465476D01*
X102152380Y-99546428D01*
X102192857Y-99708333D01*
X102192857Y-99910714D01*
X102152380Y-100072619D01*
X102111904Y-100153571D01*
X102071428Y-100194047D01*
X101990476Y-100234523D01*
X101909523Y-100234523D01*
X101828571Y-100194047D01*
X101788095Y-100153571D01*
X101747619Y-100072619D01*
X101707142Y-99910714D01*
X101707142Y-99708333D01*
X101747619Y-99546428D01*
X101788095Y-99465476D01*
X101828571Y-99425000D01*
X101909523Y-99384523D01*
%TO.C,C38*%
X112453571Y-100903571D02*
X112413095Y-100944047D01*
X112291666Y-100984523D01*
X112210714Y-100984523D01*
X112089285Y-100944047D01*
X112008333Y-100863095D01*
X111967857Y-100782142D01*
X111927380Y-100620238D01*
X111927380Y-100498809D01*
X111967857Y-100336904D01*
X112008333Y-100255952D01*
X112089285Y-100175000D01*
X112210714Y-100134523D01*
X112291666Y-100134523D01*
X112413095Y-100175000D01*
X112453571Y-100215476D01*
X112736904Y-100134523D02*
X113263095Y-100134523D01*
X112979761Y-100458333D01*
X113101190Y-100458333D01*
X113182142Y-100498809D01*
X113222619Y-100539285D01*
X113263095Y-100620238D01*
X113263095Y-100822619D01*
X113222619Y-100903571D01*
X113182142Y-100944047D01*
X113101190Y-100984523D01*
X112858333Y-100984523D01*
X112777380Y-100944047D01*
X112736904Y-100903571D01*
X113748809Y-100498809D02*
X113667857Y-100458333D01*
X113627380Y-100417857D01*
X113586904Y-100336904D01*
X113586904Y-100296428D01*
X113627380Y-100215476D01*
X113667857Y-100175000D01*
X113748809Y-100134523D01*
X113910714Y-100134523D01*
X113991666Y-100175000D01*
X114032142Y-100215476D01*
X114072619Y-100296428D01*
X114072619Y-100336904D01*
X114032142Y-100417857D01*
X113991666Y-100458333D01*
X113910714Y-100498809D01*
X113748809Y-100498809D01*
X113667857Y-100539285D01*
X113627380Y-100579761D01*
X113586904Y-100660714D01*
X113586904Y-100822619D01*
X113627380Y-100903571D01*
X113667857Y-100944047D01*
X113748809Y-100984523D01*
X113910714Y-100984523D01*
X113991666Y-100944047D01*
X114032142Y-100903571D01*
X114072619Y-100822619D01*
X114072619Y-100660714D01*
X114032142Y-100579761D01*
X113991666Y-100539285D01*
X113910714Y-100498809D01*
%TO.C,C13*%
X132678571Y-71541071D02*
X132638095Y-71581547D01*
X132516666Y-71622023D01*
X132435714Y-71622023D01*
X132314285Y-71581547D01*
X132233333Y-71500595D01*
X132192857Y-71419642D01*
X132152380Y-71257738D01*
X132152380Y-71136309D01*
X132192857Y-70974404D01*
X132233333Y-70893452D01*
X132314285Y-70812500D01*
X132435714Y-70772023D01*
X132516666Y-70772023D01*
X132638095Y-70812500D01*
X132678571Y-70852976D01*
X133488095Y-71622023D02*
X133002380Y-71622023D01*
X133245238Y-71622023D02*
X133245238Y-70772023D01*
X133164285Y-70893452D01*
X133083333Y-70974404D01*
X133002380Y-71014880D01*
X133771428Y-70772023D02*
X134297619Y-70772023D01*
X134014285Y-71095833D01*
X134135714Y-71095833D01*
X134216666Y-71136309D01*
X134257142Y-71176785D01*
X134297619Y-71257738D01*
X134297619Y-71460119D01*
X134257142Y-71541071D01*
X134216666Y-71581547D01*
X134135714Y-71622023D01*
X133892857Y-71622023D01*
X133811904Y-71581547D01*
X133771428Y-71541071D01*
%TO.C,C11*%
X124928571Y-56503571D02*
X124888095Y-56544047D01*
X124766666Y-56584523D01*
X124685714Y-56584523D01*
X124564285Y-56544047D01*
X124483333Y-56463095D01*
X124442857Y-56382142D01*
X124402380Y-56220238D01*
X124402380Y-56098809D01*
X124442857Y-55936904D01*
X124483333Y-55855952D01*
X124564285Y-55775000D01*
X124685714Y-55734523D01*
X124766666Y-55734523D01*
X124888095Y-55775000D01*
X124928571Y-55815476D01*
X125738095Y-56584523D02*
X125252380Y-56584523D01*
X125495238Y-56584523D02*
X125495238Y-55734523D01*
X125414285Y-55855952D01*
X125333333Y-55936904D01*
X125252380Y-55977380D01*
X126547619Y-56584523D02*
X126061904Y-56584523D01*
X126304761Y-56584523D02*
X126304761Y-55734523D01*
X126223809Y-55855952D01*
X126142857Y-55936904D01*
X126061904Y-55977380D01*
%TO.C,R42*%
X53184523Y-56996428D02*
X52779761Y-57279761D01*
X53184523Y-57482142D02*
X52334523Y-57482142D01*
X52334523Y-57158333D01*
X52375000Y-57077380D01*
X52415476Y-57036904D01*
X52496428Y-56996428D01*
X52617857Y-56996428D01*
X52698809Y-57036904D01*
X52739285Y-57077380D01*
X52779761Y-57158333D01*
X52779761Y-57482142D01*
X52617857Y-56267857D02*
X53184523Y-56267857D01*
X52294047Y-56470238D02*
X52901190Y-56672619D01*
X52901190Y-56146428D01*
X52415476Y-55863095D02*
X52375000Y-55822619D01*
X52334523Y-55741666D01*
X52334523Y-55539285D01*
X52375000Y-55458333D01*
X52415476Y-55417857D01*
X52496428Y-55377380D01*
X52577380Y-55377380D01*
X52698809Y-55417857D01*
X53184523Y-55903571D01*
X53184523Y-55377380D01*
%TO.C,R11*%
X112691071Y-57284523D02*
X112407738Y-56879761D01*
X112205357Y-57284523D02*
X112205357Y-56434523D01*
X112529166Y-56434523D01*
X112610119Y-56475000D01*
X112650595Y-56515476D01*
X112691071Y-56596428D01*
X112691071Y-56717857D01*
X112650595Y-56798809D01*
X112610119Y-56839285D01*
X112529166Y-56879761D01*
X112205357Y-56879761D01*
X113500595Y-57284523D02*
X113014880Y-57284523D01*
X113257738Y-57284523D02*
X113257738Y-56434523D01*
X113176785Y-56555952D01*
X113095833Y-56636904D01*
X113014880Y-56677380D01*
X114310119Y-57284523D02*
X113824404Y-57284523D01*
X114067261Y-57284523D02*
X114067261Y-56434523D01*
X113986309Y-56555952D01*
X113905357Y-56636904D01*
X113824404Y-56677380D01*
%TO.C,R43*%
X78284523Y-56896428D02*
X77879761Y-57179761D01*
X78284523Y-57382142D02*
X77434523Y-57382142D01*
X77434523Y-57058333D01*
X77475000Y-56977380D01*
X77515476Y-56936904D01*
X77596428Y-56896428D01*
X77717857Y-56896428D01*
X77798809Y-56936904D01*
X77839285Y-56977380D01*
X77879761Y-57058333D01*
X77879761Y-57382142D01*
X77717857Y-56167857D02*
X78284523Y-56167857D01*
X77394047Y-56370238D02*
X78001190Y-56572619D01*
X78001190Y-56046428D01*
X77434523Y-55803571D02*
X77434523Y-55277380D01*
X77758333Y-55560714D01*
X77758333Y-55439285D01*
X77798809Y-55358333D01*
X77839285Y-55317857D01*
X77920238Y-55277380D01*
X78122619Y-55277380D01*
X78203571Y-55317857D01*
X78244047Y-55358333D01*
X78284523Y-55439285D01*
X78284523Y-55682142D01*
X78244047Y-55763095D01*
X78203571Y-55803571D01*
%TO.C,U11*%
X93534523Y-86252380D02*
X94222619Y-86252380D01*
X94303571Y-86211904D01*
X94344047Y-86171428D01*
X94384523Y-86090476D01*
X94384523Y-85928571D01*
X94344047Y-85847619D01*
X94303571Y-85807142D01*
X94222619Y-85766666D01*
X93534523Y-85766666D01*
X94384523Y-84916666D02*
X94384523Y-85402380D01*
X94384523Y-85159523D02*
X93534523Y-85159523D01*
X93655952Y-85240476D01*
X93736904Y-85321428D01*
X93777380Y-85402380D01*
X94384523Y-84107142D02*
X94384523Y-84592857D01*
X94384523Y-84350000D02*
X93534523Y-84350000D01*
X93655952Y-84430952D01*
X93736904Y-84511904D01*
X93777380Y-84592857D01*
%TO.C,R5*%
X137383333Y-84484523D02*
X137100000Y-84079761D01*
X136897619Y-84484523D02*
X136897619Y-83634523D01*
X137221428Y-83634523D01*
X137302380Y-83675000D01*
X137342857Y-83715476D01*
X137383333Y-83796428D01*
X137383333Y-83917857D01*
X137342857Y-83998809D01*
X137302380Y-84039285D01*
X137221428Y-84079761D01*
X136897619Y-84079761D01*
X138152380Y-83634523D02*
X137747619Y-83634523D01*
X137707142Y-84039285D01*
X137747619Y-83998809D01*
X137828571Y-83958333D01*
X138030952Y-83958333D01*
X138111904Y-83998809D01*
X138152380Y-84039285D01*
X138192857Y-84120238D01*
X138192857Y-84322619D01*
X138152380Y-84403571D01*
X138111904Y-84444047D01*
X138030952Y-84484523D01*
X137828571Y-84484523D01*
X137747619Y-84444047D01*
X137707142Y-84403571D01*
%TO.C,R60*%
X109349523Y-91258928D02*
X108944761Y-91542261D01*
X109349523Y-91744642D02*
X108499523Y-91744642D01*
X108499523Y-91420833D01*
X108540000Y-91339880D01*
X108580476Y-91299404D01*
X108661428Y-91258928D01*
X108782857Y-91258928D01*
X108863809Y-91299404D01*
X108904285Y-91339880D01*
X108944761Y-91420833D01*
X108944761Y-91744642D01*
X108499523Y-90530357D02*
X108499523Y-90692261D01*
X108540000Y-90773214D01*
X108580476Y-90813690D01*
X108701904Y-90894642D01*
X108863809Y-90935119D01*
X109187619Y-90935119D01*
X109268571Y-90894642D01*
X109309047Y-90854166D01*
X109349523Y-90773214D01*
X109349523Y-90611309D01*
X109309047Y-90530357D01*
X109268571Y-90489880D01*
X109187619Y-90449404D01*
X108985238Y-90449404D01*
X108904285Y-90489880D01*
X108863809Y-90530357D01*
X108823333Y-90611309D01*
X108823333Y-90773214D01*
X108863809Y-90854166D01*
X108904285Y-90894642D01*
X108985238Y-90935119D01*
X108499523Y-89923214D02*
X108499523Y-89842261D01*
X108540000Y-89761309D01*
X108580476Y-89720833D01*
X108661428Y-89680357D01*
X108823333Y-89639880D01*
X109025714Y-89639880D01*
X109187619Y-89680357D01*
X109268571Y-89720833D01*
X109309047Y-89761309D01*
X109349523Y-89842261D01*
X109349523Y-89923214D01*
X109309047Y-90004166D01*
X109268571Y-90044642D01*
X109187619Y-90085119D01*
X109025714Y-90125595D01*
X108823333Y-90125595D01*
X108661428Y-90085119D01*
X108580476Y-90044642D01*
X108540000Y-90004166D01*
X108499523Y-89923214D01*
%TO.C,C7*%
X116053571Y-79366666D02*
X116094047Y-79407142D01*
X116134523Y-79528571D01*
X116134523Y-79609523D01*
X116094047Y-79730952D01*
X116013095Y-79811904D01*
X115932142Y-79852380D01*
X115770238Y-79892857D01*
X115648809Y-79892857D01*
X115486904Y-79852380D01*
X115405952Y-79811904D01*
X115325000Y-79730952D01*
X115284523Y-79609523D01*
X115284523Y-79528571D01*
X115325000Y-79407142D01*
X115365476Y-79366666D01*
X115284523Y-79083333D02*
X115284523Y-78516666D01*
X116134523Y-78880952D01*
%TO.C,U7*%
X126027380Y-73634523D02*
X126027380Y-74322619D01*
X126067857Y-74403571D01*
X126108333Y-74444047D01*
X126189285Y-74484523D01*
X126351190Y-74484523D01*
X126432142Y-74444047D01*
X126472619Y-74403571D01*
X126513095Y-74322619D01*
X126513095Y-73634523D01*
X126836904Y-73634523D02*
X127403571Y-73634523D01*
X127039285Y-74484523D01*
%TO.C,C3*%
X130153571Y-108504166D02*
X130194047Y-108544642D01*
X130234523Y-108666071D01*
X130234523Y-108747023D01*
X130194047Y-108868452D01*
X130113095Y-108949404D01*
X130032142Y-108989880D01*
X129870238Y-109030357D01*
X129748809Y-109030357D01*
X129586904Y-108989880D01*
X129505952Y-108949404D01*
X129425000Y-108868452D01*
X129384523Y-108747023D01*
X129384523Y-108666071D01*
X129425000Y-108544642D01*
X129465476Y-108504166D01*
X129384523Y-108220833D02*
X129384523Y-107694642D01*
X129708333Y-107977976D01*
X129708333Y-107856547D01*
X129748809Y-107775595D01*
X129789285Y-107735119D01*
X129870238Y-107694642D01*
X130072619Y-107694642D01*
X130153571Y-107735119D01*
X130194047Y-107775595D01*
X130234523Y-107856547D01*
X130234523Y-108099404D01*
X130194047Y-108180357D01*
X130153571Y-108220833D01*
%TO.C,R32*%
X97184523Y-105933928D02*
X96779761Y-106217261D01*
X97184523Y-106419642D02*
X96334523Y-106419642D01*
X96334523Y-106095833D01*
X96375000Y-106014880D01*
X96415476Y-105974404D01*
X96496428Y-105933928D01*
X96617857Y-105933928D01*
X96698809Y-105974404D01*
X96739285Y-106014880D01*
X96779761Y-106095833D01*
X96779761Y-106419642D01*
X96334523Y-105650595D02*
X96334523Y-105124404D01*
X96658333Y-105407738D01*
X96658333Y-105286309D01*
X96698809Y-105205357D01*
X96739285Y-105164880D01*
X96820238Y-105124404D01*
X97022619Y-105124404D01*
X97103571Y-105164880D01*
X97144047Y-105205357D01*
X97184523Y-105286309D01*
X97184523Y-105529166D01*
X97144047Y-105610119D01*
X97103571Y-105650595D01*
X96415476Y-104800595D02*
X96375000Y-104760119D01*
X96334523Y-104679166D01*
X96334523Y-104476785D01*
X96375000Y-104395833D01*
X96415476Y-104355357D01*
X96496428Y-104314880D01*
X96577380Y-104314880D01*
X96698809Y-104355357D01*
X97184523Y-104841071D01*
X97184523Y-104314880D01*
%TO.C,H2*%
X139852380Y-45184523D02*
X139852380Y-44334523D01*
X139852380Y-44739285D02*
X140338095Y-44739285D01*
X140338095Y-45184523D02*
X140338095Y-44334523D01*
X140702380Y-44415476D02*
X140742857Y-44375000D01*
X140823809Y-44334523D01*
X141026190Y-44334523D01*
X141107142Y-44375000D01*
X141147619Y-44415476D01*
X141188095Y-44496428D01*
X141188095Y-44577380D01*
X141147619Y-44698809D01*
X140661904Y-45184523D01*
X141188095Y-45184523D01*
%TO.C,R46*%
X86053571Y-71084523D02*
X85770238Y-70679761D01*
X85567857Y-71084523D02*
X85567857Y-70234523D01*
X85891666Y-70234523D01*
X85972619Y-70275000D01*
X86013095Y-70315476D01*
X86053571Y-70396428D01*
X86053571Y-70517857D01*
X86013095Y-70598809D01*
X85972619Y-70639285D01*
X85891666Y-70679761D01*
X85567857Y-70679761D01*
X86782142Y-70517857D02*
X86782142Y-71084523D01*
X86579761Y-70194047D02*
X86377380Y-70801190D01*
X86903571Y-70801190D01*
X87591666Y-70234523D02*
X87429761Y-70234523D01*
X87348809Y-70275000D01*
X87308333Y-70315476D01*
X87227380Y-70436904D01*
X87186904Y-70598809D01*
X87186904Y-70922619D01*
X87227380Y-71003571D01*
X87267857Y-71044047D01*
X87348809Y-71084523D01*
X87510714Y-71084523D01*
X87591666Y-71044047D01*
X87632142Y-71003571D01*
X87672619Y-70922619D01*
X87672619Y-70720238D01*
X87632142Y-70639285D01*
X87591666Y-70598809D01*
X87510714Y-70558333D01*
X87348809Y-70558333D01*
X87267857Y-70598809D01*
X87227380Y-70639285D01*
X87186904Y-70720238D01*
%TO.C,R50*%
X77984523Y-61246428D02*
X77579761Y-61529761D01*
X77984523Y-61732142D02*
X77134523Y-61732142D01*
X77134523Y-61408333D01*
X77175000Y-61327380D01*
X77215476Y-61286904D01*
X77296428Y-61246428D01*
X77417857Y-61246428D01*
X77498809Y-61286904D01*
X77539285Y-61327380D01*
X77579761Y-61408333D01*
X77579761Y-61732142D01*
X77134523Y-60477380D02*
X77134523Y-60882142D01*
X77539285Y-60922619D01*
X77498809Y-60882142D01*
X77458333Y-60801190D01*
X77458333Y-60598809D01*
X77498809Y-60517857D01*
X77539285Y-60477380D01*
X77620238Y-60436904D01*
X77822619Y-60436904D01*
X77903571Y-60477380D01*
X77944047Y-60517857D01*
X77984523Y-60598809D01*
X77984523Y-60801190D01*
X77944047Y-60882142D01*
X77903571Y-60922619D01*
X77134523Y-59910714D02*
X77134523Y-59829761D01*
X77175000Y-59748809D01*
X77215476Y-59708333D01*
X77296428Y-59667857D01*
X77458333Y-59627380D01*
X77660714Y-59627380D01*
X77822619Y-59667857D01*
X77903571Y-59708333D01*
X77944047Y-59748809D01*
X77984523Y-59829761D01*
X77984523Y-59910714D01*
X77944047Y-59991666D01*
X77903571Y-60032142D01*
X77822619Y-60072619D01*
X77660714Y-60113095D01*
X77458333Y-60113095D01*
X77296428Y-60072619D01*
X77215476Y-60032142D01*
X77175000Y-59991666D01*
X77134523Y-59910714D01*
%TO.C,Q5*%
X101619047Y-88215476D02*
X101538095Y-88175000D01*
X101457142Y-88094047D01*
X101335714Y-87972619D01*
X101254761Y-87932142D01*
X101173809Y-87932142D01*
X101214285Y-88134523D02*
X101133333Y-88094047D01*
X101052380Y-88013095D01*
X101011904Y-87851190D01*
X101011904Y-87567857D01*
X101052380Y-87405952D01*
X101133333Y-87325000D01*
X101214285Y-87284523D01*
X101376190Y-87284523D01*
X101457142Y-87325000D01*
X101538095Y-87405952D01*
X101578571Y-87567857D01*
X101578571Y-87851190D01*
X101538095Y-88013095D01*
X101457142Y-88094047D01*
X101376190Y-88134523D01*
X101214285Y-88134523D01*
X102347619Y-87284523D02*
X101942857Y-87284523D01*
X101902380Y-87689285D01*
X101942857Y-87648809D01*
X102023809Y-87608333D01*
X102226190Y-87608333D01*
X102307142Y-87648809D01*
X102347619Y-87689285D01*
X102388095Y-87770238D01*
X102388095Y-87972619D01*
X102347619Y-88053571D01*
X102307142Y-88094047D01*
X102226190Y-88134523D01*
X102023809Y-88134523D01*
X101942857Y-88094047D01*
X101902380Y-88053571D01*
%TO.C,C5*%
X136608333Y-88103571D02*
X136567857Y-88144047D01*
X136446428Y-88184523D01*
X136365476Y-88184523D01*
X136244047Y-88144047D01*
X136163095Y-88063095D01*
X136122619Y-87982142D01*
X136082142Y-87820238D01*
X136082142Y-87698809D01*
X136122619Y-87536904D01*
X136163095Y-87455952D01*
X136244047Y-87375000D01*
X136365476Y-87334523D01*
X136446428Y-87334523D01*
X136567857Y-87375000D01*
X136608333Y-87415476D01*
X137377380Y-87334523D02*
X136972619Y-87334523D01*
X136932142Y-87739285D01*
X136972619Y-87698809D01*
X137053571Y-87658333D01*
X137255952Y-87658333D01*
X137336904Y-87698809D01*
X137377380Y-87739285D01*
X137417857Y-87820238D01*
X137417857Y-88022619D01*
X137377380Y-88103571D01*
X137336904Y-88144047D01*
X137255952Y-88184523D01*
X137053571Y-88184523D01*
X136972619Y-88144047D01*
X136932142Y-88103571D01*
%TO.C,C22*%
X98303571Y-70353571D02*
X98263095Y-70394047D01*
X98141666Y-70434523D01*
X98060714Y-70434523D01*
X97939285Y-70394047D01*
X97858333Y-70313095D01*
X97817857Y-70232142D01*
X97777380Y-70070238D01*
X97777380Y-69948809D01*
X97817857Y-69786904D01*
X97858333Y-69705952D01*
X97939285Y-69625000D01*
X98060714Y-69584523D01*
X98141666Y-69584523D01*
X98263095Y-69625000D01*
X98303571Y-69665476D01*
X98627380Y-69665476D02*
X98667857Y-69625000D01*
X98748809Y-69584523D01*
X98951190Y-69584523D01*
X99032142Y-69625000D01*
X99072619Y-69665476D01*
X99113095Y-69746428D01*
X99113095Y-69827380D01*
X99072619Y-69948809D01*
X98586904Y-70434523D01*
X99113095Y-70434523D01*
X99436904Y-69665476D02*
X99477380Y-69625000D01*
X99558333Y-69584523D01*
X99760714Y-69584523D01*
X99841666Y-69625000D01*
X99882142Y-69665476D01*
X99922619Y-69746428D01*
X99922619Y-69827380D01*
X99882142Y-69948809D01*
X99396428Y-70434523D01*
X99922619Y-70434523D01*
%TO.C,R18*%
X135928571Y-75422023D02*
X135645238Y-75017261D01*
X135442857Y-75422023D02*
X135442857Y-74572023D01*
X135766666Y-74572023D01*
X135847619Y-74612500D01*
X135888095Y-74652976D01*
X135928571Y-74733928D01*
X135928571Y-74855357D01*
X135888095Y-74936309D01*
X135847619Y-74976785D01*
X135766666Y-75017261D01*
X135442857Y-75017261D01*
X136738095Y-75422023D02*
X136252380Y-75422023D01*
X136495238Y-75422023D02*
X136495238Y-74572023D01*
X136414285Y-74693452D01*
X136333333Y-74774404D01*
X136252380Y-74814880D01*
X137223809Y-74936309D02*
X137142857Y-74895833D01*
X137102380Y-74855357D01*
X137061904Y-74774404D01*
X137061904Y-74733928D01*
X137102380Y-74652976D01*
X137142857Y-74612500D01*
X137223809Y-74572023D01*
X137385714Y-74572023D01*
X137466666Y-74612500D01*
X137507142Y-74652976D01*
X137547619Y-74733928D01*
X137547619Y-74774404D01*
X137507142Y-74855357D01*
X137466666Y-74895833D01*
X137385714Y-74936309D01*
X137223809Y-74936309D01*
X137142857Y-74976785D01*
X137102380Y-75017261D01*
X137061904Y-75098214D01*
X137061904Y-75260119D01*
X137102380Y-75341071D01*
X137142857Y-75381547D01*
X137223809Y-75422023D01*
X137385714Y-75422023D01*
X137466666Y-75381547D01*
X137507142Y-75341071D01*
X137547619Y-75260119D01*
X137547619Y-75098214D01*
X137507142Y-75017261D01*
X137466666Y-74976785D01*
X137385714Y-74936309D01*
%TO.C,C15*%
X130003571Y-58871428D02*
X130044047Y-58911904D01*
X130084523Y-59033333D01*
X130084523Y-59114285D01*
X130044047Y-59235714D01*
X129963095Y-59316666D01*
X129882142Y-59357142D01*
X129720238Y-59397619D01*
X129598809Y-59397619D01*
X129436904Y-59357142D01*
X129355952Y-59316666D01*
X129275000Y-59235714D01*
X129234523Y-59114285D01*
X129234523Y-59033333D01*
X129275000Y-58911904D01*
X129315476Y-58871428D01*
X130084523Y-58061904D02*
X130084523Y-58547619D01*
X130084523Y-58304761D02*
X129234523Y-58304761D01*
X129355952Y-58385714D01*
X129436904Y-58466666D01*
X129477380Y-58547619D01*
X129234523Y-57292857D02*
X129234523Y-57697619D01*
X129639285Y-57738095D01*
X129598809Y-57697619D01*
X129558333Y-57616666D01*
X129558333Y-57414285D01*
X129598809Y-57333333D01*
X129639285Y-57292857D01*
X129720238Y-57252380D01*
X129922619Y-57252380D01*
X130003571Y-57292857D01*
X130044047Y-57333333D01*
X130084523Y-57414285D01*
X130084523Y-57616666D01*
X130044047Y-57697619D01*
X130003571Y-57738095D01*
%TO.C,U18*%
X117149523Y-95127380D02*
X117837619Y-95127380D01*
X117918571Y-95086904D01*
X117959047Y-95046428D01*
X117999523Y-94965476D01*
X117999523Y-94803571D01*
X117959047Y-94722619D01*
X117918571Y-94682142D01*
X117837619Y-94641666D01*
X117149523Y-94641666D01*
X117999523Y-93791666D02*
X117999523Y-94277380D01*
X117999523Y-94034523D02*
X117149523Y-94034523D01*
X117270952Y-94115476D01*
X117351904Y-94196428D01*
X117392380Y-94277380D01*
X117513809Y-93305952D02*
X117473333Y-93386904D01*
X117432857Y-93427380D01*
X117351904Y-93467857D01*
X117311428Y-93467857D01*
X117230476Y-93427380D01*
X117190000Y-93386904D01*
X117149523Y-93305952D01*
X117149523Y-93144047D01*
X117190000Y-93063095D01*
X117230476Y-93022619D01*
X117311428Y-92982142D01*
X117351904Y-92982142D01*
X117432857Y-93022619D01*
X117473333Y-93063095D01*
X117513809Y-93144047D01*
X117513809Y-93305952D01*
X117554285Y-93386904D01*
X117594761Y-93427380D01*
X117675714Y-93467857D01*
X117837619Y-93467857D01*
X117918571Y-93427380D01*
X117959047Y-93386904D01*
X117999523Y-93305952D01*
X117999523Y-93144047D01*
X117959047Y-93063095D01*
X117918571Y-93022619D01*
X117837619Y-92982142D01*
X117675714Y-92982142D01*
X117594761Y-93022619D01*
X117554285Y-93063095D01*
X117513809Y-93144047D01*
%TO.C,R1*%
X123408333Y-103897023D02*
X123125000Y-103492261D01*
X122922619Y-103897023D02*
X122922619Y-103047023D01*
X123246428Y-103047023D01*
X123327380Y-103087500D01*
X123367857Y-103127976D01*
X123408333Y-103208928D01*
X123408333Y-103330357D01*
X123367857Y-103411309D01*
X123327380Y-103451785D01*
X123246428Y-103492261D01*
X122922619Y-103492261D01*
X124217857Y-103897023D02*
X123732142Y-103897023D01*
X123975000Y-103897023D02*
X123975000Y-103047023D01*
X123894047Y-103168452D01*
X123813095Y-103249404D01*
X123732142Y-103289880D01*
%TO.C,C34*%
X76723571Y-73046428D02*
X76764047Y-73086904D01*
X76804523Y-73208333D01*
X76804523Y-73289285D01*
X76764047Y-73410714D01*
X76683095Y-73491666D01*
X76602142Y-73532142D01*
X76440238Y-73572619D01*
X76318809Y-73572619D01*
X76156904Y-73532142D01*
X76075952Y-73491666D01*
X75995000Y-73410714D01*
X75954523Y-73289285D01*
X75954523Y-73208333D01*
X75995000Y-73086904D01*
X76035476Y-73046428D01*
X75954523Y-72763095D02*
X75954523Y-72236904D01*
X76278333Y-72520238D01*
X76278333Y-72398809D01*
X76318809Y-72317857D01*
X76359285Y-72277380D01*
X76440238Y-72236904D01*
X76642619Y-72236904D01*
X76723571Y-72277380D01*
X76764047Y-72317857D01*
X76804523Y-72398809D01*
X76804523Y-72641666D01*
X76764047Y-72722619D01*
X76723571Y-72763095D01*
X76237857Y-71508333D02*
X76804523Y-71508333D01*
X75914047Y-71710714D02*
X76521190Y-71913095D01*
X76521190Y-71386904D01*
%TO.C,D2*%
X134734523Y-100827380D02*
X133884523Y-100827380D01*
X133884523Y-100625000D01*
X133925000Y-100503571D01*
X134005952Y-100422619D01*
X134086904Y-100382142D01*
X134248809Y-100341666D01*
X134370238Y-100341666D01*
X134532142Y-100382142D01*
X134613095Y-100422619D01*
X134694047Y-100503571D01*
X134734523Y-100625000D01*
X134734523Y-100827380D01*
X133965476Y-100017857D02*
X133925000Y-99977380D01*
X133884523Y-99896428D01*
X133884523Y-99694047D01*
X133925000Y-99613095D01*
X133965476Y-99572619D01*
X134046428Y-99532142D01*
X134127380Y-99532142D01*
X134248809Y-99572619D01*
X134734523Y-100058333D01*
X134734523Y-99532142D01*
%TO.C,R37*%
X92184523Y-65446428D02*
X91779761Y-65729761D01*
X92184523Y-65932142D02*
X91334523Y-65932142D01*
X91334523Y-65608333D01*
X91375000Y-65527380D01*
X91415476Y-65486904D01*
X91496428Y-65446428D01*
X91617857Y-65446428D01*
X91698809Y-65486904D01*
X91739285Y-65527380D01*
X91779761Y-65608333D01*
X91779761Y-65932142D01*
X91334523Y-65163095D02*
X91334523Y-64636904D01*
X91658333Y-64920238D01*
X91658333Y-64798809D01*
X91698809Y-64717857D01*
X91739285Y-64677380D01*
X91820238Y-64636904D01*
X92022619Y-64636904D01*
X92103571Y-64677380D01*
X92144047Y-64717857D01*
X92184523Y-64798809D01*
X92184523Y-65041666D01*
X92144047Y-65122619D01*
X92103571Y-65163095D01*
X91334523Y-64353571D02*
X91334523Y-63786904D01*
X92184523Y-64151190D01*
%TO.C,R9*%
X131433333Y-80284523D02*
X131150000Y-79879761D01*
X130947619Y-80284523D02*
X130947619Y-79434523D01*
X131271428Y-79434523D01*
X131352380Y-79475000D01*
X131392857Y-79515476D01*
X131433333Y-79596428D01*
X131433333Y-79717857D01*
X131392857Y-79798809D01*
X131352380Y-79839285D01*
X131271428Y-79879761D01*
X130947619Y-79879761D01*
X131838095Y-80284523D02*
X132000000Y-80284523D01*
X132080952Y-80244047D01*
X132121428Y-80203571D01*
X132202380Y-80082142D01*
X132242857Y-79920238D01*
X132242857Y-79596428D01*
X132202380Y-79515476D01*
X132161904Y-79475000D01*
X132080952Y-79434523D01*
X131919047Y-79434523D01*
X131838095Y-79475000D01*
X131797619Y-79515476D01*
X131757142Y-79596428D01*
X131757142Y-79798809D01*
X131797619Y-79879761D01*
X131838095Y-79920238D01*
X131919047Y-79960714D01*
X132080952Y-79960714D01*
X132161904Y-79920238D01*
X132202380Y-79879761D01*
X132242857Y-79798809D01*
%TO.C,R13*%
X106341071Y-70734523D02*
X106057738Y-70329761D01*
X105855357Y-70734523D02*
X105855357Y-69884523D01*
X106179166Y-69884523D01*
X106260119Y-69925000D01*
X106300595Y-69965476D01*
X106341071Y-70046428D01*
X106341071Y-70167857D01*
X106300595Y-70248809D01*
X106260119Y-70289285D01*
X106179166Y-70329761D01*
X105855357Y-70329761D01*
X107150595Y-70734523D02*
X106664880Y-70734523D01*
X106907738Y-70734523D02*
X106907738Y-69884523D01*
X106826785Y-70005952D01*
X106745833Y-70086904D01*
X106664880Y-70127380D01*
X107433928Y-69884523D02*
X107960119Y-69884523D01*
X107676785Y-70208333D01*
X107798214Y-70208333D01*
X107879166Y-70248809D01*
X107919642Y-70289285D01*
X107960119Y-70370238D01*
X107960119Y-70572619D01*
X107919642Y-70653571D01*
X107879166Y-70694047D01*
X107798214Y-70734523D01*
X107555357Y-70734523D01*
X107474404Y-70694047D01*
X107433928Y-70653571D01*
%TO.C,R58*%
X116134523Y-56346428D02*
X115729761Y-56629761D01*
X116134523Y-56832142D02*
X115284523Y-56832142D01*
X115284523Y-56508333D01*
X115325000Y-56427380D01*
X115365476Y-56386904D01*
X115446428Y-56346428D01*
X115567857Y-56346428D01*
X115648809Y-56386904D01*
X115689285Y-56427380D01*
X115729761Y-56508333D01*
X115729761Y-56832142D01*
X115284523Y-55577380D02*
X115284523Y-55982142D01*
X115689285Y-56022619D01*
X115648809Y-55982142D01*
X115608333Y-55901190D01*
X115608333Y-55698809D01*
X115648809Y-55617857D01*
X115689285Y-55577380D01*
X115770238Y-55536904D01*
X115972619Y-55536904D01*
X116053571Y-55577380D01*
X116094047Y-55617857D01*
X116134523Y-55698809D01*
X116134523Y-55901190D01*
X116094047Y-55982142D01*
X116053571Y-56022619D01*
X115648809Y-55051190D02*
X115608333Y-55132142D01*
X115567857Y-55172619D01*
X115486904Y-55213095D01*
X115446428Y-55213095D01*
X115365476Y-55172619D01*
X115325000Y-55132142D01*
X115284523Y-55051190D01*
X115284523Y-54889285D01*
X115325000Y-54808333D01*
X115365476Y-54767857D01*
X115446428Y-54727380D01*
X115486904Y-54727380D01*
X115567857Y-54767857D01*
X115608333Y-54808333D01*
X115648809Y-54889285D01*
X115648809Y-55051190D01*
X115689285Y-55132142D01*
X115729761Y-55172619D01*
X115810714Y-55213095D01*
X115972619Y-55213095D01*
X116053571Y-55172619D01*
X116094047Y-55132142D01*
X116134523Y-55051190D01*
X116134523Y-54889285D01*
X116094047Y-54808333D01*
X116053571Y-54767857D01*
X115972619Y-54727380D01*
X115810714Y-54727380D01*
X115729761Y-54767857D01*
X115689285Y-54808333D01*
X115648809Y-54889285D01*
%TO.C,R56*%
X52634523Y-65746428D02*
X52229761Y-66029761D01*
X52634523Y-66232142D02*
X51784523Y-66232142D01*
X51784523Y-65908333D01*
X51825000Y-65827380D01*
X51865476Y-65786904D01*
X51946428Y-65746428D01*
X52067857Y-65746428D01*
X52148809Y-65786904D01*
X52189285Y-65827380D01*
X52229761Y-65908333D01*
X52229761Y-66232142D01*
X51784523Y-64977380D02*
X51784523Y-65382142D01*
X52189285Y-65422619D01*
X52148809Y-65382142D01*
X52108333Y-65301190D01*
X52108333Y-65098809D01*
X52148809Y-65017857D01*
X52189285Y-64977380D01*
X52270238Y-64936904D01*
X52472619Y-64936904D01*
X52553571Y-64977380D01*
X52594047Y-65017857D01*
X52634523Y-65098809D01*
X52634523Y-65301190D01*
X52594047Y-65382142D01*
X52553571Y-65422619D01*
X51784523Y-64208333D02*
X51784523Y-64370238D01*
X51825000Y-64451190D01*
X51865476Y-64491666D01*
X51986904Y-64572619D01*
X52148809Y-64613095D01*
X52472619Y-64613095D01*
X52553571Y-64572619D01*
X52594047Y-64532142D01*
X52634523Y-64451190D01*
X52634523Y-64289285D01*
X52594047Y-64208333D01*
X52553571Y-64167857D01*
X52472619Y-64127380D01*
X52270238Y-64127380D01*
X52189285Y-64167857D01*
X52148809Y-64208333D01*
X52108333Y-64289285D01*
X52108333Y-64451190D01*
X52148809Y-64532142D01*
X52189285Y-64572619D01*
X52270238Y-64613095D01*
%TO.C,U1*%
X126302380Y-112084523D02*
X126302380Y-112772619D01*
X126342857Y-112853571D01*
X126383333Y-112894047D01*
X126464285Y-112934523D01*
X126626190Y-112934523D01*
X126707142Y-112894047D01*
X126747619Y-112853571D01*
X126788095Y-112772619D01*
X126788095Y-112084523D01*
X127638095Y-112934523D02*
X127152380Y-112934523D01*
X127395238Y-112934523D02*
X127395238Y-112084523D01*
X127314285Y-112205952D01*
X127233333Y-112286904D01*
X127152380Y-112327380D01*
%TO.C,R12*%
X106841071Y-73434523D02*
X106557738Y-73029761D01*
X106355357Y-73434523D02*
X106355357Y-72584523D01*
X106679166Y-72584523D01*
X106760119Y-72625000D01*
X106800595Y-72665476D01*
X106841071Y-72746428D01*
X106841071Y-72867857D01*
X106800595Y-72948809D01*
X106760119Y-72989285D01*
X106679166Y-73029761D01*
X106355357Y-73029761D01*
X107650595Y-73434523D02*
X107164880Y-73434523D01*
X107407738Y-73434523D02*
X107407738Y-72584523D01*
X107326785Y-72705952D01*
X107245833Y-72786904D01*
X107164880Y-72827380D01*
X107974404Y-72665476D02*
X108014880Y-72625000D01*
X108095833Y-72584523D01*
X108298214Y-72584523D01*
X108379166Y-72625000D01*
X108419642Y-72665476D01*
X108460119Y-72746428D01*
X108460119Y-72827380D01*
X108419642Y-72948809D01*
X107933928Y-73434523D01*
X108460119Y-73434523D01*
%TO.C,TP2*%
X41857380Y-80134523D02*
X42343095Y-80134523D01*
X42100238Y-80984523D02*
X42100238Y-80134523D01*
X42626428Y-80984523D02*
X42626428Y-80134523D01*
X42950238Y-80134523D01*
X43031190Y-80175000D01*
X43071666Y-80215476D01*
X43112142Y-80296428D01*
X43112142Y-80417857D01*
X43071666Y-80498809D01*
X43031190Y-80539285D01*
X42950238Y-80579761D01*
X42626428Y-80579761D01*
X43435952Y-80215476D02*
X43476428Y-80175000D01*
X43557380Y-80134523D01*
X43759761Y-80134523D01*
X43840714Y-80175000D01*
X43881190Y-80215476D01*
X43921666Y-80296428D01*
X43921666Y-80377380D01*
X43881190Y-80498809D01*
X43395476Y-80984523D01*
X43921666Y-80984523D01*
%TO.C,Q2*%
X122890476Y-82330952D02*
X122850000Y-82411904D01*
X122769047Y-82492857D01*
X122647619Y-82614285D01*
X122607142Y-82695238D01*
X122607142Y-82776190D01*
X122809523Y-82735714D02*
X122769047Y-82816666D01*
X122688095Y-82897619D01*
X122526190Y-82938095D01*
X122242857Y-82938095D01*
X122080952Y-82897619D01*
X122000000Y-82816666D01*
X121959523Y-82735714D01*
X121959523Y-82573809D01*
X122000000Y-82492857D01*
X122080952Y-82411904D01*
X122242857Y-82371428D01*
X122526190Y-82371428D01*
X122688095Y-82411904D01*
X122769047Y-82492857D01*
X122809523Y-82573809D01*
X122809523Y-82735714D01*
X122040476Y-82047619D02*
X122000000Y-82007142D01*
X121959523Y-81926190D01*
X121959523Y-81723809D01*
X122000000Y-81642857D01*
X122040476Y-81602380D01*
X122121428Y-81561904D01*
X122202380Y-81561904D01*
X122323809Y-81602380D01*
X122809523Y-82088095D01*
X122809523Y-81561904D01*
%TO.C,R21*%
X129559523Y-71483928D02*
X129154761Y-71767261D01*
X129559523Y-71969642D02*
X128709523Y-71969642D01*
X128709523Y-71645833D01*
X128750000Y-71564880D01*
X128790476Y-71524404D01*
X128871428Y-71483928D01*
X128992857Y-71483928D01*
X129073809Y-71524404D01*
X129114285Y-71564880D01*
X129154761Y-71645833D01*
X129154761Y-71969642D01*
X128790476Y-71160119D02*
X128750000Y-71119642D01*
X128709523Y-71038690D01*
X128709523Y-70836309D01*
X128750000Y-70755357D01*
X128790476Y-70714880D01*
X128871428Y-70674404D01*
X128952380Y-70674404D01*
X129073809Y-70714880D01*
X129559523Y-71200595D01*
X129559523Y-70674404D01*
X129559523Y-69864880D02*
X129559523Y-70350595D01*
X129559523Y-70107738D02*
X128709523Y-70107738D01*
X128830952Y-70188690D01*
X128911904Y-70269642D01*
X128952380Y-70350595D01*
%TO.C,R47*%
X82791071Y-71134523D02*
X82507738Y-70729761D01*
X82305357Y-71134523D02*
X82305357Y-70284523D01*
X82629166Y-70284523D01*
X82710119Y-70325000D01*
X82750595Y-70365476D01*
X82791071Y-70446428D01*
X82791071Y-70567857D01*
X82750595Y-70648809D01*
X82710119Y-70689285D01*
X82629166Y-70729761D01*
X82305357Y-70729761D01*
X83519642Y-70567857D02*
X83519642Y-71134523D01*
X83317261Y-70244047D02*
X83114880Y-70851190D01*
X83641071Y-70851190D01*
X83883928Y-70284523D02*
X84450595Y-70284523D01*
X84086309Y-71134523D01*
%TO.C,C2*%
X124108333Y-114218571D02*
X124067857Y-114259047D01*
X123946428Y-114299523D01*
X123865476Y-114299523D01*
X123744047Y-114259047D01*
X123663095Y-114178095D01*
X123622619Y-114097142D01*
X123582142Y-113935238D01*
X123582142Y-113813809D01*
X123622619Y-113651904D01*
X123663095Y-113570952D01*
X123744047Y-113490000D01*
X123865476Y-113449523D01*
X123946428Y-113449523D01*
X124067857Y-113490000D01*
X124108333Y-113530476D01*
X124432142Y-113530476D02*
X124472619Y-113490000D01*
X124553571Y-113449523D01*
X124755952Y-113449523D01*
X124836904Y-113490000D01*
X124877380Y-113530476D01*
X124917857Y-113611428D01*
X124917857Y-113692380D01*
X124877380Y-113813809D01*
X124391666Y-114299523D01*
X124917857Y-114299523D01*
%TO.C,R17*%
X129609523Y-74933928D02*
X129204761Y-75217261D01*
X129609523Y-75419642D02*
X128759523Y-75419642D01*
X128759523Y-75095833D01*
X128800000Y-75014880D01*
X128840476Y-74974404D01*
X128921428Y-74933928D01*
X129042857Y-74933928D01*
X129123809Y-74974404D01*
X129164285Y-75014880D01*
X129204761Y-75095833D01*
X129204761Y-75419642D01*
X129609523Y-74124404D02*
X129609523Y-74610119D01*
X129609523Y-74367261D02*
X128759523Y-74367261D01*
X128880952Y-74448214D01*
X128961904Y-74529166D01*
X129002380Y-74610119D01*
X128759523Y-73841071D02*
X128759523Y-73274404D01*
X129609523Y-73638690D01*
%TO.C,C29*%
X90033571Y-65746428D02*
X90074047Y-65786904D01*
X90114523Y-65908333D01*
X90114523Y-65989285D01*
X90074047Y-66110714D01*
X89993095Y-66191666D01*
X89912142Y-66232142D01*
X89750238Y-66272619D01*
X89628809Y-66272619D01*
X89466904Y-66232142D01*
X89385952Y-66191666D01*
X89305000Y-66110714D01*
X89264523Y-65989285D01*
X89264523Y-65908333D01*
X89305000Y-65786904D01*
X89345476Y-65746428D01*
X89345476Y-65422619D02*
X89305000Y-65382142D01*
X89264523Y-65301190D01*
X89264523Y-65098809D01*
X89305000Y-65017857D01*
X89345476Y-64977380D01*
X89426428Y-64936904D01*
X89507380Y-64936904D01*
X89628809Y-64977380D01*
X90114523Y-65463095D01*
X90114523Y-64936904D01*
X90114523Y-64532142D02*
X90114523Y-64370238D01*
X90074047Y-64289285D01*
X90033571Y-64248809D01*
X89912142Y-64167857D01*
X89750238Y-64127380D01*
X89426428Y-64127380D01*
X89345476Y-64167857D01*
X89305000Y-64208333D01*
X89264523Y-64289285D01*
X89264523Y-64451190D01*
X89305000Y-64532142D01*
X89345476Y-64572619D01*
X89426428Y-64613095D01*
X89628809Y-64613095D01*
X89709761Y-64572619D01*
X89750238Y-64532142D01*
X89790714Y-64451190D01*
X89790714Y-64289285D01*
X89750238Y-64208333D01*
X89709761Y-64167857D01*
X89628809Y-64127380D01*
%TO.C,C37*%
X114803571Y-88896428D02*
X114844047Y-88936904D01*
X114884523Y-89058333D01*
X114884523Y-89139285D01*
X114844047Y-89260714D01*
X114763095Y-89341666D01*
X114682142Y-89382142D01*
X114520238Y-89422619D01*
X114398809Y-89422619D01*
X114236904Y-89382142D01*
X114155952Y-89341666D01*
X114075000Y-89260714D01*
X114034523Y-89139285D01*
X114034523Y-89058333D01*
X114075000Y-88936904D01*
X114115476Y-88896428D01*
X114034523Y-88613095D02*
X114034523Y-88086904D01*
X114358333Y-88370238D01*
X114358333Y-88248809D01*
X114398809Y-88167857D01*
X114439285Y-88127380D01*
X114520238Y-88086904D01*
X114722619Y-88086904D01*
X114803571Y-88127380D01*
X114844047Y-88167857D01*
X114884523Y-88248809D01*
X114884523Y-88491666D01*
X114844047Y-88572619D01*
X114803571Y-88613095D01*
X114034523Y-87803571D02*
X114034523Y-87236904D01*
X114884523Y-87601190D01*
%TO.C,U3*%
X119627380Y-87684523D02*
X119627380Y-88372619D01*
X119667857Y-88453571D01*
X119708333Y-88494047D01*
X119789285Y-88534523D01*
X119951190Y-88534523D01*
X120032142Y-88494047D01*
X120072619Y-88453571D01*
X120113095Y-88372619D01*
X120113095Y-87684523D01*
X120436904Y-87684523D02*
X120963095Y-87684523D01*
X120679761Y-88008333D01*
X120801190Y-88008333D01*
X120882142Y-88048809D01*
X120922619Y-88089285D01*
X120963095Y-88170238D01*
X120963095Y-88372619D01*
X120922619Y-88453571D01*
X120882142Y-88494047D01*
X120801190Y-88534523D01*
X120558333Y-88534523D01*
X120477380Y-88494047D01*
X120436904Y-88453571D01*
%TO.C,C17*%
X97553571Y-109308928D02*
X97594047Y-109349404D01*
X97634523Y-109470833D01*
X97634523Y-109551785D01*
X97594047Y-109673214D01*
X97513095Y-109754166D01*
X97432142Y-109794642D01*
X97270238Y-109835119D01*
X97148809Y-109835119D01*
X96986904Y-109794642D01*
X96905952Y-109754166D01*
X96825000Y-109673214D01*
X96784523Y-109551785D01*
X96784523Y-109470833D01*
X96825000Y-109349404D01*
X96865476Y-109308928D01*
X97634523Y-108499404D02*
X97634523Y-108985119D01*
X97634523Y-108742261D02*
X96784523Y-108742261D01*
X96905952Y-108823214D01*
X96986904Y-108904166D01*
X97027380Y-108985119D01*
X96784523Y-108216071D02*
X96784523Y-107649404D01*
X97634523Y-108013690D01*
%TO.C,C1*%
X132053571Y-100191666D02*
X132094047Y-100232142D01*
X132134523Y-100353571D01*
X132134523Y-100434523D01*
X132094047Y-100555952D01*
X132013095Y-100636904D01*
X131932142Y-100677380D01*
X131770238Y-100717857D01*
X131648809Y-100717857D01*
X131486904Y-100677380D01*
X131405952Y-100636904D01*
X131325000Y-100555952D01*
X131284523Y-100434523D01*
X131284523Y-100353571D01*
X131325000Y-100232142D01*
X131365476Y-100191666D01*
X132134523Y-99382142D02*
X132134523Y-99867857D01*
X132134523Y-99625000D02*
X131284523Y-99625000D01*
X131405952Y-99705952D01*
X131486904Y-99786904D01*
X131527380Y-99867857D01*
%TO.C,R57*%
X102784523Y-96396428D02*
X102379761Y-96679761D01*
X102784523Y-96882142D02*
X101934523Y-96882142D01*
X101934523Y-96558333D01*
X101975000Y-96477380D01*
X102015476Y-96436904D01*
X102096428Y-96396428D01*
X102217857Y-96396428D01*
X102298809Y-96436904D01*
X102339285Y-96477380D01*
X102379761Y-96558333D01*
X102379761Y-96882142D01*
X101934523Y-95627380D02*
X101934523Y-96032142D01*
X102339285Y-96072619D01*
X102298809Y-96032142D01*
X102258333Y-95951190D01*
X102258333Y-95748809D01*
X102298809Y-95667857D01*
X102339285Y-95627380D01*
X102420238Y-95586904D01*
X102622619Y-95586904D01*
X102703571Y-95627380D01*
X102744047Y-95667857D01*
X102784523Y-95748809D01*
X102784523Y-95951190D01*
X102744047Y-96032142D01*
X102703571Y-96072619D01*
X101934523Y-95303571D02*
X101934523Y-94736904D01*
X102784523Y-95101190D01*
%TO.C,R52*%
X82453571Y-58484523D02*
X82170238Y-58079761D01*
X81967857Y-58484523D02*
X81967857Y-57634523D01*
X82291666Y-57634523D01*
X82372619Y-57675000D01*
X82413095Y-57715476D01*
X82453571Y-57796428D01*
X82453571Y-57917857D01*
X82413095Y-57998809D01*
X82372619Y-58039285D01*
X82291666Y-58079761D01*
X81967857Y-58079761D01*
X83222619Y-57634523D02*
X82817857Y-57634523D01*
X82777380Y-58039285D01*
X82817857Y-57998809D01*
X82898809Y-57958333D01*
X83101190Y-57958333D01*
X83182142Y-57998809D01*
X83222619Y-58039285D01*
X83263095Y-58120238D01*
X83263095Y-58322619D01*
X83222619Y-58403571D01*
X83182142Y-58444047D01*
X83101190Y-58484523D01*
X82898809Y-58484523D01*
X82817857Y-58444047D01*
X82777380Y-58403571D01*
X83586904Y-57715476D02*
X83627380Y-57675000D01*
X83708333Y-57634523D01*
X83910714Y-57634523D01*
X83991666Y-57675000D01*
X84032142Y-57715476D01*
X84072619Y-57796428D01*
X84072619Y-57877380D01*
X84032142Y-57998809D01*
X83546428Y-58484523D01*
X84072619Y-58484523D01*
%TO.C,Q1*%
X137494047Y-82765476D02*
X137413095Y-82725000D01*
X137332142Y-82644047D01*
X137210714Y-82522619D01*
X137129761Y-82482142D01*
X137048809Y-82482142D01*
X137089285Y-82684523D02*
X137008333Y-82644047D01*
X136927380Y-82563095D01*
X136886904Y-82401190D01*
X136886904Y-82117857D01*
X136927380Y-81955952D01*
X137008333Y-81875000D01*
X137089285Y-81834523D01*
X137251190Y-81834523D01*
X137332142Y-81875000D01*
X137413095Y-81955952D01*
X137453571Y-82117857D01*
X137453571Y-82401190D01*
X137413095Y-82563095D01*
X137332142Y-82644047D01*
X137251190Y-82684523D01*
X137089285Y-82684523D01*
X138263095Y-82684523D02*
X137777380Y-82684523D01*
X138020238Y-82684523D02*
X138020238Y-81834523D01*
X137939285Y-81955952D01*
X137858333Y-82036904D01*
X137777380Y-82077380D01*
%TO.C,U13*%
X80347619Y-61384523D02*
X80347619Y-62072619D01*
X80388095Y-62153571D01*
X80428571Y-62194047D01*
X80509523Y-62234523D01*
X80671428Y-62234523D01*
X80752380Y-62194047D01*
X80792857Y-62153571D01*
X80833333Y-62072619D01*
X80833333Y-61384523D01*
X81683333Y-62234523D02*
X81197619Y-62234523D01*
X81440476Y-62234523D02*
X81440476Y-61384523D01*
X81359523Y-61505952D01*
X81278571Y-61586904D01*
X81197619Y-61627380D01*
X81966666Y-61384523D02*
X82492857Y-61384523D01*
X82209523Y-61708333D01*
X82330952Y-61708333D01*
X82411904Y-61748809D01*
X82452380Y-61789285D01*
X82492857Y-61870238D01*
X82492857Y-62072619D01*
X82452380Y-62153571D01*
X82411904Y-62194047D01*
X82330952Y-62234523D01*
X82088095Y-62234523D01*
X82007142Y-62194047D01*
X81966666Y-62153571D01*
%TO.C,R54*%
X62166071Y-81634523D02*
X61882738Y-81229761D01*
X61680357Y-81634523D02*
X61680357Y-80784523D01*
X62004166Y-80784523D01*
X62085119Y-80825000D01*
X62125595Y-80865476D01*
X62166071Y-80946428D01*
X62166071Y-81067857D01*
X62125595Y-81148809D01*
X62085119Y-81189285D01*
X62004166Y-81229761D01*
X61680357Y-81229761D01*
X62935119Y-80784523D02*
X62530357Y-80784523D01*
X62489880Y-81189285D01*
X62530357Y-81148809D01*
X62611309Y-81108333D01*
X62813690Y-81108333D01*
X62894642Y-81148809D01*
X62935119Y-81189285D01*
X62975595Y-81270238D01*
X62975595Y-81472619D01*
X62935119Y-81553571D01*
X62894642Y-81594047D01*
X62813690Y-81634523D01*
X62611309Y-81634523D01*
X62530357Y-81594047D01*
X62489880Y-81553571D01*
X63704166Y-81067857D02*
X63704166Y-81634523D01*
X63501785Y-80744047D02*
X63299404Y-81351190D01*
X63825595Y-81351190D01*
%TO.C,C24*%
X81633571Y-54271428D02*
X81674047Y-54311904D01*
X81714523Y-54433333D01*
X81714523Y-54514285D01*
X81674047Y-54635714D01*
X81593095Y-54716666D01*
X81512142Y-54757142D01*
X81350238Y-54797619D01*
X81228809Y-54797619D01*
X81066904Y-54757142D01*
X80985952Y-54716666D01*
X80905000Y-54635714D01*
X80864523Y-54514285D01*
X80864523Y-54433333D01*
X80905000Y-54311904D01*
X80945476Y-54271428D01*
X80945476Y-53947619D02*
X80905000Y-53907142D01*
X80864523Y-53826190D01*
X80864523Y-53623809D01*
X80905000Y-53542857D01*
X80945476Y-53502380D01*
X81026428Y-53461904D01*
X81107380Y-53461904D01*
X81228809Y-53502380D01*
X81714523Y-53988095D01*
X81714523Y-53461904D01*
X81147857Y-52733333D02*
X81714523Y-52733333D01*
X80824047Y-52935714D02*
X81431190Y-53138095D01*
X81431190Y-52611904D01*
%TO.C,R31*%
X132284523Y-58446428D02*
X131879761Y-58729761D01*
X132284523Y-58932142D02*
X131434523Y-58932142D01*
X131434523Y-58608333D01*
X131475000Y-58527380D01*
X131515476Y-58486904D01*
X131596428Y-58446428D01*
X131717857Y-58446428D01*
X131798809Y-58486904D01*
X131839285Y-58527380D01*
X131879761Y-58608333D01*
X131879761Y-58932142D01*
X131434523Y-58163095D02*
X131434523Y-57636904D01*
X131758333Y-57920238D01*
X131758333Y-57798809D01*
X131798809Y-57717857D01*
X131839285Y-57677380D01*
X131920238Y-57636904D01*
X132122619Y-57636904D01*
X132203571Y-57677380D01*
X132244047Y-57717857D01*
X132284523Y-57798809D01*
X132284523Y-58041666D01*
X132244047Y-58122619D01*
X132203571Y-58163095D01*
X132284523Y-56827380D02*
X132284523Y-57313095D01*
X132284523Y-57070238D02*
X131434523Y-57070238D01*
X131555952Y-57151190D01*
X131636904Y-57232142D01*
X131677380Y-57313095D01*
%TO.C,R8*%
X109334523Y-67729166D02*
X108929761Y-68012500D01*
X109334523Y-68214880D02*
X108484523Y-68214880D01*
X108484523Y-67891071D01*
X108525000Y-67810119D01*
X108565476Y-67769642D01*
X108646428Y-67729166D01*
X108767857Y-67729166D01*
X108848809Y-67769642D01*
X108889285Y-67810119D01*
X108929761Y-67891071D01*
X108929761Y-68214880D01*
X108848809Y-67243452D02*
X108808333Y-67324404D01*
X108767857Y-67364880D01*
X108686904Y-67405357D01*
X108646428Y-67405357D01*
X108565476Y-67364880D01*
X108525000Y-67324404D01*
X108484523Y-67243452D01*
X108484523Y-67081547D01*
X108525000Y-67000595D01*
X108565476Y-66960119D01*
X108646428Y-66919642D01*
X108686904Y-66919642D01*
X108767857Y-66960119D01*
X108808333Y-67000595D01*
X108848809Y-67081547D01*
X108848809Y-67243452D01*
X108889285Y-67324404D01*
X108929761Y-67364880D01*
X109010714Y-67405357D01*
X109172619Y-67405357D01*
X109253571Y-67364880D01*
X109294047Y-67324404D01*
X109334523Y-67243452D01*
X109334523Y-67081547D01*
X109294047Y-67000595D01*
X109253571Y-66960119D01*
X109172619Y-66919642D01*
X109010714Y-66919642D01*
X108929761Y-66960119D01*
X108889285Y-67000595D01*
X108848809Y-67081547D01*
%TO.C,R15*%
X127578571Y-77084523D02*
X127295238Y-76679761D01*
X127092857Y-77084523D02*
X127092857Y-76234523D01*
X127416666Y-76234523D01*
X127497619Y-76275000D01*
X127538095Y-76315476D01*
X127578571Y-76396428D01*
X127578571Y-76517857D01*
X127538095Y-76598809D01*
X127497619Y-76639285D01*
X127416666Y-76679761D01*
X127092857Y-76679761D01*
X128388095Y-77084523D02*
X127902380Y-77084523D01*
X128145238Y-77084523D02*
X128145238Y-76234523D01*
X128064285Y-76355952D01*
X127983333Y-76436904D01*
X127902380Y-76477380D01*
X129157142Y-76234523D02*
X128752380Y-76234523D01*
X128711904Y-76639285D01*
X128752380Y-76598809D01*
X128833333Y-76558333D01*
X129035714Y-76558333D01*
X129116666Y-76598809D01*
X129157142Y-76639285D01*
X129197619Y-76720238D01*
X129197619Y-76922619D01*
X129157142Y-77003571D01*
X129116666Y-77044047D01*
X129035714Y-77084523D01*
X128833333Y-77084523D01*
X128752380Y-77044047D01*
X128711904Y-77003571D01*
%TO.C,C12*%
X132578571Y-75041071D02*
X132538095Y-75081547D01*
X132416666Y-75122023D01*
X132335714Y-75122023D01*
X132214285Y-75081547D01*
X132133333Y-75000595D01*
X132092857Y-74919642D01*
X132052380Y-74757738D01*
X132052380Y-74636309D01*
X132092857Y-74474404D01*
X132133333Y-74393452D01*
X132214285Y-74312500D01*
X132335714Y-74272023D01*
X132416666Y-74272023D01*
X132538095Y-74312500D01*
X132578571Y-74352976D01*
X133388095Y-75122023D02*
X132902380Y-75122023D01*
X133145238Y-75122023D02*
X133145238Y-74272023D01*
X133064285Y-74393452D01*
X132983333Y-74474404D01*
X132902380Y-74514880D01*
X133711904Y-74352976D02*
X133752380Y-74312500D01*
X133833333Y-74272023D01*
X134035714Y-74272023D01*
X134116666Y-74312500D01*
X134157142Y-74352976D01*
X134197619Y-74433928D01*
X134197619Y-74514880D01*
X134157142Y-74636309D01*
X133671428Y-75122023D01*
X134197619Y-75122023D01*
%TO.C,U8*%
X121002380Y-57034523D02*
X121002380Y-57722619D01*
X121042857Y-57803571D01*
X121083333Y-57844047D01*
X121164285Y-57884523D01*
X121326190Y-57884523D01*
X121407142Y-57844047D01*
X121447619Y-57803571D01*
X121488095Y-57722619D01*
X121488095Y-57034523D01*
X122014285Y-57398809D02*
X121933333Y-57358333D01*
X121892857Y-57317857D01*
X121852380Y-57236904D01*
X121852380Y-57196428D01*
X121892857Y-57115476D01*
X121933333Y-57075000D01*
X122014285Y-57034523D01*
X122176190Y-57034523D01*
X122257142Y-57075000D01*
X122297619Y-57115476D01*
X122338095Y-57196428D01*
X122338095Y-57236904D01*
X122297619Y-57317857D01*
X122257142Y-57358333D01*
X122176190Y-57398809D01*
X122014285Y-57398809D01*
X121933333Y-57439285D01*
X121892857Y-57479761D01*
X121852380Y-57560714D01*
X121852380Y-57722619D01*
X121892857Y-57803571D01*
X121933333Y-57844047D01*
X122014285Y-57884523D01*
X122176190Y-57884523D01*
X122257142Y-57844047D01*
X122297619Y-57803571D01*
X122338095Y-57722619D01*
X122338095Y-57560714D01*
X122297619Y-57479761D01*
X122257142Y-57439285D01*
X122176190Y-57398809D01*
%TO.C,R16*%
X112791071Y-55434523D02*
X112507738Y-55029761D01*
X112305357Y-55434523D02*
X112305357Y-54584523D01*
X112629166Y-54584523D01*
X112710119Y-54625000D01*
X112750595Y-54665476D01*
X112791071Y-54746428D01*
X112791071Y-54867857D01*
X112750595Y-54948809D01*
X112710119Y-54989285D01*
X112629166Y-55029761D01*
X112305357Y-55029761D01*
X113600595Y-55434523D02*
X113114880Y-55434523D01*
X113357738Y-55434523D02*
X113357738Y-54584523D01*
X113276785Y-54705952D01*
X113195833Y-54786904D01*
X113114880Y-54827380D01*
X114329166Y-54584523D02*
X114167261Y-54584523D01*
X114086309Y-54625000D01*
X114045833Y-54665476D01*
X113964880Y-54786904D01*
X113924404Y-54948809D01*
X113924404Y-55272619D01*
X113964880Y-55353571D01*
X114005357Y-55394047D01*
X114086309Y-55434523D01*
X114248214Y-55434523D01*
X114329166Y-55394047D01*
X114369642Y-55353571D01*
X114410119Y-55272619D01*
X114410119Y-55070238D01*
X114369642Y-54989285D01*
X114329166Y-54948809D01*
X114248214Y-54908333D01*
X114086309Y-54908333D01*
X114005357Y-54948809D01*
X113964880Y-54989285D01*
X113924404Y-55070238D01*
%TO.C,R2*%
X126958333Y-103897023D02*
X126675000Y-103492261D01*
X126472619Y-103897023D02*
X126472619Y-103047023D01*
X126796428Y-103047023D01*
X126877380Y-103087500D01*
X126917857Y-103127976D01*
X126958333Y-103208928D01*
X126958333Y-103330357D01*
X126917857Y-103411309D01*
X126877380Y-103451785D01*
X126796428Y-103492261D01*
X126472619Y-103492261D01*
X127282142Y-103127976D02*
X127322619Y-103087500D01*
X127403571Y-103047023D01*
X127605952Y-103047023D01*
X127686904Y-103087500D01*
X127727380Y-103127976D01*
X127767857Y-103208928D01*
X127767857Y-103289880D01*
X127727380Y-103411309D01*
X127241666Y-103897023D01*
X127767857Y-103897023D01*
%TO.C,R36*%
X103284523Y-83996428D02*
X102879761Y-84279761D01*
X103284523Y-84482142D02*
X102434523Y-84482142D01*
X102434523Y-84158333D01*
X102475000Y-84077380D01*
X102515476Y-84036904D01*
X102596428Y-83996428D01*
X102717857Y-83996428D01*
X102798809Y-84036904D01*
X102839285Y-84077380D01*
X102879761Y-84158333D01*
X102879761Y-84482142D01*
X102434523Y-83713095D02*
X102434523Y-83186904D01*
X102758333Y-83470238D01*
X102758333Y-83348809D01*
X102798809Y-83267857D01*
X102839285Y-83227380D01*
X102920238Y-83186904D01*
X103122619Y-83186904D01*
X103203571Y-83227380D01*
X103244047Y-83267857D01*
X103284523Y-83348809D01*
X103284523Y-83591666D01*
X103244047Y-83672619D01*
X103203571Y-83713095D01*
X102434523Y-82458333D02*
X102434523Y-82620238D01*
X102475000Y-82701190D01*
X102515476Y-82741666D01*
X102636904Y-82822619D01*
X102798809Y-82863095D01*
X103122619Y-82863095D01*
X103203571Y-82822619D01*
X103244047Y-82782142D01*
X103284523Y-82701190D01*
X103284523Y-82539285D01*
X103244047Y-82458333D01*
X103203571Y-82417857D01*
X103122619Y-82377380D01*
X102920238Y-82377380D01*
X102839285Y-82417857D01*
X102798809Y-82458333D01*
X102758333Y-82539285D01*
X102758333Y-82701190D01*
X102798809Y-82782142D01*
X102839285Y-82822619D01*
X102920238Y-82863095D01*
%TO.C,J4*%
X42499166Y-60409523D02*
X42499166Y-61016666D01*
X42458690Y-61138095D01*
X42377738Y-61219047D01*
X42256309Y-61259523D01*
X42175357Y-61259523D01*
X43268214Y-60692857D02*
X43268214Y-61259523D01*
X43065833Y-60369047D02*
X42863452Y-60976190D01*
X43389642Y-60976190D01*
%TO.C,Q4*%
X97365476Y-88480952D02*
X97325000Y-88561904D01*
X97244047Y-88642857D01*
X97122619Y-88764285D01*
X97082142Y-88845238D01*
X97082142Y-88926190D01*
X97284523Y-88885714D02*
X97244047Y-88966666D01*
X97163095Y-89047619D01*
X97001190Y-89088095D01*
X96717857Y-89088095D01*
X96555952Y-89047619D01*
X96475000Y-88966666D01*
X96434523Y-88885714D01*
X96434523Y-88723809D01*
X96475000Y-88642857D01*
X96555952Y-88561904D01*
X96717857Y-88521428D01*
X97001190Y-88521428D01*
X97163095Y-88561904D01*
X97244047Y-88642857D01*
X97284523Y-88723809D01*
X97284523Y-88885714D01*
X96717857Y-87792857D02*
X97284523Y-87792857D01*
X96394047Y-87995238D02*
X97001190Y-88197619D01*
X97001190Y-87671428D01*
%TO.C,JP1*%
X97091666Y-100984523D02*
X97091666Y-101591666D01*
X97051190Y-101713095D01*
X96970238Y-101794047D01*
X96848809Y-101834523D01*
X96767857Y-101834523D01*
X97496428Y-101834523D02*
X97496428Y-100984523D01*
X97820238Y-100984523D01*
X97901190Y-101025000D01*
X97941666Y-101065476D01*
X97982142Y-101146428D01*
X97982142Y-101267857D01*
X97941666Y-101348809D01*
X97901190Y-101389285D01*
X97820238Y-101429761D01*
X97496428Y-101429761D01*
X98791666Y-101834523D02*
X98305952Y-101834523D01*
X98548809Y-101834523D02*
X98548809Y-100984523D01*
X98467857Y-101105952D01*
X98386904Y-101186904D01*
X98305952Y-101227380D01*
%TO.C,U17*%
X111397619Y-82334523D02*
X111397619Y-83022619D01*
X111438095Y-83103571D01*
X111478571Y-83144047D01*
X111559523Y-83184523D01*
X111721428Y-83184523D01*
X111802380Y-83144047D01*
X111842857Y-83103571D01*
X111883333Y-83022619D01*
X111883333Y-82334523D01*
X112733333Y-83184523D02*
X112247619Y-83184523D01*
X112490476Y-83184523D02*
X112490476Y-82334523D01*
X112409523Y-82455952D01*
X112328571Y-82536904D01*
X112247619Y-82577380D01*
X113016666Y-82334523D02*
X113583333Y-82334523D01*
X113219047Y-83184523D01*
%TO.C,U14*%
X111647619Y-63534523D02*
X111647619Y-64222619D01*
X111688095Y-64303571D01*
X111728571Y-64344047D01*
X111809523Y-64384523D01*
X111971428Y-64384523D01*
X112052380Y-64344047D01*
X112092857Y-64303571D01*
X112133333Y-64222619D01*
X112133333Y-63534523D01*
X112983333Y-64384523D02*
X112497619Y-64384523D01*
X112740476Y-64384523D02*
X112740476Y-63534523D01*
X112659523Y-63655952D01*
X112578571Y-63736904D01*
X112497619Y-63777380D01*
X113711904Y-63817857D02*
X113711904Y-64384523D01*
X113509523Y-63494047D02*
X113307142Y-64101190D01*
X113833333Y-64101190D01*
%TO.C,D4*%
X54234523Y-51177380D02*
X53384523Y-51177380D01*
X53384523Y-50975000D01*
X53425000Y-50853571D01*
X53505952Y-50772619D01*
X53586904Y-50732142D01*
X53748809Y-50691666D01*
X53870238Y-50691666D01*
X54032142Y-50732142D01*
X54113095Y-50772619D01*
X54194047Y-50853571D01*
X54234523Y-50975000D01*
X54234523Y-51177380D01*
X53667857Y-49963095D02*
X54234523Y-49963095D01*
X53344047Y-50165476D02*
X53951190Y-50367857D01*
X53951190Y-49841666D01*
%TO.C,H1*%
X43852380Y-45184523D02*
X43852380Y-44334523D01*
X43852380Y-44739285D02*
X44338095Y-44739285D01*
X44338095Y-45184523D02*
X44338095Y-44334523D01*
X45188095Y-45184523D02*
X44702380Y-45184523D01*
X44945238Y-45184523D02*
X44945238Y-44334523D01*
X44864285Y-44455952D01*
X44783333Y-44536904D01*
X44702380Y-44577380D01*
%TO.C,C26*%
X73323571Y-58396428D02*
X73364047Y-58436904D01*
X73404523Y-58558333D01*
X73404523Y-58639285D01*
X73364047Y-58760714D01*
X73283095Y-58841666D01*
X73202142Y-58882142D01*
X73040238Y-58922619D01*
X72918809Y-58922619D01*
X72756904Y-58882142D01*
X72675952Y-58841666D01*
X72595000Y-58760714D01*
X72554523Y-58639285D01*
X72554523Y-58558333D01*
X72595000Y-58436904D01*
X72635476Y-58396428D01*
X72635476Y-58072619D02*
X72595000Y-58032142D01*
X72554523Y-57951190D01*
X72554523Y-57748809D01*
X72595000Y-57667857D01*
X72635476Y-57627380D01*
X72716428Y-57586904D01*
X72797380Y-57586904D01*
X72918809Y-57627380D01*
X73404523Y-58113095D01*
X73404523Y-57586904D01*
X72554523Y-56858333D02*
X72554523Y-57020238D01*
X72595000Y-57101190D01*
X72635476Y-57141666D01*
X72756904Y-57222619D01*
X72918809Y-57263095D01*
X73242619Y-57263095D01*
X73323571Y-57222619D01*
X73364047Y-57182142D01*
X73404523Y-57101190D01*
X73404523Y-56939285D01*
X73364047Y-56858333D01*
X73323571Y-56817857D01*
X73242619Y-56777380D01*
X73040238Y-56777380D01*
X72959285Y-56817857D01*
X72918809Y-56858333D01*
X72878333Y-56939285D01*
X72878333Y-57101190D01*
X72918809Y-57182142D01*
X72959285Y-57222619D01*
X73040238Y-57263095D01*
%TO.C,R38*%
X104984523Y-65496428D02*
X104579761Y-65779761D01*
X104984523Y-65982142D02*
X104134523Y-65982142D01*
X104134523Y-65658333D01*
X104175000Y-65577380D01*
X104215476Y-65536904D01*
X104296428Y-65496428D01*
X104417857Y-65496428D01*
X104498809Y-65536904D01*
X104539285Y-65577380D01*
X104579761Y-65658333D01*
X104579761Y-65982142D01*
X104134523Y-65213095D02*
X104134523Y-64686904D01*
X104458333Y-64970238D01*
X104458333Y-64848809D01*
X104498809Y-64767857D01*
X104539285Y-64727380D01*
X104620238Y-64686904D01*
X104822619Y-64686904D01*
X104903571Y-64727380D01*
X104944047Y-64767857D01*
X104984523Y-64848809D01*
X104984523Y-65091666D01*
X104944047Y-65172619D01*
X104903571Y-65213095D01*
X104498809Y-64201190D02*
X104458333Y-64282142D01*
X104417857Y-64322619D01*
X104336904Y-64363095D01*
X104296428Y-64363095D01*
X104215476Y-64322619D01*
X104175000Y-64282142D01*
X104134523Y-64201190D01*
X104134523Y-64039285D01*
X104175000Y-63958333D01*
X104215476Y-63917857D01*
X104296428Y-63877380D01*
X104336904Y-63877380D01*
X104417857Y-63917857D01*
X104458333Y-63958333D01*
X104498809Y-64039285D01*
X104498809Y-64201190D01*
X104539285Y-64282142D01*
X104579761Y-64322619D01*
X104660714Y-64363095D01*
X104822619Y-64363095D01*
X104903571Y-64322619D01*
X104944047Y-64282142D01*
X104984523Y-64201190D01*
X104984523Y-64039285D01*
X104944047Y-63958333D01*
X104903571Y-63917857D01*
X104822619Y-63877380D01*
X104660714Y-63877380D01*
X104579761Y-63917857D01*
X104539285Y-63958333D01*
X104498809Y-64039285D01*
%TO.C,C6*%
X140058333Y-89953571D02*
X140017857Y-89994047D01*
X139896428Y-90034523D01*
X139815476Y-90034523D01*
X139694047Y-89994047D01*
X139613095Y-89913095D01*
X139572619Y-89832142D01*
X139532142Y-89670238D01*
X139532142Y-89548809D01*
X139572619Y-89386904D01*
X139613095Y-89305952D01*
X139694047Y-89225000D01*
X139815476Y-89184523D01*
X139896428Y-89184523D01*
X140017857Y-89225000D01*
X140058333Y-89265476D01*
X140786904Y-89184523D02*
X140625000Y-89184523D01*
X140544047Y-89225000D01*
X140503571Y-89265476D01*
X140422619Y-89386904D01*
X140382142Y-89548809D01*
X140382142Y-89872619D01*
X140422619Y-89953571D01*
X140463095Y-89994047D01*
X140544047Y-90034523D01*
X140705952Y-90034523D01*
X140786904Y-89994047D01*
X140827380Y-89953571D01*
X140867857Y-89872619D01*
X140867857Y-89670238D01*
X140827380Y-89589285D01*
X140786904Y-89548809D01*
X140705952Y-89508333D01*
X140544047Y-89508333D01*
X140463095Y-89548809D01*
X140422619Y-89589285D01*
X140382142Y-89670238D01*
%TO.C,R27*%
X118434523Y-63196428D02*
X118029761Y-63479761D01*
X118434523Y-63682142D02*
X117584523Y-63682142D01*
X117584523Y-63358333D01*
X117625000Y-63277380D01*
X117665476Y-63236904D01*
X117746428Y-63196428D01*
X117867857Y-63196428D01*
X117948809Y-63236904D01*
X117989285Y-63277380D01*
X118029761Y-63358333D01*
X118029761Y-63682142D01*
X117665476Y-62872619D02*
X117625000Y-62832142D01*
X117584523Y-62751190D01*
X117584523Y-62548809D01*
X117625000Y-62467857D01*
X117665476Y-62427380D01*
X117746428Y-62386904D01*
X117827380Y-62386904D01*
X117948809Y-62427380D01*
X118434523Y-62913095D01*
X118434523Y-62386904D01*
X117584523Y-62103571D02*
X117584523Y-61536904D01*
X118434523Y-61901190D01*
%TO.C,R40*%
X96703571Y-77734523D02*
X96420238Y-77329761D01*
X96217857Y-77734523D02*
X96217857Y-76884523D01*
X96541666Y-76884523D01*
X96622619Y-76925000D01*
X96663095Y-76965476D01*
X96703571Y-77046428D01*
X96703571Y-77167857D01*
X96663095Y-77248809D01*
X96622619Y-77289285D01*
X96541666Y-77329761D01*
X96217857Y-77329761D01*
X97432142Y-77167857D02*
X97432142Y-77734523D01*
X97229761Y-76844047D02*
X97027380Y-77451190D01*
X97553571Y-77451190D01*
X98039285Y-76884523D02*
X98120238Y-76884523D01*
X98201190Y-76925000D01*
X98241666Y-76965476D01*
X98282142Y-77046428D01*
X98322619Y-77208333D01*
X98322619Y-77410714D01*
X98282142Y-77572619D01*
X98241666Y-77653571D01*
X98201190Y-77694047D01*
X98120238Y-77734523D01*
X98039285Y-77734523D01*
X97958333Y-77694047D01*
X97917857Y-77653571D01*
X97877380Y-77572619D01*
X97836904Y-77410714D01*
X97836904Y-77208333D01*
X97877380Y-77046428D01*
X97917857Y-76965476D01*
X97958333Y-76925000D01*
X98039285Y-76884523D01*
%TO.C,R41*%
X101634523Y-74146428D02*
X101229761Y-74429761D01*
X101634523Y-74632142D02*
X100784523Y-74632142D01*
X100784523Y-74308333D01*
X100825000Y-74227380D01*
X100865476Y-74186904D01*
X100946428Y-74146428D01*
X101067857Y-74146428D01*
X101148809Y-74186904D01*
X101189285Y-74227380D01*
X101229761Y-74308333D01*
X101229761Y-74632142D01*
X101067857Y-73417857D02*
X101634523Y-73417857D01*
X100744047Y-73620238D02*
X101351190Y-73822619D01*
X101351190Y-73296428D01*
X101634523Y-72527380D02*
X101634523Y-73013095D01*
X101634523Y-72770238D02*
X100784523Y-72770238D01*
X100905952Y-72851190D01*
X100986904Y-72932142D01*
X101027380Y-73013095D01*
%TO.C,U6*%
X115084523Y-74547619D02*
X115772619Y-74547619D01*
X115853571Y-74507142D01*
X115894047Y-74466666D01*
X115934523Y-74385714D01*
X115934523Y-74223809D01*
X115894047Y-74142857D01*
X115853571Y-74102380D01*
X115772619Y-74061904D01*
X115084523Y-74061904D01*
X115084523Y-73292857D02*
X115084523Y-73454761D01*
X115125000Y-73535714D01*
X115165476Y-73576190D01*
X115286904Y-73657142D01*
X115448809Y-73697619D01*
X115772619Y-73697619D01*
X115853571Y-73657142D01*
X115894047Y-73616666D01*
X115934523Y-73535714D01*
X115934523Y-73373809D01*
X115894047Y-73292857D01*
X115853571Y-73252380D01*
X115772619Y-73211904D01*
X115570238Y-73211904D01*
X115489285Y-73252380D01*
X115448809Y-73292857D01*
X115408333Y-73373809D01*
X115408333Y-73535714D01*
X115448809Y-73616666D01*
X115489285Y-73657142D01*
X115570238Y-73697619D01*
%TO.C,C36*%
X103641071Y-73096428D02*
X103681547Y-73136904D01*
X103722023Y-73258333D01*
X103722023Y-73339285D01*
X103681547Y-73460714D01*
X103600595Y-73541666D01*
X103519642Y-73582142D01*
X103357738Y-73622619D01*
X103236309Y-73622619D01*
X103074404Y-73582142D01*
X102993452Y-73541666D01*
X102912500Y-73460714D01*
X102872023Y-73339285D01*
X102872023Y-73258333D01*
X102912500Y-73136904D01*
X102952976Y-73096428D01*
X102872023Y-72813095D02*
X102872023Y-72286904D01*
X103195833Y-72570238D01*
X103195833Y-72448809D01*
X103236309Y-72367857D01*
X103276785Y-72327380D01*
X103357738Y-72286904D01*
X103560119Y-72286904D01*
X103641071Y-72327380D01*
X103681547Y-72367857D01*
X103722023Y-72448809D01*
X103722023Y-72691666D01*
X103681547Y-72772619D01*
X103641071Y-72813095D01*
X102872023Y-71558333D02*
X102872023Y-71720238D01*
X102912500Y-71801190D01*
X102952976Y-71841666D01*
X103074404Y-71922619D01*
X103236309Y-71963095D01*
X103560119Y-71963095D01*
X103641071Y-71922619D01*
X103681547Y-71882142D01*
X103722023Y-71801190D01*
X103722023Y-71639285D01*
X103681547Y-71558333D01*
X103641071Y-71517857D01*
X103560119Y-71477380D01*
X103357738Y-71477380D01*
X103276785Y-71517857D01*
X103236309Y-71558333D01*
X103195833Y-71639285D01*
X103195833Y-71801190D01*
X103236309Y-71882142D01*
X103276785Y-71922619D01*
X103357738Y-71963095D01*
%TO.C,R59*%
X107299523Y-94771428D02*
X106894761Y-95054761D01*
X107299523Y-95257142D02*
X106449523Y-95257142D01*
X106449523Y-94933333D01*
X106490000Y-94852380D01*
X106530476Y-94811904D01*
X106611428Y-94771428D01*
X106732857Y-94771428D01*
X106813809Y-94811904D01*
X106854285Y-94852380D01*
X106894761Y-94933333D01*
X106894761Y-95257142D01*
X106449523Y-94002380D02*
X106449523Y-94407142D01*
X106854285Y-94447619D01*
X106813809Y-94407142D01*
X106773333Y-94326190D01*
X106773333Y-94123809D01*
X106813809Y-94042857D01*
X106854285Y-94002380D01*
X106935238Y-93961904D01*
X107137619Y-93961904D01*
X107218571Y-94002380D01*
X107259047Y-94042857D01*
X107299523Y-94123809D01*
X107299523Y-94326190D01*
X107259047Y-94407142D01*
X107218571Y-94447619D01*
X107299523Y-93557142D02*
X107299523Y-93395238D01*
X107259047Y-93314285D01*
X107218571Y-93273809D01*
X107097142Y-93192857D01*
X106935238Y-93152380D01*
X106611428Y-93152380D01*
X106530476Y-93192857D01*
X106490000Y-93233333D01*
X106449523Y-93314285D01*
X106449523Y-93476190D01*
X106490000Y-93557142D01*
X106530476Y-93597619D01*
X106611428Y-93638095D01*
X106813809Y-93638095D01*
X106894761Y-93597619D01*
X106935238Y-93557142D01*
X106975714Y-93476190D01*
X106975714Y-93314285D01*
X106935238Y-93233333D01*
X106894761Y-93192857D01*
X106813809Y-93152380D01*
%TO.C,C33*%
X54353571Y-72546428D02*
X54394047Y-72586904D01*
X54434523Y-72708333D01*
X54434523Y-72789285D01*
X54394047Y-72910714D01*
X54313095Y-72991666D01*
X54232142Y-73032142D01*
X54070238Y-73072619D01*
X53948809Y-73072619D01*
X53786904Y-73032142D01*
X53705952Y-72991666D01*
X53625000Y-72910714D01*
X53584523Y-72789285D01*
X53584523Y-72708333D01*
X53625000Y-72586904D01*
X53665476Y-72546428D01*
X53584523Y-72263095D02*
X53584523Y-71736904D01*
X53908333Y-72020238D01*
X53908333Y-71898809D01*
X53948809Y-71817857D01*
X53989285Y-71777380D01*
X54070238Y-71736904D01*
X54272619Y-71736904D01*
X54353571Y-71777380D01*
X54394047Y-71817857D01*
X54434523Y-71898809D01*
X54434523Y-72141666D01*
X54394047Y-72222619D01*
X54353571Y-72263095D01*
X53584523Y-71453571D02*
X53584523Y-70927380D01*
X53908333Y-71210714D01*
X53908333Y-71089285D01*
X53948809Y-71008333D01*
X53989285Y-70967857D01*
X54070238Y-70927380D01*
X54272619Y-70927380D01*
X54353571Y-70967857D01*
X54394047Y-71008333D01*
X54434523Y-71089285D01*
X54434523Y-71332142D01*
X54394047Y-71413095D01*
X54353571Y-71453571D01*
%TO.C,R25*%
X131853571Y-66984523D02*
X131570238Y-66579761D01*
X131367857Y-66984523D02*
X131367857Y-66134523D01*
X131691666Y-66134523D01*
X131772619Y-66175000D01*
X131813095Y-66215476D01*
X131853571Y-66296428D01*
X131853571Y-66417857D01*
X131813095Y-66498809D01*
X131772619Y-66539285D01*
X131691666Y-66579761D01*
X131367857Y-66579761D01*
X132177380Y-66215476D02*
X132217857Y-66175000D01*
X132298809Y-66134523D01*
X132501190Y-66134523D01*
X132582142Y-66175000D01*
X132622619Y-66215476D01*
X132663095Y-66296428D01*
X132663095Y-66377380D01*
X132622619Y-66498809D01*
X132136904Y-66984523D01*
X132663095Y-66984523D01*
X133432142Y-66134523D02*
X133027380Y-66134523D01*
X132986904Y-66539285D01*
X133027380Y-66498809D01*
X133108333Y-66458333D01*
X133310714Y-66458333D01*
X133391666Y-66498809D01*
X133432142Y-66539285D01*
X133472619Y-66620238D01*
X133472619Y-66822619D01*
X133432142Y-66903571D01*
X133391666Y-66944047D01*
X133310714Y-66984523D01*
X133108333Y-66984523D01*
X133027380Y-66944047D01*
X132986904Y-66903571D01*
%TO.C,R34*%
X76584523Y-69833928D02*
X76179761Y-70117261D01*
X76584523Y-70319642D02*
X75734523Y-70319642D01*
X75734523Y-69995833D01*
X75775000Y-69914880D01*
X75815476Y-69874404D01*
X75896428Y-69833928D01*
X76017857Y-69833928D01*
X76098809Y-69874404D01*
X76139285Y-69914880D01*
X76179761Y-69995833D01*
X76179761Y-70319642D01*
X75734523Y-69550595D02*
X75734523Y-69024404D01*
X76058333Y-69307738D01*
X76058333Y-69186309D01*
X76098809Y-69105357D01*
X76139285Y-69064880D01*
X76220238Y-69024404D01*
X76422619Y-69024404D01*
X76503571Y-69064880D01*
X76544047Y-69105357D01*
X76584523Y-69186309D01*
X76584523Y-69429166D01*
X76544047Y-69510119D01*
X76503571Y-69550595D01*
X76017857Y-68295833D02*
X76584523Y-68295833D01*
X75694047Y-68498214D02*
X76301190Y-68700595D01*
X76301190Y-68174404D01*
%TO.C,C27*%
X76303571Y-61621428D02*
X76344047Y-61661904D01*
X76384523Y-61783333D01*
X76384523Y-61864285D01*
X76344047Y-61985714D01*
X76263095Y-62066666D01*
X76182142Y-62107142D01*
X76020238Y-62147619D01*
X75898809Y-62147619D01*
X75736904Y-62107142D01*
X75655952Y-62066666D01*
X75575000Y-61985714D01*
X75534523Y-61864285D01*
X75534523Y-61783333D01*
X75575000Y-61661904D01*
X75615476Y-61621428D01*
X75615476Y-61297619D02*
X75575000Y-61257142D01*
X75534523Y-61176190D01*
X75534523Y-60973809D01*
X75575000Y-60892857D01*
X75615476Y-60852380D01*
X75696428Y-60811904D01*
X75777380Y-60811904D01*
X75898809Y-60852380D01*
X76384523Y-61338095D01*
X76384523Y-60811904D01*
X75534523Y-60528571D02*
X75534523Y-59961904D01*
X76384523Y-60326190D01*
%TO.C,C16*%
X103603571Y-98653571D02*
X103563095Y-98694047D01*
X103441666Y-98734523D01*
X103360714Y-98734523D01*
X103239285Y-98694047D01*
X103158333Y-98613095D01*
X103117857Y-98532142D01*
X103077380Y-98370238D01*
X103077380Y-98248809D01*
X103117857Y-98086904D01*
X103158333Y-98005952D01*
X103239285Y-97925000D01*
X103360714Y-97884523D01*
X103441666Y-97884523D01*
X103563095Y-97925000D01*
X103603571Y-97965476D01*
X104413095Y-98734523D02*
X103927380Y-98734523D01*
X104170238Y-98734523D02*
X104170238Y-97884523D01*
X104089285Y-98005952D01*
X104008333Y-98086904D01*
X103927380Y-98127380D01*
X105141666Y-97884523D02*
X104979761Y-97884523D01*
X104898809Y-97925000D01*
X104858333Y-97965476D01*
X104777380Y-98086904D01*
X104736904Y-98248809D01*
X104736904Y-98572619D01*
X104777380Y-98653571D01*
X104817857Y-98694047D01*
X104898809Y-98734523D01*
X105060714Y-98734523D01*
X105141666Y-98694047D01*
X105182142Y-98653571D01*
X105222619Y-98572619D01*
X105222619Y-98370238D01*
X105182142Y-98289285D01*
X105141666Y-98248809D01*
X105060714Y-98208333D01*
X104898809Y-98208333D01*
X104817857Y-98248809D01*
X104777380Y-98289285D01*
X104736904Y-98370238D01*
%TO.C,D9*%
X113660119Y-50984523D02*
X113660119Y-50134523D01*
X113862500Y-50134523D01*
X113983928Y-50175000D01*
X114064880Y-50255952D01*
X114105357Y-50336904D01*
X114145833Y-50498809D01*
X114145833Y-50620238D01*
X114105357Y-50782142D01*
X114064880Y-50863095D01*
X113983928Y-50944047D01*
X113862500Y-50984523D01*
X113660119Y-50984523D01*
X114550595Y-50984523D02*
X114712500Y-50984523D01*
X114793452Y-50944047D01*
X114833928Y-50903571D01*
X114914880Y-50782142D01*
X114955357Y-50620238D01*
X114955357Y-50296428D01*
X114914880Y-50215476D01*
X114874404Y-50175000D01*
X114793452Y-50134523D01*
X114631547Y-50134523D01*
X114550595Y-50175000D01*
X114510119Y-50215476D01*
X114469642Y-50296428D01*
X114469642Y-50498809D01*
X114510119Y-50579761D01*
X114550595Y-50620238D01*
X114631547Y-50660714D01*
X114793452Y-50660714D01*
X114874404Y-50620238D01*
X114914880Y-50579761D01*
X114955357Y-50498809D01*
%TO.C,C32*%
X64228571Y-69571428D02*
X64269047Y-69611904D01*
X64309523Y-69733333D01*
X64309523Y-69814285D01*
X64269047Y-69935714D01*
X64188095Y-70016666D01*
X64107142Y-70057142D01*
X63945238Y-70097619D01*
X63823809Y-70097619D01*
X63661904Y-70057142D01*
X63580952Y-70016666D01*
X63500000Y-69935714D01*
X63459523Y-69814285D01*
X63459523Y-69733333D01*
X63500000Y-69611904D01*
X63540476Y-69571428D01*
X63459523Y-69288095D02*
X63459523Y-68761904D01*
X63783333Y-69045238D01*
X63783333Y-68923809D01*
X63823809Y-68842857D01*
X63864285Y-68802380D01*
X63945238Y-68761904D01*
X64147619Y-68761904D01*
X64228571Y-68802380D01*
X64269047Y-68842857D01*
X64309523Y-68923809D01*
X64309523Y-69166666D01*
X64269047Y-69247619D01*
X64228571Y-69288095D01*
X63540476Y-68438095D02*
X63500000Y-68397619D01*
X63459523Y-68316666D01*
X63459523Y-68114285D01*
X63500000Y-68033333D01*
X63540476Y-67992857D01*
X63621428Y-67952380D01*
X63702380Y-67952380D01*
X63823809Y-67992857D01*
X64309523Y-68478571D01*
X64309523Y-67952380D01*
%TO.C,R28*%
X119534523Y-68196428D02*
X119129761Y-68479761D01*
X119534523Y-68682142D02*
X118684523Y-68682142D01*
X118684523Y-68358333D01*
X118725000Y-68277380D01*
X118765476Y-68236904D01*
X118846428Y-68196428D01*
X118967857Y-68196428D01*
X119048809Y-68236904D01*
X119089285Y-68277380D01*
X119129761Y-68358333D01*
X119129761Y-68682142D01*
X118765476Y-67872619D02*
X118725000Y-67832142D01*
X118684523Y-67751190D01*
X118684523Y-67548809D01*
X118725000Y-67467857D01*
X118765476Y-67427380D01*
X118846428Y-67386904D01*
X118927380Y-67386904D01*
X119048809Y-67427380D01*
X119534523Y-67913095D01*
X119534523Y-67386904D01*
X119048809Y-66901190D02*
X119008333Y-66982142D01*
X118967857Y-67022619D01*
X118886904Y-67063095D01*
X118846428Y-67063095D01*
X118765476Y-67022619D01*
X118725000Y-66982142D01*
X118684523Y-66901190D01*
X118684523Y-66739285D01*
X118725000Y-66658333D01*
X118765476Y-66617857D01*
X118846428Y-66577380D01*
X118886904Y-66577380D01*
X118967857Y-66617857D01*
X119008333Y-66658333D01*
X119048809Y-66739285D01*
X119048809Y-66901190D01*
X119089285Y-66982142D01*
X119129761Y-67022619D01*
X119210714Y-67063095D01*
X119372619Y-67063095D01*
X119453571Y-67022619D01*
X119494047Y-66982142D01*
X119534523Y-66901190D01*
X119534523Y-66739285D01*
X119494047Y-66658333D01*
X119453571Y-66617857D01*
X119372619Y-66577380D01*
X119210714Y-66577380D01*
X119129761Y-66617857D01*
X119089285Y-66658333D01*
X119048809Y-66739285D01*
%TO.C,RV2*%
X83659523Y-49155952D02*
X83254761Y-49439285D01*
X83659523Y-49641666D02*
X82809523Y-49641666D01*
X82809523Y-49317857D01*
X82850000Y-49236904D01*
X82890476Y-49196428D01*
X82971428Y-49155952D01*
X83092857Y-49155952D01*
X83173809Y-49196428D01*
X83214285Y-49236904D01*
X83254761Y-49317857D01*
X83254761Y-49641666D01*
X82809523Y-48913095D02*
X83659523Y-48629761D01*
X82809523Y-48346428D01*
X82890476Y-48103571D02*
X82850000Y-48063095D01*
X82809523Y-47982142D01*
X82809523Y-47779761D01*
X82850000Y-47698809D01*
X82890476Y-47658333D01*
X82971428Y-47617857D01*
X83052380Y-47617857D01*
X83173809Y-47658333D01*
X83659523Y-48144047D01*
X83659523Y-47617857D01*
%TO.C,U2*%
X126702380Y-114634523D02*
X126702380Y-115322619D01*
X126742857Y-115403571D01*
X126783333Y-115444047D01*
X126864285Y-115484523D01*
X127026190Y-115484523D01*
X127107142Y-115444047D01*
X127147619Y-115403571D01*
X127188095Y-115322619D01*
X127188095Y-114634523D01*
X127552380Y-114715476D02*
X127592857Y-114675000D01*
X127673809Y-114634523D01*
X127876190Y-114634523D01*
X127957142Y-114675000D01*
X127997619Y-114715476D01*
X128038095Y-114796428D01*
X128038095Y-114877380D01*
X127997619Y-114998809D01*
X127511904Y-115484523D01*
X128038095Y-115484523D01*
%TO.C,C21*%
X88103571Y-72946428D02*
X88144047Y-72986904D01*
X88184523Y-73108333D01*
X88184523Y-73189285D01*
X88144047Y-73310714D01*
X88063095Y-73391666D01*
X87982142Y-73432142D01*
X87820238Y-73472619D01*
X87698809Y-73472619D01*
X87536904Y-73432142D01*
X87455952Y-73391666D01*
X87375000Y-73310714D01*
X87334523Y-73189285D01*
X87334523Y-73108333D01*
X87375000Y-72986904D01*
X87415476Y-72946428D01*
X87415476Y-72622619D02*
X87375000Y-72582142D01*
X87334523Y-72501190D01*
X87334523Y-72298809D01*
X87375000Y-72217857D01*
X87415476Y-72177380D01*
X87496428Y-72136904D01*
X87577380Y-72136904D01*
X87698809Y-72177380D01*
X88184523Y-72663095D01*
X88184523Y-72136904D01*
X88184523Y-71327380D02*
X88184523Y-71813095D01*
X88184523Y-71570238D02*
X87334523Y-71570238D01*
X87455952Y-71651190D01*
X87536904Y-71732142D01*
X87577380Y-71813095D01*
%TO.C,U4*%
X130177380Y-87584523D02*
X130177380Y-88272619D01*
X130217857Y-88353571D01*
X130258333Y-88394047D01*
X130339285Y-88434523D01*
X130501190Y-88434523D01*
X130582142Y-88394047D01*
X130622619Y-88353571D01*
X130663095Y-88272619D01*
X130663095Y-87584523D01*
X131432142Y-87867857D02*
X131432142Y-88434523D01*
X131229761Y-87544047D02*
X131027380Y-88151190D01*
X131553571Y-88151190D01*
%TO.C,TP3*%
X105627380Y-113484523D02*
X106113095Y-113484523D01*
X105870238Y-114334523D02*
X105870238Y-113484523D01*
X106396428Y-114334523D02*
X106396428Y-113484523D01*
X106720238Y-113484523D01*
X106801190Y-113525000D01*
X106841666Y-113565476D01*
X106882142Y-113646428D01*
X106882142Y-113767857D01*
X106841666Y-113848809D01*
X106801190Y-113889285D01*
X106720238Y-113929761D01*
X106396428Y-113929761D01*
X107165476Y-113484523D02*
X107691666Y-113484523D01*
X107408333Y-113808333D01*
X107529761Y-113808333D01*
X107610714Y-113848809D01*
X107651190Y-113889285D01*
X107691666Y-113970238D01*
X107691666Y-114172619D01*
X107651190Y-114253571D01*
X107610714Y-114294047D01*
X107529761Y-114334523D01*
X107286904Y-114334523D01*
X107205952Y-114294047D01*
X107165476Y-114253571D01*
%TO.C,R7*%
X114734523Y-67754166D02*
X114329761Y-68037500D01*
X114734523Y-68239880D02*
X113884523Y-68239880D01*
X113884523Y-67916071D01*
X113925000Y-67835119D01*
X113965476Y-67794642D01*
X114046428Y-67754166D01*
X114167857Y-67754166D01*
X114248809Y-67794642D01*
X114289285Y-67835119D01*
X114329761Y-67916071D01*
X114329761Y-68239880D01*
X113884523Y-67470833D02*
X113884523Y-66904166D01*
X114734523Y-67268452D01*
%TO.C,R55*%
X52534523Y-74546428D02*
X52129761Y-74829761D01*
X52534523Y-75032142D02*
X51684523Y-75032142D01*
X51684523Y-74708333D01*
X51725000Y-74627380D01*
X51765476Y-74586904D01*
X51846428Y-74546428D01*
X51967857Y-74546428D01*
X52048809Y-74586904D01*
X52089285Y-74627380D01*
X52129761Y-74708333D01*
X52129761Y-75032142D01*
X51684523Y-73777380D02*
X51684523Y-74182142D01*
X52089285Y-74222619D01*
X52048809Y-74182142D01*
X52008333Y-74101190D01*
X52008333Y-73898809D01*
X52048809Y-73817857D01*
X52089285Y-73777380D01*
X52170238Y-73736904D01*
X52372619Y-73736904D01*
X52453571Y-73777380D01*
X52494047Y-73817857D01*
X52534523Y-73898809D01*
X52534523Y-74101190D01*
X52494047Y-74182142D01*
X52453571Y-74222619D01*
X51684523Y-72967857D02*
X51684523Y-73372619D01*
X52089285Y-73413095D01*
X52048809Y-73372619D01*
X52008333Y-73291666D01*
X52008333Y-73089285D01*
X52048809Y-73008333D01*
X52089285Y-72967857D01*
X52170238Y-72927380D01*
X52372619Y-72927380D01*
X52453571Y-72967857D01*
X52494047Y-73008333D01*
X52534523Y-73089285D01*
X52534523Y-73291666D01*
X52494047Y-73372619D01*
X52453571Y-73413095D01*
%TO.C,J1*%
X138016666Y-107084523D02*
X138016666Y-107691666D01*
X137976190Y-107813095D01*
X137895238Y-107894047D01*
X137773809Y-107934523D01*
X137692857Y-107934523D01*
X138866666Y-107934523D02*
X138380952Y-107934523D01*
X138623809Y-107934523D02*
X138623809Y-107084523D01*
X138542857Y-107205952D01*
X138461904Y-107286904D01*
X138380952Y-107327380D01*
%TO.C,R19*%
X106984523Y-78933928D02*
X106579761Y-79217261D01*
X106984523Y-79419642D02*
X106134523Y-79419642D01*
X106134523Y-79095833D01*
X106175000Y-79014880D01*
X106215476Y-78974404D01*
X106296428Y-78933928D01*
X106417857Y-78933928D01*
X106498809Y-78974404D01*
X106539285Y-79014880D01*
X106579761Y-79095833D01*
X106579761Y-79419642D01*
X106984523Y-78124404D02*
X106984523Y-78610119D01*
X106984523Y-78367261D02*
X106134523Y-78367261D01*
X106255952Y-78448214D01*
X106336904Y-78529166D01*
X106377380Y-78610119D01*
X106984523Y-77719642D02*
X106984523Y-77557738D01*
X106944047Y-77476785D01*
X106903571Y-77436309D01*
X106782142Y-77355357D01*
X106620238Y-77314880D01*
X106296428Y-77314880D01*
X106215476Y-77355357D01*
X106175000Y-77395833D01*
X106134523Y-77476785D01*
X106134523Y-77638690D01*
X106175000Y-77719642D01*
X106215476Y-77760119D01*
X106296428Y-77800595D01*
X106498809Y-77800595D01*
X106579761Y-77760119D01*
X106620238Y-77719642D01*
X106660714Y-77638690D01*
X106660714Y-77476785D01*
X106620238Y-77395833D01*
X106579761Y-77355357D01*
X106498809Y-77314880D01*
%TO.C,R26*%
X124078571Y-65634523D02*
X123795238Y-65229761D01*
X123592857Y-65634523D02*
X123592857Y-64784523D01*
X123916666Y-64784523D01*
X123997619Y-64825000D01*
X124038095Y-64865476D01*
X124078571Y-64946428D01*
X124078571Y-65067857D01*
X124038095Y-65148809D01*
X123997619Y-65189285D01*
X123916666Y-65229761D01*
X123592857Y-65229761D01*
X124402380Y-64865476D02*
X124442857Y-64825000D01*
X124523809Y-64784523D01*
X124726190Y-64784523D01*
X124807142Y-64825000D01*
X124847619Y-64865476D01*
X124888095Y-64946428D01*
X124888095Y-65027380D01*
X124847619Y-65148809D01*
X124361904Y-65634523D01*
X124888095Y-65634523D01*
X125616666Y-64784523D02*
X125454761Y-64784523D01*
X125373809Y-64825000D01*
X125333333Y-64865476D01*
X125252380Y-64986904D01*
X125211904Y-65148809D01*
X125211904Y-65472619D01*
X125252380Y-65553571D01*
X125292857Y-65594047D01*
X125373809Y-65634523D01*
X125535714Y-65634523D01*
X125616666Y-65594047D01*
X125657142Y-65553571D01*
X125697619Y-65472619D01*
X125697619Y-65270238D01*
X125657142Y-65189285D01*
X125616666Y-65148809D01*
X125535714Y-65108333D01*
X125373809Y-65108333D01*
X125292857Y-65148809D01*
X125252380Y-65189285D01*
X125211904Y-65270238D01*
%TO.C,R10*%
X127578571Y-80184523D02*
X127295238Y-79779761D01*
X127092857Y-80184523D02*
X127092857Y-79334523D01*
X127416666Y-79334523D01*
X127497619Y-79375000D01*
X127538095Y-79415476D01*
X127578571Y-79496428D01*
X127578571Y-79617857D01*
X127538095Y-79698809D01*
X127497619Y-79739285D01*
X127416666Y-79779761D01*
X127092857Y-79779761D01*
X128388095Y-80184523D02*
X127902380Y-80184523D01*
X128145238Y-80184523D02*
X128145238Y-79334523D01*
X128064285Y-79455952D01*
X127983333Y-79536904D01*
X127902380Y-79577380D01*
X128914285Y-79334523D02*
X128995238Y-79334523D01*
X129076190Y-79375000D01*
X129116666Y-79415476D01*
X129157142Y-79496428D01*
X129197619Y-79658333D01*
X129197619Y-79860714D01*
X129157142Y-80022619D01*
X129116666Y-80103571D01*
X129076190Y-80144047D01*
X128995238Y-80184523D01*
X128914285Y-80184523D01*
X128833333Y-80144047D01*
X128792857Y-80103571D01*
X128752380Y-80022619D01*
X128711904Y-79860714D01*
X128711904Y-79658333D01*
X128752380Y-79496428D01*
X128792857Y-79415476D01*
X128833333Y-79375000D01*
X128914285Y-79334523D01*
%TO.C,C4*%
X126608333Y-88203571D02*
X126567857Y-88244047D01*
X126446428Y-88284523D01*
X126365476Y-88284523D01*
X126244047Y-88244047D01*
X126163095Y-88163095D01*
X126122619Y-88082142D01*
X126082142Y-87920238D01*
X126082142Y-87798809D01*
X126122619Y-87636904D01*
X126163095Y-87555952D01*
X126244047Y-87475000D01*
X126365476Y-87434523D01*
X126446428Y-87434523D01*
X126567857Y-87475000D01*
X126608333Y-87515476D01*
X127336904Y-87717857D02*
X127336904Y-88284523D01*
X127134523Y-87394047D02*
X126932142Y-88001190D01*
X127458333Y-88001190D01*
%TO.C,R61*%
X110849523Y-97358928D02*
X110444761Y-97642261D01*
X110849523Y-97844642D02*
X109999523Y-97844642D01*
X109999523Y-97520833D01*
X110040000Y-97439880D01*
X110080476Y-97399404D01*
X110161428Y-97358928D01*
X110282857Y-97358928D01*
X110363809Y-97399404D01*
X110404285Y-97439880D01*
X110444761Y-97520833D01*
X110444761Y-97844642D01*
X109999523Y-96630357D02*
X109999523Y-96792261D01*
X110040000Y-96873214D01*
X110080476Y-96913690D01*
X110201904Y-96994642D01*
X110363809Y-97035119D01*
X110687619Y-97035119D01*
X110768571Y-96994642D01*
X110809047Y-96954166D01*
X110849523Y-96873214D01*
X110849523Y-96711309D01*
X110809047Y-96630357D01*
X110768571Y-96589880D01*
X110687619Y-96549404D01*
X110485238Y-96549404D01*
X110404285Y-96589880D01*
X110363809Y-96630357D01*
X110323333Y-96711309D01*
X110323333Y-96873214D01*
X110363809Y-96954166D01*
X110404285Y-96994642D01*
X110485238Y-97035119D01*
X110849523Y-95739880D02*
X110849523Y-96225595D01*
X110849523Y-95982738D02*
X109999523Y-95982738D01*
X110120952Y-96063690D01*
X110201904Y-96144642D01*
X110242380Y-96225595D01*
%TO.C,R14*%
X131028571Y-77134523D02*
X130745238Y-76729761D01*
X130542857Y-77134523D02*
X130542857Y-76284523D01*
X130866666Y-76284523D01*
X130947619Y-76325000D01*
X130988095Y-76365476D01*
X131028571Y-76446428D01*
X131028571Y-76567857D01*
X130988095Y-76648809D01*
X130947619Y-76689285D01*
X130866666Y-76729761D01*
X130542857Y-76729761D01*
X131838095Y-77134523D02*
X131352380Y-77134523D01*
X131595238Y-77134523D02*
X131595238Y-76284523D01*
X131514285Y-76405952D01*
X131433333Y-76486904D01*
X131352380Y-76527380D01*
X132566666Y-76567857D02*
X132566666Y-77134523D01*
X132364285Y-76244047D02*
X132161904Y-76851190D01*
X132688095Y-76851190D01*
%TO.C,D3*%
X77384523Y-50527380D02*
X76534523Y-50527380D01*
X76534523Y-50325000D01*
X76575000Y-50203571D01*
X76655952Y-50122619D01*
X76736904Y-50082142D01*
X76898809Y-50041666D01*
X77020238Y-50041666D01*
X77182142Y-50082142D01*
X77263095Y-50122619D01*
X77344047Y-50203571D01*
X77384523Y-50325000D01*
X77384523Y-50527380D01*
X76534523Y-49758333D02*
X76534523Y-49232142D01*
X76858333Y-49515476D01*
X76858333Y-49394047D01*
X76898809Y-49313095D01*
X76939285Y-49272619D01*
X77020238Y-49232142D01*
X77222619Y-49232142D01*
X77303571Y-49272619D01*
X77344047Y-49313095D01*
X77384523Y-49394047D01*
X77384523Y-49636904D01*
X77344047Y-49717857D01*
X77303571Y-49758333D01*
%TO.C,TP1*%
X122977380Y-117984523D02*
X123463095Y-117984523D01*
X123220238Y-118834523D02*
X123220238Y-117984523D01*
X123746428Y-118834523D02*
X123746428Y-117984523D01*
X124070238Y-117984523D01*
X124151190Y-118025000D01*
X124191666Y-118065476D01*
X124232142Y-118146428D01*
X124232142Y-118267857D01*
X124191666Y-118348809D01*
X124151190Y-118389285D01*
X124070238Y-118429761D01*
X123746428Y-118429761D01*
X125041666Y-118834523D02*
X124555952Y-118834523D01*
X124798809Y-118834523D02*
X124798809Y-117984523D01*
X124717857Y-118105952D01*
X124636904Y-118186904D01*
X124555952Y-118227380D01*
%TO.C,R30*%
X128484523Y-64996428D02*
X128079761Y-65279761D01*
X128484523Y-65482142D02*
X127634523Y-65482142D01*
X127634523Y-65158333D01*
X127675000Y-65077380D01*
X127715476Y-65036904D01*
X127796428Y-64996428D01*
X127917857Y-64996428D01*
X127998809Y-65036904D01*
X128039285Y-65077380D01*
X128079761Y-65158333D01*
X128079761Y-65482142D01*
X127634523Y-64713095D02*
X127634523Y-64186904D01*
X127958333Y-64470238D01*
X127958333Y-64348809D01*
X127998809Y-64267857D01*
X128039285Y-64227380D01*
X128120238Y-64186904D01*
X128322619Y-64186904D01*
X128403571Y-64227380D01*
X128444047Y-64267857D01*
X128484523Y-64348809D01*
X128484523Y-64591666D01*
X128444047Y-64672619D01*
X128403571Y-64713095D01*
X127634523Y-63660714D02*
X127634523Y-63579761D01*
X127675000Y-63498809D01*
X127715476Y-63458333D01*
X127796428Y-63417857D01*
X127958333Y-63377380D01*
X128160714Y-63377380D01*
X128322619Y-63417857D01*
X128403571Y-63458333D01*
X128444047Y-63498809D01*
X128484523Y-63579761D01*
X128484523Y-63660714D01*
X128444047Y-63741666D01*
X128403571Y-63782142D01*
X128322619Y-63822619D01*
X128160714Y-63863095D01*
X127958333Y-63863095D01*
X127796428Y-63822619D01*
X127715476Y-63782142D01*
X127675000Y-63741666D01*
X127634523Y-63660714D01*
%TO.C,R48*%
X72253571Y-63384523D02*
X71970238Y-62979761D01*
X71767857Y-63384523D02*
X71767857Y-62534523D01*
X72091666Y-62534523D01*
X72172619Y-62575000D01*
X72213095Y-62615476D01*
X72253571Y-62696428D01*
X72253571Y-62817857D01*
X72213095Y-62898809D01*
X72172619Y-62939285D01*
X72091666Y-62979761D01*
X71767857Y-62979761D01*
X72982142Y-62817857D02*
X72982142Y-63384523D01*
X72779761Y-62494047D02*
X72577380Y-63101190D01*
X73103571Y-63101190D01*
X73548809Y-62898809D02*
X73467857Y-62858333D01*
X73427380Y-62817857D01*
X73386904Y-62736904D01*
X73386904Y-62696428D01*
X73427380Y-62615476D01*
X73467857Y-62575000D01*
X73548809Y-62534523D01*
X73710714Y-62534523D01*
X73791666Y-62575000D01*
X73832142Y-62615476D01*
X73872619Y-62696428D01*
X73872619Y-62736904D01*
X73832142Y-62817857D01*
X73791666Y-62858333D01*
X73710714Y-62898809D01*
X73548809Y-62898809D01*
X73467857Y-62939285D01*
X73427380Y-62979761D01*
X73386904Y-63060714D01*
X73386904Y-63222619D01*
X73427380Y-63303571D01*
X73467857Y-63344047D01*
X73548809Y-63384523D01*
X73710714Y-63384523D01*
X73791666Y-63344047D01*
X73832142Y-63303571D01*
X73872619Y-63222619D01*
X73872619Y-63060714D01*
X73832142Y-62979761D01*
X73791666Y-62939285D01*
X73710714Y-62898809D01*
D13*
%TO.C,R35*%
X95727064Y-115735000D02*
X95272936Y-115735000D01*
X95727064Y-114265000D02*
X95272936Y-114265000D01*
%TO.C,D5*%
X100835000Y-114265000D02*
X98550000Y-114265000D01*
X100835000Y-115735000D02*
X100835000Y-114265000D01*
X98550000Y-115735000D02*
X100835000Y-115735000D01*
D10*
%TO.C,PS1*%
X82720000Y-118930000D02*
X82720000Y-96070000D01*
X54780000Y-118930000D02*
X82720000Y-118930000D01*
X54780000Y-96070000D02*
X54780000Y-118930000D01*
X82720000Y-96070000D02*
X54780000Y-96070000D01*
D13*
%TO.C,D1*%
X137700000Y-100950000D02*
X137700000Y-104850000D01*
X137700000Y-100950000D02*
X135700000Y-100950000D01*
X135700000Y-100950000D02*
X135700000Y-104850000D01*
%TO.C,U12*%
X94650000Y-76160000D02*
X92700000Y-76160000D01*
X94650000Y-76160000D02*
X96600000Y-76160000D01*
X94650000Y-71040000D02*
X91200000Y-71040000D01*
X94650000Y-71040000D02*
X96600000Y-71040000D01*
%TO.C,R6*%
X124952064Y-85785000D02*
X124497936Y-85785000D01*
X124952064Y-84315000D02*
X124497936Y-84315000D01*
%TO.C,TP5*%
X69930000Y-88500000D02*
X74830000Y-88500000D01*
X69930000Y-86100000D02*
X69930000Y-88500000D01*
X74830000Y-88500000D02*
X74830000Y-86100000D01*
X74830000Y-86100000D02*
X69930000Y-86100000D01*
%TO.C,C8*%
X122809420Y-74760000D02*
X123090580Y-74760000D01*
X122809420Y-73740000D02*
X123090580Y-73740000D01*
%TO.C,C28*%
X84984420Y-62182500D02*
X85265580Y-62182500D01*
X84984420Y-61162500D02*
X85265580Y-61162500D01*
%TO.C,R23*%
X110872936Y-80115000D02*
X111327064Y-80115000D01*
X110872936Y-81585000D02*
X111327064Y-81585000D01*
%TO.C,D8*%
X113337500Y-53800000D02*
X109437500Y-53800000D01*
X113337500Y-53800000D02*
X113337500Y-51800000D01*
X113337500Y-51800000D02*
X109437500Y-51800000D01*
%TO.C,TP6*%
X63050000Y-75550000D02*
X60650000Y-75550000D01*
X60650000Y-80450000D02*
X63050000Y-80450000D01*
X60650000Y-75550000D02*
X60650000Y-80450000D01*
X63050000Y-80450000D02*
X63050000Y-75550000D01*
%TO.C,C25*%
X55740000Y-57990580D02*
X55740000Y-57709420D01*
X56760000Y-57990580D02*
X56760000Y-57709420D01*
%TO.C,C19*%
X93275000Y-81459420D02*
X93275000Y-81740580D01*
X94295000Y-81459420D02*
X94295000Y-81740580D01*
%TO.C,C10*%
X113359420Y-70760000D02*
X113640580Y-70760000D01*
X113359420Y-69740000D02*
X113640580Y-69740000D01*
%TO.C,C40*%
X131840000Y-115665580D02*
X131840000Y-115384420D01*
X132860000Y-115665580D02*
X132860000Y-115384420D01*
%TO.C,U16*%
X59375000Y-74010000D02*
X62825000Y-74010000D01*
X59375000Y-68890000D02*
X61325000Y-68890000D01*
X59375000Y-68890000D02*
X57425000Y-68890000D01*
X59375000Y-74010000D02*
X57425000Y-74010000D01*
%TO.C,R53*%
X67285436Y-81965000D02*
X67739564Y-81965000D01*
X67285436Y-83435000D02*
X67739564Y-83435000D01*
%TO.C,C39*%
X115499420Y-98165000D02*
X115780580Y-98165000D01*
X115499420Y-99185000D02*
X115780580Y-99185000D01*
%TO.C,R20*%
X108785000Y-81522936D02*
X108785000Y-81977064D01*
X107315000Y-81522936D02*
X107315000Y-81977064D01*
%TO.C,C31*%
X57690000Y-87984420D02*
X57690000Y-88265580D01*
X58710000Y-87984420D02*
X58710000Y-88265580D01*
%TO.C,R51*%
X79635436Y-60235000D02*
X80089564Y-60235000D01*
X79635436Y-58765000D02*
X80089564Y-58765000D01*
%TO.C,J2*%
X36390000Y-105120000D02*
X37890000Y-104870000D01*
X36390000Y-87880000D02*
X36390000Y-89880000D01*
X37890000Y-103370000D02*
X36390000Y-103120000D01*
X48610000Y-108040000D02*
X48610000Y-84960000D01*
X37890000Y-89630000D02*
X37890000Y-88130000D01*
X37890000Y-88130000D02*
X36390000Y-87880000D01*
X36390000Y-95500000D02*
X36390000Y-97500000D01*
X36390000Y-103120000D02*
X36390000Y-105120000D01*
X36390000Y-97500000D02*
X37890000Y-97250000D01*
X49410000Y-88580000D02*
X49410000Y-89180000D01*
X39690000Y-84960000D02*
X39690000Y-108040000D01*
X48610000Y-84960000D02*
X36390000Y-84960000D01*
X36390000Y-108040000D02*
X48610000Y-108040000D01*
X37890000Y-104870000D02*
X37890000Y-103370000D01*
X37890000Y-84960000D02*
X39690000Y-84960000D01*
X39690000Y-108040000D02*
X37890000Y-108040000D01*
X48810000Y-88880000D02*
X49410000Y-88580000D01*
X36390000Y-89880000D02*
X37890000Y-89630000D01*
X37890000Y-108040000D02*
X37890000Y-84960000D01*
X37890000Y-95750000D02*
X36390000Y-95500000D01*
X49410000Y-89180000D02*
X48810000Y-88880000D01*
X37890000Y-97250000D02*
X37890000Y-95750000D01*
X36390000Y-84960000D02*
X36390000Y-108040000D01*
%TO.C,D11*%
X103587500Y-78600000D02*
X103587500Y-74700000D01*
X103587500Y-78600000D02*
X105587500Y-78600000D01*
X105587500Y-78600000D02*
X105587500Y-74700000D01*
%TO.C,R33*%
X95785000Y-90364564D02*
X95785000Y-89910436D01*
X94315000Y-90364564D02*
X94315000Y-89910436D01*
%TO.C,R3*%
X131015000Y-105335436D02*
X131015000Y-105789564D01*
X132485000Y-105335436D02*
X132485000Y-105789564D01*
%TO.C,C35*%
X108734420Y-63540000D02*
X109015580Y-63540000D01*
X108734420Y-64560000D02*
X109015580Y-64560000D01*
%TO.C,R49*%
X77177064Y-67235000D02*
X76722936Y-67235000D01*
X77177064Y-65765000D02*
X76722936Y-65765000D01*
%TO.C,C9*%
X136709420Y-79360000D02*
X136990580Y-79360000D01*
X136709420Y-78340000D02*
X136990580Y-78340000D01*
%TO.C,C23*%
X50290000Y-53584420D02*
X50290000Y-53865580D01*
X51310000Y-53584420D02*
X51310000Y-53865580D01*
%TO.C,C18*%
X104809420Y-89590000D02*
X105090580Y-89590000D01*
X104809420Y-90610000D02*
X105090580Y-90610000D01*
%TO.C,J3*%
X71300000Y-46200000D02*
X71300000Y-57200000D01*
X67300000Y-46200000D02*
X67300000Y-43200000D01*
X62300000Y-45000000D02*
X62300000Y-43200000D01*
X63300000Y-46200000D02*
X67300000Y-46200000D01*
X60800000Y-46200000D02*
X60800000Y-45000000D01*
X69800000Y-45000000D02*
X69800000Y-46200000D01*
X68300000Y-43200000D02*
X68300000Y-45000000D01*
X68300000Y-45000000D02*
X69800000Y-45000000D01*
X59300000Y-46200000D02*
X60800000Y-46200000D01*
X71300000Y-57200000D02*
X59300000Y-57200000D01*
X60800000Y-45000000D02*
X62300000Y-45000000D01*
X63300000Y-43200000D02*
X63300000Y-46200000D01*
X62300000Y-43200000D02*
X68300000Y-43200000D01*
X69800000Y-46200000D02*
X71300000Y-46200000D01*
X59300000Y-57200000D02*
X59300000Y-46200000D01*
%TO.C,R22*%
X136702064Y-69352500D02*
X136247936Y-69352500D01*
X136702064Y-70822500D02*
X136247936Y-70822500D01*
%TO.C,C30*%
X57235000Y-88561252D02*
X57235000Y-88038748D01*
X55765000Y-88561252D02*
X55765000Y-88038748D01*
%TO.C,R24*%
X138122936Y-57585000D02*
X138577064Y-57585000D01*
X138122936Y-56115000D02*
X138577064Y-56115000D01*
%TO.C,U15*%
X62750000Y-84140000D02*
X60800000Y-84140000D01*
X62750000Y-84140000D02*
X64700000Y-84140000D01*
X62750000Y-89260000D02*
X60800000Y-89260000D01*
X62750000Y-89260000D02*
X66200000Y-89260000D01*
%TO.C,R4*%
X131065000Y-110385436D02*
X131065000Y-110839564D01*
X132535000Y-110385436D02*
X132535000Y-110839564D01*
%TO.C,TP4*%
X74830000Y-81500000D02*
X69930000Y-81500000D01*
X69930000Y-83900000D02*
X74830000Y-83900000D01*
X74830000Y-83900000D02*
X74830000Y-81500000D01*
X69930000Y-81500000D02*
X69930000Y-83900000D01*
%TO.C,D10*%
X114750000Y-60600000D02*
X114750000Y-64500000D01*
X116750000Y-60600000D02*
X116750000Y-64500000D01*
X116750000Y-60600000D02*
X114750000Y-60600000D01*
%TO.C,R29*%
X132485000Y-63835436D02*
X132485000Y-64289564D01*
X131015000Y-63835436D02*
X131015000Y-64289564D01*
%TO.C,RV3*%
X134465000Y-67935000D02*
X134465000Y-58165000D01*
X144235000Y-67935000D02*
X144235000Y-58165000D01*
X144235000Y-58165000D02*
X134465000Y-58165000D01*
X144235000Y-67935000D02*
X134465000Y-67935000D01*
%TO.C,R39*%
X89835000Y-75185436D02*
X89835000Y-75639564D01*
X88365000Y-75185436D02*
X88365000Y-75639564D01*
%TO.C,D12*%
X103600000Y-97050000D02*
X103600000Y-93150000D01*
X105600000Y-97050000D02*
X105600000Y-93150000D01*
X103600000Y-97050000D02*
X105600000Y-97050000D01*
%TO.C,C20*%
X99859420Y-78290000D02*
X100140580Y-78290000D01*
X99859420Y-79310000D02*
X100140580Y-79310000D01*
%TO.C,U5*%
X140650000Y-94810000D02*
X139850000Y-94810000D01*
X140650000Y-91690000D02*
X138850000Y-91690000D01*
X140650000Y-94810000D02*
X141450000Y-94810000D01*
X140650000Y-91690000D02*
X141450000Y-91690000D01*
%TO.C,C14*%
X119040000Y-59590580D02*
X119040000Y-59309420D01*
X120060000Y-59590580D02*
X120060000Y-59309420D01*
%TO.C,RV1*%
X93315000Y-58165000D02*
X93315000Y-67935000D01*
X103085000Y-58165000D02*
X103085000Y-67935000D01*
X103085000Y-67935000D02*
X93315000Y-67935000D01*
X103085000Y-58165000D02*
X93315000Y-58165000D01*
%TO.C,U10*%
X103450000Y-100615000D02*
X105400000Y-100615000D01*
X103450000Y-100615000D02*
X100000000Y-100615000D01*
X103450000Y-109485000D02*
X101500000Y-109485000D01*
X103450000Y-109485000D02*
X105400000Y-109485000D01*
%TO.C,C38*%
X116076252Y-101260000D02*
X115553748Y-101260000D01*
X116076252Y-99790000D02*
X115553748Y-99790000D01*
%TO.C,C13*%
X133084420Y-70597500D02*
X133365580Y-70597500D01*
X133084420Y-69577500D02*
X133365580Y-69577500D01*
%TO.C,C11*%
X126415580Y-56840000D02*
X126134420Y-56840000D01*
X126415580Y-57860000D02*
X126134420Y-57860000D01*
%TO.C,R42*%
X53485000Y-53814564D02*
X53485000Y-53360436D01*
X52015000Y-53814564D02*
X52015000Y-53360436D01*
%TO.C,R11*%
X110614564Y-56065000D02*
X110160436Y-56065000D01*
X110614564Y-57535000D02*
X110160436Y-57535000D01*
%TO.C,R43*%
X78585000Y-53360436D02*
X78585000Y-53814564D01*
X77115000Y-53360436D02*
X77115000Y-53814564D01*
%TO.C,U11*%
X99860000Y-83300000D02*
X99860000Y-85250000D01*
X94740000Y-83300000D02*
X94740000Y-81350000D01*
X94740000Y-83300000D02*
X94740000Y-86750000D01*
X99860000Y-83300000D02*
X99860000Y-81350000D01*
%TO.C,R5*%
X134935436Y-83365000D02*
X135389564Y-83365000D01*
X134935436Y-84835000D02*
X135389564Y-84835000D01*
%TO.C,R60*%
X109680000Y-90939564D02*
X109680000Y-90485436D01*
X111150000Y-90939564D02*
X111150000Y-90485436D01*
%TO.C,C7*%
X116210000Y-77265580D02*
X116210000Y-76984420D01*
X115190000Y-77265580D02*
X115190000Y-76984420D01*
%TO.C,U7*%
X124625000Y-68140000D02*
X122675000Y-68140000D01*
X124625000Y-73260000D02*
X128075000Y-73260000D01*
X124625000Y-73260000D02*
X122675000Y-73260000D01*
X124625000Y-68140000D02*
X126575000Y-68140000D01*
%TO.C,C3*%
X130460000Y-110471920D02*
X130460000Y-110753080D01*
X129440000Y-110471920D02*
X129440000Y-110753080D01*
%TO.C,R32*%
X97715000Y-105614564D02*
X97715000Y-105160436D01*
X99185000Y-105614564D02*
X99185000Y-105160436D01*
%TO.C,R46*%
X86585436Y-68515000D02*
X87039564Y-68515000D01*
X86585436Y-69985000D02*
X87039564Y-69985000D01*
%TO.C,R50*%
X78535000Y-63864564D02*
X78535000Y-63410436D01*
X77065000Y-63864564D02*
X77065000Y-63410436D01*
%TO.C,Q5*%
X101700000Y-91660000D02*
X101050000Y-91660000D01*
X100350000Y-88540000D02*
X102350000Y-88540000D01*
X101700000Y-91660000D02*
X102350000Y-91660000D01*
X102350000Y-88540000D02*
X102350000Y-89400000D01*
X102350000Y-90800000D02*
X102350000Y-91660000D01*
%TO.C,C5*%
X134690580Y-88310000D02*
X134409420Y-88310000D01*
X134690580Y-87290000D02*
X134409420Y-87290000D01*
%TO.C,C22*%
X96465580Y-70510000D02*
X96184420Y-70510000D01*
X96465580Y-69490000D02*
X96184420Y-69490000D01*
%TO.C,R18*%
X136702064Y-74222500D02*
X136247936Y-74222500D01*
X136702064Y-72752500D02*
X136247936Y-72752500D01*
%TO.C,C15*%
X130110000Y-60965580D02*
X130110000Y-60684420D01*
X129090000Y-60965580D02*
X129090000Y-60684420D01*
%TO.C,U18*%
X116775000Y-94075000D02*
X116775000Y-96025000D01*
X116775000Y-94075000D02*
X116775000Y-90625000D01*
X111655000Y-94075000D02*
X111655000Y-96025000D01*
X111655000Y-94075000D02*
X111655000Y-92125000D01*
%TO.C,R1*%
X123322936Y-104427500D02*
X123777064Y-104427500D01*
X123322936Y-105897500D02*
X123777064Y-105897500D01*
%TO.C,C34*%
X78360000Y-72640580D02*
X78360000Y-72359420D01*
X77340000Y-72640580D02*
X77340000Y-72359420D01*
%TO.C,D2*%
X133350000Y-105450000D02*
X133350000Y-101550000D01*
X133350000Y-105450000D02*
X135350000Y-105450000D01*
X135350000Y-105450000D02*
X135350000Y-101550000D01*
%TO.C,R37*%
X92435000Y-62414564D02*
X92435000Y-61960436D01*
X90965000Y-62414564D02*
X90965000Y-61960436D01*
%TO.C,R9*%
X131347936Y-80515000D02*
X131802064Y-80515000D01*
X131347936Y-81985000D02*
X131802064Y-81985000D01*
%TO.C,R13*%
X109460436Y-71035000D02*
X109914564Y-71035000D01*
X109460436Y-69565000D02*
X109914564Y-69565000D01*
%TO.C,R58*%
X116485000Y-58814564D02*
X116485000Y-58360436D01*
X115015000Y-58814564D02*
X115015000Y-58360436D01*
%TO.C,R56*%
X52985000Y-68114564D02*
X52985000Y-67660436D01*
X51515000Y-68114564D02*
X51515000Y-67660436D01*
%TO.C,U1*%
X125375000Y-111757500D02*
X123425000Y-111757500D01*
X125375000Y-106637500D02*
X127325000Y-106637500D01*
X125375000Y-111757500D02*
X128825000Y-111757500D01*
X125375000Y-106637500D02*
X123425000Y-106637500D01*
%TO.C,R12*%
X107160436Y-73965000D02*
X107614564Y-73965000D01*
X107160436Y-75435000D02*
X107614564Y-75435000D01*
%TO.C,TP2*%
X40630000Y-79700000D02*
X45530000Y-79700000D01*
X45530000Y-79700000D02*
X45530000Y-77300000D01*
X45530000Y-77300000D02*
X40630000Y-77300000D01*
X40630000Y-77300000D02*
X40630000Y-79700000D01*
%TO.C,Q2*%
X126335000Y-82250000D02*
X126335000Y-81600000D01*
X123215000Y-81600000D02*
X124075000Y-81600000D01*
X123215000Y-83600000D02*
X123215000Y-81600000D01*
X125475000Y-81600000D02*
X126335000Y-81600000D01*
X126335000Y-82250000D02*
X126335000Y-82900000D01*
%TO.C,R21*%
X129940000Y-70760436D02*
X129940000Y-71214564D01*
X131410000Y-70760436D02*
X131410000Y-71214564D01*
%TO.C,R47*%
X83110436Y-69985000D02*
X83564564Y-69985000D01*
X83110436Y-68515000D02*
X83564564Y-68515000D01*
%TO.C,C2*%
X123815580Y-113160000D02*
X123534420Y-113160000D01*
X123815580Y-112140000D02*
X123534420Y-112140000D01*
%TO.C,R17*%
X131410000Y-74160436D02*
X131410000Y-74614564D01*
X129940000Y-74160436D02*
X129940000Y-74614564D01*
%TO.C,C29*%
X88810000Y-65059420D02*
X88810000Y-65340580D01*
X87790000Y-65059420D02*
X87790000Y-65340580D01*
%TO.C,C37*%
X115010000Y-85634420D02*
X115010000Y-85915580D01*
X113990000Y-85634420D02*
X113990000Y-85915580D01*
%TO.C,U3*%
X122875000Y-88815000D02*
X119425000Y-88815000D01*
X122875000Y-97685000D02*
X120925000Y-97685000D01*
X122875000Y-97685000D02*
X124825000Y-97685000D01*
X122875000Y-88815000D02*
X124825000Y-88815000D01*
%TO.C,C17*%
X98960000Y-108621920D02*
X98960000Y-108903080D01*
X97940000Y-108621920D02*
X97940000Y-108903080D01*
%TO.C,C1*%
X131240000Y-102184420D02*
X131240000Y-102465580D01*
X132260000Y-102184420D02*
X132260000Y-102465580D01*
%TO.C,R57*%
X100115000Y-95717936D02*
X100115000Y-96172064D01*
X101585000Y-95717936D02*
X101585000Y-96172064D01*
%TO.C,R52*%
X83689564Y-60235000D02*
X83235436Y-60235000D01*
X83689564Y-58765000D02*
X83235436Y-58765000D01*
%TO.C,Q1*%
X134425000Y-82810000D02*
X134425000Y-81950000D01*
X135075000Y-79690000D02*
X135725000Y-79690000D01*
X134425000Y-80550000D02*
X134425000Y-79690000D01*
X135075000Y-79690000D02*
X134425000Y-79690000D01*
X136425000Y-82810000D02*
X134425000Y-82810000D01*
%TO.C,U13*%
X83425000Y-67732500D02*
X81475000Y-67732500D01*
X83425000Y-62612500D02*
X85375000Y-62612500D01*
X83425000Y-62612500D02*
X79975000Y-62612500D01*
X83425000Y-67732500D02*
X85375000Y-67732500D01*
%TO.C,R54*%
X62989564Y-81965000D02*
X62535436Y-81965000D01*
X62989564Y-83435000D02*
X62535436Y-83435000D01*
%TO.C,C24*%
X80410000Y-53584420D02*
X80410000Y-53865580D01*
X79390000Y-53584420D02*
X79390000Y-53865580D01*
%TO.C,R31*%
X131015000Y-60460436D02*
X131015000Y-60914564D01*
X132485000Y-60460436D02*
X132485000Y-60914564D01*
%TO.C,R8*%
X111335000Y-67814564D02*
X111335000Y-67360436D01*
X109865000Y-67814564D02*
X109865000Y-67360436D01*
%TO.C,R15*%
X127885436Y-77365000D02*
X128339564Y-77365000D01*
X127885436Y-78835000D02*
X128339564Y-78835000D01*
%TO.C,C12*%
X133059420Y-73997500D02*
X133340580Y-73997500D01*
X133059420Y-72977500D02*
X133340580Y-72977500D01*
%TO.C,U8*%
X124550000Y-63410000D02*
X122600000Y-63410000D01*
X124550000Y-58290000D02*
X126500000Y-58290000D01*
X124550000Y-58290000D02*
X121100000Y-58290000D01*
X124550000Y-63410000D02*
X126500000Y-63410000D01*
%TO.C,R16*%
X110160436Y-54165000D02*
X110614564Y-54165000D01*
X110160436Y-55635000D02*
X110614564Y-55635000D01*
%TO.C,R2*%
X126872936Y-105897500D02*
X127327064Y-105897500D01*
X126872936Y-104427500D02*
X127327064Y-104427500D01*
%TO.C,R36*%
X102035000Y-83577064D02*
X102035000Y-83122936D01*
X100565000Y-83577064D02*
X100565000Y-83122936D01*
%TO.C,J4*%
X46092500Y-69355000D02*
X46092500Y-71065000D01*
X36672500Y-74825000D02*
X46092500Y-74825000D01*
X46092500Y-65545000D02*
X46092500Y-67255000D01*
X36672500Y-61785000D02*
X36672500Y-74825000D01*
X47382500Y-64195000D02*
X47382500Y-64795000D01*
X46782500Y-64495000D02*
X47382500Y-64195000D01*
X46092500Y-61785000D02*
X46092500Y-63445000D01*
X46092500Y-61785000D02*
X36672500Y-61785000D01*
X47382500Y-64795000D02*
X46782500Y-64495000D01*
X46092500Y-74825000D02*
X46092500Y-73165000D01*
X39982500Y-61785000D02*
X39982500Y-74825000D01*
%TO.C,Q4*%
X96640000Y-91400000D02*
X96640000Y-89400000D01*
X96640000Y-89400000D02*
X97500000Y-89400000D01*
X98900000Y-89400000D02*
X99760000Y-89400000D01*
X99760000Y-90050000D02*
X99760000Y-90700000D01*
X99760000Y-90050000D02*
X99760000Y-89400000D01*
%TO.C,JP1*%
X96670000Y-100730000D02*
X99330000Y-100730000D01*
X96670000Y-94320000D02*
X96670000Y-92990000D01*
X96670000Y-95590000D02*
X96670000Y-100730000D01*
X96670000Y-92990000D02*
X98000000Y-92990000D01*
X96670000Y-95590000D02*
X99330000Y-95590000D01*
X99330000Y-95590000D02*
X99330000Y-100730000D01*
%TO.C,U17*%
X110440000Y-85400000D02*
X110440000Y-84600000D01*
X113560000Y-85400000D02*
X113560000Y-86200000D01*
X110440000Y-85400000D02*
X110440000Y-86200000D01*
X113560000Y-85400000D02*
X113560000Y-83600000D01*
%TO.C,U14*%
X110550000Y-63160000D02*
X108600000Y-63160000D01*
X110550000Y-63160000D02*
X114000000Y-63160000D01*
X110550000Y-58040000D02*
X108600000Y-58040000D01*
X110550000Y-58040000D02*
X112500000Y-58040000D01*
%TO.C,D4*%
X57900000Y-49100000D02*
X57900000Y-54500000D01*
X57900000Y-49100000D02*
X54600000Y-49100000D01*
X54600000Y-49100000D02*
X54600000Y-54500000D01*
%TO.C,C26*%
X74960000Y-57990580D02*
X74960000Y-57709420D01*
X73940000Y-57990580D02*
X73940000Y-57709420D01*
%TO.C,R38*%
X105335000Y-61922936D02*
X105335000Y-62377064D01*
X103865000Y-61922936D02*
X103865000Y-62377064D01*
%TO.C,C6*%
X141165580Y-90240000D02*
X140884420Y-90240000D01*
X141165580Y-91260000D02*
X140884420Y-91260000D01*
%TO.C,R27*%
X120285000Y-62622936D02*
X120285000Y-63077064D01*
X118815000Y-62622936D02*
X118815000Y-63077064D01*
%TO.C,R40*%
X94827064Y-78035000D02*
X94372936Y-78035000D01*
X94827064Y-76565000D02*
X94372936Y-76565000D01*
%TO.C,R41*%
X100335000Y-73372936D02*
X100335000Y-73827064D01*
X98865000Y-73372936D02*
X98865000Y-73827064D01*
%TO.C,U6*%
X109540000Y-75400000D02*
X109540000Y-73450000D01*
X114660000Y-75400000D02*
X114660000Y-71950000D01*
X114660000Y-75400000D02*
X114660000Y-77350000D01*
X109540000Y-75400000D02*
X109540000Y-77350000D01*
%TO.C,C36*%
X104077500Y-72334420D02*
X104077500Y-72615580D01*
X105097500Y-72334420D02*
X105097500Y-72615580D01*
%TO.C,R59*%
X109150000Y-94364564D02*
X109150000Y-93910436D01*
X107680000Y-94364564D02*
X107680000Y-93910436D01*
%TO.C,C33*%
X54560000Y-69615580D02*
X54560000Y-69334420D01*
X53540000Y-69615580D02*
X53540000Y-69334420D01*
%TO.C,R25*%
X132614564Y-68735000D02*
X132160436Y-68735000D01*
X132614564Y-67265000D02*
X132160436Y-67265000D01*
%TO.C,R34*%
X78585000Y-69514564D02*
X78585000Y-69060436D01*
X77115000Y-69514564D02*
X77115000Y-69060436D01*
%TO.C,C27*%
X75440000Y-63484420D02*
X75440000Y-63765580D01*
X76460000Y-63484420D02*
X76460000Y-63765580D01*
%TO.C,C16*%
X105265580Y-99090000D02*
X104984420Y-99090000D01*
X105265580Y-100110000D02*
X104984420Y-100110000D01*
%TO.C,D9*%
X108837500Y-49550000D02*
X112737500Y-49550000D01*
X108837500Y-49550000D02*
X108837500Y-51550000D01*
X108837500Y-51550000D02*
X112737500Y-51550000D01*
%TO.C,C32*%
X64385000Y-71434420D02*
X64385000Y-71715580D01*
X63365000Y-71434420D02*
X63365000Y-71715580D01*
%TO.C,R28*%
X118340000Y-70627064D02*
X118340000Y-70172936D01*
X119810000Y-70627064D02*
X119810000Y-70172936D01*
%TO.C,RV2*%
X89381000Y-50270000D02*
X94270000Y-50270000D01*
X86855000Y-45030000D02*
X96795000Y-45030000D01*
X88705000Y-44230000D02*
X94945000Y-44230000D01*
X88305000Y-45030000D02*
X95345000Y-45030000D01*
X86855000Y-49395000D02*
X86855000Y-45030000D01*
X88705000Y-35030000D02*
X94945000Y-35030000D01*
X96795000Y-49395000D02*
X96795000Y-45030000D01*
X88305000Y-44230000D02*
X95345000Y-44230000D01*
X88705000Y-44230000D02*
X88705000Y-35030000D01*
X95345000Y-45030000D02*
X95345000Y-44230000D01*
X88305000Y-45030000D02*
X88305000Y-44230000D01*
X94945000Y-44230000D02*
X94945000Y-35030000D01*
%TO.C,U2*%
X128390000Y-115150000D02*
X128390000Y-115950000D01*
X128390000Y-115150000D02*
X128390000Y-114350000D01*
X131510000Y-115150000D02*
X131510000Y-113350000D01*
X131510000Y-115150000D02*
X131510000Y-115950000D01*
%TO.C,C21*%
X88590000Y-72315580D02*
X88590000Y-72034420D01*
X89610000Y-72315580D02*
X89610000Y-72034420D01*
%TO.C,U4*%
X132875000Y-88815000D02*
X129425000Y-88815000D01*
X132875000Y-97685000D02*
X134825000Y-97685000D01*
X132875000Y-97685000D02*
X130925000Y-97685000D01*
X132875000Y-88815000D02*
X134825000Y-88815000D01*
%TO.C,TP3*%
X104400000Y-113050000D02*
X109300000Y-113050000D01*
X109300000Y-113050000D02*
X109300000Y-110650000D01*
X109300000Y-110650000D02*
X104400000Y-110650000D01*
X104400000Y-110650000D02*
X104400000Y-113050000D01*
%TO.C,R7*%
X113435000Y-67385436D02*
X113435000Y-67839564D01*
X111965000Y-67385436D02*
X111965000Y-67839564D01*
%TO.C,R55*%
X51515000Y-71414564D02*
X51515000Y-70960436D01*
X52985000Y-71414564D02*
X52985000Y-70960436D01*
%TO.C,J1*%
X145367500Y-108060000D02*
X145367500Y-98830000D01*
X139257500Y-104300000D02*
X139257500Y-102590000D01*
X139257500Y-108060000D02*
X148677500Y-108060000D01*
X137967500Y-105050000D02*
X138567500Y-105350000D01*
X139257500Y-108060000D02*
X139257500Y-106400000D01*
X137967500Y-105650000D02*
X137967500Y-105050000D01*
X138567500Y-105350000D02*
X137967500Y-105650000D01*
X148677500Y-98830000D02*
X139257500Y-98830000D01*
X139257500Y-98830000D02*
X139257500Y-100490000D01*
X148677500Y-108060000D02*
X148677500Y-98830000D01*
%TO.C,R19*%
X107315000Y-78147936D02*
X107315000Y-78602064D01*
X108785000Y-78147936D02*
X108785000Y-78602064D01*
%TO.C,R26*%
X124397936Y-67635000D02*
X124852064Y-67635000D01*
X124397936Y-66165000D02*
X124852064Y-66165000D01*
%TO.C,R10*%
X127897936Y-80515000D02*
X128352064Y-80515000D01*
X127897936Y-81985000D02*
X128352064Y-81985000D01*
%TO.C,C4*%
X124740580Y-88360000D02*
X124459420Y-88360000D01*
X124740580Y-87340000D02*
X124459420Y-87340000D01*
%TO.C,R61*%
X109680000Y-93885436D02*
X109680000Y-94339564D01*
X111150000Y-93885436D02*
X111150000Y-94339564D01*
%TO.C,R14*%
X131347936Y-77365000D02*
X131802064Y-77365000D01*
X131347936Y-78835000D02*
X131802064Y-78835000D01*
%TO.C,D3*%
X76100000Y-49100000D02*
X76100000Y-54500000D01*
X72800000Y-49100000D02*
X72800000Y-54500000D01*
X76100000Y-49100000D02*
X72800000Y-49100000D01*
%TO.C,TP1*%
X121130000Y-115100000D02*
X121130000Y-117500000D01*
X121130000Y-117500000D02*
X126030000Y-117500000D01*
X126030000Y-117500000D02*
X126030000Y-115100000D01*
X126030000Y-115100000D02*
X121130000Y-115100000D01*
%TO.C,R30*%
X130335000Y-63885436D02*
X130335000Y-64339564D01*
X128865000Y-63885436D02*
X128865000Y-64339564D01*
%TO.C,R48*%
X72772936Y-63665000D02*
X73227064Y-63665000D01*
X72772936Y-65135000D02*
X73227064Y-65135000D01*
%TD*%
M02*
