M48
; DRILL file {KiCad 6.0.7-f9a2dced07~116~ubuntu20.04.1} date Sun 02 Oct 2022 03:00:37 AM EDT
; FORMAT={-:-/ absolute / metric / decimal}
; #@! TF.CreationDate,2022-10-02T03:00:37-04:00
; #@! TF.GenerationSoftware,Kicad,Pcbnew,6.0.7-f9a2dced07~116~ubuntu20.04.1
; #@! TF.FileFunction,Plated,1,4,PTH
FMAT,2
METRIC
; #@! TA.AperFunction,Plated,PTH,ViaDrill
T1C0.400
; #@! TA.AperFunction,Plated,PTH,ComponentDrill
T2C1.200
; #@! TA.AperFunction,Plated,PTH,ComponentDrill
T3C1.400
; #@! TA.AperFunction,Plated,PTH,ComponentDrill
T4C1.500
; #@! TA.AperFunction,Plated,PTH,ComponentDrill
T5C2.670
; #@! TA.AperFunction,Plated,PTH,ComponentDrill
T6C3.700
%
G90
G05
T1
X43.7Y-92.3
X45.25Y-99.1
X45.85Y-103.95
X49.1Y-104.55
X52.05Y-77.25
X52.7Y-83.4
X53.15Y-79.7
X53.75Y-73.35
X54.7Y-97.95
X54.887Y-96.537
X55.34Y-75.34
X55.35Y-64.9
X56.45Y-102.95
X57.2Y-80.5
X57.35Y-99.3
X57.9Y-75.2
X58.5Y-85.5
X59.85Y-98.3
X60.0Y-72.4
X60.8Y-64.9
X61.0Y-85.5
X63.5Y-85.5
X65.05Y-96.0
X66.0Y-85.5
X66.25Y-93.4
X66.6Y-99.8
X67.05Y-112.55
X67.05Y-113.4
X67.05Y-114.25
X68.05Y-101.75
X68.5Y-85.5
X69.0Y-78.2
X71.0Y-85.5
X71.95Y-76.8
X72.5Y-86.85
X72.5Y-89.35
X72.5Y-91.85
X72.6Y-109.45
X72.6Y-111.95
X72.6Y-114.45
X72.6Y-116.95
X72.6Y-119.45
X72.6Y-121.9
X72.6Y-124.45
X72.6Y-126.95
X72.6Y-129.45
X72.6Y-131.95
X72.6Y-134.45
X72.6Y-136.95
X72.6Y-139.45
X73.1Y-100.55
X73.12Y-105.23
X73.12Y-106.2
X75.05Y-93.5
X75.35Y-139.45
X75.922Y-98.522
X76.0Y-97.25
X76.05Y-95.95
X76.7Y-102.65
X76.7Y-104.0
X78.2Y-139.45
X79.1Y-90.1
X80.7Y-139.45
X83.2Y-139.45
X86.15Y-110.9
X87.0Y-78.45
X87.4Y-109.8
X88.05Y-80.9
X88.85Y-73.55
X88.9Y-86.15
X88.95Y-111.95
X88.95Y-112.85
X89.8Y-112.4
X90.35Y-75.5
X90.4Y-65.0
X90.6Y-111.95
X90.6Y-112.85
X91.5Y-107.85
X91.5Y-108.85
X92.25Y-81.65
X92.95Y-74.4
X94.95Y-72.5
X95.2Y-99.2
X95.8Y-65.0
X96.162Y-106.0
X96.35Y-123.05
X97.35Y-108.438
X97.75Y-139.45
X98.05Y-122.9
X98.15Y-133.6
X98.35Y-100.15
X99.3Y-121.25
X99.462Y-97.55
X99.5Y-125.55
X99.662Y-101.85
X100.1Y-109.7
X100.25Y-139.45
X101.1Y-86.75
X101.35Y-109.35
X101.8Y-120.25
X101.9Y-70.4
X101.962Y-96.45
X102.75Y-139.45
X102.9Y-69.4
X103.35Y-101.1
X103.75Y-103.45
X103.75Y-108.5
X103.9Y-107.25
X104.15Y-116.75
X104.3Y-68.0
X104.45Y-135.0
X104.75Y-122.1
X105.25Y-139.45
X105.3Y-72.35
X105.35Y-117.8
X105.45Y-111.9
X105.6Y-66.7
X106.35Y-121.25
X106.45Y-114.05
X106.6Y-125.55
X106.862Y-91.25
X107.05Y-65.25
X107.3Y-72.3
X107.75Y-139.45
X107.95Y-101.75
X108.15Y-64.15
X108.25Y-73.0
X108.887Y-120.262
X108.9Y-113.05
X109.362Y-90.3
X109.55Y-60.75
X109.55Y-62.35
X110.15Y-124.8
X110.25Y-139.45
X110.262Y-87.7
X110.35Y-58.5
X110.35Y-59.35
X110.35Y-60.25
X110.4Y-100.7
X110.4Y-117.7
X110.6Y-63.45
X110.85Y-74.0
X111.65Y-106.6
X111.7Y-80.638
X111.9Y-76.45
X112.0Y-108.5
X112.75Y-139.45
X113.4Y-116.25
X114.5Y-88.65
X115.25Y-139.45
X116.2Y-78.6
X117.65Y-72.95
X117.75Y-139.45
X131.3Y-139.45
X133.8Y-139.45
X136.3Y-139.45
X138.8Y-139.45
X141.3Y-139.45
X141.6Y-78.1
X142.4Y-74.4
X142.7Y-80.6
X143.375Y-86.275
X143.8Y-139.45
X144.9Y-64.95
X144.9Y-75.3
X144.95Y-135.0
X146.3Y-139.45
X146.7Y-81.4
X147.45Y-76.5
X148.8Y-139.45
X149.5Y-72.35
X150.25Y-64.95
X151.3Y-139.45
X151.9Y-132.85
X153.8Y-139.45
X156.3Y-139.45
X158.5Y-78.25
X158.8Y-139.45
X161.3Y-139.45
X161.45Y-76.8
X163.8Y-139.45
X166.3Y-139.45
X168.8Y-139.45
X171.3Y-139.45
X173.8Y-139.45
X176.262Y-77.662
X176.3Y-139.45
X177.4Y-80.15
X178.2Y-73.5
X178.25Y-85.5
X178.8Y-139.45
X179.7Y-64.9
X179.71Y-75.54
X181.3Y-139.45
X181.65Y-81.0
X182.25Y-76.45
X183.8Y-139.45
X184.1Y-85.35
X184.25Y-72.4
X185.2Y-64.9
X186.3Y-139.45
X186.55Y-72.25
X188.8Y-139.45
X188.85Y-73.45
X189.65Y-89.9
X190.65Y-71.2
X191.05Y-72.5
X191.3Y-139.45
X192.0Y-73.15
X192.15Y-69.7
X192.15Y-88.9
X193.05Y-86.3
X193.6Y-68.25
X193.8Y-139.45
X194.55Y-74.0
X194.75Y-80.65
X195.2Y-66.65
X195.55Y-76.55
X196.3Y-96.95
X196.3Y-99.45
X196.3Y-101.95
X196.3Y-104.45
X196.3Y-106.95
X196.3Y-109.45
X196.3Y-111.95
X196.3Y-114.45
X196.3Y-116.95
X196.3Y-119.45
X196.3Y-121.95
X196.3Y-124.45
X196.3Y-126.95
X196.3Y-129.45
X196.3Y-131.95
X196.3Y-134.45
X196.3Y-136.95
X196.3Y-139.45
X196.65Y-65.2
X197.75Y-88.85
X197.8Y-95.4
X197.85Y-64.0
X198.9Y-57.85
X198.9Y-60.65
X198.9Y-61.65
X198.95Y-63.25
X199.35Y-79.05
X199.9Y-58.35
X199.9Y-59.3
X199.9Y-60.25
X200.35Y-95.4
X202.85Y-95.4
X205.2Y-92.1
X205.2Y-93.1
X205.2Y-94.05
X205.2Y-95.0
X206.15Y-92.1
X207.25Y-92.1
X208.35Y-92.1
X209.4Y-92.1
X210.45Y-92.1
X210.65Y-49.0
X210.65Y-50.25
X210.65Y-51.5
X210.65Y-52.75
X210.65Y-54.0
X210.65Y-55.25
X210.65Y-56.5
X210.65Y-57.75
X210.65Y-59.0
X210.65Y-60.25
X210.65Y-61.5
X210.65Y-62.75
X210.65Y-64.0
X210.65Y-65.25
T2
X34.782Y-92.727
X34.782Y-96.537
X34.782Y-100.347
X34.782Y-104.157
X207.5Y-117.18
X208.2Y-77.29
X215.0Y-117.18
X215.7Y-77.29
X221.3Y-103.9
X226.3Y-70.95
X228.8Y-103.9
X233.8Y-70.95
T3
X36.8Y-114.51
X36.8Y-122.13
X36.8Y-129.75
X234.9Y-40.33
X234.9Y-47.95
X234.9Y-55.57
X234.9Y-114.36
X234.9Y-121.98
X234.9Y-129.6
T4
X48.442Y-129.05
X48.442Y-139.8
X57.05Y-55.42
X62.5Y-55.42
X67.95Y-55.42
X86.942Y-131.8
X86.942Y-139.8
X92.05Y-55.42
X97.5Y-55.42
X102.95Y-55.42
X146.55Y-55.32
X152.0Y-55.32
X157.45Y-55.32
X181.55Y-55.32
X187.0Y-55.32
X192.45Y-55.32
T5
X44.53Y-50.0
X115.47Y-50.0
X134.03Y-49.9
X204.97Y-49.9
T6
X35.0Y-30.0
X35.0Y-140.0
X125.0Y-30.0
X125.0Y-140.0
X235.0Y-30.0
X235.0Y-140.0
T0
M30
