%TF.GenerationSoftware,KiCad,Pcbnew,6.0.7-f9a2dced07~116~ubuntu20.04.1*%
%TF.CreationDate,2022-10-02T03:00:25-04:00*%
%TF.ProjectId,SSTC_Full_Bridge_Driver,53535443-5f46-4756-9c6c-5f4272696467,rev?*%
%TF.SameCoordinates,Original*%
%TF.FileFunction,Soldermask,Bot*%
%TF.FilePolarity,Negative*%
%FSLAX46Y46*%
G04 Gerber Fmt 4.6, Leading zero omitted, Abs format (unit mm)*
G04 Created by KiCad (PCBNEW 6.0.7-f9a2dced07~116~ubuntu20.04.1) date 2022-10-02 03:00:25*
%MOMM*%
%LPD*%
G01*
G04 APERTURE LIST*
G04 Aperture macros list*
%AMRoundRect*
0 Rectangle with rounded corners*
0 $1 Rounding radius*
0 $2 $3 $4 $5 $6 $7 $8 $9 X,Y pos of 4 corners*
0 Add a 4 corners polygon primitive as box body*
4,1,4,$2,$3,$4,$5,$6,$7,$8,$9,$2,$3,0*
0 Add four circle primitives for the rounded corners*
1,1,$1+$1,$2,$3*
1,1,$1+$1,$4,$5*
1,1,$1+$1,$6,$7*
1,1,$1+$1,$8,$9*
0 Add four rect primitives between the rounded corners*
20,1,$1+$1,$2,$3,$4,$5,0*
20,1,$1+$1,$4,$5,$6,$7,0*
20,1,$1+$1,$6,$7,$8,$9,0*
20,1,$1+$1,$8,$9,$2,$3,0*%
G04 Aperture macros list end*
%ADD10R,2.400000X2.400000*%
%ADD11C,2.400000*%
%ADD12C,7.400000*%
%ADD13RoundRect,0.250001X1.549999X-0.799999X1.549999X0.799999X-1.549999X0.799999X-1.549999X-0.799999X0*%
%ADD14O,3.600000X2.100000*%
%ADD15R,2.500000X4.500000*%
%ADD16O,2.500000X4.500000*%
%ADD17R,3.000000X3.000000*%
%ADD18C,3.000000*%
%ADD19C,5.000000*%
%ADD20RoundRect,0.250001X-1.549999X0.799999X-1.549999X-0.799999X1.549999X-0.799999X1.549999X0.799999X0*%
%ADD21RoundRect,0.250000X-1.550000X0.650000X-1.550000X-0.650000X1.550000X-0.650000X1.550000X0.650000X0*%
%ADD22O,3.600000X1.800000*%
G04 APERTURE END LIST*
D10*
%TO.C,C1*%
X228800000Y-103900000D03*
D11*
X221300000Y-103900000D03*
%TD*%
D12*
%TO.C,H5*%
X125000000Y-140000000D03*
%TD*%
D13*
%TO.C,J2*%
X234900000Y-129600000D03*
D14*
X234900000Y-121980000D03*
X234900000Y-114360000D03*
%TD*%
D10*
%TO.C,C6*%
X233800000Y-70950000D03*
D11*
X226300000Y-70950000D03*
%TD*%
D15*
%TO.C,Q2*%
X92050000Y-55420000D03*
D16*
X97500000Y-55420000D03*
X102950000Y-55420000D03*
%TD*%
D15*
%TO.C,Q4*%
X181550000Y-55320000D03*
D16*
X187000000Y-55320000D03*
X192450000Y-55320000D03*
%TD*%
D17*
%TO.C,PS1*%
X48442500Y-129050000D03*
D18*
X48442500Y-139800000D03*
X86942500Y-139800000D03*
X86942500Y-131800000D03*
%TD*%
D19*
%TO.C,HS1*%
X44530000Y-50000000D03*
X115470000Y-50000000D03*
%TD*%
D12*
%TO.C,H2*%
X125000000Y-30000000D03*
%TD*%
%TO.C,H3*%
X235000000Y-30000000D03*
%TD*%
D10*
%TO.C,C7*%
X215700000Y-77290000D03*
D11*
X208200000Y-77290000D03*
%TD*%
D20*
%TO.C,J3*%
X36800000Y-114510000D03*
D14*
X36800000Y-122130000D03*
X36800000Y-129750000D03*
%TD*%
D12*
%TO.C,H6*%
X35000000Y-140000000D03*
%TD*%
D15*
%TO.C,Q1*%
X57050000Y-55420000D03*
D16*
X62500000Y-55420000D03*
X67950000Y-55420000D03*
%TD*%
D19*
%TO.C,HS2*%
X134030000Y-49900000D03*
X204970000Y-49900000D03*
%TD*%
D13*
%TO.C,J6*%
X234900000Y-55570000D03*
D14*
X234900000Y-47950000D03*
X234900000Y-40330000D03*
%TD*%
D12*
%TO.C,H4*%
X235000000Y-140000000D03*
%TD*%
D15*
%TO.C,Q3*%
X146550000Y-55320000D03*
D16*
X152000000Y-55320000D03*
X157450000Y-55320000D03*
%TD*%
D12*
%TO.C,H1*%
X35000000Y-30000000D03*
%TD*%
D10*
%TO.C,C2*%
X215000000Y-117180000D03*
D11*
X207500000Y-117180000D03*
%TD*%
D21*
%TO.C,J1*%
X34782500Y-92727500D03*
D22*
X34782500Y-96537500D03*
X34782500Y-100347500D03*
X34782500Y-104157500D03*
%TD*%
M02*
